<?xml version="1.0" encoding="UTF-8"?>
<svg id="payment_methods_badges" data-name="payment methods badges" xmlns="http://www.w3.org/2000/svg" viewBox="0 0 940.72 592.13">
  <defs>
    <style>
      .cls-1 {
        fill: #fff;
      }

      .cls-2 {
        fill: #6772e5;
      }
    </style>
  </defs>
  <g id="stripe">
    <rect class="cls-1" x="0" y="0" width="940.72" height="592.13" rx="61.52" ry="61.52"/>
    <path class="cls-2" d="M179.89,265.65c0-7.32,6.01-10.14,15.96-10.14,14.27,0,32.3,4.32,46.57,12.02v-44.12c-15.58-6.2-30.98-8.64-46.57-8.64-38.12,0-63.46,19.9-63.46,53.14,0,51.82,71.35,43.56,71.35,65.9,0,8.64-7.51,11.45-18.03,11.45-15.58,0-35.49-6.38-51.26-15.02v44.69c17.46,7.51,35.11,10.7,51.26,10.7,39.05,0,65.9-19.34,65.9-52.95-.19-55.95-71.73-46-71.73-67.03ZM306.82,177.21l-45.81,9.76-.19,150.4c0,27.79,20.84,48.26,48.63,48.26,15.4,0,26.66-2.82,32.86-6.2v-38.12c-6.01,2.44-35.68,11.08-35.68-16.71v-66.66h35.68v-39.99h-35.68l.19-40.74ZM400.7,231.85l-3-13.89h-40.56v164.29h46.94v-111.34c11.08-14.46,29.85-11.83,35.68-9.76v-43.19c-6.01-2.25-27.98-6.38-39.05,13.89ZM451.21,217.96h47.13v164.29h-47.13v-164.29ZM451.21,203.69l47.13-10.14v-38.12l-47.13,9.95v38.3ZM596.35,214.76c-18.4,0-30.23,8.64-36.8,14.65l-2.44-11.64h-41.31v218.93l46.94-9.95.19-53.14c6.76,4.88,16.71,11.83,33.23,11.83,33.61,0,64.22-27.04,64.22-86.56-.19-54.45-31.17-84.12-64.03-84.12ZM585.08,344.13c-11.08,0-17.65-3.94-22.16-8.82l-.19-69.66c4.88-5.45,11.64-9.2,22.34-9.2,17.09,0,28.92,19.15,28.92,43.75s-11.64,43.94-28.92,43.94ZM808.33,300.76c0-48.07-23.28-86-67.78-86s-71.73,37.93-71.73,85.62c0,56.52,31.92,85.06,77.73,85.06,22.34,0,39.24-5.07,52.01-12.2v-37.55c-12.77,6.38-27.41,10.33-46,10.33s-34.36-6.38-36.43-28.54h91.82c0-2.44.38-12.2.38-16.71ZM715.58,282.92c0-21.22,12.96-30.04,24.78-30.04s23.66,8.82,23.66,30.04h-48.44Z"/>
  </g>
</svg>