<?xml version="1.0" encoding="UTF-8"?>
<svg id="payment_methods_badges" data-name="payment methods badges" xmlns="http://www.w3.org/2000/svg" viewBox="0 0 940.72 592.13">
  <defs>
    <style>
      .cls-1 {
        fill: #fff;
      }

      .cls-2 {
        fill: #eb001b;
      }

      .cls-3 {
        fill: #ff5f00;
      }

      .cls-4 {
        fill: #1a1a1a;
      }

      .cls-5 {
        fill: #f79e1b;
      }
    </style>
  </defs>
  <g id="mastercard">
    <rect class="cls-1" x="0" y="0" width="940.72" height="592.13" rx="61.52" ry="61.52"/>
    <path class="cls-4" d="M302.37,515.16v-27.21c0-10.43-6.35-17.23-17.23-17.23-5.44,0-11.34,1.81-15.42,7.71-3.17-4.99-7.71-7.71-14.51-7.71-4.53,0-9.07,1.36-12.7,6.35v-5.44h-9.52v43.53h9.52v-24.03c0-7.71,4.08-11.34,10.43-11.34s9.52,4.08,9.52,11.34v24.03h9.52v-24.03c0-7.71,4.53-11.34,10.43-11.34,6.35,0,9.52,4.08,9.52,11.34v24.03h10.43ZM443.38,471.63h-15.42v-13.15h-9.52v13.15h-8.62v8.62h8.62v19.95c0,9.98,4.08,15.87,14.96,15.87,4.08,0,8.62-1.36,11.79-3.17l-2.72-8.16c-2.72,1.81-5.89,2.27-8.16,2.27-4.53,0-6.35-2.72-6.35-7.25v-19.5h15.42v-8.62h0ZM524.09,470.72c-5.44,0-9.07,2.72-11.34,6.35v-5.44h-9.52v43.53h9.52v-24.48c0-7.25,3.17-11.34,9.07-11.34,1.81,0,4.08.45,5.89.91l2.72-9.07c-1.81-.45-4.53-.45-6.35-.45h0ZM402.12,475.26c-4.53-3.17-10.88-4.53-17.68-4.53-10.88,0-18.14,5.44-18.14,14.06,0,7.25,5.44,11.34,14.96,12.7l4.53.45c4.99.91,7.71,2.27,7.71,4.53,0,3.17-3.63,5.44-9.98,5.44s-11.34-2.27-14.51-4.53l-4.53,7.25c4.99,3.63,11.79,5.44,18.59,5.44,12.7,0,19.95-5.89,19.95-14.06,0-7.71-5.89-11.79-14.96-13.15l-4.53-.45c-4.08-.45-7.25-1.36-7.25-4.08,0-3.17,3.17-4.99,8.16-4.99,5.44,0,10.88,2.27,13.6,3.63l4.08-7.71h0ZM655.13,470.72c-5.44,0-9.07,2.72-11.34,6.35v-5.44h-9.52v43.53h9.52v-24.48c0-7.25,3.17-11.34,9.07-11.34,1.81,0,4.08.45,5.89.91l2.72-9.07c-1.81-.45-4.53-.45-6.35-.45h0ZM533.61,493.39c0,13.15,9.07,22.67,23.12,22.67,6.35,0,10.88-1.36,15.42-4.99l-4.53-7.71c-3.63,2.72-7.25,4.08-11.34,4.08-7.71,0-13.15-5.44-13.15-14.06,0-8.16,5.44-13.6,13.15-14.06,4.08,0,7.71,1.36,11.34,4.08l4.53-7.71c-4.53-3.63-9.07-4.99-15.42-4.99-14.06,0-23.12,9.52-23.12,22.67h0ZM621.58,493.39v-21.76h-9.52v5.44c-3.17-4.08-7.71-6.35-13.6-6.35-12.24,0-21.76,9.52-21.76,22.67s9.52,22.67,21.76,22.67c6.35,0,10.88-2.27,13.6-6.35v5.44h9.52v-21.76ZM586.66,493.39c0-7.71,4.99-14.06,13.15-14.06,7.71,0,13.15,5.89,13.15,14.06,0,7.71-5.44,14.06-13.15,14.06-8.16-.45-13.15-6.35-13.15-14.06h0ZM472.85,470.72c-12.7,0-21.76,9.07-21.76,22.67s9.07,22.67,22.22,22.67c6.35,0,12.7-1.81,17.68-5.89l-4.53-6.8c-3.63,2.72-8.16,4.53-12.7,4.53-5.89,0-11.79-2.72-13.15-10.43h32.19v-3.63c.45-14.06-7.71-23.12-19.95-23.12h0ZM472.85,478.88c5.89,0,9.98,3.63,10.88,10.43h-22.67c.91-5.89,4.99-10.43,11.79-10.43h0ZM709.09,493.39v-38.99h-9.52v22.67c-3.17-4.08-7.71-6.35-13.6-6.35-12.24,0-21.76,9.52-21.76,22.67s9.52,22.67,21.76,22.67c6.35,0,10.88-2.27,13.6-6.35v5.44h9.52v-21.76ZM674.17,493.39c0-7.71,4.99-14.06,13.15-14.06,7.71,0,13.15,5.89,13.15,14.06,0,7.71-5.44,14.06-13.15,14.06-8.16-.45-13.15-6.35-13.15-14.06h0ZM355.87,493.39v-21.76h-9.52v5.44c-3.17-4.08-7.71-6.35-13.6-6.35-12.24,0-21.76,9.52-21.76,22.67s9.52,22.67,21.76,22.67c6.35,0,10.88-2.27,13.6-6.35v5.44h9.52v-21.76ZM320.5,493.39c0-7.71,4.99-14.06,13.15-14.06,7.71,0,13.15,5.89,13.15,14.06,0,7.71-5.44,14.06-13.15,14.06-8.16-.45-13.15-6.35-13.15-14.06Z"/>
    <rect class="cls-3" x="398.94" y="141.08" width="142.83" height="256.64"/>
    <path class="cls-2" d="M408.01,269.4c0-52.14,24.48-98.39,62.12-128.32-27.66-21.76-62.57-34.91-100.66-34.91-90.23,0-163.23,73-163.23,163.23s73,163.23,163.23,163.23c38.09,0,73-13.15,100.66-34.91-37.63-29.47-62.12-76.17-62.12-128.32Z"/>
    <path class="cls-5" d="M734.48,269.4c0,90.23-73,163.23-163.23,163.23-38.09,0-73-13.15-100.66-34.91,38.09-29.93,62.12-76.17,62.12-128.32s-24.48-98.39-62.12-128.32c27.66-21.76,62.57-34.91,100.66-34.91,90.23,0,163.23,73.45,163.23,163.23Z"/>
  </g>
</svg>