<svg width="150" height="150" viewBox="0 0 150 150" fill="none" xmlns="http://www.w3.org/2000/svg">
<path fill-rule="evenodd" clip-rule="evenodd" d="M74.9996 2.94578C35.2054 2.94578 2.94578 35.2054 2.94578 74.9996C2.94578 114.794 35.2054 147.053 74.9996 147.053C114.794 147.053 147.053 114.794 147.053 74.9996C147.053 35.2054 114.794 2.94578 74.9996 2.94578ZM0 74.9996C0 33.5785 33.5785 0 74.9996 0C116.421 0 149.999 33.5785 149.999 74.9996C149.999 116.421 116.421 149.999 74.9996 149.999C33.5785 149.999 0 116.421 0 74.9996Z" fill="white"/>
<path d="M38.2936 50.0159C39.8674 50.0159 41.0279 48.9135 41.0279 47.4049C41.0279 45.8963 39.8674 44.7939 38.2936 44.7939C36.7197 44.7939 35.5592 45.9035 35.5592 47.4049C35.5592 48.9063 36.7197 50.0159 38.2936 50.0159ZM38.2936 49.1891C37.2709 49.1891 36.5093 48.4421 36.5093 47.4049C36.5093 46.3678 37.2709 45.6207 38.2936 45.6207C39.3162 45.6207 40.0778 46.3678 40.0778 47.4049C40.0778 48.4421 39.3162 49.1891 38.2936 49.1891ZM46.4588 45.657V44.8664H42.7526V49.9434H43.6955V47.9996H46.147V47.2018H43.6955V45.657H46.4588ZM51.8022 45.657V44.8664H48.096V49.9434H49.0388V47.9996H51.4903V47.2018H49.0388V45.657H51.8022ZM53.4392 49.9434H54.3822V44.8664H53.4392V49.9434ZM58.8307 50.0159C59.6649 50.0159 60.3751 49.7186 60.8472 49.1674L60.2373 48.5872C59.8677 48.9933 59.4108 49.1891 58.8812 49.1891C57.8297 49.1891 57.0681 48.4493 57.0681 47.4049C57.0681 46.3605 57.8297 45.6207 58.8812 45.6207C59.4108 45.6207 59.8677 45.8165 60.2373 46.2155L60.8472 45.6425C60.3751 45.0913 59.6649 44.7939 58.8376 44.7939C57.2785 44.7939 56.118 45.8891 56.118 47.4049C56.118 48.9207 57.2785 50.0159 58.8307 50.0159ZM62.4754 49.9434H63.4182V44.8664H62.4754V49.9434ZM69.3175 49.9434H70.3039L68.0119 44.8664H67.0836L64.7992 49.9434H65.7711L66.2716 48.7684H68.8101L69.3175 49.9434ZM66.5908 48.0287L67.5405 45.8092L68.4979 48.0287H66.5908ZM71.6746 49.9434H75.2722V49.1456H72.6174V44.8664H71.6746V49.9434ZM85.0273 49.9434L85.0203 44.8664H84.2443L82.2638 48.2318L80.248 44.8664H79.472V49.9434H80.3712V46.6216L82.0395 49.3632H82.4597L84.128 46.5781L84.135 49.9434H85.0273ZM88.0669 49.1529V47.7531H90.5181V46.977H88.0669V45.657H90.8303V44.8664H87.1241V49.9434H90.9321V49.1529H88.0669ZM98.2636 49.9434L98.2567 44.8664H97.4807L95.5009 48.2318L93.4844 44.8664H92.7084V49.9434H93.6076V46.6216L95.2759 49.3632H95.6961L97.3644 46.5781L97.372 49.9434H98.2636ZM103.958 47.3034C104.35 47.093 104.611 46.7086 104.611 46.1865C104.611 45.3814 103.958 44.8664 102.74 44.8664H100.36V49.9434H102.884C104.19 49.9434 104.872 49.4357 104.872 48.5653C104.872 47.9054 104.502 47.4774 103.958 47.3034ZM102.638 45.6062C103.291 45.6062 103.66 45.8383 103.66 46.3097C103.66 46.7739 103.291 47.006 102.638 47.006H101.303V45.6062H102.638ZM102.826 49.2036H101.303V47.7385H102.826C103.537 47.7385 103.922 47.9634 103.922 48.4711C103.922 48.9788 103.537 49.2036 102.826 49.2036ZM107.547 49.1529V47.7531H109.998V46.977H107.547V45.657H110.309V44.8664H106.603V49.9434H110.411V49.1529H107.547ZM116.525 49.9434L115.357 48.2752C116.046 48.0069 116.438 47.4411 116.438 46.6723C116.438 45.5482 115.611 44.8664 114.277 44.8664H112.187V49.9434H113.13V48.4639H114.277C114.342 48.4639 114.407 48.4639 114.473 48.4566L115.509 49.9434H116.525ZM115.487 46.6723C115.487 47.3107 115.06 47.6878 114.233 47.6878H113.13V45.6642H114.233C115.06 45.6642 115.487 46.0341 115.487 46.6723Z" fill="white"/>
<path d="M51.7911 100.05C51.0556 100.05 50.4743 100.294 50.047 100.782C49.6228 101.268 49.4107 101.934 49.4107 102.78C49.4107 103.65 49.6151 104.324 50.0241 104.8C50.4361 105.273 51.022 105.51 51.782 105.51C52.2489 105.51 52.7814 105.426 53.3796 105.259V105.937C52.9157 106.11 52.3435 106.196 51.6629 106.196C50.6772 106.196 49.9158 105.899 49.3787 105.305C48.8446 104.71 48.5775 103.866 48.5775 102.77C48.5775 102.085 48.7057 101.485 48.9621 100.969C49.2214 100.454 49.5938 100.056 50.079 99.7772C50.5673 99.4982 51.1411 99.3584 51.8003 99.3584C52.5022 99.3584 53.1156 99.4858 53.6405 99.7405L53.3109 100.405C52.8044 100.168 52.2977 100.05 51.7911 100.05Z" fill="white"/>
<path d="M58.7286 103.609C58.7286 104.421 58.5226 105.057 58.1107 105.514C57.6986 105.969 57.1295 106.197 56.4031 106.197C55.9545 106.197 55.5562 106.092 55.2084 105.883C54.8604 105.673 54.5918 105.374 54.4027 104.982C54.2134 104.591 54.1188 104.133 54.1188 103.609C54.1188 102.795 54.3233 102.163 54.7322 101.711C55.1412 101.256 55.7088 101.029 56.4351 101.029C57.1371 101.029 57.6941 101.261 58.1061 101.725C58.5211 102.189 58.7286 102.817 58.7286 103.609ZM54.9062 103.609C54.9062 104.245 55.0344 104.731 55.2907 105.064C55.5471 105.398 55.924 105.565 56.4214 105.565C56.9189 105.565 57.2958 105.399 57.5521 105.068C57.8115 104.735 57.9413 104.248 57.9413 103.609C57.9413 102.974 57.8115 102.494 57.5521 102.166C57.2958 101.836 56.9158 101.67 56.4123 101.67C55.9149 101.67 55.5395 101.832 55.2862 102.157C55.0329 102.482 54.9062 102.965 54.9062 103.609Z" fill="white"/>
<path d="M66.1327 106.106V102.862C66.1327 102.465 66.0476 102.168 65.8766 101.971C65.7056 101.771 65.4405 101.67 65.0798 101.67C64.607 101.67 64.2574 101.805 64.0318 102.075C63.8061 102.345 63.6933 102.761 63.6933 103.322V106.106H62.9332V102.862C62.9332 102.465 62.8474 102.168 62.6764 101.971C62.5061 101.771 62.2389 101.67 61.8754 101.67C61.3992 101.67 61.0503 101.813 60.8274 102.098C60.6072 102.38 60.4979 102.844 60.4979 103.49V106.106H59.7378V101.12H60.356L60.4792 101.802H60.5159C60.6592 101.559 60.8606 101.37 61.1202 101.233C61.3826 101.097 61.6754 101.029 61.9993 101.029C62.7837 101.029 63.2959 101.311 63.5375 101.875H63.5742C63.7237 101.614 63.9404 101.408 64.2242 101.256C64.508 101.105 64.8313 101.029 65.1947 101.029C65.7624 101.029 66.186 101.175 66.4671 101.465C66.7509 101.753 66.8928 102.216 66.8928 102.853V106.106H66.1327Z" fill="white"/>
<path d="M74.5268 106.106V102.862C74.5268 102.465 74.441 102.168 74.27 101.971C74.099 101.771 73.8339 101.67 73.4739 101.67C73.0004 101.67 72.6508 101.805 72.4252 102.075C72.1995 102.345 72.0867 102.761 72.0867 103.322V106.106H71.3266V102.862C71.3266 102.465 71.2414 102.168 71.0705 101.971C70.8995 101.771 70.6323 101.67 70.2688 101.67C69.7933 101.67 69.4437 101.813 69.2208 102.098C69.0013 102.38 68.8913 102.844 68.8913 103.49V106.106H68.1312V101.12H68.7494L68.8733 101.802H68.9093C69.0533 101.559 69.2547 101.37 69.5136 101.233C69.776 101.097 70.0695 101.029 70.3928 101.029C71.1771 101.029 71.69 101.311 71.9309 101.875H71.9676C72.1171 101.614 72.3338 101.408 72.6176 101.256C72.9014 101.105 73.2247 101.029 73.5881 101.029C74.1558 101.029 74.5801 101.175 74.8605 101.465C75.1443 101.753 75.2862 102.216 75.2862 102.853V106.106H74.5268Z" fill="white"/>
<path d="M77.2473 101.119V104.353C77.2473 104.76 77.3408 105.063 77.5263 105.263C77.7125 105.463 78.0039 105.564 78.4013 105.564C78.926 105.564 79.3088 105.421 79.5497 105.136C79.7941 104.851 79.9159 104.385 79.9159 103.739V101.119H80.676V106.105H80.0488L79.9395 105.436H79.8979C79.7422 105.681 79.5255 105.87 79.2479 106C78.9731 106.131 78.6588 106.196 78.3051 106.196C77.6945 106.196 77.2369 106.052 76.9317 105.764C76.6291 105.476 76.4782 105.015 76.4782 104.381V101.119H77.2473Z" fill="white"/>
<path d="M85.3948 106.106V102.88C85.3948 102.474 85.3021 102.171 85.1159 101.971C84.9297 101.771 84.6382 101.67 84.2416 101.67C83.7168 101.67 83.332 101.811 83.0876 102.093C82.8439 102.376 82.7214 102.841 82.7214 103.49V106.106H81.962V101.12H82.5795L82.7034 101.802H82.7401C82.8958 101.557 83.1139 101.367 83.3943 101.233C83.6753 101.097 83.9882 101.029 84.3329 101.029C84.9373 101.029 85.3921 101.175 85.6974 101.465C86.0026 101.753 86.1549 102.216 86.1549 102.853V106.106H85.3948Z" fill="white"/>
<path d="M88.1531 106.101H87.3937V101.115H88.1531V106.101ZM87.3293 99.7637C87.3293 99.5907 87.3722 99.4647 87.4574 99.3858C87.5432 99.3041 87.6498 99.2632 87.7779 99.2632C87.8997 99.2632 88.0056 99.3041 88.0935 99.3858C88.1821 99.4681 88.2265 99.5941 88.2265 99.7637C88.2265 99.9333 88.1821 100.061 88.0935 100.146C88.0056 100.228 87.8997 100.268 87.7779 100.268C87.6498 100.268 87.5432 100.228 87.4574 100.146C87.3722 100.061 87.3293 99.9333 87.3293 99.7637Z" fill="white"/>
<path d="M91.4404 106.197C90.7135 106.197 90.1507 105.975 89.7506 105.533C89.354 105.087 89.156 104.457 89.156 103.645C89.156 102.81 89.3574 102.166 89.7603 101.711C90.1659 101.256 90.7426 101.029 91.4902 101.029C91.7318 101.029 91.9727 101.055 92.2136 101.106C92.4545 101.158 92.6442 101.218 92.7813 101.288L92.548 101.93C92.3797 101.863 92.197 101.808 91.9983 101.766C91.8003 101.72 91.6245 101.697 91.4722 101.697C90.4525 101.697 89.9431 102.344 89.9431 103.636C89.9431 104.248 90.067 104.718 90.3141 105.046C90.564 105.374 90.9337 105.537 91.4217 105.537C91.8398 105.537 92.269 105.448 92.7079 105.269V105.937C92.3721 106.11 91.9499 106.197 91.4404 106.197Z" fill="white"/>
<path d="M96.6604 106.104L96.5095 105.394H96.4728C96.2229 105.707 95.9723 105.918 95.7224 106.031C95.4753 106.14 95.1652 106.195 94.7928 106.195C94.2957 106.195 93.9046 106.067 93.6208 105.813C93.3404 105.558 93.1999 105.195 93.1999 104.725C93.1999 103.718 94.0105 103.19 95.6311 103.142L96.4825 103.115V102.805C96.4825 102.414 96.3967 102.126 96.2257 101.941C96.0582 101.753 95.7882 101.659 95.4158 101.659C94.9977 101.659 94.5242 101.786 93.9967 102.041L93.7627 101.463C94.0105 101.33 94.2805 101.225 94.5733 101.15C94.8696 101.073 95.1652 101.036 95.4615 101.036C96.0596 101.036 96.5019 101.168 96.7892 101.431C97.0786 101.695 97.2239 102.119 97.2239 102.701V106.104H96.6604ZM94.9444 105.572C95.4172 105.572 95.7882 105.443 96.0568 105.185C96.3282 104.927 96.4638 104.566 96.4638 104.102V103.651L95.7038 103.683C95.0994 103.705 94.6633 103.799 94.3947 103.966C94.1289 104.129 93.9967 104.386 93.9967 104.734C93.9967 105.007 94.0791 105.215 94.2438 105.358C94.4114 105.5 94.6453 105.572 94.9444 105.572Z" fill="white"/>
<path d="M100.085 105.571C100.22 105.571 100.349 105.562 100.474 105.543C100.6 105.523 100.699 105.501 100.772 105.48V106.058C100.69 106.097 100.568 106.129 100.406 106.153C100.247 106.18 100.103 106.194 99.9753 106.194C99.0048 106.194 98.5195 105.686 98.5195 104.67V101.704H97.801V101.34L98.5195 101.026L98.84 99.9618H99.2796V101.117H100.735V101.704H99.2796V104.638C99.2796 104.938 99.3516 105.169 99.4949 105.329C99.6382 105.491 99.8355 105.571 100.085 105.571Z" fill="white"/>
<path d="M102.21 106.101H101.45V101.115H102.21V106.101ZM101.385 99.7637C101.385 99.5907 101.428 99.4647 101.514 99.3858C101.599 99.3041 101.706 99.2632 101.834 99.2632C101.957 99.2632 102.062 99.3041 102.15 99.3858C102.238 99.4681 102.283 99.5941 102.283 99.7637C102.283 99.9333 102.238 100.061 102.15 100.146C102.062 100.228 101.957 100.268 101.834 100.268C101.706 100.268 101.599 100.228 101.514 100.146C101.428 100.061 101.385 99.9333 101.385 99.7637Z" fill="white"/>
<path d="M107.828 103.609C107.828 104.421 107.622 105.057 107.21 105.514C106.798 105.969 106.229 106.197 105.503 106.197C105.054 106.197 104.655 106.092 104.308 105.883C103.96 105.673 103.691 105.374 103.502 104.982C103.313 104.591 103.218 104.133 103.218 103.609C103.218 102.795 103.423 102.163 103.832 101.711C104.241 101.256 104.808 101.029 105.535 101.029C106.237 101.029 106.794 101.261 107.206 101.725C107.62 102.189 107.828 102.817 107.828 103.609ZM104.005 103.609C104.005 104.245 104.134 104.731 104.39 105.064C104.646 105.398 105.024 105.565 105.521 105.565C106.018 105.565 106.395 105.399 106.652 105.068C106.911 104.735 107.041 104.248 107.041 103.609C107.041 102.974 106.911 102.494 106.652 102.166C106.395 101.836 106.015 101.67 105.512 101.67C105.014 101.67 104.639 101.832 104.385 102.157C104.132 102.482 104.005 102.965 104.005 103.609Z" fill="white"/>
<path d="M112.267 106.106V102.88C112.267 102.474 112.174 102.171 111.987 101.971C111.802 101.771 111.51 101.67 111.113 101.67C110.588 101.67 110.204 101.811 109.96 102.093C109.716 102.376 109.594 102.841 109.594 103.49V106.106H108.834V101.12H109.452L109.575 101.802H109.612C109.767 101.557 109.985 101.367 110.267 101.233C110.548 101.097 110.86 101.029 111.205 101.029C111.81 101.029 112.264 101.175 112.569 101.465C112.874 101.753 113.027 102.216 113.027 102.853V106.106H112.267Z" fill="white"/>
<path d="M117.502 104.746C117.502 105.21 117.327 105.568 116.98 105.82C116.632 106.071 116.143 106.197 115.515 106.197C114.849 106.197 114.331 106.092 113.958 105.883V105.183C114.199 105.304 114.457 105.399 114.732 105.469C115.01 105.539 115.277 105.574 115.533 105.574C115.93 105.574 116.235 105.512 116.449 105.387C116.662 105.26 116.769 105.067 116.769 104.81C116.769 104.615 116.683 104.45 116.512 104.313C116.345 104.174 116.015 104.01 115.524 103.822C115.057 103.649 114.724 103.499 114.526 103.372C114.331 103.242 114.184 103.094 114.086 102.93C113.992 102.767 113.944 102.571 113.944 102.344C113.944 101.937 114.111 101.617 114.443 101.384C114.776 101.147 115.233 101.029 115.812 101.029C116.353 101.029 116.88 101.138 117.396 101.357L117.126 101.971C116.623 101.764 116.166 101.661 115.757 101.661C115.397 101.661 115.125 101.717 114.942 101.829C114.759 101.942 114.668 102.097 114.668 102.293C114.668 102.427 114.702 102.54 114.769 102.635C114.839 102.729 114.95 102.818 115.102 102.903C115.255 102.988 115.548 103.111 115.982 103.271C116.577 103.487 116.978 103.704 117.185 103.922C117.396 104.141 117.502 104.415 117.502 104.746Z" fill="white"/>
<path d="M51.7911 111.313C51.0556 111.313 50.4743 111.557 50.047 112.045C49.6228 112.531 49.4107 113.196 49.4107 114.042C49.4107 114.913 49.6151 115.586 50.0241 116.062C50.4361 116.535 51.022 116.772 51.782 116.772C52.2489 116.772 52.7814 116.689 53.3796 116.522V117.2C52.9157 117.373 52.3435 117.459 51.6629 117.459C50.6772 117.459 49.9158 117.162 49.3787 116.567C48.8446 115.973 48.5775 115.128 48.5775 114.033C48.5775 113.348 48.7057 112.747 48.9621 112.232C49.2214 111.716 49.5938 111.319 50.079 111.039C50.5673 110.76 51.1411 110.621 51.8003 110.621C52.5022 110.621 53.1156 110.749 53.6405 111.003L53.3109 111.667C52.8044 111.431 52.2977 111.313 51.7911 111.313Z" fill="white"/>
<path d="M58.7286 114.873C58.7286 115.686 58.5226 116.321 58.1107 116.78C57.6986 117.235 57.1295 117.462 56.4031 117.462C55.9545 117.462 55.5562 117.357 55.2084 117.148C54.8604 116.939 54.5918 116.639 54.4027 116.247C54.2134 115.856 54.1188 115.398 54.1188 114.873C54.1188 114.061 54.3233 113.428 54.7322 112.977C55.1412 112.521 55.7088 112.294 56.4351 112.294C57.1371 112.294 57.6941 112.526 58.1061 112.99C58.5211 113.454 58.7286 114.082 58.7286 114.873ZM54.9062 114.873C54.9062 115.51 55.0344 115.995 55.2907 116.329C55.5471 116.663 55.924 116.83 56.4214 116.83C56.9189 116.83 57.2958 116.664 57.5521 116.334C57.8115 116 57.9413 115.514 57.9413 114.873C57.9413 114.239 57.8115 113.759 57.5521 113.431C57.2958 113.1 56.9158 112.935 56.4123 112.935C55.9149 112.935 55.5395 113.098 55.2862 113.422C55.0329 113.746 54.9062 114.23 54.9062 114.873Z" fill="white"/>
<path d="M60.4518 112.384V115.619C60.4518 116.025 60.5446 116.329 60.7308 116.529C60.917 116.729 61.2084 116.829 61.6051 116.829C62.1298 116.829 62.5133 116.686 62.7542 116.401C62.9986 116.116 63.1204 115.651 63.1204 115.005V112.384H63.8805V117.37H63.2533L63.1432 116.702H63.1017C62.9466 116.947 62.73 117.136 62.4517 117.266C62.1776 117.396 61.8633 117.462 61.5088 117.462C60.8983 117.462 60.4407 117.317 60.1354 117.029C59.8336 116.741 59.6827 116.28 59.6827 115.646V112.384H60.4518Z" fill="white"/>
<path d="M68.6025 117.371V114.146C68.6025 113.739 68.509 113.436 68.3228 113.235C68.1366 113.035 67.8452 112.935 67.4485 112.935C66.9238 112.935 66.5396 113.076 66.2952 113.359C66.0509 113.64 65.929 114.106 65.929 114.755V117.371H65.1689V112.385H65.7871L65.9103 113.067H65.947C66.1028 112.821 66.3208 112.632 66.6019 112.499C66.8822 112.362 67.1951 112.294 67.5406 112.294C68.1442 112.294 68.599 112.439 68.9043 112.731C69.2096 113.019 69.3626 113.481 69.3626 114.118V117.371H68.6025Z" fill="white"/>
<path d="M72.6028 117.462C71.876 117.462 71.3132 117.241 70.9131 116.798C70.5164 116.352 70.3184 115.723 70.3184 114.91C70.3184 114.076 70.5199 113.431 70.9227 112.977C71.3284 112.521 71.905 112.294 72.6527 112.294C72.8943 112.294 73.1352 112.32 73.3761 112.372C73.617 112.423 73.8066 112.484 73.9437 112.553L73.7104 113.195C73.5422 113.128 73.3594 113.073 73.1608 113.031C72.9628 112.986 72.787 112.963 72.6347 112.963C71.615 112.963 71.1055 113.609 71.1055 114.901C71.1055 115.514 71.2294 115.984 71.4765 116.311C71.7264 116.639 72.0961 116.803 72.5841 116.803C73.0022 116.803 73.4314 116.713 73.8703 116.534V117.203C73.5346 117.376 73.1123 117.462 72.6028 117.462Z" fill="white"/>
<path d="M75.5017 117.369H74.7416V112.383H75.5017V117.369ZM74.6779 111.032C74.6779 110.859 74.7201 110.733 74.806 110.654C74.8911 110.573 74.9984 110.531 75.1265 110.531C75.2483 110.531 75.3535 110.573 75.4421 110.654C75.5307 110.736 75.575 110.862 75.575 111.032C75.575 111.202 75.5307 111.329 75.4421 111.414C75.3535 111.496 75.2483 111.537 75.1265 111.537C74.9984 111.537 74.8911 111.496 74.806 111.414C74.7201 111.329 74.6779 111.202 74.6779 111.032Z" fill="white"/>
<path d="M77.5438 117.372H76.7837V110.293H77.5438V117.372Z" fill="white"/>
<path d="M37.3219 97.24H38.1941V119.558H37.3219V97.24Z" fill="white"/>
<path d="M81.4757 75.3574C80.2581 75.3574 79.2938 75.6641 78.2789 76.1756C78.2789 73.262 78.3295 70.7574 78.38 69.7862L72.4433 70.9616V71.5244L73.0013 71.575C73.8133 71.6774 74.1684 72.1883 74.2189 73.262C74.4225 75.4086 74.3712 86.8064 74.2189 88.6464C75.7924 89.0043 77.5175 89.2597 79.2432 89.2597C83.9623 89.2597 86.7534 86.3467 86.7534 81.6956C86.8544 78.0156 84.5202 75.3574 81.4757 75.3574ZM79.3948 88.3397C79.0397 88.3397 78.6341 88.2885 78.38 88.238C78.2789 86.9601 78.2277 81.6956 78.2277 77.0444C78.7864 76.8395 79.1415 76.8395 79.5984 76.8395C81.5263 76.8395 82.6428 79.0886 82.6428 81.951C82.6934 85.5797 81.3234 88.3397 79.3948 88.3397ZM50.1663 75.5111L49.2529 75.7665C48.441 73.0578 47.1724 71.5244 44.7874 71.5244H41.692C41.5397 73.262 41.489 76.1244 41.489 79.1398L43.5695 79.0886C44.9396 79.0374 45.4978 78.0156 45.853 76.4823H46.6142V82.8198H45.853C45.4978 81.2864 44.9396 80.264 43.5695 80.2135L41.489 80.1622C41.489 82.4619 41.5905 84.3531 41.6412 85.5285C41.7934 87.2155 42.2502 87.9818 43.4173 88.1355L44.4829 88.238V89.0043H34.4863V88.238L35.2982 88.1355C36.4653 87.9818 36.922 87.2155 37.0742 85.5285C37.328 82.7685 37.328 76.9419 37.0742 73.7223C36.922 72.0353 36.4653 71.2683 35.2982 71.1153L34.4863 71.0129V70.2466H50.0648L50.1663 75.5111ZM55.1393 75.2044C59.5538 75.2044 61.7869 78.2198 61.7869 82.2064C61.7869 86.0913 59.3004 89.2597 54.8856 89.2597C50.4708 89.2597 48.238 86.2443 48.238 82.2577C48.238 78.3728 50.7245 75.2044 55.1393 75.2044ZM54.9363 76.0732C52.9572 76.0732 52.4498 78.7307 52.4498 82.2577C52.4498 85.6822 53.3125 88.4422 55.1393 88.4422C57.1183 88.4422 57.6257 85.7846 57.6257 82.2577C57.6257 78.8331 56.7631 76.0732 54.9363 76.0732ZM87.9205 82.3601C87.9205 78.6795 90.2035 75.2044 94.7709 75.2044C98.4751 75.2044 100.251 77.9644 100.251 81.5931H91.9798C91.8781 84.864 93.5526 87.318 96.6988 87.318C98.0688 87.318 98.8303 86.9601 99.6928 86.3467L100.099 86.8064C99.1854 88.0843 97.2575 89.3109 94.7197 89.3109C90.7622 89.3109 87.9205 86.4485 87.9205 82.3601ZM92.0303 80.6731L96.1914 80.5707C96.1914 78.7307 95.9381 76.0732 94.4158 76.0732C92.9441 76.0732 92.0816 78.5777 92.0303 80.6731ZM110.958 79.344L110.299 79.4977C109.588 77.1461 108.472 76.1244 106.898 76.1244C105.833 76.1244 105.072 76.9419 105.072 78.1174C105.072 79.2935 105.935 79.9068 108.421 80.8773C110.756 81.7973 111.669 82.8198 111.669 84.711C111.669 87.5222 109.537 89.2597 105.985 89.2597C104.311 89.2597 102.433 88.9018 101.317 88.4422L101.215 84.5573L101.875 84.4043C102.839 87.1131 104.108 88.1355 105.782 88.1355C107.203 88.1355 107.964 87.1131 107.964 86.0401C107.964 84.9664 107.355 84.3531 105.123 83.5355C103.042 82.7685 101.52 81.8485 101.52 79.4977C101.52 77.1974 103.549 75.2556 106.848 75.2556C108.37 75.2556 109.842 75.5111 110.857 75.9707L110.958 79.344ZM71.8847 79.2423C70.1091 78.0156 68.1805 78.5777 67.7748 79.2423C67.6226 81.4401 67.6731 84.7622 67.8254 86.4485C67.9271 87.5734 68.231 88.033 69.043 88.1355L70.1091 88.1867V88.953H61.888V88.238L62.4467 88.1867C63.2587 88.0843 63.6138 87.5734 63.6643 86.4997C63.8166 84.6597 63.8671 80.8773 63.6643 78.7307C63.5625 77.6065 63.2587 77.1461 62.4467 76.9932L61.888 76.9419V76.3798L67.7748 75.2044L67.7236 78.3223C69.0943 75.102 71.8342 74.6928 73.3059 75.6128L71.8847 79.2423Z" fill="white"/>
<path d="M60.0984 32.3838V30.9993H35.1776V32.3838H60.0984Z" fill="white"/>
<path d="M116.868 32.3838V30.9993H91.9469V32.3838H116.868Z" fill="white"/>
<path d="M65.9559 34.2177L67.8741 32.3916C68.8696 31.458 69.0641 30.822 69.0641 30.1244C69.0641 28.8522 68.059 28.0623 66.4994 28.0623C65.3198 28.0623 64.3243 28.5035 63.7705 29.2523L64.7044 29.9705C65.1045 29.4575 65.6887 29.2216 66.3865 29.2216C67.2691 29.2216 67.7205 29.6012 67.7205 30.2577C67.7205 30.6579 67.5973 31.0785 66.8995 31.7453L64.0474 34.4537V35.3462H69.341V34.2177H65.9559ZM73.0764 35.4488C74.7897 35.4488 76.0828 34.1151 76.0828 31.7556C76.0828 29.396 74.7897 28.0623 73.0764 28.0623C71.3734 28.0623 70.081 29.396 70.081 31.7556C70.081 34.1151 71.3734 35.4488 73.0764 35.4488ZM73.0764 34.2895C72.1017 34.2895 71.4247 33.4893 71.4247 31.7556C71.4247 30.0218 72.1017 29.2216 73.0764 29.2216C74.0614 29.2216 74.7384 30.0218 74.7384 31.7556C74.7384 33.4893 74.0614 34.2895 73.0764 34.2895ZM78.7998 34.2177L80.718 32.3916C81.7135 31.458 81.908 30.822 81.908 30.1244C81.908 28.8522 80.9029 28.0623 79.3432 28.0623C78.1636 28.0623 77.1682 28.5035 76.6144 29.2523L77.5482 29.9705C77.9484 29.4575 78.5326 29.2216 79.2304 29.2216C80.113 29.2216 80.5643 29.6012 80.5643 30.2577C80.5643 30.6579 80.4411 31.0785 79.7433 31.7453L76.8913 34.4537V35.3462H82.1849V34.2177H78.7998Z" fill="white"/>
<path d="M86.2166 29.061C85.2384 29.061 84.3643 29.9871 84.3123 31.496H84.3331C84.6661 30.83 85.457 30.5386 86.1438 30.5386C87.4758 30.5386 88.7661 31.4544 88.7661 32.9841C88.7661 34.3993 87.6318 35.4503 86.0085 35.4503C84.1458 35.4503 83.0323 33.9934 83.0323 31.8602C83.0323 29.6853 84.1354 27.9371 86.1854 27.9371C87.1428 27.9371 87.9752 28.3013 88.4643 28.8736L87.6527 29.6125C87.2676 29.1858 86.6433 29.061 86.2166 29.061ZM85.9773 31.6C85.0511 31.6 84.4476 32.1932 84.4476 32.9424C84.4476 33.7229 85.0928 34.3368 85.9669 34.3368C86.7889 34.3368 87.4653 33.7749 87.4653 32.9736C87.4653 32.1412 86.8514 31.6 85.9773 31.6Z" fill="white"/>
</svg>
