<svg width="119" height="137" viewBox="0 0 119 137" fill="none" xmlns="http://www.w3.org/2000/svg">
<g clip-path="url(#clip0_255_886)">
<path d="M0 107.704L59.5 137L119 107.704V0H0V107.704Z" fill="white"/>
<path d="M0 107.704L59.5 137L119 107.704V0H0V107.704Z" fill="white"/>
<path d="M91.8369 3.98055e-06H119V27.1415H91.8369V3.98055e-06Z" fill="#FF492C"/>
<path fill-rule="evenodd" clip-rule="evenodd" d="M111.304 10.3913H108.984C109.049 10.0294 109.273 9.82695 109.726 9.59431L110.153 9.3789C110.916 8.98685 111.325 8.54742 111.325 7.82796C111.325 7.3756 111.149 7.01802 110.799 6.75953C110.454 6.50104 110.036 6.3761 109.553 6.3761C109.165 6.3761 108.816 6.47519 108.493 6.67767C108.178 6.87154 107.937 7.12572 107.79 7.44022L108.463 8.11229C108.721 7.5867 109.101 7.32821 109.596 7.32821C110.019 7.32821 110.278 7.54362 110.278 7.84519C110.278 8.09506 110.153 8.30616 109.67 8.55173L109.398 8.68528C108.803 8.98685 108.389 9.3272 108.148 9.71924C107.911 10.1027 107.79 10.5981 107.79 11.1926V11.352H111.304V10.3956V10.3913ZM110.989 12.4592H107.152L105.233 15.7808H109.07L110.989 19.1025L112.908 15.7808L110.989 12.4592Z" fill="white"/>
<path fill-rule="evenodd" clip-rule="evenodd" d="M105.556 17.9996C103.112 17.9996 101.12 16.0135 101.12 13.5708C101.12 11.128 103.112 9.14195 105.556 9.14195L107.074 5.96683C106.583 5.86774 106.074 5.81604 105.556 5.81604C101.271 5.81604 97.7913 9.28843 97.7913 13.5665C97.7913 17.8445 101.266 21.3169 105.556 21.3169C107.264 21.3169 108.846 20.7654 110.127 19.8305L108.445 16.9225C107.669 17.5903 106.66 17.9953 105.556 17.9953V17.9996Z" fill="white"/>
<path d="M0 107.562V99.8506L59.5 129.327L119 99.954V107.648L59.5 137L0 107.562Z" fill="#FF492C"/>
<path d="M0 99.8722V92.1605L59.5 121.637L119 92.2639V99.9583L59.5 129.31L0 99.8722Z" fill="#FFC800"/>
<path d="M0 92.1821V84.4704L59.5 113.947L119 84.5738V92.2682L59.5 121.62L0 92.1821Z" fill="#5746B2"/>
<path d="M118.392 26.5384H0.806257M92.1776 1.17614V26.5384M118.353 0.64623V107.304L59.5 136.281L0.646729 107.304V0.64623H118.353Z" stroke="black" stroke-width="1.29348"/>
<path d="M5.3938 17.3706V11.0376H7.54097C7.97644 11.0376 8.35586 11.1022 8.68354 11.2357C9.01123 11.3693 9.2613 11.5675 9.44239 11.8389C9.62347 12.1103 9.71402 12.442 9.71402 12.8384C9.71402 13.0839 9.65365 13.3123 9.52862 13.5234C9.40358 13.7345 9.23112 13.9111 9.00691 14.0619C9.30441 14.2127 9.52862 14.4152 9.69246 14.665C9.85199 14.9149 9.93391 15.2165 9.93391 15.5654C9.93391 15.9532 9.84768 16.2806 9.6709 16.552C9.49412 16.8234 9.25268 17.0302 8.93793 17.1681C8.62318 17.3059 8.2567 17.3749 7.83416 17.3749H5.39811L5.3938 17.3706ZM6.60536 13.6138H7.56684C7.83847 13.6138 8.05405 13.5449 8.20927 13.407C8.36449 13.2692 8.44641 13.071 8.44641 12.8211C8.44641 12.5713 8.36018 12.3731 8.1834 12.2309C8.00662 12.0931 7.76949 12.0241 7.46768 12.0241H6.60536V13.6181V13.6138ZM6.60536 16.2763H7.70912C8.00662 16.2763 8.23945 16.2031 8.4076 16.0566C8.57576 15.9101 8.66199 15.7119 8.66199 15.462C8.66199 15.2122 8.56713 15.0011 8.38173 14.8503C8.19634 14.7038 7.93764 14.6306 7.60996 14.6306H6.60536V16.2763ZM11.8396 17.3706V11.0376H15.8494V12.1663H13.0771V13.6052H15.4657V14.7081H13.0771V16.2375H15.8839V17.3663H11.8353L11.8396 17.3706ZM20.2041 17.4783C19.8851 17.4783 19.5833 17.4395 19.3073 17.362C19.0445 17.2902 18.7943 17.1783 18.5657 17.0302C18.3501 16.8881 18.1691 16.7287 18.0268 16.5563C17.8845 16.3797 17.7939 16.1987 17.7508 16.0049L18.9624 15.643C19.04 15.8498 19.178 16.0264 19.3806 16.1729C19.5789 16.3194 19.829 16.3969 20.1308 16.4055C20.4499 16.4098 20.7129 16.3409 20.9155 16.1987C21.1182 16.0523 21.2173 15.867 21.2173 15.6387C21.2173 15.4405 21.1354 15.2725 20.9759 15.1346C20.8164 14.9968 20.5965 14.8934 20.3205 14.8244L19.497 14.609C19.1909 14.5315 18.9193 14.4109 18.6821 14.2515C18.445 14.092 18.2639 13.8939 18.1302 13.6569C17.9966 13.42 17.9319 13.1486 17.9319 12.8341C17.9319 12.2352 18.1302 11.7699 18.5269 11.4382C18.9236 11.1022 19.4798 10.9342 20.2084 10.9342C20.6137 10.9342 20.9673 10.9945 21.2734 11.1108C21.5795 11.2271 21.8339 11.3951 22.0409 11.6148C22.2478 11.8303 22.403 12.0887 22.5108 12.386L21.3079 12.7565C21.2346 12.5497 21.1009 12.3774 20.9112 12.2309C20.7172 12.0844 20.4714 12.0155 20.1783 12.0155C19.8851 12.0155 19.6393 12.0844 19.4668 12.2223C19.2944 12.3602 19.2081 12.5583 19.2081 12.8125C19.2081 13.0107 19.2771 13.1701 19.4108 13.2821C19.5445 13.3984 19.7342 13.4846 19.967 13.5449L20.7991 13.7517C21.3424 13.8853 21.7649 14.1222 22.0667 14.4669C22.3685 14.8115 22.5195 15.1949 22.5195 15.6171C22.5195 15.992 22.4289 16.3194 22.2478 16.5994C22.0667 16.8794 21.8037 17.0992 21.4588 17.2542C21.1139 17.4093 20.7 17.4912 20.2084 17.4912L20.2041 17.4783ZM25.8178 17.3706V12.1663H23.9164V11.0376H28.9523V12.1663H27.0596V17.3706H25.8178ZM35.8595 17.4783C35.5405 17.4783 35.2387 17.4395 34.9627 17.362C34.6999 17.2902 34.4497 17.1783 34.2211 17.0302C34.0055 16.8881 33.8244 16.7287 33.6822 16.5563C33.5399 16.3797 33.4493 16.1987 33.4062 16.0049L34.6178 15.643C34.6954 15.8498 34.8334 16.0264 35.036 16.1729C35.2343 16.3194 35.4844 16.3969 35.7862 16.4055C36.1053 16.4098 36.3683 16.3409 36.5709 16.1987C36.7736 16.0523 36.8727 15.867 36.8727 15.6387C36.8727 15.4405 36.7908 15.2725 36.6313 15.1346C36.4718 14.9968 36.2519 14.8934 35.9759 14.8244L35.1524 14.609C34.8463 14.5315 34.5747 14.4109 34.3375 14.2515C34.1004 14.092 33.9193 13.8939 33.7856 13.6569C33.652 13.42 33.5873 13.1486 33.5873 12.8341C33.5873 12.2352 33.7856 11.7699 34.1823 11.4382C34.579 11.1022 35.1352 10.9342 35.8638 10.9342C36.2691 10.9342 36.6227 10.9945 36.9288 11.1108C37.2349 11.2271 37.4893 11.3951 37.6963 11.6148C37.9032 11.8303 38.0584 12.0887 38.1662 12.386L36.9633 12.7565C36.89 12.5497 36.7563 12.3774 36.5666 12.2309C36.3726 12.0844 36.1268 12.0155 35.8337 12.0155C35.5405 12.0155 35.2947 12.0844 35.1222 12.2223C34.9498 12.3602 34.8635 12.5583 34.8635 12.8125C34.8635 13.0107 34.9325 13.1701 35.0662 13.2821C35.1998 13.3984 35.3896 13.4846 35.6224 13.5449L36.4545 13.7517C36.9978 13.8853 37.4203 14.1222 37.7221 14.4669C38.0239 14.8115 38.1748 15.1949 38.1748 15.6171C38.1748 15.992 38.0843 16.3194 37.9032 16.5994C37.7221 16.8794 37.4591 17.0992 37.1142 17.2542C36.7693 17.4093 36.3554 17.4912 35.8638 17.4912L35.8595 17.4783ZM43.0297 17.4783C42.3916 17.4783 41.8225 17.3361 41.3309 17.0561C40.8472 16.7824 40.4476 16.3816 40.1754 15.8972C39.8995 15.406 39.7572 14.8417 39.7572 14.2084C39.7572 13.5751 39.8952 12.9935 40.1754 12.5023C40.4514 12.0112 40.8351 11.6278 41.3223 11.3477C41.8095 11.0677 42.37 10.9298 43.0038 10.9298C43.6376 10.9298 44.2068 11.072 44.694 11.352C45.1812 11.6321 45.5606 12.0198 45.8409 12.5109C46.1168 13.0021 46.2591 13.5664 46.2591 14.2084C46.2591 14.8503 46.1211 15.406 45.8452 15.8972C45.5692 16.3883 45.1898 16.776 44.7026 17.0561C44.2154 17.3361 43.6592 17.4783 43.034 17.4783H43.0297ZM43.0297 16.3495C43.4177 16.3495 43.7541 16.2591 44.0472 16.0738C44.3404 15.8886 44.5689 15.6387 44.7371 15.3199C44.9009 15.0011 44.9872 14.6306 44.9872 14.217C44.9872 13.8034 44.9009 13.4243 44.7328 13.1055C44.5646 12.7867 44.3318 12.5325 44.0343 12.3515C43.7368 12.1663 43.3962 12.0758 43.0038 12.0758C42.6115 12.0758 42.2838 12.1663 41.9863 12.3515C41.6888 12.5368 41.4517 12.7867 41.2835 13.1055C41.1154 13.4243 41.0291 13.7948 41.0291 14.217C41.0291 14.6392 41.1154 15.0011 41.2835 15.3199C41.4517 15.6387 41.6888 15.8929 41.9906 16.0738C42.2924 16.2591 42.6373 16.3495 43.034 16.3495H43.0297ZM48.1648 17.3706V11.0376H52.2306V12.1663H49.4065V13.6871H51.7607V14.8158H49.4065V17.3663H48.1648V17.3706ZM55.4255 17.3706V12.1663H53.5241V11.0376H58.5601V12.1663H56.6673V17.3706H55.4255ZM61.5394 17.3706L59.6638 11.0376H60.9228L62.7251 17.3706H61.5394ZM61.6989 17.3706L63.4279 11.0376H64.5489L62.8285 17.3706H61.6989ZM65.2387 17.3706L63.5356 11.0376H64.6567L66.4244 17.3706H65.2387ZM65.3595 17.3706L67.1789 11.0376H68.4379L66.5451 17.3706H65.3595ZM68.8734 17.3706L71.3741 11.0376H72.6159L70.1884 17.3706H68.8777H68.8734ZM70.0505 15.9747V14.8804H74.0258V15.9747H70.0505ZM73.8792 17.3706L71.4517 11.0376H72.6935L75.1942 17.3706H73.8835H73.8792ZM76.8585 17.3706V11.0376H79.2126C79.661 11.0376 80.0534 11.1237 80.3983 11.3003C80.7432 11.477 81.0105 11.7139 81.2046 12.0198C81.3986 12.3257 81.4934 12.679 81.4934 13.0839C81.4934 13.4889 81.3943 13.8379 81.1916 14.1481C80.989 14.4582 80.713 14.6995 80.3638 14.8718C80.0146 15.0442 79.6136 15.1303 79.1695 15.1303H78.1002V17.3749H76.8585V17.3706ZM78.0959 13.9973H79.2169C79.4023 13.9973 79.5705 13.9585 79.7214 13.8809C79.868 13.8061 79.9909 13.6918 80.0762 13.551C80.1615 13.4103 80.2059 13.2485 80.2043 13.0839C80.2043 12.8125 80.1051 12.5928 79.9111 12.4248C79.7171 12.2568 79.4627 12.1706 79.1565 12.1706H78.0959V13.9973ZM80.3422 17.3706L78.8763 14.8287L79.8292 14.1481L81.7478 17.3706H80.3466H80.3422ZM83.6018 17.3706V11.0376H87.6116V12.1663H84.8392V13.6052H87.2279V14.7081H84.8392V16.2375H87.6461V17.3663H83.5975L83.6018 17.3706ZM23.9552 68.8404V54.5717H18.6778V50.746H33.3717V54.5717H28.0943V68.8404H23.9552ZM39.5804 69.1505C38.218 69.1505 37.0193 68.8619 35.9846 68.2846C34.9498 67.7073 34.1349 66.9103 33.5399 65.8936C32.9449 64.8768 32.6474 63.705 32.6474 62.3781C32.6474 61.0512 32.9363 59.8793 33.514 58.8626C34.0918 57.8459 34.9023 57.0489 35.9458 56.4716C36.9892 55.8943 38.1749 55.6056 39.5028 55.6056C40.8308 55.6056 42.0682 55.8943 43.1116 56.4716C44.155 57.0489 44.9656 57.8459 45.5434 58.8626C46.1211 59.8793 46.41 61.0512 46.41 62.3781C46.41 63.705 46.1211 64.8768 45.5434 65.8936C44.9656 66.9103 44.1593 67.7073 43.1246 68.2846C42.0898 68.8619 40.9084 69.1505 39.5804 69.1505ZM39.5804 65.4283C40.0978 65.4283 40.5592 65.299 40.9645 65.0405C41.3697 64.782 41.6888 64.4245 41.9216 63.9678C42.1544 63.5111 42.2709 62.9812 42.2709 62.3781C42.2709 61.7749 42.1544 61.245 41.9216 60.7884C41.6888 60.3317 41.3654 59.9741 40.9515 59.7156C40.5376 59.4571 40.0633 59.3279 39.5287 59.3279C38.994 59.3279 38.5198 59.4571 38.1059 59.7156C37.6919 59.9741 37.3686 60.3317 37.1358 60.7884C36.9029 61.245 36.7865 61.7749 36.7865 62.3781C36.7865 62.9812 36.9029 63.5111 37.1358 63.9678C37.3686 64.4245 37.6963 64.782 38.1188 65.0405C38.5413 65.299 39.0285 65.4283 39.5804 65.4283ZM48.5054 74.0102V55.9158H52.3083L52.5411 58.2939V74.0102H48.5054ZM56.2146 69.1505C55.1453 69.1505 54.2485 68.8791 53.5241 68.3363C52.7998 67.7935 52.2565 67.0137 51.8943 65.997C51.5322 64.9802 51.3511 63.7739 51.3511 62.3781C51.3511 60.9822 51.5322 59.7544 51.8943 58.7463C52.2565 57.7382 52.7998 56.9627 53.5241 56.4199C54.2485 55.8771 55.1453 55.6056 56.2146 55.6056C57.4218 55.6056 58.4652 55.8771 59.3448 56.4199C60.2243 56.9627 60.897 57.7382 61.3626 58.7463C61.8283 59.7544 62.0611 60.965 62.0611 62.3781C62.0611 63.7912 61.8283 64.9802 61.3626 65.997C60.897 67.0137 60.2243 67.7935 59.3448 68.3363C58.4652 68.8791 57.4218 69.1505 56.2146 69.1505ZM55.1798 65.4283C55.6972 65.4283 56.1542 65.299 56.5509 65.0405C56.9475 64.782 57.2666 64.4245 57.508 63.9678C57.7495 63.5111 57.8702 62.9812 57.8702 62.3781C57.8702 61.7749 57.7581 61.245 57.5339 60.7884C57.3097 60.3317 56.995 59.9741 56.5897 59.7156C56.1844 59.4571 55.723 59.3279 55.2056 59.3279C54.6883 59.3279 54.2269 59.4571 53.8216 59.7156C53.4163 59.9741 53.1016 60.336 52.8774 60.8013C52.6532 61.2666 52.5411 61.7922 52.5411 62.3781C52.5411 62.964 52.6532 63.5111 52.8774 63.9678C53.1016 64.4245 53.412 64.782 53.8087 65.0405C54.2054 65.299 54.6624 65.4283 55.1798 65.4283ZM76.3928 69.1505C75.496 69.1505 74.5906 68.9954 73.6765 68.6853C72.7625 68.3751 71.9476 67.927 71.2318 67.3411C70.5161 66.7552 70.0117 66.0314 69.7185 65.1698L73.6507 64.2392C73.9093 64.6873 74.2586 65.019 74.6984 65.2344C75.1381 65.4498 75.6081 65.5575 76.1083 65.5575C76.8671 65.5575 77.4837 65.3292 77.9579 64.8725C78.4322 64.4159 78.6693 63.7998 78.6693 63.0243C78.6693 62.3178 78.4408 61.7189 77.9838 61.2278C77.5268 60.7367 76.9016 60.4911 76.1083 60.4911C75.6254 60.4911 75.1985 60.6031 74.8277 60.8271C74.4569 61.0512 74.1853 61.3183 74.0128 61.6285L70.2617 60.8013L71.4517 50.746H81.9548V54.52H74.97L74.4526 58.2164C74.901 57.9579 75.4098 57.7554 75.9789 57.6089C76.548 57.4625 77.1689 57.3892 77.8415 57.3892C78.7728 57.4065 79.6308 57.6477 80.4155 58.113C81.2002 58.5783 81.8254 59.2116 82.2911 60.0129C82.7567 60.8142 82.9896 61.7405 82.9896 62.7917C82.9896 64.0497 82.705 65.1569 82.1359 66.1133C81.5793 67.0576 80.774 67.831 79.8076 68.3492C78.8246 68.8834 77.6863 69.1505 76.3928 69.1505ZM92.2767 69.1505C90.7935 69.1505 89.4742 68.7499 88.3187 67.9486C87.1632 67.1472 86.2621 66.0443 85.6153 64.6399C84.9686 63.2354 84.6452 61.6198 84.6452 59.7932C84.6452 57.9665 84.9686 56.3509 85.6153 54.9465C86.2621 53.542 87.1589 52.4391 88.3058 51.6378C89.4526 50.8365 90.7677 50.4358 92.2509 50.4358C93.7341 50.4358 95.0793 50.8365 96.2348 51.6378C97.3903 52.4391 98.3 53.542 98.964 54.9465C99.628 56.3509 99.96 57.9665 99.96 59.7932C99.96 61.6198 99.6323 63.2354 98.977 64.6399C98.3216 66.0443 97.4162 67.1472 96.2606 67.9486C95.1051 68.7499 93.7772 69.1505 92.2767 69.1505ZM92.3026 65.3766C92.9925 65.3766 93.609 65.1353 94.1523 64.6528C94.6955 64.1703 95.1224 63.5111 95.4328 62.6753C95.7433 61.8396 95.8985 60.8788 95.8985 59.7932C95.8985 58.7075 95.7433 57.7166 95.4328 56.8722C95.1224 56.0278 94.6912 55.3644 94.1393 54.8819C93.5875 54.3993 92.958 54.1581 92.2509 54.1581C91.5438 54.1581 90.9488 54.3993 90.4141 54.8819C89.8795 55.3644 89.4613 56.0278 89.1594 56.8722C88.8576 57.7166 88.7067 58.6903 88.7067 59.7932C88.7067 60.8961 88.8576 61.8439 89.1594 62.6883C89.4613 63.5327 89.8838 64.1918 90.4271 64.6657C90.9703 65.1396 91.5955 65.3766 92.3026 65.3766ZM47.8026 41.1732V40.2599C47.8026 40.0833 47.8587 39.8937 47.9665 39.6826C48.0743 39.4715 48.2252 39.2604 48.4192 39.0493C48.6132 38.8382 48.8374 38.6443 49.1004 38.4634L50.0619 37.7741C50.1956 37.6836 50.3206 37.5802 50.437 37.4682C50.5534 37.3519 50.6526 37.227 50.7259 37.0934C50.7992 36.9598 50.838 36.8263 50.838 36.7014C50.838 36.5463 50.7992 36.4041 50.7259 36.2748C50.6483 36.1499 50.5405 36.0465 50.3939 35.9776C50.2473 35.9087 50.0705 35.8699 49.8593 35.8699C49.6782 35.8699 49.5187 35.9043 49.3764 35.9776C49.2341 36.0508 49.1177 36.1456 49.0271 36.2662C48.9366 36.3869 48.8719 36.5161 48.8374 36.654L47.5612 36.4386C47.6215 36.137 47.7509 35.857 47.9492 35.5985C48.1476 35.34 48.4106 35.1289 48.7339 34.9695C49.0573 34.8101 49.4238 34.7282 49.8334 34.7282C50.3034 34.7282 50.7087 34.8144 51.045 34.9824C51.3813 35.1504 51.6443 35.3831 51.8297 35.676C52.0151 35.969 52.1056 36.3093 52.1056 36.6927C52.1056 37.0762 51.9978 37.4337 51.7822 37.7396C51.5667 38.0455 51.2735 38.3298 50.8984 38.5926L50.036 39.2173C49.8593 39.338 49.7084 39.4715 49.5833 39.6137C49.4583 39.7602 49.3591 39.9196 49.2944 40.0919H52.1832V41.1776H47.8026V41.1732ZM56.4215 41.2853C55.9084 41.2853 55.4557 41.1431 55.0634 40.8631C54.671 40.583 54.3649 40.1953 54.1407 39.7042C53.9165 39.213 53.8044 38.6487 53.8044 38.0067C53.8044 37.3648 53.9165 36.8004 54.1407 36.3093C54.3649 35.8182 54.671 35.4304 55.059 35.1504C55.4471 34.8704 55.8998 34.7282 56.4129 34.7282C56.926 34.7282 57.3787 34.8704 57.7754 35.1504C58.172 35.4304 58.4781 35.8182 58.7023 36.3093C58.9265 36.8004 59.0386 37.3648 59.0386 38.0067C59.0386 38.6487 58.9265 39.213 58.7023 39.7042C58.4781 40.1953 58.172 40.583 57.7797 40.8631C57.3873 41.1431 56.9346 41.2853 56.4215 41.2853ZM56.4215 40.1608C56.6931 40.1608 56.9346 40.0704 57.1502 39.8851C57.3658 39.6998 57.5339 39.45 57.6546 39.1269C57.7754 38.8037 57.8357 38.4332 57.8357 38.011C57.8357 37.5888 57.7754 37.214 57.6546 36.8909C57.5339 36.5635 57.3658 36.3093 57.1502 36.1284C56.9346 35.9431 56.6888 35.8526 56.4129 35.8526C56.1369 35.8526 55.8998 35.9431 55.6885 36.1284C55.4773 36.3136 55.3134 36.5678 55.197 36.8909C55.0806 37.2183 55.0202 37.5888 55.0202 38.011C55.0202 38.4332 55.0806 38.8037 55.197 39.1269C55.3134 39.45 55.4816 39.7042 55.6929 39.8851C55.9084 40.0704 56.1499 40.1608 56.4215 40.1608ZM60.7202 41.1732V40.2599C60.7202 40.0833 60.7762 39.8937 60.884 39.6826C60.9918 39.4715 61.1427 39.2604 61.3367 39.0493C61.5308 38.8382 61.755 38.6443 62.018 38.4634L62.9795 37.7741C63.1131 37.6836 63.2381 37.5802 63.3546 37.4682C63.471 37.3519 63.5701 37.227 63.6434 37.0934C63.7167 36.9598 63.7555 36.8263 63.7555 36.7014C63.7555 36.5463 63.7167 36.4041 63.6434 36.2748C63.5658 36.1499 63.458 36.0465 63.3114 35.9776C63.1648 35.9087 62.9881 35.8699 62.7768 35.8699C62.5957 35.8699 62.4362 35.9043 62.2939 35.9776C62.1516 36.0508 62.0352 36.1456 61.9447 36.2662C61.8541 36.3869 61.7895 36.5161 61.755 36.654L60.4787 36.4386C60.5391 36.137 60.6684 35.857 60.8668 35.5985C61.0651 35.34 61.3281 35.1289 61.6515 34.9695C61.9749 34.8101 62.3413 34.7282 62.7509 34.7282C63.2209 34.7282 63.6262 34.8144 63.9625 34.9824C64.2988 35.1504 64.5618 35.3831 64.7472 35.676C64.9326 35.969 65.0231 36.3093 65.0231 36.6927C65.0231 37.0762 64.9154 37.4337 64.6998 37.7396C64.4842 38.0455 64.191 38.3298 63.8159 38.5926L62.9536 39.2173C62.7768 39.338 62.6259 39.4715 62.5009 39.6137C62.3758 39.7602 62.2767 39.9196 62.212 40.0919H65.1008V41.1776H60.7202V41.1732ZM69.1149 41.2853C68.688 41.2853 68.3215 41.2077 68.024 41.0526C67.7265 40.8975 67.4808 40.6864 67.291 40.415C67.1013 40.1436 66.9634 39.8291 66.8728 39.4715C66.7823 39.1139 66.7435 38.7262 66.7435 38.3083C66.7435 37.8258 66.7952 37.3691 66.8987 36.9383C67.0022 36.5075 67.1574 36.1241 67.3643 35.7923C67.5713 35.4606 67.8386 35.2021 68.1663 35.0125C68.494 34.823 68.8863 34.7325 69.3434 34.7325C69.6754 34.7325 69.9987 34.7799 70.3178 34.879C70.6368 34.9738 70.9214 35.1159 71.1715 35.2969L70.5549 36.2016C70.3695 36.0681 70.1669 35.9733 69.9513 35.913C69.7357 35.8526 69.5374 35.8225 69.3563 35.8225C68.8906 35.8225 68.5285 36.0293 68.2612 36.4386C67.9938 36.8478 67.8688 37.4984 67.8817 38.3859L67.636 38.2135C67.7739 37.8818 67.9895 37.6147 68.2784 37.4165C68.5673 37.2183 68.9122 37.1192 69.3089 37.1192C69.7055 37.1192 70.072 37.214 70.3825 37.3993C70.6929 37.5845 70.9387 37.843 71.1154 38.1618C71.2922 38.4806 71.3827 38.8468 71.3827 39.2432C71.3827 39.6395 71.2879 39.9885 71.1025 40.2987C70.9171 40.6089 70.6498 40.8501 70.3092 41.0268C69.9686 41.2034 69.5676 41.2896 69.1105 41.2896L69.1149 41.2853ZM69.1149 40.2341C69.3132 40.2341 69.49 40.191 69.6495 40.1005C69.809 40.01 69.9297 39.8851 70.0203 39.73C70.1108 39.5749 70.1583 39.394 70.1583 39.1872C70.1583 38.9804 70.1108 38.7994 70.0203 38.64C69.9297 38.4806 69.8047 38.3557 69.6495 38.2609C69.4943 38.1661 69.3132 38.1187 69.1149 38.1187C68.9298 38.1163 68.7475 38.1634 68.5868 38.255C68.4261 38.3467 68.2928 38.4796 68.2008 38.64C68.1102 38.7994 68.0628 38.9804 68.0628 39.1872C68.0628 39.394 68.1102 39.5749 68.2008 39.73C68.2913 39.8851 68.4164 40.01 68.5759 40.1005C68.7354 40.191 68.9165 40.2341 69.1149 40.2341ZM41.055 84.6858C40.6152 84.6858 40.2229 84.5867 39.8822 84.3843C39.5416 84.1818 39.2743 83.9104 39.0803 83.5571C38.8863 83.2081 38.7914 82.8032 38.7914 82.3465C38.7914 81.8898 38.8863 81.4849 39.0803 81.1359C39.2743 80.7869 39.5416 80.5069 39.8779 80.3087C40.2142 80.1105 40.6066 80.0071 41.0464 80.0071C41.3568 80.0071 41.6457 80.0632 41.913 80.1709C42.1803 80.2786 42.4131 80.4337 42.6158 80.6318C42.8184 80.83 42.9693 81.054 43.0771 81.3082L42.2579 81.6141C42.1846 81.4547 42.0855 81.3168 41.9647 81.1962C41.844 81.0799 41.706 80.9851 41.5508 80.9205C41.3956 80.8516 41.2275 80.8214 41.0464 80.8214C40.7834 80.8214 40.5505 80.886 40.3436 81.0196C40.1366 81.1531 39.9771 81.3298 39.865 81.5581C39.7529 81.7864 39.6925 82.0492 39.6925 82.3508C39.6925 82.6524 39.7486 82.9195 39.8693 83.1478C39.9857 83.3805 40.1452 83.5614 40.3522 83.6906C40.5592 83.8242 40.7963 83.8888 41.0636 83.8888C41.249 83.8888 41.4172 83.8544 41.5724 83.7811C41.7233 83.7079 41.8613 83.6131 41.982 83.4881C42.0984 83.3632 42.1976 83.221 42.2709 83.0573L43.0944 83.3546C42.9866 83.6174 42.8314 83.85 42.633 84.0525C42.4347 84.255 42.1976 84.4101 41.9302 84.5221C41.6629 84.6341 41.3741 84.6901 41.0593 84.6901L41.055 84.6858ZM46.4617 84.6858C46.0047 84.6858 45.5994 84.5867 45.2502 84.3843C44.8966 84.1861 44.625 83.9104 44.4267 83.5571C44.2283 83.2081 44.1292 82.8032 44.1292 82.3508C44.1292 81.8984 44.2283 81.4849 44.4267 81.1316C44.625 80.7826 44.8966 80.5069 45.2459 80.3087C45.5951 80.1105 45.9918 80.0115 46.4445 80.0115C46.8972 80.0115 47.3025 80.1105 47.6517 80.313C48.001 80.5155 48.2726 80.7912 48.4709 81.1402C48.6693 81.4935 48.7684 81.8941 48.7684 82.3508C48.7684 82.8075 48.6693 83.2038 48.4752 83.5571C48.2769 83.9104 48.0096 84.1861 47.6604 84.3843C47.3154 84.5824 46.9144 84.6858 46.466 84.6858H46.4617ZM46.4617 83.8759C46.7377 83.8759 46.9791 83.8113 47.1904 83.6777C47.3973 83.5485 47.5612 83.3675 47.6819 83.1392C47.7983 82.9109 47.8587 82.6481 47.8587 82.3508C47.8587 82.0535 47.7983 81.7864 47.6776 81.5581C47.5569 81.3298 47.3887 81.1488 47.1818 81.0196C46.9705 80.886 46.7247 80.8214 46.4445 80.8214C46.1642 80.8214 45.9314 80.886 45.7158 81.0196C45.5046 81.1488 45.3364 81.3298 45.2157 81.5581C45.095 81.7864 45.0346 82.0535 45.0346 82.3508C45.0346 82.6481 45.095 82.9109 45.2157 83.1392C45.3364 83.3675 45.5046 83.5485 45.7201 83.6777C45.9357 83.807 46.1858 83.8759 46.466 83.8759H46.4617ZM50.1266 84.6083V80.0847H51.0924L52.4117 82.0363L53.7311 80.0847H54.6883V84.6083H53.8087V81.4676L52.4117 83.5226L51.0148 81.4719V84.6083H50.1266ZM56.318 84.6083V80.0847H57.2838L58.6032 82.0363L59.9225 80.0847H60.8797V84.6083H60.0001V81.4676L58.6032 83.5226L57.2062 81.4719V84.6083H56.318ZM62.5052 84.6083V80.0847H65.3724V80.8946H63.3934V81.92H65.1008V82.7084H63.3934V83.8027H65.3983V84.6126H62.5052V84.6083ZM66.9634 84.6083V80.0847H68.6449C68.9639 80.0847 69.2442 80.1493 69.49 80.2699C69.7357 80.3949 69.9254 80.5672 70.0634 80.7826C70.2014 80.998 70.2704 81.2522 70.2704 81.5409C70.2704 81.8295 70.1971 82.0794 70.0548 82.2991C69.9125 82.5231 69.7142 82.6954 69.4641 82.8161C69.214 82.941 68.9295 83.0013 68.6104 83.0013H67.8472V84.604H66.9591L66.9634 84.6083ZM67.8472 82.1957H68.6492C68.7829 82.1957 68.9036 82.1655 69.0071 82.1095C69.1105 82.0535 69.1968 81.976 69.2571 81.8769C69.3175 81.7778 69.352 81.6658 69.352 81.5409C69.352 81.347 69.283 81.1919 69.1407 81.0713C68.9984 80.9506 68.8217 80.8903 68.6018 80.8903H67.8472V82.1957ZM69.4512 84.6083L68.4034 82.7945L69.0804 82.312L70.4514 84.6126H69.4468L69.4512 84.6083ZM73.78 84.6858C73.3402 84.6858 72.9479 84.5867 72.6072 84.3843C72.2666 84.1818 71.9993 83.9104 71.8053 83.5571C71.6113 83.2081 71.5164 82.8032 71.5164 82.3465C71.5164 81.8898 71.6113 81.4849 71.8053 81.1359C71.9993 80.7869 72.2666 80.5069 72.6029 80.3087C72.9392 80.1105 73.3316 80.0071 73.7714 80.0071C74.0818 80.0071 74.3707 80.0632 74.638 80.1709C74.9053 80.2786 75.1381 80.4337 75.3408 80.6318C75.5434 80.83 75.6943 81.054 75.8021 81.3082L74.9829 81.6141C74.9096 81.4547 74.8105 81.3168 74.6897 81.1962C74.569 81.0799 74.431 80.9851 74.2758 80.9205C74.1206 80.8516 73.9525 80.8214 73.7714 80.8214C73.5084 80.8214 73.2755 80.886 73.0686 81.0196C72.8616 81.1531 72.7021 81.3298 72.59 81.5581C72.4779 81.7864 72.4175 82.0492 72.4175 82.3508C72.4175 82.6524 72.4736 82.9195 72.5943 83.1478C72.7107 83.3805 72.8703 83.5614 73.0772 83.6906C73.2842 83.8242 73.5213 83.8888 73.7886 83.8888C73.974 83.8888 74.1422 83.8544 74.2974 83.7811C74.4483 83.7079 74.5863 83.6131 74.707 83.4881C74.8234 83.3632 74.9226 83.221 74.9959 83.0573L75.8194 83.3546C75.7116 83.6174 75.5564 83.85 75.358 84.0525C75.1597 84.255 74.9226 84.4101 74.6552 84.5221C74.3879 84.6341 74.0991 84.6901 73.7843 84.6901L73.78 84.6858ZM77.1172 84.6083V80.0847H79.9844V80.8946H78.0054V81.92H79.7128V82.7084H78.0054V83.8027H80.0103V84.6126H77.1172V84.6083ZM40.4126 92.363V87.8394H42.0941C42.4131 87.8394 42.6934 87.904 42.9392 88.029C43.1849 88.1539 43.3746 88.3349 43.5126 88.5589C43.6506 88.7829 43.7196 89.0457 43.7196 89.343C43.7196 89.6402 43.6506 89.8987 43.5212 90.1227C43.3876 90.3511 43.2022 90.532 42.9693 90.6613C42.7365 90.7905 42.4649 90.8594 42.1588 90.8594H41.2921V92.3587H40.4039L40.4126 92.363ZM41.2964 90.0495H42.1415C42.3398 90.0495 42.5037 89.9849 42.6287 89.8513C42.7538 89.7178 42.8184 89.5498 42.8184 89.343C42.8184 89.1362 42.7495 88.9682 42.6072 88.8389C42.4692 88.7097 42.2881 88.645 42.0682 88.645H41.2921V90.0452L41.2964 90.0495ZM44.957 92.363V87.8394H46.6385C46.9576 87.8394 47.2378 87.904 47.4836 88.0247C47.7293 88.1496 47.919 88.3219 48.057 88.5373C48.195 88.7527 48.264 89.0069 48.264 89.2956C48.264 89.5842 48.1907 89.8341 48.0484 90.0538C47.9061 90.2778 47.7078 90.4502 47.4577 90.5708C47.2076 90.6957 46.9231 90.756 46.604 90.756H45.8409V92.3587H44.9527L44.957 92.363ZM45.8452 89.9504H46.6471C46.7808 89.9504 46.9015 89.9203 47.005 89.8643C47.1085 89.8082 47.1947 89.7307 47.2551 89.6316C47.3154 89.5325 47.3499 89.4205 47.3499 89.2956C47.3499 89.1017 47.2809 88.9466 47.1387 88.826C46.9964 88.7054 46.8196 88.645 46.5997 88.645H45.8452V89.9504ZM47.4491 92.363L46.4014 90.5493L47.0783 90.0667L48.4494 92.3673H47.4448L47.4491 92.363ZM51.8469 92.4405C51.3899 92.4405 50.9846 92.3415 50.6354 92.139C50.2818 91.9408 50.0102 91.6651 49.8118 91.3118C49.6135 90.9628 49.5143 90.5579 49.5143 90.1055C49.5143 89.6532 49.6135 89.2396 49.8118 88.8863C50.0102 88.5373 50.2818 88.2616 50.631 88.0634C50.9803 87.8653 51.3769 87.7662 51.8297 87.7662C52.2824 87.7662 52.6877 87.8653 53.0369 88.0677C53.3862 88.2702 53.6578 88.5459 53.8561 88.8949C54.0545 89.2482 54.1536 89.6488 54.1536 90.1055C54.1536 90.5622 54.0544 90.9585 53.8604 91.3118C53.6621 91.6651 53.3948 91.9408 53.0455 92.139C52.7006 92.3371 52.2996 92.4405 51.8512 92.4405H51.8469ZM51.8469 91.6306C52.1229 91.6306 52.3643 91.566 52.5756 91.4324C52.7825 91.3032 52.9464 91.1222 53.0671 90.8939C53.1835 90.6656 53.2439 90.4028 53.2439 90.1055C53.2439 89.8082 53.1835 89.5411 53.0628 89.3128C52.9421 89.0845 52.7739 88.9035 52.5669 88.7743C52.3557 88.6407 52.1099 88.5761 51.8297 88.5761C51.5494 88.5761 51.3166 88.6407 51.101 88.7743C50.8897 88.9035 50.7216 89.0845 50.6009 89.3128C50.4801 89.5411 50.4198 89.8082 50.4198 90.1055C50.4198 90.4028 50.4801 90.6656 50.6009 90.8939C50.7216 91.1222 50.8897 91.3032 51.1053 91.4324C51.3209 91.5617 51.571 91.6306 51.8512 91.6306H51.8469ZM55.5118 92.363V87.8394H56.9605C57.4218 87.8394 57.8314 87.9342 58.185 88.1281C58.5385 88.3219 58.8188 88.589 59.0171 88.9251C59.2154 89.2611 59.3189 89.6532 59.3189 90.0969C59.3189 90.5406 59.2197 90.9241 59.0171 91.2644C58.8144 91.6048 58.5385 91.8719 58.185 92.0657C57.8314 92.2596 57.4218 92.3544 56.9605 92.3544H55.5118V92.363ZM56.4 91.5358H56.9605C57.1674 91.5358 57.3571 91.5014 57.5339 91.4281C57.7107 91.3549 57.8659 91.2515 57.9952 91.1222C58.1289 90.993 58.2281 90.8422 58.3014 90.6656C58.3747 90.4889 58.4092 90.3037 58.4092 90.1012C58.4092 89.8987 58.3747 89.7092 58.3014 89.5368C58.2281 89.3645 58.1246 89.2094 57.9952 89.0802C57.8659 88.9509 57.7107 88.8475 57.5339 88.7743C57.3571 88.701 57.1674 88.6666 56.9605 88.6666H56.4V91.5358ZM62.4577 92.4535C62.0826 92.4535 61.7593 92.3802 61.4833 92.2337C61.2074 92.0873 60.9961 91.8805 60.8452 91.6177C60.6943 91.3506 60.621 91.0404 60.621 90.6785V87.8437H61.5049V90.6785C61.5049 90.8724 61.5437 91.0404 61.6256 91.1869C61.7075 91.329 61.8196 91.441 61.9619 91.5186C62.1042 91.5961 62.2767 91.6349 62.4707 91.6349C62.6647 91.6349 62.8329 91.5961 62.9795 91.5186C63.126 91.441 63.2382 91.329 63.3158 91.1869C63.3977 91.0447 63.4365 90.8724 63.4365 90.6785V87.8437H64.3247V90.6785C64.3247 91.0404 64.2471 91.3549 64.0962 91.6177C63.9453 91.8848 63.7297 92.0873 63.4494 92.2337C63.1735 92.3802 62.8415 92.4535 62.4621 92.4535H62.4577ZM67.886 92.4405C67.4463 92.4405 67.0539 92.3415 66.7133 92.139C66.3727 91.9365 66.1054 91.6651 65.9113 91.3118C65.7173 90.9628 65.6225 90.5579 65.6225 90.1012C65.6225 89.6445 65.7173 89.2396 65.9113 88.8906C66.1054 88.5416 66.3727 88.2616 66.709 88.0634C67.0453 87.8653 67.4376 87.7619 67.8774 87.7619C68.1879 87.7619 68.4767 87.8179 68.7441 87.9256C69.0114 88.0333 69.2442 88.1884 69.4468 88.3865C69.6495 88.5847 69.8004 88.8088 69.9082 89.0629L69.089 89.3688C69.0157 89.2094 68.9165 89.0716 68.7958 88.9509C68.6751 88.8346 68.5371 88.7398 68.3819 88.6752C68.2267 88.6063 68.0585 88.5761 67.8774 88.5761C67.6144 88.5761 67.3816 88.6407 67.1746 88.7743C66.9677 88.9078 66.8081 89.0845 66.696 89.3128C66.5839 89.5411 66.5236 89.8039 66.5236 90.1055C66.5236 90.4071 66.5796 90.6742 66.7004 90.9025C66.8168 91.1352 66.9763 91.3161 67.1833 91.4454C67.3902 91.5789 67.6273 91.6435 67.8947 91.6435C68.0801 91.6435 68.2482 91.6091 68.4034 91.5358C68.5543 91.4626 68.6923 91.3678 68.813 91.2429C68.9295 91.1179 69.0286 90.9758 69.1019 90.812L69.9254 91.1093C69.8176 91.3721 69.6624 91.6048 69.4641 91.8072C69.2658 92.0097 69.0286 92.1648 68.7613 92.2768C68.494 92.3888 68.2051 92.4449 67.8904 92.4449L67.886 92.4405ZM72.1804 92.363V88.6494H70.8222V87.8394H74.4181V88.6494H73.0686V92.363H72.1847H72.1804ZM77.1646 92.4405C76.9361 92.4405 76.7205 92.4147 76.5222 92.3587C76.3238 92.3027 76.1471 92.2251 75.9918 92.1217C75.8366 92.0226 75.7073 91.9063 75.6081 91.7814C75.5046 91.6565 75.44 91.5229 75.4098 91.385L76.2764 91.1266C76.3325 91.273 76.4316 91.398 76.5739 91.5057C76.7162 91.6134 76.8973 91.6651 77.1129 91.6694C77.3414 91.6737 77.5268 91.6263 77.6734 91.5229C77.82 91.4195 77.8889 91.2859 77.8889 91.1222C77.8889 90.9801 77.8329 90.8594 77.7165 90.7647C77.6044 90.6699 77.4449 90.5923 77.2465 90.5406L76.6558 90.3855C76.4359 90.3295 76.2419 90.2434 76.0738 90.1314C75.9056 90.0194 75.7763 89.8772 75.6814 89.7092C75.5866 89.5411 75.5391 89.3473 75.5391 89.1189C75.5391 88.6924 75.6814 88.3607 75.9617 88.1194C76.2419 87.8825 76.6429 87.7619 77.1603 87.7619C77.4492 87.7619 77.7035 87.8049 77.9191 87.8868C78.1347 87.973 78.3201 88.0893 78.4667 88.2444C78.6133 88.3995 78.7254 88.5847 78.803 88.7915L77.945 89.0586C77.8933 88.9121 77.7984 88.7872 77.6604 88.6838C77.5225 88.5804 77.3457 88.5287 77.1387 88.5287C76.9318 88.5287 76.755 88.5761 76.63 88.6752C76.5049 88.7743 76.4446 88.9121 76.4446 89.0931C76.4446 89.2353 76.492 89.3473 76.5912 89.4291C76.686 89.511 76.8197 89.5713 76.9878 89.6144L77.5828 89.7652C77.9709 89.8599 78.2727 90.028 78.4883 90.2735C78.7038 90.5191 78.8116 90.7948 78.8116 91.0964C78.8116 91.3635 78.7469 91.5961 78.6176 91.7986C78.4883 92.0011 78.2985 92.1562 78.0571 92.2682C77.8113 92.3802 77.5138 92.4362 77.1646 92.4362V92.4405Z" fill="black"/>
</g>
<defs>
<clipPath id="clip0_255_886">
<rect width="119" height="137" fill="white"/>
</clipPath>
</defs>
</svg>
