<svg width="119" height="137" viewBox="0 0 119 137" fill="none" xmlns="http://www.w3.org/2000/svg">
<g clip-path="url(#clip0_259_1043)">
<path d="M0 107.704L59.5 137L119 107.704V0H0V107.704Z" fill="white"/>
<path d="M0 107.704L59.5 137L119 107.704V0H0V107.704Z" fill="white"/>
<path d="M91.8369 -2.6537e-05H119V27.1415H91.8369V-2.6537e-05Z" fill="#FF492C"/>
<path fill-rule="evenodd" clip-rule="evenodd" d="M111.304 10.3913H108.984C109.049 10.0294 109.273 9.82692 109.726 9.59428L110.153 9.37887C110.916 8.98682 111.325 8.54739 111.325 7.82792C111.325 7.37557 111.149 7.01799 110.799 6.7595C110.454 6.50101 110.036 6.37607 109.553 6.37607C109.165 6.37607 108.816 6.47516 108.493 6.67764C108.178 6.87151 107.937 7.12569 107.79 7.44019L108.463 8.11226C108.721 7.58667 109.101 7.32818 109.596 7.32818C110.019 7.32818 110.278 7.54358 110.278 7.84516C110.278 8.09503 110.153 8.30613 109.67 8.5517L109.398 8.68525C108.803 8.98682 108.389 9.32717 108.148 9.71921C107.911 10.1026 107.79 10.5981 107.79 11.1926V11.352H111.304V10.3956V10.3913ZM110.989 12.4592H107.152L105.233 15.7808H109.07L110.989 19.1024L112.908 15.7808L110.989 12.4592Z" fill="white"/>
<path fill-rule="evenodd" clip-rule="evenodd" d="M105.556 17.9995C103.112 17.9995 101.12 16.0135 101.12 13.5707C101.12 11.128 103.112 9.14192 105.556 9.14192L107.074 5.9668C106.583 5.86771 106.074 5.81601 105.556 5.81601C101.271 5.81601 97.7913 9.2884 97.7913 13.5664C97.7913 17.8444 101.266 21.3168 105.556 21.3168C107.264 21.3168 108.846 20.7654 110.127 19.8305L108.445 16.9225C107.669 17.5903 106.66 17.9952 105.556 17.9952V17.9995Z" fill="white"/>
<path d="M0 107.562V99.8506L59.5 129.327L119 99.954V107.648L59.5 137L0 107.562Z" fill="#FF492C"/>
<path d="M0 99.8721V92.1605L59.5 121.637L119 92.2639V99.9583L59.5 129.31L0 99.8721Z" fill="#FFC800"/>
<path d="M0 92.182V84.4704L59.5 113.947L119 84.5738V92.2682L59.5 121.62L0 92.182Z" fill="#5746B2"/>
<path d="M118.392 26.5383H0.806257M92.1776 1.17611V26.5383M118.353 0.6462V107.304L59.5 136.281L0.646729 107.304V0.6462H118.353Z" stroke="black" stroke-width="1.29348"/>
<path d="M23.9552 68.8403V54.5716H18.6778V50.746H33.3717V54.5716H28.0943V68.8403H23.9552ZM39.5804 69.1505C38.218 69.1505 37.0193 68.8619 35.9846 68.2846C34.9498 67.7073 34.1349 66.9103 33.5399 65.8935C32.9449 64.8768 32.6474 63.705 32.6474 62.3781C32.6474 61.0511 32.9363 59.8793 33.514 58.8626C34.0918 57.8459 34.9023 57.0488 35.9458 56.4715C36.9892 55.8943 38.1749 55.6056 39.5028 55.6056C40.8308 55.6056 42.0682 55.8943 43.1116 56.4715C44.155 57.0488 44.9656 57.8459 45.5434 58.8626C46.1211 59.8793 46.41 61.0511 46.41 62.3781C46.41 63.705 46.1211 64.8768 45.5434 65.8935C44.9656 66.9103 44.1593 67.7073 43.1246 68.2846C42.0898 68.8619 40.9084 69.1505 39.5804 69.1505ZM39.5804 65.4282C40.0978 65.4282 40.5592 65.299 40.9645 65.0405C41.3697 64.782 41.6888 64.4244 41.9216 63.9678C42.1544 63.5111 42.2709 62.9812 42.2709 62.3781C42.2709 61.7749 42.1544 61.245 41.9216 60.7883C41.6888 60.3317 41.3654 59.9741 40.9515 59.7156C40.5376 59.4571 40.0633 59.3279 39.5287 59.3279C38.994 59.3279 38.5198 59.4571 38.1059 59.7156C37.6919 59.9741 37.3686 60.3317 37.1358 60.7883C36.9029 61.245 36.7865 61.7749 36.7865 62.3781C36.7865 62.9812 36.9029 63.5111 37.1358 63.9678C37.3686 64.4244 37.6963 64.782 38.1188 65.0405C38.5413 65.299 39.0285 65.4282 39.5804 65.4282ZM48.5054 74.0101V55.9158H52.3083L52.5411 58.2939V74.0101H48.5054ZM56.2146 69.1505C55.1453 69.1505 54.2485 68.8791 53.5241 68.3363C52.7998 67.7934 52.2565 67.0137 51.8943 65.9969C51.5322 64.9802 51.3511 63.7739 51.3511 62.3781C51.3511 60.9822 51.5322 59.7544 51.8943 58.7463C52.2565 57.7381 52.7998 56.9627 53.5241 56.4199C54.2485 55.877 55.1453 55.6056 56.2146 55.6056C57.4218 55.6056 58.4652 55.877 59.3448 56.4199C60.2243 56.9627 60.897 57.7381 61.3626 58.7463C61.8283 59.7544 62.0611 60.965 62.0611 62.3781C62.0611 63.7911 61.8283 64.9802 61.3626 65.9969C60.897 67.0137 60.2243 67.7934 59.3448 68.3363C58.4652 68.8791 57.4218 69.1505 56.2146 69.1505ZM55.1798 65.4282C55.6972 65.4282 56.1542 65.299 56.5509 65.0405C56.9475 64.782 57.2666 64.4244 57.508 63.9678C57.7495 63.5111 57.8702 62.9812 57.8702 62.3781C57.8702 61.7749 57.7581 61.245 57.5339 60.7883C57.3097 60.3317 56.995 59.9741 56.5897 59.7156C56.1844 59.4571 55.723 59.3279 55.2056 59.3279C54.6883 59.3279 54.2269 59.4571 53.8216 59.7156C53.4163 59.9741 53.1016 60.336 52.8774 60.8013C52.6532 61.2666 52.5411 61.7921 52.5411 62.3781C52.5411 62.964 52.6532 63.5111 52.8774 63.9678C53.1016 64.4244 53.412 64.782 53.8087 65.0405C54.2054 65.299 54.6624 65.4282 55.1798 65.4282ZM76.3928 69.1505C75.496 69.1505 74.5906 68.9954 73.6765 68.6852C72.7625 68.375 71.9476 67.927 71.2318 67.3411C70.5161 66.7552 70.0117 66.0314 69.7185 65.1698L73.6507 64.2392C73.9093 64.6872 74.2586 65.019 74.6984 65.2344C75.1381 65.4498 75.6081 65.5575 76.1083 65.5575C76.8671 65.5575 77.4837 65.3292 77.9579 64.8725C78.4322 64.4158 78.6693 63.7997 78.6693 63.0243C78.6693 62.3177 78.4408 61.7189 77.9838 61.2278C77.5268 60.7366 76.9016 60.4911 76.1083 60.4911C75.6254 60.4911 75.1985 60.6031 74.8277 60.8271C74.4569 61.0511 74.1853 61.3182 74.0128 61.6284L70.2617 60.8013L71.4517 50.746H81.9548V54.5199H74.97L74.4526 58.2164C74.901 57.9579 75.4098 57.7554 75.9789 57.6089C76.548 57.4624 77.1689 57.3892 77.8415 57.3892C78.7728 57.4064 79.6308 57.6477 80.4155 58.113C81.2002 58.5782 81.8254 59.2115 82.2911 60.0129C82.7567 60.8142 82.9896 61.7404 82.9896 62.7916C82.9896 64.0496 82.705 65.1568 82.1359 66.1133C81.5793 67.0576 80.774 67.831 79.8076 68.3492C78.8246 68.8834 77.6863 69.1505 76.3928 69.1505ZM92.2767 69.1505C90.7935 69.1505 89.4742 68.7499 88.3187 67.9485C87.1632 67.1472 86.2621 66.0443 85.6153 64.6398C84.9686 63.2354 84.6452 61.6198 84.6452 59.7931C84.6452 57.9665 84.9686 56.3509 85.6153 54.9465C86.2621 53.542 87.1589 52.4391 88.3058 51.6378C89.4526 50.8365 90.7677 50.4358 92.2509 50.4358C93.7341 50.4358 95.0793 50.8365 96.2348 51.6378C97.3903 52.4391 98.3 53.542 98.964 54.9465C99.628 56.3509 99.96 57.9665 99.96 59.7931C99.96 61.6198 99.6323 63.2354 98.977 64.6398C98.3216 66.0443 97.4162 67.1472 96.2606 67.9485C95.1051 68.7499 93.7772 69.1505 92.2767 69.1505ZM92.3026 65.3765C92.9925 65.3765 93.609 65.1353 94.1523 64.6528C94.6955 64.1703 95.1224 63.5111 95.4328 62.6753C95.7433 61.8395 95.8985 60.8788 95.8985 59.7931C95.8985 58.7075 95.7433 57.7166 95.4328 56.8722C95.1224 56.0278 94.6912 55.3643 94.1393 54.8818C93.5875 54.3993 92.958 54.1581 92.2509 54.1581C91.5438 54.1581 90.9488 54.3993 90.4141 54.8818C89.8795 55.3643 89.4613 56.0278 89.1594 56.8722C88.8576 57.7166 88.7067 58.6903 88.7067 59.7931C88.7067 60.896 88.8576 61.8438 89.1594 62.6882C89.4613 63.5326 89.8838 64.1918 90.4271 64.6657C90.9703 65.1396 91.5955 65.3765 92.3026 65.3765ZM47.8026 41.1732V40.2599C47.8026 40.0832 47.8587 39.8937 47.9665 39.6826C48.0743 39.4715 48.2252 39.2604 48.4192 39.0493C48.6132 38.8382 48.8374 38.64 49.1004 38.4591L50.0619 37.7698C50.1956 37.6793 50.3206 37.5759 50.437 37.4639C50.5534 37.3476 50.6526 37.2226 50.7259 37.0891C50.7992 36.9555 50.838 36.822 50.838 36.697C50.838 36.5419 50.7992 36.3998 50.7259 36.2705C50.6483 36.1456 50.5405 36.0422 50.3939 35.9732C50.2473 35.9043 50.0705 35.8655 49.8593 35.8655C49.6782 35.8655 49.5187 35.9 49.3764 35.9732C49.2341 36.0465 49.1177 36.1413 49.0271 36.2619C48.9366 36.3825 48.8719 36.5118 48.8374 36.6496L47.5612 36.4342C47.6215 36.1326 47.7509 35.8526 47.9492 35.5941C48.1476 35.3356 48.4106 35.1245 48.7339 34.9651C49.0573 34.8057 49.4238 34.7239 49.8334 34.7239C50.3034 34.7239 50.7087 34.81 51.045 34.9781C51.3813 35.1461 51.6443 35.3787 51.8297 35.6717C52.0151 35.9646 52.1056 36.305 52.1056 36.6884C52.1056 37.0718 51.9978 37.4294 51.7822 37.7353C51.5667 38.0412 51.2735 38.3255 50.8984 38.5883L50.036 39.213C49.8593 39.3336 49.7084 39.4672 49.5833 39.6093C49.4583 39.7515 49.3591 39.9152 49.2944 40.0876H52.1832V41.1732H47.8026ZM56.4215 41.2852C55.9084 41.2852 55.4557 41.1431 55.0634 40.863C54.671 40.583 54.3649 40.1953 54.1407 39.7041C53.9165 39.213 53.8044 38.6486 53.8044 38.0067C53.8044 37.3648 53.9165 36.8004 54.1407 36.3093C54.3649 35.8181 54.671 35.4304 55.059 35.1504C55.4471 34.8703 55.8998 34.7282 56.4129 34.7282C56.926 34.7282 57.3787 34.8703 57.7754 35.1504C58.172 35.4304 58.4781 35.8181 58.7023 36.3093C58.9265 36.8004 59.0386 37.3648 59.0386 38.0067C59.0386 38.6486 58.9265 39.213 58.7023 39.7041C58.4781 40.1953 58.172 40.583 57.7797 40.863C57.3873 41.1431 56.9346 41.2852 56.4215 41.2852ZM56.4215 40.1608C56.6931 40.1608 56.9346 40.0703 57.1502 39.8851C57.3658 39.6998 57.5339 39.4499 57.6546 39.1268C57.7754 38.8037 57.8357 38.4332 57.8357 38.011C57.8357 37.5888 57.7754 37.214 57.6546 36.8909C57.5339 36.5635 57.3658 36.3093 57.1502 36.1283C56.9346 35.9431 56.6888 35.8526 56.4129 35.8526C56.1369 35.8526 55.8998 35.9431 55.6885 36.1283C55.4773 36.3136 55.3134 36.5678 55.197 36.8909C55.0806 37.2183 55.0202 37.5888 55.0202 38.011C55.0202 38.4332 55.0806 38.8037 55.197 39.1268C55.3134 39.4499 55.4816 39.7041 55.6929 39.8851C55.9041 40.066 56.1499 40.1608 56.4215 40.1608ZM60.7202 41.1732V40.2599C60.7202 40.0832 60.7762 39.8937 60.884 39.6826C60.9918 39.4715 61.1427 39.2604 61.3367 39.0493C61.5308 38.8382 61.755 38.64 62.018 38.4591L62.9795 37.7698C63.1131 37.6793 63.2381 37.5759 63.3546 37.4639C63.471 37.3476 63.5701 37.2226 63.6434 37.0891C63.7167 36.9555 63.7555 36.822 63.7555 36.697C63.7555 36.5419 63.7167 36.3998 63.6434 36.2705C63.5658 36.1456 63.458 36.0422 63.3114 35.9732C63.1648 35.9043 62.9881 35.8655 62.7768 35.8655C62.5957 35.8655 62.4362 35.9 62.2939 35.9732C62.1516 36.0465 62.0352 36.1413 61.9447 36.2619C61.8541 36.3825 61.7895 36.5118 61.755 36.6496L60.4787 36.4342C60.5391 36.1326 60.6684 35.8526 60.8668 35.5941C61.0651 35.3356 61.3281 35.1245 61.6515 34.9651C61.9749 34.8057 62.3413 34.7239 62.7509 34.7239C63.2209 34.7239 63.6262 34.81 63.9625 34.9781C64.2988 35.1461 64.5618 35.3787 64.7472 35.6717C64.9326 35.9646 65.0231 36.305 65.0231 36.6884C65.0231 37.0718 64.9154 37.4294 64.6998 37.7353C64.4842 38.0412 64.191 38.3255 63.8159 38.5883L62.9536 39.213C62.7768 39.3336 62.6259 39.4672 62.5009 39.6093C62.3758 39.7515 62.2767 39.9152 62.212 40.0876H65.1008V41.1732H60.7202ZM69.1149 41.2852C68.688 41.2852 68.3215 41.2077 68.024 41.0526C67.7265 40.8975 67.4808 40.6864 67.291 40.415C67.1013 40.1436 66.9634 39.8291 66.8728 39.4715C66.7823 39.1139 66.7435 38.7262 66.7435 38.3083C66.7435 37.8258 66.7952 37.3691 66.8987 36.9383C67.0022 36.5075 67.1574 36.124 67.3643 35.7923C67.5626 35.4698 67.8382 35.2017 68.1663 35.0125C68.494 34.8273 68.8863 34.7325 69.3434 34.7325C69.6754 34.7325 69.9987 34.7799 70.3178 34.879C70.6368 34.9737 70.9214 35.1159 71.1715 35.2969L70.5549 36.2016C70.3695 36.068 70.1669 35.9732 69.9513 35.9129C69.7357 35.8526 69.5374 35.8225 69.3563 35.8225C68.8906 35.8225 68.5285 36.0293 68.2612 36.4385C67.9938 36.8478 67.8688 37.4983 67.8817 38.3858L67.636 38.2135C67.7739 37.8818 67.9895 37.6147 68.2784 37.4165C68.5673 37.2183 68.9122 37.1192 69.3089 37.1192C69.7055 37.1192 70.072 37.214 70.3825 37.3992C70.6929 37.5845 70.9387 37.843 71.1154 38.1618C71.2922 38.4806 71.3827 38.8425 71.3827 39.2431C71.3827 39.6438 71.2879 39.9885 71.1025 40.2987C70.9171 40.6088 70.6498 40.8501 70.3092 41.0267C69.9686 41.2034 69.5676 41.2895 69.1105 41.2895L69.1149 41.2852ZM69.1149 40.234C69.3132 40.234 69.49 40.1866 69.6495 40.0962C69.809 40.0057 69.9297 39.8808 70.0203 39.7257C70.1108 39.5706 70.1583 39.3896 70.1583 39.1828C70.1583 38.976 70.1108 38.7951 70.0203 38.6357C69.9297 38.4763 69.8047 38.3514 69.6495 38.2566C69.4943 38.1618 69.3132 38.1144 69.1149 38.1144C68.9298 38.112 68.7475 38.159 68.5868 38.2507C68.4261 38.3423 68.2928 38.4753 68.2008 38.6357C68.1102 38.7951 68.0628 38.976 68.0628 39.1828C68.0628 39.3896 68.1102 39.5706 68.2008 39.7257C68.2913 39.8808 68.4164 40.0057 68.5759 40.0962C68.7354 40.1866 68.9165 40.234 69.1149 40.234ZM48.8848 89.4808V84.3541H52.1315V85.2674H49.8895V86.4306H51.8254V87.3224H49.8895V88.5588H52.1617V89.4722H48.8848V89.4808ZM53.9337 89.4808V84.3541H55.0246L56.5207 86.5642L58.0168 84.3541H59.1033V89.4808H58.1073V85.9222L56.525 88.253L54.9426 85.9309V89.4851H53.938L53.9337 89.4808ZM60.9487 89.4808V84.3541H64.1953V85.2674H61.9533V86.4306H63.8892V87.3224H61.9533V88.5588H64.2255V89.4722H60.9487V89.4808ZM65.4974 89.4808L67.5196 84.3541H68.5242L66.5581 89.4808H65.4974ZM66.4503 88.3521V87.4646H69.6667V88.3521H66.4503ZM69.5546 89.4808L67.5885 84.3541H68.5931L70.6153 89.4808H69.5546ZM5.3938 17.3705V11.0375H7.54097C7.97644 11.0375 8.35586 11.1021 8.68354 11.2357C9.01123 11.3692 9.2613 11.5674 9.44239 11.8388C9.62347 12.1103 9.71402 12.442 9.71402 12.8383C9.71402 13.0839 9.65365 13.3122 9.52862 13.519C9.40358 13.7258 9.23112 13.9068 9.00691 14.0576C9.30441 14.2083 9.52862 14.4108 9.69246 14.6607C9.8563 14.9106 9.93391 15.2121 9.93391 15.5611C9.93391 15.9488 9.84768 16.2763 9.6709 16.5477C9.49412 16.8191 9.25268 17.0259 8.93793 17.1637C8.62318 17.3016 8.2567 17.3705 7.83416 17.3705H5.39811H5.3938ZM6.60536 13.6138H7.56684C7.83847 13.6138 8.05405 13.5449 8.20927 13.407C8.36449 13.2692 8.44641 13.071 8.44641 12.8211C8.44641 12.5712 8.36018 12.3731 8.1834 12.2309C8.00662 12.093 7.76949 12.0241 7.46768 12.0241H6.60536V13.6181V13.6138ZM6.60536 16.2763H7.70912C8.00662 16.2763 8.23945 16.203 8.4076 16.0565C8.57576 15.9101 8.66199 15.7119 8.66199 15.462C8.66199 15.2121 8.56713 15.001 8.38173 14.8503C8.19634 14.7038 7.93764 14.6305 7.60996 14.6305H6.60536V16.2763ZM11.8396 17.3705V11.0375H15.8494V12.1663H13.0771V13.6052H15.4657V14.7081H13.0771V16.2375H15.8839V17.3662H11.8353L11.8396 17.3705ZM20.2041 17.4782C19.8851 17.4782 19.5833 17.4395 19.3073 17.3619C19.0445 17.2902 18.7943 17.1783 18.5657 17.0302C18.3501 16.888 18.1691 16.7286 18.0268 16.5563C17.8845 16.384 17.7939 16.1987 17.7508 16.0048L18.9624 15.643C19.04 15.8498 19.178 16.0264 19.3806 16.1729C19.5833 16.3193 19.829 16.3969 20.1308 16.4055C20.4499 16.4098 20.7129 16.3409 20.9155 16.1987C21.1182 16.0522 21.2173 15.867 21.2173 15.6387C21.2173 15.4405 21.1354 15.2725 20.9759 15.1346C20.8164 14.9967 20.5965 14.8933 20.3205 14.8244L19.497 14.609C19.1909 14.5315 18.9193 14.4108 18.6821 14.2514C18.445 14.092 18.2639 13.8938 18.1302 13.6569C17.9966 13.4199 17.9319 13.1485 17.9319 12.834C17.9319 12.2352 18.1302 11.7699 18.5269 11.4382C18.9236 11.1064 19.4798 10.9341 20.2084 10.9341C20.6137 10.9341 20.9673 10.9944 21.2734 11.1108C21.5795 11.2271 21.8339 11.3951 22.0409 11.6148C22.2478 11.8302 22.403 12.0887 22.5108 12.386L21.3079 12.7565C21.2346 12.5497 21.1009 12.3774 20.9112 12.2309C20.7172 12.0844 20.4714 12.0155 20.1783 12.0155C19.8851 12.0155 19.6393 12.0844 19.4668 12.2223C19.2944 12.3601 19.2081 12.5583 19.2081 12.8125C19.2081 13.0107 19.2771 13.1701 19.4108 13.2821C19.5445 13.3984 19.7342 13.4846 19.967 13.5449L20.7991 13.7517C21.3424 13.8852 21.7649 14.1222 22.0667 14.4668C22.3685 14.8115 22.5195 15.1949 22.5195 15.6171C22.5195 15.9919 22.4289 16.3193 22.2478 16.5994C22.0667 16.8794 21.8037 17.0991 21.4588 17.2542C21.1139 17.4093 20.7 17.4912 20.2084 17.4912L20.2041 17.4782ZM25.8178 17.3705V12.1663H23.9164V11.0375H28.9523V12.1663H27.0596V17.3705H25.8178ZM35.8595 17.4782C35.5405 17.4782 35.2387 17.4395 34.9627 17.3619C34.6999 17.2902 34.4497 17.1783 34.2211 17.0302C34.0055 16.888 33.8244 16.7286 33.6822 16.5563C33.5399 16.384 33.4493 16.1987 33.4062 16.0048L34.6178 15.643C34.6954 15.8498 34.8334 16.0264 35.036 16.1729C35.2387 16.3193 35.4844 16.3969 35.7862 16.4055C36.1053 16.4098 36.3683 16.3409 36.5709 16.1987C36.7736 16.0522 36.8727 15.867 36.8727 15.6387C36.8727 15.4405 36.7908 15.2725 36.6313 15.1346C36.4718 14.9967 36.2519 14.8933 35.9759 14.8244L35.1524 14.609C34.8463 14.5315 34.5747 14.4108 34.3375 14.2514C34.1004 14.092 33.9193 13.8938 33.7856 13.6569C33.652 13.4199 33.5873 13.1485 33.5873 12.834C33.5873 12.2352 33.7856 11.7699 34.1823 11.4382C34.579 11.1064 35.1352 10.9341 35.8638 10.9341C36.2691 10.9341 36.6227 10.9944 36.9288 11.1108C37.2349 11.2271 37.4893 11.3951 37.6963 11.6148C37.9032 11.8302 38.0584 12.0887 38.1662 12.386L36.9633 12.7565C36.89 12.5497 36.7563 12.3774 36.5666 12.2309C36.3726 12.0844 36.1268 12.0155 35.8337 12.0155C35.5405 12.0155 35.2947 12.0844 35.1222 12.2223C34.9498 12.3601 34.8635 12.5583 34.8635 12.8125C34.8635 13.0107 34.9325 13.1701 35.0662 13.2821C35.1998 13.3984 35.3896 13.4846 35.6224 13.5449L36.4545 13.7517C36.9978 13.8852 37.4203 14.1222 37.7221 14.4668C38.0239 14.8115 38.1748 15.1949 38.1748 15.6171C38.1748 15.9919 38.0843 16.3193 37.9032 16.5994C37.7221 16.8794 37.4591 17.0991 37.1142 17.2542C36.7693 17.4093 36.3554 17.4912 35.8638 17.4912L35.8595 17.4782ZM43.0297 17.4782C42.3916 17.4782 41.8225 17.3361 41.3309 17.056C40.8472 16.7823 40.4476 16.3816 40.1754 15.8971C39.8995 15.406 39.7572 14.8416 39.7572 14.2083C39.7572 13.575 39.8952 12.9934 40.1754 12.5023C40.4444 12.0196 40.8412 11.6201 41.3223 11.3477C41.8095 11.072 42.37 10.9298 43.0038 10.9298C43.6376 10.9298 44.2068 11.072 44.694 11.352C45.1812 11.632 45.5606 12.0198 45.8409 12.5109C46.1168 13.002 46.2591 13.5664 46.2591 14.2083C46.2591 14.8503 46.1211 15.406 45.8452 15.8971C45.5779 16.3809 45.1827 16.7818 44.7026 17.056C44.2154 17.3361 43.6592 17.4782 43.034 17.4782H43.0297ZM43.0297 16.3495C43.4177 16.3495 43.7541 16.259 44.0472 16.0738C44.3404 15.8885 44.5689 15.6387 44.7371 15.3198C44.9052 15.001 44.9872 14.6305 44.9872 14.217C44.9872 13.8034 44.9009 13.4242 44.7328 13.1054C44.5646 12.7866 44.3318 12.5325 44.0343 12.3515C43.7368 12.1663 43.3962 12.0758 43.0038 12.0758C42.6115 12.0758 42.2838 12.1663 41.9863 12.3515C41.6888 12.5368 41.4517 12.7866 41.2835 13.1054C41.1154 13.4242 41.0291 13.7948 41.0291 14.217C41.0291 14.6392 41.1154 15.001 41.2835 15.3198C41.4517 15.6387 41.6888 15.8928 41.9906 16.0738C42.2924 16.259 42.6373 16.3495 43.034 16.3495H43.0297ZM48.1648 17.3705V11.0375H52.2306V12.1663H49.4065V13.687H51.7607V14.8158H49.4065V17.3662H48.1648V17.3705ZM55.4255 17.3705V12.1663H53.5241V11.0375H58.5601V12.1663H56.6673V17.3705H55.4255ZM61.5394 17.3705L59.6638 11.0375H60.9228L62.7251 17.3705H61.5394ZM61.6989 17.3705L63.4279 11.0375H64.5489L62.8285 17.3705H61.6989ZM65.2387 17.3705L63.5356 11.0375H64.6567L66.4244 17.3705H65.2387ZM65.3595 17.3705L67.1789 11.0375H68.4379L66.5451 17.3705H65.3595ZM68.8734 17.3705L71.3741 11.0375H72.6159L70.1884 17.3705H68.8777H68.8734ZM70.0505 15.9747V14.8804H74.0258V15.9747H70.0505ZM73.8792 17.3705L71.4517 11.0375H72.6935L75.1942 17.3705H73.8835H73.8792ZM76.8585 17.3705V11.0375H79.2126C79.661 11.0375 80.0534 11.1237 80.3983 11.3003C80.7432 11.477 81.0105 11.7139 81.2046 12.0198C81.3986 12.3257 81.4934 12.6789 81.4934 13.0839C81.4934 13.4889 81.3943 13.8378 81.1916 14.148C80.989 14.4582 80.713 14.6995 80.3638 14.8718C80.0146 15.0441 79.6136 15.1303 79.1695 15.1303H78.1002V17.3748H76.8585V17.3705ZM78.0959 13.9972H79.2169C79.4023 13.9972 79.5705 13.9585 79.7214 13.8809C79.8723 13.8034 79.9887 13.6957 80.0749 13.5535C80.1612 13.4113 80.2043 13.2562 80.2043 13.0839C80.2043 12.8125 80.1051 12.5928 79.9111 12.4248C79.7127 12.2567 79.4627 12.1706 79.1565 12.1706H78.0959V13.9972ZM80.3422 17.3705L78.8763 14.8287L79.8292 14.148L81.7478 17.3705H80.3466H80.3422ZM83.6018 17.3705V11.0375H87.6116V12.1663H84.8392V13.6052H87.2279V14.7081H84.8392V16.2375H87.6461V17.3662H83.5975L83.6018 17.3705Z" fill="black"/>
</g>
<defs>
<clipPath id="clip0_259_1043">
<rect width="119" height="137" fill="white"/>
</clipPath>
</defs>
</svg>
