<svg width="134" height="150" viewBox="0 0 134 150" fill="none" xmlns="http://www.w3.org/2000/svg">
<rect x="0.645122" y="102.103" width="62.4691" height="47.2517" fill="white" stroke="black" stroke-width="1.29"/>
<path d="M40.618 106.152C38.2107 106.152 36.8548 107.741 36.8548 110.854C36.8548 113.968 38.2107 115.556 40.618 115.556C43.0254 115.556 44.3813 113.968 44.3813 110.854C44.3813 107.741 42.9622 106.152 40.618 106.152ZM40.618 113.663C39.7525 113.663 39.5704 112.806 39.5704 110.854C39.5704 108.902 39.7562 108.046 40.618 108.046C41.4799 108.046 41.6657 108.902 41.6657 110.854C41.6657 112.806 41.4799 113.663 40.618 113.663ZM48.5793 106.152C46.172 106.152 44.816 107.741 44.816 110.854C44.816 113.968 46.172 115.556 48.5793 115.556C50.9866 115.556 52.3425 113.968 52.3425 110.854C52.3425 107.741 50.9234 106.152 48.5793 106.152ZM48.5793 113.663C47.7137 113.663 47.5316 112.806 47.5316 110.854C47.5316 108.902 47.7174 108.046 48.5793 108.046C49.4449 108.046 49.6269 108.902 49.6269 110.854C49.6269 112.806 49.4411 113.663 48.5793 113.663ZM56.5405 106.152C54.1332 106.152 52.7772 107.741 52.7772 110.854C52.7772 113.968 54.1332 115.556 56.5405 115.556C58.9478 115.556 60.3038 113.968 60.3038 110.854C60.3038 107.741 58.8846 106.152 56.5405 106.152ZM56.5405 113.663C55.6749 113.663 55.4928 112.806 55.4928 110.854C55.4928 108.902 55.6786 108.046 56.5405 108.046C57.4061 108.046 57.5881 108.902 57.5881 110.854C57.5881 112.806 57.4024 113.663 56.5405 113.663ZM35.744 109.939C35.1236 109.45 34.3843 109.145 33.5819 109.204C32.9652 109.204 32.2853 109.388 31.8544 109.814L32.0401 108.347H35.926V106.211H30.2495L29.6328 110.487L31.3009 111.343C31.7318 110.976 32.2259 110.733 32.7831 110.733C33.0915 110.733 33.3404 110.854 33.5856 111.038C33.8939 111.343 34.0165 111.77 34.0165 112.2C34.0165 112.384 34.0165 112.567 33.9534 112.689C33.8902 113.24 33.3961 113.604 32.8426 113.545C31.795 113.545 31.8544 112.262 32.1033 111.773L29.4508 113.178C29.6366 114.828 31.364 115.619 32.7831 115.619C33.7713 115.619 34.6964 115.314 35.3762 114.703C35.6214 114.461 35.8703 114.214 36.056 113.847C36.3644 113.358 36.487 112.748 36.487 112.196C36.6059 111.343 36.2975 110.549 35.744 109.939Z" fill="black"/>
<path d="M3.50586 115.143V113.335H4.64305V108.784H3.50586V106.856H9.25648V108.788H8.11929V113.339H9.25648V115.143H3.50586ZM14.7523 115.143V113.335H15.5091V111.467C15.5091 110.904 15.1288 110.656 14.5621 110.656C13.9308 110.656 13.4249 111.091 13.3603 111.714V111.778V113.335H14.1818V115.143H9.76232V113.335H10.5192V110.656H9.76232V108.848H13.2994V110.094C13.3641 110.03 13.4249 109.97 13.4896 109.906C14.0601 109.22 15.0071 108.848 15.8895 108.908C17.2777 108.908 18.4149 109.471 18.4149 110.964V113.331H19.1755V115.143H14.7523ZM26.5045 111.467L24.04 111.714C24.04 111.028 23.8498 110.345 23.0283 110.345C21.9558 110.345 21.8911 111.219 21.8911 112.029C21.8911 112.903 21.9558 113.774 23.0283 113.774C23.5341 113.838 24.04 113.462 24.1008 112.9C24.1008 112.836 24.1008 112.836 24.1008 112.776H26.5654V112.963C26.1851 114.959 24.3557 115.271 23.0892 115.271C21.0658 115.271 19.0462 114.273 19.0462 112.029C19.0462 109.786 21.0696 108.788 23.0892 108.788C23.0283 108.848 26.2535 108.661 26.5045 111.467ZM28.3986 114.145C28.3986 114.708 27.9574 115.143 27.3869 115.143C26.8164 115.143 26.3752 114.708 26.3752 114.145C26.3752 113.582 26.8164 113.147 27.3869 113.147C27.9574 113.147 28.3986 113.586 28.3986 114.145Z" fill="black"/>
<rect x="3.50586" y="118.426" width="49.4348" height="0.350602" fill="#050608"/>
<rect x="54.694" y="118.426" width="5.60963" height="19.2831" fill="#050608"/>
<rect x="3.50586" y="137.358" width="49.4348" height="0.350602" fill="#050608"/>
<rect x="3.85736" y="146.829" width="56.4469" height="0.350602" fill="#050608"/>
<path d="M26.8036 130.255V132.23H19.3487C19.4294 131.484 19.6716 130.777 20.0753 130.111C20.4789 129.44 21.2761 128.552 22.4669 127.447C23.4256 126.554 24.0134 125.948 24.2303 125.631C24.523 125.192 24.6693 124.758 24.6693 124.329C24.6693 123.855 24.5406 123.491 24.2833 123.239C24.031 122.982 23.6804 122.853 23.2313 122.853C22.7873 122.853 22.4341 122.987 22.1717 123.254C21.9093 123.522 21.758 123.966 21.7176 124.586L19.5984 124.374C19.7246 123.204 20.1207 122.364 20.7867 121.854C21.4527 121.344 22.2852 121.09 23.2843 121.09C24.3792 121.09 25.2395 121.385 25.8651 121.975C26.4908 122.565 26.8036 123.299 26.8036 124.177C26.8036 124.677 26.7128 125.154 26.5311 125.608C26.3546 126.057 26.072 126.529 25.6835 127.023C25.4262 127.351 24.962 127.823 24.2909 128.438C23.6198 129.054 23.1935 129.463 23.0118 129.665C22.8352 129.866 22.6914 130.063 22.5804 130.255H26.8036ZM30.0732 126.244C29.5232 126.012 29.1221 125.694 28.8698 125.29C28.6226 124.881 28.499 124.435 28.499 123.95C28.499 123.123 28.7866 122.439 29.3618 121.899C29.942 121.359 30.7644 121.09 31.8291 121.09C32.8836 121.09 33.701 121.359 34.2813 121.899C34.8666 122.439 35.1592 123.123 35.1592 123.95C35.1592 124.465 35.0255 124.924 34.7581 125.328C34.4906 125.726 34.1147 126.032 33.6304 126.244C34.2459 126.491 34.7127 126.852 35.0305 127.326C35.3535 127.8 35.5149 128.348 35.5149 128.968C35.5149 129.993 35.1869 130.825 34.531 131.466C33.8801 132.107 33.0123 132.427 31.9275 132.427C30.9183 132.427 30.0782 132.162 29.4072 131.632C28.615 131.007 28.2189 130.149 28.2189 129.059C28.2189 128.459 28.3678 127.909 28.6655 127.409C28.9631 126.905 29.4324 126.516 30.0732 126.244ZM30.5122 124.102C30.5122 124.526 30.6307 124.856 30.8679 125.093C31.1101 125.33 31.4305 125.449 31.8291 125.449C32.2327 125.449 32.5556 125.33 32.7978 125.093C33.04 124.851 33.1611 124.518 33.1611 124.094C33.1611 123.696 33.04 123.378 32.7978 123.141C32.5607 122.898 32.2453 122.777 31.8518 122.777C31.4431 122.777 31.1176 122.898 30.8754 123.141C30.6333 123.383 30.5122 123.703 30.5122 124.102ZM30.3154 128.855C30.3154 129.44 30.4642 129.897 30.7619 130.225C31.0647 130.553 31.4406 130.717 31.8896 130.717C32.3286 130.717 32.6919 130.56 32.9795 130.247C33.2671 129.929 33.4109 129.473 33.4109 128.877C33.4109 128.358 33.2646 127.941 32.9719 127.629C32.6793 127.311 32.3084 127.152 31.8593 127.152C31.3396 127.152 30.9511 127.331 30.6938 127.689C30.4415 128.047 30.3154 128.436 30.3154 128.855ZM44.0597 130.255V132.23H36.6048C36.6855 131.484 36.9277 130.777 37.3313 130.111C37.735 129.44 38.5322 128.552 39.723 127.447C40.6817 126.554 41.2695 125.948 41.4864 125.631C41.7791 125.192 41.9254 124.758 41.9254 124.329C41.9254 123.855 41.7967 123.491 41.5394 123.239C41.2871 122.982 40.9365 122.853 40.4874 122.853C40.0434 122.853 39.6902 122.987 39.4278 123.254C39.1654 123.522 39.0141 123.966 38.9737 124.586L36.8545 124.374C36.9807 123.204 37.3768 122.364 38.0428 121.854C38.7088 121.344 39.5413 121.09 40.5404 121.09C41.6353 121.09 42.4956 121.385 43.1212 121.975C43.7469 122.565 44.0597 123.299 44.0597 124.177C44.0597 124.677 43.9689 125.154 43.7872 125.608C43.6106 126.057 43.3281 126.529 42.9396 127.023C42.6822 127.351 42.2181 127.823 41.547 128.438C40.8759 129.054 40.4496 129.463 40.2679 129.665C40.0913 129.866 39.9475 130.063 39.8365 130.255H44.0597Z" fill="#FF0000"/>
<path d="M3.85736 120.528H4.46362L6.69279 124.059V120.528H7.26795V125.085H6.6648L4.4232 121.569V125.085H3.85736V120.528ZM7.70486 121.818C7.70486 121.451 7.80746 121.159 8.01265 120.941C8.21992 120.724 8.49351 120.615 8.83343 120.615C9.17128 120.615 9.44073 120.727 9.64178 120.951C9.8449 121.175 9.94646 121.476 9.94646 121.855C9.94646 122.239 9.84179 122.543 9.63245 122.766C9.42518 122.99 9.15055 123.102 8.80856 123.102C8.51424 123.102 8.25619 123.002 8.03442 122.801C7.81471 122.597 7.70486 122.27 7.70486 121.818ZM8.24894 121.837C8.24894 122.115 8.30386 122.324 8.41372 122.465C8.52564 122.606 8.66244 122.676 8.82411 122.676C8.97541 122.676 9.1091 122.609 9.22517 122.474C9.34331 122.337 9.40238 122.131 9.40238 121.855C9.40238 121.565 9.34124 121.356 9.21895 121.227C9.09874 121.097 8.96609 121.032 8.821 121.032C8.66555 121.032 8.53082 121.099 8.41683 121.234C8.3049 121.368 8.24894 121.569 8.24894 121.837Z" fill="black"/>
<path d="M24.503 142.769H25.1963C25.1849 142.983 25.1264 143.172 25.0209 143.336C24.9167 143.498 24.7719 143.626 24.5864 143.719C24.4009 143.81 24.1805 143.856 23.9251 143.856C23.7211 143.856 23.5385 143.821 23.3773 143.751C23.2161 143.681 23.0791 143.581 22.9664 143.451C22.8551 143.32 22.7695 143.162 22.7096 142.978C22.6511 142.793 22.6218 142.584 22.6218 142.351V142.161C22.6218 141.928 22.6525 141.719 22.7139 141.534C22.7752 141.348 22.863 141.19 22.9771 141.059C23.0912 140.927 23.2282 140.827 23.388 140.757C23.5478 140.687 23.7261 140.652 23.923 140.652C24.1884 140.652 24.4124 140.7 24.595 140.795C24.7776 140.891 24.9188 141.022 25.0187 141.189C25.12 141.356 25.1806 141.547 25.2006 141.761H24.5051C24.4994 141.639 24.4766 141.537 24.4366 141.455C24.3967 141.37 24.3353 141.307 24.2526 141.264C24.1698 141.221 24.06 141.2 23.923 141.2C23.8231 141.2 23.7354 141.218 23.6598 141.255C23.5856 141.293 23.5235 141.35 23.4736 141.429C23.4251 141.507 23.3887 141.607 23.3644 141.728C23.3402 141.848 23.3281 141.991 23.3281 142.156V142.351C23.3281 142.515 23.3388 142.657 23.3602 142.777C23.3816 142.897 23.4158 142.996 23.4629 143.075C23.5114 143.153 23.5735 143.212 23.6491 143.25C23.7247 143.289 23.8167 143.308 23.9251 143.308C24.0493 143.308 24.1527 143.289 24.2354 143.25C24.3182 143.21 24.3817 143.15 24.4259 143.07C24.4701 142.99 24.4958 142.89 24.503 142.769ZM26.7757 143.261V142.268C26.7757 142.198 26.765 142.138 26.7436 142.088C26.7222 142.038 26.6887 141.999 26.643 141.97C26.5974 141.942 26.5382 141.927 26.4654 141.927C26.404 141.927 26.3505 141.938 26.3049 141.96C26.2607 141.981 26.2264 142.012 26.2022 142.052C26.1793 142.092 26.1679 142.141 26.1679 142.199H25.5002C25.5002 142.095 25.5238 141.998 25.5708 141.908C25.6179 141.818 25.685 141.739 25.772 141.671C25.8605 141.602 25.966 141.549 26.0887 141.512C26.2114 141.474 26.3491 141.455 26.5018 141.455C26.683 141.455 26.8442 141.485 26.9854 141.547C27.1281 141.606 27.2408 141.697 27.3236 141.818C27.4063 141.938 27.4477 142.089 27.4477 142.272V143.241C27.4477 143.381 27.4555 143.491 27.4712 143.571C27.4883 143.65 27.5126 143.718 27.544 143.776V143.813H26.8699C26.8385 143.746 26.8149 143.663 26.7992 143.565C26.7836 143.465 26.7757 143.363 26.7757 143.261ZM26.8592 142.4L26.8634 142.769H26.5317C26.4575 142.769 26.3933 142.778 26.3391 142.796C26.2863 142.815 26.2435 142.841 26.2107 142.873C26.1779 142.905 26.1537 142.942 26.138 142.985C26.1237 143.026 26.1166 143.072 26.1166 143.122C26.1166 143.169 26.128 143.212 26.1508 143.25C26.1736 143.287 26.205 143.316 26.245 143.338C26.2849 143.359 26.3313 143.37 26.3841 143.37C26.4711 143.37 26.5453 143.353 26.6066 143.319C26.6694 143.284 26.7179 143.243 26.7522 143.194C26.7864 143.144 26.8035 143.098 26.8035 143.055L26.964 143.333C26.9384 143.391 26.907 143.45 26.8699 143.511C26.8328 143.571 26.7857 143.627 26.7286 143.68C26.6716 143.732 26.6024 143.774 26.521 143.806C26.4411 143.839 26.3448 143.856 26.2321 143.856C26.0866 143.856 25.9546 143.826 25.8362 143.768C25.7178 143.708 25.6229 143.626 25.5516 143.522C25.4817 143.418 25.4467 143.298 25.4467 143.162C25.4467 143.041 25.4688 142.933 25.5131 142.839C25.5573 142.745 25.6236 142.665 25.7121 142.599C25.802 142.534 25.9147 142.485 26.0502 142.452C26.1858 142.418 26.3441 142.4 26.5253 142.4H26.8592ZM28.5905 140.526V143.813H27.9206V140.526H28.5905ZM29.7761 141.497V143.813H29.1062V141.497H29.7761ZM29.0656 140.898C29.0656 140.801 29.0998 140.722 29.1683 140.661C29.2368 140.598 29.3267 140.566 29.4379 140.566C29.5492 140.566 29.6391 140.598 29.7076 140.661C29.7775 140.722 29.8125 140.801 29.8125 140.898C29.8125 140.994 29.7775 141.073 29.7076 141.136C29.6391 141.197 29.5492 141.228 29.4379 141.228C29.3267 141.228 29.2368 141.197 29.1683 141.136C29.0998 141.073 29.0656 140.994 29.0656 140.898ZM31.0901 143.813H30.4181V141.3C30.4181 141.122 30.4531 140.972 30.523 140.851C30.5943 140.73 30.6949 140.638 30.8247 140.575C30.9545 140.512 31.1079 140.481 31.2848 140.481C31.3462 140.481 31.4032 140.485 31.456 140.494C31.5102 140.501 31.563 140.511 31.6144 140.524V141.022C31.5873 141.015 31.5595 141.01 31.5309 141.007C31.5024 141.004 31.4682 141.003 31.4282 141.003C31.3569 141.003 31.2955 141.014 31.2442 141.037C31.1942 141.059 31.1557 141.092 31.1286 141.138C31.1029 141.182 31.0901 141.236 31.0901 141.3V143.813ZM31.5481 141.497V141.966H30.08V141.497H31.5481ZM31.7407 142.679V142.634C31.7407 142.464 31.7649 142.308 31.8134 142.165C31.8619 142.021 31.9333 141.896 32.0274 141.791C32.1216 141.685 32.2372 141.603 32.3741 141.544C32.5111 141.484 32.668 141.455 32.8449 141.455C33.0247 141.455 33.1831 141.484 33.32 141.544C33.4584 141.603 33.5747 141.685 33.6689 141.791C33.763 141.896 33.8344 142.021 33.8829 142.165C33.9314 142.308 33.9556 142.464 33.9556 142.634V142.679C33.9556 142.847 33.9314 143.003 33.8829 143.147C33.8344 143.29 33.763 143.415 33.6689 143.522C33.5747 143.627 33.4591 143.709 33.3222 143.768C33.1852 143.826 33.0275 143.856 32.8492 143.856C32.6723 143.856 32.5146 143.826 32.3763 143.768C32.2379 143.709 32.1216 143.627 32.0274 143.522C31.9333 143.415 31.8619 143.29 31.8134 143.147C31.7649 143.003 31.7407 142.847 31.7407 142.679ZM32.4105 142.634V142.679C32.4105 142.77 32.4176 142.856 32.4319 142.935C32.4476 143.015 32.4726 143.085 32.5068 143.145C32.541 143.205 32.586 143.252 32.6416 143.286C32.6987 143.319 32.7679 143.336 32.8492 143.336C32.9305 143.336 32.999 143.319 33.0547 143.286C33.1103 143.252 33.1552 143.205 33.1895 143.145C33.2237 143.085 33.248 143.015 33.2622 142.935C33.2779 142.856 33.2858 142.77 33.2858 142.679V142.634C33.2858 142.544 33.2779 142.46 33.2622 142.381C33.248 142.301 33.2237 142.231 33.1895 142.169C33.1552 142.108 33.1096 142.06 33.0525 142.026C32.9969 141.992 32.9277 141.975 32.8449 141.975C32.765 141.975 32.6973 141.992 32.6416 142.026C32.586 142.06 32.541 142.108 32.5068 142.169C32.4726 142.231 32.4476 142.301 32.4319 142.381C32.4176 142.46 32.4105 142.544 32.4105 142.634ZM34.9764 142.037V143.813H34.3087V141.497H34.9358L34.9764 142.037ZM35.6677 141.48L35.657 142.103C35.6284 142.099 35.5913 142.095 35.5457 142.092C35.5 142.088 35.4608 142.086 35.428 142.086C35.3424 142.086 35.2682 142.097 35.2054 142.118C35.1441 142.138 35.0927 142.168 35.0513 142.208C35.0114 142.248 34.9814 142.298 34.9615 142.358C34.9415 142.416 34.9315 142.484 34.9315 142.561L34.8052 142.499C34.8052 142.346 34.8202 142.206 34.8502 142.079C34.8801 141.952 34.9236 141.843 34.9807 141.75C35.0378 141.656 35.1077 141.583 35.1904 141.532C35.2732 141.48 35.3674 141.455 35.4729 141.455C35.5072 141.455 35.5421 141.457 35.5778 141.461C35.6135 141.465 35.6434 141.472 35.6677 141.48ZM36.5965 141.992V143.813H35.9266V141.497H36.5558L36.5965 141.992ZM36.5087 142.574L36.3418 142.578C36.3418 142.404 36.3632 142.248 36.406 142.109C36.4488 141.971 36.5094 141.853 36.5879 141.756C36.6678 141.658 36.7627 141.583 36.8725 141.532C36.9838 141.48 37.1065 141.455 37.2406 141.455C37.3491 141.455 37.4482 141.47 37.5381 141.502C37.628 141.533 37.705 141.584 37.7692 141.654C37.8348 141.722 37.8848 141.813 37.919 141.927C37.9533 142.04 37.9704 142.179 37.9704 142.345V143.813H37.2984V142.343C37.2984 142.246 37.2849 142.171 37.2577 142.118C37.2306 142.065 37.1907 142.028 37.1379 142.007C37.0865 141.985 37.0238 141.975 36.9496 141.975C36.8711 141.975 36.804 141.99 36.7484 142.022C36.6928 142.052 36.6471 142.094 36.6114 142.148C36.5758 142.202 36.5494 142.266 36.5323 142.338C36.5166 142.411 36.5087 142.49 36.5087 142.574ZM39.111 141.497V143.813H38.4412V141.497H39.111ZM38.4005 140.898C38.4005 140.801 38.4348 140.722 38.5033 140.661C38.5717 140.598 38.6616 140.566 38.7729 140.566C38.8842 140.566 38.9741 140.598 39.0426 140.661C39.1125 140.722 39.1474 140.801 39.1474 140.898C39.1474 140.994 39.1125 141.073 39.0426 141.136C38.9741 141.197 38.8842 141.228 38.7729 141.228C38.6616 141.228 38.5717 141.197 38.5033 141.136C38.4348 141.073 38.4005 140.994 38.4005 140.898ZM40.8188 143.261V142.268C40.8188 142.198 40.8081 142.138 40.7867 142.088C40.7653 142.038 40.7318 141.999 40.6861 141.97C40.6405 141.942 40.5813 141.927 40.5085 141.927C40.4472 141.927 40.3937 141.938 40.348 141.96C40.3038 141.981 40.2695 142.012 40.2453 142.052C40.2224 142.092 40.211 142.141 40.211 142.199H39.5433C39.5433 142.095 39.5669 141.998 39.614 141.908C39.661 141.818 39.7281 141.739 39.8151 141.671C39.9036 141.602 40.0092 141.549 40.1319 141.512C40.2545 141.474 40.3922 141.455 40.5449 141.455C40.7261 141.455 40.8873 141.485 41.0285 141.547C41.1712 141.606 41.2839 141.697 41.3667 141.818C41.4494 141.938 41.4908 142.089 41.4908 142.272V143.241C41.4908 143.381 41.4986 143.491 41.5143 143.571C41.5315 143.65 41.5557 143.718 41.5871 143.776V143.813H40.913C40.8816 143.746 40.858 143.663 40.8424 143.565C40.8267 143.465 40.8188 143.363 40.8188 143.261ZM40.9023 142.4L40.9066 142.769H40.5748C40.5007 142.769 40.4365 142.778 40.3822 142.796C40.3294 142.815 40.2866 142.841 40.2538 142.873C40.221 142.905 40.1968 142.942 40.1811 142.985C40.1668 143.026 40.1597 143.072 40.1597 143.122C40.1597 143.169 40.1711 143.212 40.1939 143.25C40.2167 143.287 40.2481 143.316 40.2881 143.338C40.328 143.359 40.3744 143.37 40.4272 143.37C40.5142 143.37 40.5884 143.353 40.6497 143.319C40.7125 143.284 40.761 143.243 40.7953 143.194C40.8295 143.144 40.8466 143.098 40.8466 143.055L41.0071 143.333C40.9815 143.391 40.9501 143.45 40.913 143.511C40.8759 143.571 40.8288 143.627 40.7717 143.68C40.7147 143.732 40.6455 143.774 40.5641 143.806C40.4842 143.839 40.3879 143.856 40.2752 143.856C40.1297 143.856 39.9977 143.826 39.8793 143.768C39.7609 143.708 39.666 143.626 39.5947 143.522C39.5248 143.418 39.4898 143.298 39.4898 143.162C39.4898 143.041 39.5119 142.933 39.5562 142.839C39.6004 142.745 39.6667 142.665 39.7552 142.599C39.8451 142.534 39.9578 142.485 40.0933 142.452C40.2289 142.418 40.3872 142.4 40.5684 142.4H40.9023Z" fill="#FF0000"/>
<path d="M55.8962 124.876L55.8962 122.859C56.0954 122.882 56.2824 122.952 56.4574 123.069C56.6335 123.187 56.8409 123.407 57.0797 123.729C57.2261 123.926 57.3372 124.052 57.4131 124.107C57.4891 124.162 57.5612 124.19 57.6294 124.19C57.7031 124.19 57.7658 124.162 57.8176 124.107C57.8704 124.053 57.8968 123.985 57.8968 123.903C57.8968 123.817 57.8698 123.746 57.8159 123.691C57.762 123.637 57.6668 123.601 57.5303 123.582L57.5848 122.909C57.7741 122.935 57.9216 122.984 58.0272 123.054C58.1339 123.124 58.2154 123.224 58.2715 123.351C58.3287 123.48 58.3573 123.658 58.3573 123.884C58.3573 124.121 58.3304 124.305 58.2765 124.436C58.2225 124.568 58.1394 124.671 58.0272 124.746C57.9161 124.822 57.7912 124.86 57.6525 124.86C57.505 124.86 57.3642 124.816 57.2299 124.729C57.0957 124.644 56.9482 124.487 56.7875 124.259C56.694 124.124 56.6285 124.033 56.5911 123.987C56.5537 123.942 56.5047 123.888 56.4442 123.827L56.4442 124.876L55.8962 124.876ZM57.116 126.009C57.576 126.009 57.8979 126.091 58.0817 126.256C58.2654 126.423 58.3573 126.675 58.3573 127.014C58.3573 127.177 58.337 127.311 58.2963 127.415C58.2566 127.52 58.2044 127.605 58.1394 127.671C58.0756 127.737 58.0079 127.789 57.9364 127.826C57.866 127.865 57.7835 127.895 57.6888 127.919C57.5083 127.964 57.3202 127.986 57.1243 127.986C56.6852 127.986 56.3639 127.912 56.1603 127.763C55.9567 127.615 55.8549 127.359 55.8549 126.996C55.8549 126.792 55.8874 126.628 55.9523 126.502C56.0172 126.377 56.1124 126.274 56.2379 126.194C56.327 126.135 56.4486 126.09 56.6027 126.057C56.7578 126.025 56.929 126.009 57.116 126.009ZM57.1144 126.676C56.8063 126.676 56.5955 126.703 56.4822 126.757C56.3699 126.812 56.3138 126.891 56.3138 126.994C56.3138 127.062 56.3375 127.121 56.3848 127.171C56.4332 127.221 56.5091 127.258 56.6126 127.281C56.716 127.306 56.8772 127.318 57.0962 127.318C57.4176 127.318 57.6332 127.29 57.7433 127.235C57.8544 127.181 57.91 127.1 57.91 126.991C57.91 126.88 57.8533 126.799 57.74 126.75C57.6277 126.7 57.4192 126.676 57.1144 126.676ZM55.8962 131.076L55.8962 129.059C56.0954 129.082 56.2824 129.152 56.4574 129.269C56.6335 129.387 56.8409 129.607 57.0797 129.929C57.2261 130.126 57.3372 130.252 57.4131 130.307C57.4891 130.362 57.5612 130.39 57.6294 130.39C57.7031 130.39 57.7658 130.362 57.8176 130.307C57.8704 130.253 57.8968 130.185 57.8968 130.102C57.8968 130.017 57.8698 129.946 57.8159 129.891C57.762 129.837 57.6668 129.801 57.5303 129.782L57.5848 129.109C57.7741 129.135 57.9216 129.184 58.0272 129.254C58.1339 129.324 58.2154 129.423 58.2715 129.551C58.3287 129.68 58.3573 129.858 58.3573 130.084C58.3573 130.321 58.3304 130.505 58.2765 130.636C58.2225 130.768 58.1394 130.871 58.0272 130.946C57.9161 131.022 57.7912 131.06 57.6525 131.06C57.505 131.06 57.3642 131.016 57.2299 130.929C57.0957 130.844 56.9482 130.687 56.7875 130.459C56.694 130.324 56.6285 130.233 56.5911 130.187C56.5537 130.142 56.5047 130.088 56.4442 130.027L56.4442 131.076L55.8962 131.076ZM55.8962 134.176L55.8962 132.159C56.0954 132.182 56.2824 132.252 56.4574 132.369C56.6335 132.487 56.8409 132.707 57.0797 133.029C57.2261 133.226 57.3372 133.352 57.4131 133.407C57.4891 133.462 57.5612 133.49 57.6294 133.49C57.7031 133.49 57.7658 133.462 57.8176 133.407C57.8704 133.353 57.8968 133.285 57.8968 133.202C57.8968 133.117 57.8698 133.046 57.8159 132.991C57.762 132.937 57.6668 132.901 57.5303 132.882L57.5848 132.209C57.7741 132.235 57.9216 132.284 58.0272 132.354C58.1339 132.424 58.2154 132.523 58.2715 132.651C58.3287 132.78 58.3573 132.958 58.3573 133.184C58.3573 133.421 58.3304 133.605 58.2765 133.736C58.2225 133.868 58.1394 133.971 58.0272 134.046C57.9161 134.122 57.7912 134.16 57.6525 134.16C57.505 134.16 57.3642 134.116 57.2299 134.029C57.0957 133.944 56.9482 133.787 56.7875 133.559C56.694 133.424 56.6285 133.333 56.5911 133.287C56.5537 133.241 56.5047 133.188 56.4442 133.126L56.4442 134.176L55.8962 134.176Z" fill="white"/>
<rect x="70.0129" y="102.103" width="62.4691" height="47.2517" fill="white" stroke="black" stroke-width="1.29"/>
<path d="M109.986 106.114C107.579 106.114 106.223 107.702 106.223 110.816C106.223 113.93 107.579 115.518 109.986 115.518C112.394 115.518 113.75 113.93 113.75 110.816C113.75 107.702 112.33 106.114 109.986 106.114ZM109.986 113.625C109.121 113.625 108.939 112.768 108.939 110.816C108.939 108.864 109.124 108.007 109.986 108.007C110.848 108.007 111.034 108.864 111.034 110.816C111.034 112.768 110.848 113.625 109.986 113.625ZM117.948 106.114C115.54 106.114 114.184 107.702 114.184 110.816C114.184 113.93 115.54 115.518 117.948 115.518C120.355 115.518 121.711 113.93 121.711 110.816C121.711 107.702 120.292 106.114 117.948 106.114ZM117.948 113.625C117.082 113.625 116.9 112.768 116.9 110.816C116.9 108.864 117.086 108.007 117.948 108.007C118.813 108.007 118.995 108.864 118.995 110.816C118.995 112.768 118.809 113.625 117.948 113.625ZM125.909 106.114C123.501 106.114 122.145 107.702 122.145 110.816C122.145 113.93 123.501 115.518 125.909 115.518C128.316 115.518 129.672 113.93 129.672 110.816C129.672 107.702 128.253 106.114 125.909 106.114ZM125.909 113.625C125.043 113.625 124.861 112.768 124.861 110.816C124.861 108.864 125.047 108.007 125.909 108.007C126.774 108.007 126.956 108.864 126.956 110.816C126.956 112.768 126.771 113.625 125.909 113.625ZM105.112 109.901C104.492 109.412 103.753 109.107 102.95 109.165C102.333 109.165 101.654 109.349 101.223 109.776L101.408 108.309H105.294V106.173H99.6178L99.0011 110.448L100.669 111.305C101.1 110.937 101.594 110.695 102.151 110.695C102.46 110.695 102.709 110.816 102.954 111C103.262 111.305 103.385 111.731 103.385 112.162C103.385 112.345 103.385 112.529 103.322 112.65C103.258 113.202 102.764 113.566 102.211 113.507C101.163 113.507 101.223 112.224 101.472 111.735L98.8191 113.139C99.0048 114.79 100.732 115.58 102.151 115.58C103.14 115.58 104.065 115.275 104.744 114.665C104.99 114.422 105.239 114.176 105.424 113.808C105.733 113.32 105.855 112.709 105.855 112.158C105.974 111.305 105.666 110.511 105.112 109.901Z" fill="black"/>
<path d="M72.8739 115.101V113.293H74.0111V108.743H72.8739V106.814H78.6245V108.746H77.4873V113.297H78.6245V115.101H72.8739ZM84.1203 115.101V113.293H84.8772V111.425C84.8772 110.862 84.4968 110.614 83.9302 110.614C83.2988 110.614 82.793 111.05 82.7283 111.672V111.736V113.293H83.5498V115.101H79.1304V113.293H79.8872V110.614H79.1304V108.806H82.6675V110.052C82.7321 109.988 82.793 109.928 82.8576 109.864C83.4281 109.178 84.3751 108.806 85.2575 108.866C86.6457 108.866 87.7829 109.429 87.7829 110.922V113.289H88.5436V115.101H84.1203ZM95.8726 111.425L93.408 111.672C93.408 110.986 93.2179 110.303 92.3963 110.303C91.3238 110.303 91.2591 111.177 91.2591 111.987C91.2591 112.862 91.3238 113.732 92.3963 113.732C92.9022 113.796 93.408 113.421 93.4689 112.858C93.4689 112.794 93.4689 112.794 93.4689 112.734H95.9334V112.922C95.5531 114.917 93.7237 115.229 92.4572 115.229C90.4338 115.229 88.4143 114.231 88.4143 111.987C88.4143 109.744 90.4376 108.746 92.4572 108.746C92.3963 108.806 95.6216 108.619 95.8726 111.425ZM97.7666 114.103C97.7666 114.666 97.3254 115.101 96.7549 115.101C96.1844 115.101 95.7433 114.666 95.7433 114.103C95.7433 113.541 96.1844 113.105 96.7549 113.105C97.3254 113.105 97.7666 113.544 97.7666 114.103Z" fill="black"/>
<rect x="72.8739" y="118.385" width="49.4348" height="0.350602" fill="#050608"/>
<rect x="124.062" y="118.385" width="5.60963" height="19.2831" fill="#050608"/>
<rect x="72.8741" y="137.319" width="49.4348" height="0.350602" fill="#050608"/>
<rect x="73.2255" y="146.789" width="56.4469" height="0.350602" fill="#050608"/>
<path d="M94.4311 132.189H92.3044V124.174C91.5273 124.901 90.6115 125.438 89.557 125.786V123.857C90.112 123.675 90.715 123.332 91.3659 122.827C92.0168 122.318 92.4633 121.725 92.7055 121.049H94.4311V132.189ZM97.6174 123.221V121.245H104.891V122.789C104.29 123.38 103.68 124.227 103.059 125.332C102.439 126.437 101.964 127.613 101.636 128.859C101.313 130.1 101.154 131.211 101.159 132.189H99.1084C99.1437 130.656 99.4591 129.091 100.054 127.497C100.655 125.903 101.455 124.477 102.454 123.221H97.6174ZM106.276 129.336L108.395 129.117C108.455 129.596 108.635 129.977 108.932 130.259C109.23 130.537 109.573 130.676 109.962 130.676C110.406 130.676 110.781 130.497 111.089 130.138C111.397 129.775 111.551 129.23 111.551 128.504C111.551 127.822 111.397 127.313 111.089 126.975C110.787 126.632 110.39 126.46 109.901 126.46C109.291 126.46 108.743 126.73 108.259 127.27L106.533 127.02L107.623 121.245H113.246V123.236H109.235L108.902 125.12C109.376 124.883 109.861 124.765 110.355 124.765C111.299 124.765 112.098 125.108 112.754 125.794C113.41 126.48 113.738 127.371 113.738 128.466C113.738 129.379 113.473 130.194 112.944 130.91C112.222 131.889 111.22 132.379 109.939 132.379C108.915 132.379 108.08 132.104 107.434 131.554C106.788 131.004 106.402 130.264 106.276 129.336Z" fill="#FF0000"/>
<path d="M73.2254 120.489H73.8317L76.0608 124.02V120.489H76.636V125.046H76.0328L73.7912 121.53V125.046H73.2254V120.489ZM77.0729 121.779C77.0729 121.412 77.1755 121.12 77.3807 120.902C77.588 120.685 77.8616 120.576 78.2015 120.576C78.5393 120.576 78.8088 120.688 79.0098 120.912C79.2129 121.136 79.3145 121.437 79.3145 121.816C79.3145 122.2 79.2098 122.503 79.0005 122.727C78.7932 122.951 78.5186 123.063 78.1766 123.063C77.8823 123.063 77.6242 122.963 77.4025 122.762C77.1828 122.558 77.0729 122.231 77.0729 121.779ZM77.617 121.798C77.617 122.075 77.6719 122.285 77.7818 122.426C77.8937 122.567 78.0305 122.637 78.1921 122.637C78.3435 122.637 78.4771 122.57 78.5932 122.435C78.7114 122.298 78.7704 122.092 78.7704 121.816C78.7704 121.526 78.7093 121.317 78.587 121.188C78.4668 121.058 78.3341 120.993 78.189 120.993C78.0336 120.993 77.8989 121.06 77.7849 121.195C77.6729 121.329 77.617 121.53 77.617 121.798Z" fill="black"/>
<path d="M125.264 124.835L125.264 122.817C125.463 122.841 125.65 122.91 125.825 123.027C126.002 123.145 126.209 123.365 126.448 123.687C126.594 123.884 126.705 124.01 126.781 124.065C126.857 124.12 126.929 124.148 126.997 124.148C127.071 124.148 127.134 124.12 127.186 124.065C127.238 124.011 127.265 123.943 127.265 123.861C127.265 123.775 127.238 123.704 127.184 123.649C127.13 123.595 127.035 123.559 126.898 123.54L126.953 122.867C127.142 122.893 127.29 122.942 127.395 123.012C127.502 123.083 127.583 123.182 127.64 123.309C127.697 123.438 127.725 123.616 127.725 123.842C127.725 124.079 127.698 124.263 127.644 124.394C127.591 124.526 127.507 124.629 127.395 124.704C127.284 124.78 127.159 124.818 127.021 124.818C126.873 124.818 126.732 124.775 126.598 124.688C126.464 124.602 126.316 124.445 126.156 124.217C126.062 124.082 125.997 123.991 125.959 123.945C125.922 123.9 125.873 123.846 125.812 123.785L125.812 124.835L125.264 124.835ZM126.484 125.967C126.944 125.967 127.266 126.049 127.45 126.214C127.633 126.381 127.725 126.633 127.725 126.972C127.725 127.135 127.705 127.269 127.664 127.373C127.625 127.478 127.572 127.563 127.507 127.629C127.444 127.695 127.376 127.747 127.304 127.784C127.234 127.823 127.151 127.854 127.057 127.877C126.876 127.922 126.688 127.944 126.492 127.944C126.053 127.944 125.732 127.87 125.528 127.722C125.325 127.573 125.223 127.317 125.223 126.954C125.223 126.75 125.255 126.586 125.32 126.46C125.385 126.335 125.48 126.232 125.606 126.152C125.695 126.093 125.817 126.048 125.971 126.015C126.126 125.983 126.297 125.967 126.484 125.967ZM126.482 126.634C126.174 126.634 125.964 126.661 125.85 126.715C125.738 126.77 125.682 126.849 125.682 126.952C125.682 127.021 125.706 127.079 125.753 127.129C125.801 127.18 125.877 127.216 125.981 127.24C126.084 127.264 126.245 127.276 126.464 127.276C126.786 127.276 127.001 127.248 127.111 127.193C127.222 127.139 127.278 127.058 127.278 126.949C127.278 126.838 127.221 126.758 127.108 126.708C126.996 126.659 126.787 126.634 126.482 126.634ZM125.264 131.034L125.264 129.017C125.463 129.04 125.65 129.11 125.825 129.227C126.002 129.345 126.209 129.565 126.448 129.887C126.594 130.084 126.705 130.21 126.781 130.265C126.857 130.32 126.929 130.348 126.997 130.348C127.071 130.348 127.134 130.32 127.186 130.265C127.238 130.211 127.265 130.143 127.265 130.061C127.265 129.975 127.238 129.904 127.184 129.849C127.13 129.795 127.035 129.759 126.898 129.74L126.953 129.067C127.142 129.093 127.29 129.142 127.395 129.212C127.502 129.283 127.583 129.382 127.64 129.509C127.697 129.638 127.725 129.816 127.725 130.042C127.725 130.279 127.698 130.463 127.644 130.594C127.591 130.726 127.507 130.829 127.395 130.904C127.284 130.98 127.159 131.018 127.021 131.018C126.873 131.018 126.732 130.974 126.598 130.888C126.464 130.802 126.316 130.645 126.156 130.417C126.062 130.282 125.997 130.191 125.959 130.145C125.922 130.1 125.873 130.046 125.812 129.985L125.812 131.034L125.264 131.034ZM125.264 134.134L125.264 132.117C125.463 132.14 125.65 132.21 125.825 132.327C126.002 132.445 126.209 132.665 126.448 132.987C126.594 133.184 126.705 133.31 126.781 133.365C126.857 133.42 126.929 133.448 126.997 133.448C127.071 133.448 127.134 133.42 127.186 133.365C127.238 133.311 127.265 133.243 127.265 133.161C127.265 133.075 127.238 133.004 127.184 132.949C127.13 132.895 127.035 132.859 126.898 132.84L126.953 132.167C127.142 132.193 127.29 132.242 127.395 132.312C127.502 132.383 127.583 132.482 127.64 132.609C127.697 132.738 127.725 132.916 127.725 133.142C127.725 133.379 127.698 133.563 127.644 133.694C127.591 133.826 127.507 133.929 127.395 134.004C127.284 134.08 127.159 134.118 127.021 134.118C126.873 134.118 126.732 134.074 126.598 133.988C126.464 133.902 126.316 133.745 126.156 133.517C126.062 133.382 125.997 133.291 125.959 133.245C125.922 133.2 125.873 133.146 125.812 133.085L125.812 134.134L125.264 134.134Z" fill="white"/>
<path d="M82.4493 139.973H81.6489L81.6446 139.506H82.3059C82.4229 139.506 82.5178 139.492 82.5905 139.463C82.6647 139.435 82.7189 139.393 82.7532 139.339C82.7874 139.284 82.8045 139.215 82.8045 139.134C82.8045 139.041 82.7874 138.966 82.7532 138.909C82.7189 138.852 82.6647 138.811 82.5905 138.785C82.5178 138.758 82.4236 138.744 82.308 138.744H81.9014V141.319H81.2038V138.203H82.308C82.4949 138.203 82.6619 138.22 82.8088 138.254C82.9558 138.288 83.0806 138.341 83.1833 138.413C83.2875 138.484 83.3667 138.573 83.4209 138.68C83.4751 138.787 83.5022 138.913 83.5022 139.059C83.5022 139.186 83.4737 139.304 83.4166 139.414C83.361 139.524 83.2711 139.613 83.1469 139.682C83.0228 139.75 82.8566 139.787 82.6483 139.793L82.4493 139.973ZM82.4215 141.319H81.4713L81.7238 140.779H82.4215C82.5285 140.779 82.6155 140.762 82.6826 140.728C82.7496 140.694 82.7988 140.648 82.8302 140.589C82.8616 140.531 82.8773 140.465 82.8773 140.392C82.8773 140.307 82.8623 140.232 82.8324 140.17C82.8038 140.107 82.7582 140.058 82.6954 140.024C82.634 139.99 82.552 139.973 82.4493 139.973H81.8244L81.8287 139.506H82.5927L82.7553 139.69C82.9536 139.686 83.112 139.718 83.2304 139.787C83.3503 139.854 83.4366 139.942 83.4894 140.052C83.5421 140.162 83.5685 140.278 83.5685 140.401C83.5685 140.603 83.525 140.773 83.438 140.91C83.351 141.046 83.2219 141.148 83.0506 141.216C82.8809 141.285 82.6711 141.319 82.4215 141.319ZM85.3448 140.76V139.003H86.0168V141.319H85.3876L85.3448 140.76ZM85.4154 140.287L85.5995 140.283C85.5995 140.439 85.5809 140.582 85.5438 140.713C85.5082 140.844 85.4539 140.959 85.3812 141.056C85.3098 141.153 85.2207 141.228 85.1137 141.282C85.0081 141.335 84.8847 141.362 84.7434 141.362C84.6293 141.362 84.5244 141.346 84.4288 141.315C84.3347 141.282 84.2534 141.231 84.1849 141.163C84.1164 141.093 84.0636 141.003 84.0265 140.895C83.9894 140.785 83.9709 140.654 83.9709 140.501V139.003H84.6386V140.506C84.6386 140.565 84.6457 140.617 84.66 140.66C84.6757 140.701 84.6964 140.735 84.722 140.762C84.7491 140.789 84.782 140.809 84.8205 140.822C84.8604 140.835 84.9039 140.842 84.951 140.842C85.0694 140.842 85.1622 140.817 85.2292 140.769C85.2977 140.719 85.3455 140.653 85.3726 140.57C85.4012 140.486 85.4154 140.391 85.4154 140.287ZM87.6839 140.675C87.6839 140.632 87.6703 140.594 87.6432 140.561C87.6175 140.528 87.5705 140.498 87.502 140.471C87.4349 140.444 87.34 140.417 87.2174 140.39C87.1018 140.366 86.9941 140.334 86.8942 140.296C86.7943 140.256 86.7073 140.208 86.6331 140.152C86.5589 140.095 86.5011 140.028 86.4598 139.951C86.4184 139.873 86.3977 139.784 86.3977 139.684C86.3977 139.587 86.4184 139.495 86.4598 139.408C86.5026 139.321 86.5639 139.244 86.6438 139.177C86.7251 139.11 86.8236 139.057 86.9391 139.018C87.0561 138.98 87.1888 138.96 87.3372 138.96C87.5412 138.96 87.7174 138.993 87.8658 139.057C88.0142 139.12 88.1283 139.208 88.2082 139.322C88.2881 139.435 88.328 139.564 88.328 139.709H87.6603C87.6603 139.65 87.6489 139.597 87.6261 139.553C87.6033 139.509 87.5683 139.475 87.5212 139.451C87.4742 139.425 87.4121 139.412 87.3351 139.412C87.2751 139.412 87.2223 139.423 87.1767 139.444C87.1325 139.464 87.0975 139.492 87.0718 139.528C87.0476 139.563 87.0354 139.605 87.0354 139.652C87.0354 139.684 87.0426 139.714 87.0568 139.742C87.0725 139.767 87.0961 139.791 87.1275 139.814C87.1603 139.836 87.2024 139.855 87.2537 139.872C87.3065 139.889 87.3707 139.906 87.4463 139.921C87.6076 139.951 87.7545 139.993 87.8872 140.048C88.0213 140.102 88.1283 140.177 88.2082 140.272C88.2895 140.368 88.3302 140.494 88.3302 140.651C88.3302 140.754 88.3066 140.848 88.2596 140.934C88.2139 141.019 88.1476 141.094 88.0605 141.158C87.9735 141.222 87.8694 141.272 87.7481 141.308C87.6268 141.344 87.4899 141.362 87.3372 141.362C87.1189 141.362 86.9341 141.322 86.7829 141.244C86.6317 141.165 86.5176 141.067 86.4405 140.949C86.3649 140.829 86.3271 140.706 86.3271 140.58H86.9541C86.957 140.658 86.9762 140.72 87.0119 140.769C87.049 140.817 87.0968 140.853 87.1553 140.876C87.2138 140.897 87.2794 140.908 87.3522 140.908C87.4249 140.908 87.4856 140.898 87.5341 140.878C87.5826 140.858 87.6197 140.831 87.6454 140.797C87.671 140.761 87.6839 140.72 87.6839 140.675ZM89.4066 139.003V141.319H88.7368V139.003H89.4066ZM88.6961 138.404C88.6961 138.307 88.7304 138.228 88.7989 138.166C88.8673 138.104 88.9572 138.072 89.0685 138.072C89.1798 138.072 89.2697 138.104 89.3382 138.166C89.4081 138.228 89.443 138.307 89.443 138.404C89.443 138.5 89.4081 138.579 89.3382 138.642C89.2697 138.703 89.1798 138.734 89.0685 138.734C88.9572 138.734 88.8673 138.703 88.7989 138.642C88.7304 138.579 88.6961 138.5 88.6961 138.404ZM90.543 139.498V141.319H89.8732V139.003H90.5023L90.543 139.498ZM90.4553 140.08L90.2883 140.084C90.2883 139.91 90.3097 139.754 90.3525 139.615C90.3953 139.477 90.456 139.359 90.5345 139.262C90.6143 139.164 90.7092 139.089 90.8191 139.037C90.9304 138.986 91.0531 138.96 91.1872 138.96C91.2956 138.96 91.3948 138.976 91.4846 139.008C91.5745 139.039 91.6516 139.09 91.7158 139.159C91.7814 139.228 91.8313 139.319 91.8656 139.433C91.8998 139.546 91.9169 139.685 91.9169 139.851V141.319H91.245V139.849C91.245 139.752 91.2314 139.677 91.2043 139.624C91.1772 139.571 91.1372 139.534 91.0844 139.513C91.0331 139.491 90.9703 139.48 90.8961 139.48C90.8177 139.48 90.7506 139.496 90.695 139.528C90.6393 139.558 90.5937 139.6 90.558 139.654C90.5223 139.708 90.4959 139.772 90.4788 139.844C90.4631 139.917 90.4553 139.996 90.4553 140.08ZM93.4449 141.362C93.2609 141.362 93.0961 141.332 92.9506 141.274C92.8051 141.215 92.6816 141.135 92.5804 141.032C92.4805 140.928 92.4042 140.808 92.3514 140.672C92.2986 140.537 92.2722 140.392 92.2722 140.238V140.157C92.2722 139.984 92.2964 139.825 92.3449 139.679C92.3935 139.534 92.4641 139.408 92.5568 139.301C92.651 139.192 92.7665 139.109 92.9035 139.05C93.0405 138.99 93.1967 138.96 93.3722 138.96C93.5362 138.96 93.6825 138.988 93.8109 139.042C93.9393 139.095 94.0477 139.171 94.1362 139.271C94.2246 139.369 94.2917 139.488 94.3373 139.628C94.3844 139.767 94.408 139.922 94.408 140.095V140.369H92.5418V139.938H93.7531V139.887C93.7531 139.806 93.7381 139.734 93.7082 139.673C93.6796 139.612 93.6368 139.565 93.5798 139.532C93.5241 139.498 93.4535 139.48 93.3679 139.48C93.2866 139.48 93.2188 139.498 93.1646 139.532C93.1104 139.566 93.0669 139.615 93.034 139.677C93.0027 139.739 92.9798 139.811 92.9656 139.894C92.9513 139.975 92.9442 140.063 92.9442 140.157V140.238C92.9442 140.328 92.9563 140.41 92.9805 140.484C93.0048 140.558 93.0405 140.622 93.0875 140.675C93.1346 140.727 93.1917 140.769 93.2588 140.799C93.3258 140.829 93.4021 140.844 93.4877 140.844C93.5933 140.844 93.6939 140.824 93.7895 140.784C93.8851 140.742 93.9678 140.678 94.0377 140.591L94.3502 140.949C94.3031 141.017 94.2368 141.083 94.1512 141.148C94.067 141.21 93.9657 141.262 93.8473 141.302C93.7289 141.342 93.5947 141.362 93.4449 141.362ZM95.9659 140.675C95.9659 140.632 95.9524 140.594 95.9253 140.561C95.8996 140.528 95.8525 140.498 95.784 140.471C95.717 140.444 95.6221 140.417 95.4994 140.39C95.3838 140.366 95.2761 140.334 95.1763 140.296C95.0764 140.256 94.9894 140.208 94.9152 140.152C94.841 140.095 94.7832 140.028 94.7418 139.951C94.7004 139.873 94.6798 139.784 94.6798 139.684C94.6798 139.587 94.7004 139.495 94.7418 139.408C94.7846 139.321 94.846 139.244 94.9259 139.177C95.0072 139.11 95.1056 139.057 95.2212 139.018C95.3382 138.98 95.4709 138.96 95.6192 138.96C95.8233 138.96 95.9995 138.993 96.1478 139.057C96.2962 139.12 96.4104 139.208 96.4903 139.322C96.5701 139.435 96.6101 139.564 96.6101 139.709H95.9424C95.9424 139.65 95.931 139.597 95.9082 139.553C95.8853 139.509 95.8504 139.475 95.8033 139.451C95.7562 139.425 95.6941 139.412 95.6171 139.412C95.5572 139.412 95.5044 139.423 95.4587 139.444C95.4145 139.464 95.3796 139.492 95.3539 139.528C95.3296 139.563 95.3175 139.605 95.3175 139.652C95.3175 139.684 95.3246 139.714 95.3389 139.742C95.3546 139.767 95.3781 139.791 95.4095 139.814C95.4423 139.836 95.4844 139.855 95.5358 139.872C95.5886 139.889 95.6528 139.906 95.7284 139.921C95.8896 139.951 96.0366 139.993 96.1692 140.048C96.3034 140.102 96.4104 140.177 96.4903 140.272C96.5716 140.368 96.6122 140.494 96.6122 140.651C96.6122 140.754 96.5887 140.848 96.5416 140.934C96.496 141.019 96.4296 141.094 96.3426 141.158C96.2556 141.222 96.1514 141.272 96.0301 141.308C95.9089 141.344 95.7719 141.362 95.6192 141.362C95.401 141.362 95.2162 141.322 95.065 141.244C94.9137 141.165 94.7996 141.067 94.7226 140.949C94.6469 140.829 94.6091 140.706 94.6091 140.58H95.2362C95.239 140.658 95.2583 140.72 95.294 140.769C95.3311 140.817 95.3788 140.853 95.4373 140.876C95.4958 140.897 95.5615 140.908 95.6342 140.908C95.707 140.908 95.7676 140.898 95.8161 140.878C95.8646 140.858 95.9017 140.831 95.9274 140.797C95.9531 140.761 95.9659 140.72 95.9659 140.675ZM98.2173 140.675C98.2173 140.632 98.2037 140.594 98.1766 140.561C98.1509 140.528 98.1039 140.498 98.0354 140.471C97.9683 140.444 97.8734 140.417 97.7507 140.39C97.6352 140.366 97.5275 140.334 97.4276 140.296C97.3277 140.256 97.2407 140.208 97.1665 140.152C97.0923 140.095 97.0345 140.028 96.9932 139.951C96.9518 139.873 96.9311 139.784 96.9311 139.684C96.9311 139.587 96.9518 139.495 96.9932 139.408C97.036 139.321 97.0973 139.244 97.1772 139.177C97.2585 139.11 97.357 139.057 97.4725 139.018C97.5895 138.98 97.7222 138.96 97.8706 138.96C98.0746 138.96 98.2508 138.993 98.3992 139.057C98.5476 139.12 98.6617 139.208 98.7416 139.322C98.8215 139.435 98.8614 139.564 98.8614 139.709H98.1937C98.1937 139.65 98.1823 139.597 98.1595 139.553C98.1367 139.509 98.1017 139.475 98.0546 139.451C98.0076 139.425 97.9455 139.412 97.8685 139.412C97.8085 139.412 97.7557 139.423 97.7101 139.444C97.6659 139.464 97.6309 139.492 97.6052 139.528C97.581 139.563 97.5688 139.605 97.5688 139.652C97.5688 139.684 97.576 139.714 97.5902 139.742C97.6059 139.767 97.6295 139.791 97.6609 139.814C97.6937 139.836 97.7358 139.855 97.7871 139.872C97.8399 139.889 97.9041 139.906 97.9797 139.921C98.141 139.951 98.2879 139.993 98.4206 140.048C98.5547 140.102 98.6617 140.177 98.7416 140.272C98.8229 140.368 98.8636 140.494 98.8636 140.651C98.8636 140.754 98.84 140.848 98.793 140.934C98.7473 141.019 98.681 141.094 98.5939 141.158C98.5069 141.222 98.4028 141.272 98.2815 141.308C98.1602 141.344 98.0233 141.362 97.8706 141.362C97.6523 141.362 97.4675 141.322 97.3163 141.244C97.1651 141.165 97.0509 141.067 96.9739 140.949C96.8983 140.829 96.8605 140.706 96.8605 140.58H97.4875C97.4904 140.658 97.5096 140.72 97.5453 140.769C97.5824 140.817 97.6302 140.853 97.6887 140.876C97.7472 140.897 97.8128 140.908 97.8856 140.908C97.9583 140.908 98.019 140.898 98.0675 140.878C98.116 140.858 98.1531 140.831 98.1788 140.797C98.2044 140.761 98.2173 140.72 98.2173 140.675ZM101.59 140.236H100.807V139.694H101.59C101.706 139.694 101.798 139.675 101.868 139.637C101.94 139.598 101.992 139.545 102.024 139.478C102.059 139.41 102.076 139.333 102.076 139.247C102.076 139.159 102.059 139.077 102.024 139.001C101.992 138.924 101.94 138.862 101.868 138.815C101.798 138.768 101.706 138.744 101.59 138.744H101.059V141.319H100.362V138.203H101.59C101.838 138.203 102.051 138.248 102.228 138.338C102.406 138.428 102.542 138.551 102.637 138.708C102.732 138.863 102.78 139.042 102.78 139.243C102.78 139.444 102.732 139.619 102.637 139.767C102.542 139.916 102.406 140.031 102.228 140.114C102.051 140.195 101.838 140.236 101.59 140.236ZM103.839 139.543V141.319H103.172V139.003H103.799L103.839 139.543ZM104.53 138.986L104.52 139.609C104.491 139.605 104.454 139.601 104.408 139.598C104.363 139.594 104.324 139.592 104.291 139.592C104.205 139.592 104.131 139.602 104.068 139.624C104.007 139.644 103.956 139.674 103.914 139.714C103.874 139.754 103.844 139.804 103.824 139.864C103.804 139.922 103.794 139.99 103.794 140.067L103.668 140.005C103.668 139.852 103.683 139.712 103.713 139.585C103.743 139.458 103.786 139.349 103.844 139.256C103.901 139.162 103.97 139.089 104.053 139.037C104.136 138.986 104.23 138.96 104.336 138.96C104.37 138.96 104.405 138.963 104.441 138.967C104.476 138.971 104.506 138.978 104.53 138.986ZM104.635 140.185V140.14C104.635 139.97 104.66 139.814 104.708 139.671C104.757 139.527 104.828 139.402 104.922 139.296C105.016 139.191 105.132 139.109 105.269 139.05C105.406 138.99 105.563 138.96 105.74 138.96C105.919 138.96 106.078 138.99 106.215 139.05C106.353 139.109 106.469 139.191 106.564 139.296C106.658 139.402 106.729 139.527 106.778 139.671C106.826 139.814 106.85 139.97 106.85 140.14V140.185C106.85 140.353 106.826 140.509 106.778 140.653C106.729 140.796 106.658 140.921 106.564 141.028C106.469 141.133 106.354 141.215 106.217 141.274C106.08 141.332 105.922 141.362 105.744 141.362C105.567 141.362 105.409 141.332 105.271 141.274C105.133 141.215 105.016 141.133 104.922 141.028C104.828 140.921 104.757 140.796 104.708 140.653C104.66 140.509 104.635 140.353 104.635 140.185ZM105.305 140.14V140.185C105.305 140.276 105.312 140.361 105.327 140.441C105.342 140.521 105.367 140.591 105.401 140.651C105.436 140.711 105.481 140.758 105.536 140.792C105.593 140.825 105.663 140.842 105.744 140.842C105.825 140.842 105.894 140.825 105.949 140.792C106.005 140.758 106.05 140.711 106.084 140.651C106.118 140.591 106.143 140.521 106.157 140.441C106.173 140.361 106.18 140.276 106.18 140.185V140.14C106.18 140.05 106.173 139.966 106.157 139.887C106.143 139.807 106.118 139.737 106.084 139.675C106.05 139.614 106.004 139.566 105.947 139.532C105.892 139.498 105.822 139.48 105.74 139.48C105.66 139.48 105.592 139.498 105.536 139.532C105.481 139.566 105.436 139.614 105.401 139.675C105.367 139.737 105.342 139.807 105.327 139.887C105.312 139.966 105.305 140.05 105.305 140.14ZM108.55 140.801V138.032H109.221V141.319H108.618L108.55 140.801ZM107.107 140.189V140.144C107.107 139.968 107.126 139.809 107.165 139.665C107.205 139.519 107.263 139.394 107.338 139.29C107.415 139.184 107.51 139.103 107.623 139.046C107.736 138.989 107.865 138.96 108.01 138.96C108.144 138.96 108.261 138.99 108.361 139.05C108.461 139.109 108.546 139.192 108.616 139.299C108.687 139.404 108.745 139.529 108.789 139.673C108.833 139.816 108.867 139.971 108.89 140.137V140.215C108.868 140.374 108.835 140.523 108.789 140.662C108.745 140.8 108.687 140.922 108.616 141.028C108.546 141.132 108.46 141.214 108.359 141.274C108.259 141.332 108.141 141.362 108.006 141.362C107.86 141.362 107.731 141.332 107.619 141.274C107.507 141.215 107.414 141.133 107.338 141.028C107.263 140.922 107.205 140.798 107.165 140.655C107.126 140.513 107.107 140.357 107.107 140.189ZM107.775 140.144V140.189C107.775 140.28 107.781 140.365 107.794 140.444C107.808 140.522 107.831 140.591 107.863 140.651C107.894 140.711 107.935 140.758 107.987 140.792C108.038 140.825 108.101 140.842 108.175 140.842C108.275 140.842 108.357 140.819 108.421 140.773C108.485 140.726 108.534 140.661 108.567 140.578C108.599 140.496 108.617 140.399 108.618 140.289V140.065C108.618 139.973 108.609 139.891 108.59 139.819C108.572 139.746 108.544 139.684 108.507 139.635C108.471 139.585 108.426 139.547 108.372 139.521C108.318 139.494 108.253 139.48 108.179 139.48C108.107 139.48 108.044 139.498 107.993 139.532C107.942 139.565 107.9 139.611 107.867 139.671C107.835 139.731 107.812 139.801 107.796 139.883C107.782 139.963 107.775 140.05 107.775 140.144ZM111.026 140.76V139.003H111.698V141.319H111.068L111.026 140.76ZM111.096 140.287L111.28 140.283C111.28 140.439 111.262 140.582 111.225 140.713C111.189 140.844 111.135 140.959 111.062 141.056C110.991 141.153 110.901 141.228 110.794 141.282C110.689 141.335 110.565 141.362 110.424 141.362C110.31 141.362 110.205 141.346 110.11 141.315C110.015 141.282 109.934 141.231 109.866 141.163C109.797 141.093 109.744 141.003 109.707 140.895C109.67 140.785 109.652 140.654 109.652 140.501V139.003H110.319V140.506C110.319 140.565 110.326 140.617 110.341 140.66C110.356 140.701 110.377 140.735 110.403 140.762C110.43 140.789 110.463 140.809 110.501 140.822C110.541 140.835 110.585 140.842 110.632 140.842C110.75 140.842 110.843 140.817 110.91 140.769C110.978 140.719 111.026 140.653 111.053 140.57C111.082 140.486 111.096 140.391 111.096 140.287ZM113.099 140.842C113.171 140.842 113.233 140.828 113.285 140.801C113.338 140.774 113.379 140.736 113.407 140.687C113.437 140.638 113.452 140.578 113.452 140.508H114.082C114.082 140.676 114.038 140.824 113.951 140.953C113.865 141.081 113.75 141.182 113.604 141.255C113.459 141.326 113.295 141.362 113.112 141.362C112.932 141.362 112.775 141.332 112.641 141.274C112.507 141.214 112.395 141.13 112.305 141.023C112.215 140.916 112.148 140.792 112.102 140.651C112.058 140.508 112.036 140.354 112.036 140.189V140.133C112.036 139.969 112.058 139.816 112.102 139.673C112.148 139.53 112.215 139.406 112.305 139.299C112.395 139.192 112.506 139.109 112.639 139.05C112.773 138.99 112.93 138.96 113.11 138.96C113.3 138.96 113.467 138.997 113.613 139.07C113.76 139.142 113.875 139.247 113.957 139.384C114.04 139.52 114.082 139.683 114.082 139.874H113.452C113.452 139.8 113.439 139.734 113.412 139.675C113.386 139.615 113.346 139.568 113.292 139.534C113.239 139.498 113.173 139.48 113.095 139.48C113.014 139.48 112.947 139.498 112.894 139.534C112.842 139.568 112.803 139.616 112.776 139.677C112.749 139.739 112.73 139.809 112.721 139.887C112.711 139.964 112.706 140.046 112.706 140.133V140.189C112.706 140.277 112.711 140.361 112.721 140.441C112.73 140.52 112.749 140.589 112.776 140.649C112.805 140.709 112.845 140.756 112.896 140.79C112.947 140.824 113.015 140.842 113.099 140.842ZM115.59 139.003V139.472H114.216V139.003H115.59ZM114.531 138.43H115.201V140.593C115.201 140.658 115.209 140.707 115.224 140.741C115.24 140.775 115.266 140.799 115.301 140.814C115.337 140.827 115.383 140.833 115.438 140.833C115.478 140.833 115.513 140.832 115.541 140.829C115.57 140.826 115.596 140.822 115.62 140.818V141.302C115.563 141.32 115.503 141.334 115.438 141.344C115.374 141.356 115.304 141.362 115.229 141.362C115.085 141.362 114.96 141.338 114.854 141.291C114.75 141.244 114.67 141.17 114.614 141.068C114.559 140.966 114.531 140.832 114.531 140.668V138.43ZM117.144 140.675C117.144 140.632 117.13 140.594 117.103 140.561C117.078 140.528 117.031 140.498 116.962 140.471C116.895 140.444 116.8 140.417 116.677 140.39C116.562 140.366 116.454 140.334 116.354 140.296C116.254 140.256 116.167 140.208 116.093 140.152C116.019 140.095 115.961 140.028 115.92 139.951C115.879 139.873 115.858 139.784 115.858 139.684C115.858 139.587 115.879 139.495 115.92 139.408C115.963 139.321 116.024 139.244 116.104 139.177C116.185 139.11 116.284 139.057 116.399 139.018C116.516 138.98 116.649 138.96 116.797 138.96C117.001 138.96 117.178 138.993 117.326 139.057C117.474 139.12 117.588 139.208 117.668 139.322C117.748 139.435 117.788 139.564 117.788 139.709H117.12C117.12 139.65 117.109 139.597 117.086 139.553C117.063 139.509 117.028 139.475 116.981 139.451C116.934 139.425 116.872 139.412 116.795 139.412C116.735 139.412 116.682 139.423 116.637 139.444C116.593 139.464 116.558 139.492 116.532 139.528C116.508 139.563 116.496 139.605 116.496 139.652C116.496 139.684 116.503 139.714 116.517 139.742C116.533 139.767 116.556 139.791 116.588 139.814C116.62 139.836 116.663 139.855 116.714 139.872C116.767 139.889 116.831 139.906 116.906 139.921C117.068 139.951 117.215 139.993 117.347 140.048C117.481 140.102 117.588 140.177 117.668 140.272C117.75 140.368 117.79 140.494 117.79 140.651C117.79 140.754 117.767 140.848 117.72 140.934C117.674 141.019 117.608 141.094 117.521 141.158C117.434 141.222 117.329 141.272 117.208 141.308C117.087 141.344 116.95 141.362 116.797 141.362C116.579 141.362 116.394 141.322 116.243 141.244C116.092 141.165 115.978 141.067 115.901 140.949C115.825 140.829 115.787 140.706 115.787 140.58H116.414C116.417 140.658 116.436 140.72 116.472 140.769C116.509 140.817 116.557 140.853 116.615 140.876C116.674 140.897 116.74 140.908 116.812 140.908C116.885 140.908 116.946 140.898 116.994 140.878C117.043 140.858 117.08 140.831 117.105 140.797C117.131 140.761 117.144 140.72 117.144 140.675ZM119.725 139.667L120.356 139.266C120.445 139.209 120.501 139.154 120.525 139.102C120.551 139.049 120.564 138.993 120.564 138.935C120.564 138.872 120.541 138.813 120.495 138.759C120.45 138.705 120.386 138.678 120.303 138.678C120.243 138.678 120.192 138.692 120.151 138.719C120.111 138.746 120.08 138.782 120.059 138.828C120.039 138.872 120.029 138.921 120.029 138.975C120.029 139.04 120.046 139.105 120.08 139.172C120.116 139.238 120.163 139.307 120.221 139.38C120.28 139.453 120.346 139.533 120.418 139.62L121.884 141.319H121.133L119.937 139.947C119.837 139.821 119.75 139.706 119.676 139.6C119.602 139.495 119.544 139.393 119.502 139.294C119.461 139.194 119.44 139.092 119.44 138.986C119.44 138.822 119.476 138.678 119.547 138.554C119.619 138.43 119.719 138.333 119.847 138.263C119.977 138.193 120.129 138.158 120.305 138.158C120.469 138.158 120.611 138.191 120.731 138.258C120.851 138.326 120.943 138.415 121.009 138.526C121.075 138.637 121.107 138.759 121.107 138.892C121.107 138.988 121.09 139.077 121.054 139.162C121.018 139.244 120.969 139.321 120.906 139.391C120.845 139.459 120.774 139.522 120.694 139.579L119.995 140.073C119.953 140.115 119.921 140.156 119.898 140.197C119.877 140.239 119.862 140.279 119.853 140.319C119.845 140.359 119.84 140.4 119.84 140.441C119.84 140.52 119.857 140.59 119.89 140.651C119.923 140.711 119.968 140.758 120.027 140.792C120.085 140.827 120.152 140.844 120.226 140.844C120.341 140.844 120.453 140.818 120.562 140.767C120.672 140.715 120.769 140.643 120.855 140.548C120.94 140.454 121.008 140.342 121.058 140.212C121.11 140.081 121.135 139.937 121.135 139.78H121.7C121.7 139.944 121.684 140.1 121.651 140.249C121.618 140.396 121.565 140.532 121.493 140.658C121.42 140.782 121.322 140.891 121.199 140.987C121.192 140.993 121.179 141.002 121.161 141.015C121.144 141.028 121.131 141.037 121.122 141.043C120.98 141.151 120.834 141.232 120.686 141.285C120.539 141.337 120.371 141.364 120.183 141.364C119.975 141.364 119.794 141.326 119.641 141.25C119.49 141.175 119.373 141.071 119.291 140.938C119.208 140.805 119.166 140.653 119.166 140.482C119.166 140.359 119.19 140.252 119.237 140.161C119.286 140.068 119.352 139.983 119.436 139.904C119.52 139.824 119.617 139.745 119.725 139.667Z" fill="#FF0000"/>
<path d="M94.7647 144.353C94.7647 144.3 94.7569 144.253 94.7412 144.212C94.7255 144.169 94.6969 144.129 94.6556 144.094C94.6142 144.058 94.5557 144.022 94.4801 143.987C94.4045 143.95 94.3053 143.912 94.1826 143.873C94.0428 143.828 93.9094 143.776 93.7824 143.719C93.6569 143.661 93.5449 143.593 93.4464 143.516C93.348 143.439 93.2702 143.349 93.2132 143.246C93.1575 143.144 93.1297 143.024 93.1297 142.887C93.1297 142.754 93.1589 142.634 93.2174 142.527C93.2759 142.42 93.358 142.329 93.4635 142.253C93.5691 142.176 93.6932 142.118 93.8359 142.078C93.9786 142.037 94.1355 142.016 94.3067 142.016C94.535 142.016 94.7355 142.056 94.9081 142.138C95.0821 142.218 95.2177 142.33 95.3147 142.476C95.4117 142.62 95.4602 142.788 95.4602 142.979H94.7668C94.7668 142.895 94.749 142.82 94.7133 142.756C94.6791 142.691 94.6263 142.639 94.555 142.602C94.4851 142.565 94.3973 142.547 94.2917 142.547C94.189 142.547 94.1027 142.562 94.0328 142.594C93.9643 142.624 93.9122 142.665 93.8766 142.718C93.8423 142.771 93.8252 142.828 93.8252 142.891C93.8252 142.941 93.8381 142.987 93.8637 143.028C93.8908 143.068 93.9294 143.106 93.9793 143.141C94.0307 143.176 94.0934 143.209 94.1676 143.24C94.2418 143.271 94.3267 143.301 94.4223 143.33C94.5892 143.383 94.7369 143.441 94.8653 143.505C94.9951 143.57 95.1043 143.642 95.1927 143.724C95.2812 143.805 95.3475 143.897 95.3917 144C95.4374 144.102 95.4602 144.219 95.4602 144.348C95.4602 144.487 95.4331 144.61 95.3789 144.717C95.3261 144.824 95.2491 144.915 95.1478 144.991C95.0479 145.065 94.9281 145.121 94.7882 145.16C94.6484 145.198 94.4922 145.217 94.3196 145.217C94.1626 145.217 94.0078 145.197 93.8552 145.157C93.7025 145.116 93.5641 145.053 93.44 144.969C93.3173 144.885 93.2189 144.778 93.1447 144.648C93.0719 144.517 93.0355 144.361 93.0355 144.182H93.7332C93.7332 144.276 93.7467 144.356 93.7739 144.421C93.801 144.485 93.8395 144.538 93.8894 144.577C93.9408 144.617 94.0028 144.646 94.0756 144.663C94.1484 144.68 94.2297 144.689 94.3196 144.689C94.4237 144.689 94.5079 144.674 94.5721 144.646C94.6377 144.616 94.6862 144.575 94.7176 144.524C94.749 144.473 94.7647 144.416 94.7647 144.353ZM96.9283 145.217C96.7443 145.217 96.5795 145.188 96.434 145.13C96.2884 145.071 96.165 144.991 96.0637 144.888C95.9639 144.784 95.8875 144.664 95.8347 144.528C95.7819 144.393 95.7556 144.248 95.7556 144.094V144.013C95.7556 143.84 95.7798 143.681 95.8283 143.535C95.8768 143.39 95.9474 143.263 96.0402 143.156C96.1343 143.048 96.2499 142.965 96.3869 142.906C96.5238 142.846 96.6801 142.816 96.8555 142.816C97.0196 142.816 97.1659 142.843 97.2943 142.898C97.4227 142.95 97.5311 143.027 97.6195 143.127C97.708 143.225 97.7751 143.344 97.8207 143.484C97.8678 143.622 97.8913 143.778 97.8913 143.95V144.224H96.0252V143.794H97.2365V143.743C97.2365 143.662 97.2215 143.59 97.1915 143.529C97.163 143.468 97.1202 143.42 97.0631 143.388C97.0075 143.353 96.9369 143.336 96.8513 143.336C96.7699 143.336 96.7022 143.353 96.648 143.388C96.5937 143.422 96.5502 143.47 96.5174 143.533C96.486 143.594 96.4632 143.667 96.4489 143.749C96.4347 143.831 96.4275 143.918 96.4275 144.013V144.094C96.4275 144.184 96.4397 144.266 96.4639 144.34C96.4882 144.414 96.5238 144.478 96.5709 144.53C96.618 144.583 96.6751 144.625 96.7421 144.655C96.8092 144.684 96.8855 144.699 96.9711 144.699C97.0767 144.699 97.1773 144.679 97.2729 144.64C97.3684 144.598 97.4512 144.534 97.5211 144.447L97.8336 144.804C97.7865 144.873 97.7201 144.939 97.6345 145.003C97.5504 145.066 97.4491 145.117 97.3306 145.157C97.2122 145.197 97.0781 145.217 96.9283 145.217ZM98.8865 143.398V145.175H98.2188V142.859H98.8458L98.8865 143.398ZM99.5777 142.842L99.567 143.465C99.5385 143.46 99.5014 143.457 99.4557 143.454C99.4101 143.45 99.3708 143.448 99.338 143.448C99.2524 143.448 99.1782 143.458 99.1155 143.48C99.0541 143.5 99.0027 143.53 98.9614 143.57C98.9214 143.609 98.8915 143.659 98.8715 143.719C98.8515 143.778 98.8415 143.846 98.8415 143.923L98.7153 143.861C98.7153 143.708 98.7302 143.568 98.7602 143.441C98.7902 143.314 98.8337 143.204 98.8907 143.112C98.9478 143.017 99.0177 142.945 99.1005 142.893C99.1832 142.842 99.2774 142.816 99.383 142.816C99.4172 142.816 99.4522 142.818 99.4878 142.823C99.5235 142.827 99.5535 142.833 99.5777 142.842ZM100.701 144.702L101.185 142.859H101.887L101.119 145.175H100.697L100.701 144.702ZM100.389 142.859L100.87 144.704L100.875 145.175H100.453L99.6847 142.859H100.389ZM102.837 142.859V145.175H102.167V142.859H102.837ZM102.127 142.26C102.127 142.163 102.161 142.084 102.229 142.022C102.298 141.959 102.388 141.928 102.499 141.928C102.61 141.928 102.7 141.959 102.769 142.022C102.838 142.084 102.873 142.163 102.873 142.26C102.873 142.355 102.838 142.435 102.769 142.497C102.7 142.559 102.61 142.589 102.499 142.589C102.388 142.589 102.298 142.559 102.229 142.497C102.161 142.435 102.127 142.355 102.127 142.26ZM104.286 144.697C104.357 144.697 104.419 144.684 104.472 144.657C104.525 144.63 104.565 144.592 104.594 144.543C104.624 144.493 104.639 144.433 104.639 144.363H105.268C105.268 144.532 105.225 144.68 105.138 144.809C105.052 144.937 104.936 145.038 104.791 145.11C104.645 145.182 104.481 145.217 104.299 145.217C104.119 145.217 103.962 145.188 103.828 145.13C103.694 145.07 103.582 144.986 103.492 144.879C103.402 144.772 103.334 144.648 103.289 144.507C103.244 144.364 103.222 144.21 103.222 144.045V143.989C103.222 143.825 103.244 143.672 103.289 143.529C103.334 143.386 103.402 143.261 103.492 143.154C103.582 143.047 103.693 142.965 103.826 142.906C103.96 142.846 104.117 142.816 104.297 142.816C104.486 142.816 104.654 142.853 104.799 142.925C104.946 142.998 105.061 143.103 105.144 143.24C105.227 143.375 105.268 143.539 105.268 143.73H104.639C104.639 143.656 104.625 143.589 104.598 143.531C104.573 143.471 104.533 143.424 104.478 143.39C104.426 143.354 104.36 143.336 104.282 143.336C104.2 143.336 104.133 143.354 104.08 143.39C104.029 143.424 103.99 143.472 103.963 143.533C103.936 143.594 103.917 143.664 103.907 143.743C103.897 143.82 103.892 143.902 103.892 143.989V144.045C103.892 144.133 103.897 144.217 103.907 144.297C103.917 144.376 103.936 144.445 103.963 144.505C103.991 144.565 104.031 144.612 104.083 144.646C104.134 144.68 104.202 144.697 104.286 144.697ZM106.691 145.217C106.507 145.217 106.342 145.188 106.197 145.13C106.051 145.071 105.928 144.991 105.827 144.888C105.727 144.784 105.65 144.664 105.598 144.528C105.545 144.393 105.519 144.248 105.519 144.094V144.013C105.519 143.84 105.543 143.681 105.591 143.535C105.64 143.39 105.71 143.263 105.803 143.156C105.897 143.048 106.013 142.965 106.15 142.906C106.287 142.846 106.443 142.816 106.619 142.816C106.783 142.816 106.929 142.843 107.057 142.898C107.186 142.95 107.294 143.027 107.383 143.127C107.471 143.225 107.538 143.344 107.584 143.484C107.631 143.622 107.654 143.778 107.654 143.95V144.224H105.788V143.794H106.999V143.743C106.999 143.662 106.984 143.59 106.955 143.529C106.926 143.468 106.883 143.42 106.826 143.388C106.77 143.353 106.7 143.336 106.614 143.336C106.533 143.336 106.465 143.353 106.411 143.388C106.357 143.422 106.313 143.47 106.28 143.533C106.249 143.594 106.226 143.667 106.212 143.749C106.198 143.831 106.191 143.918 106.191 144.013V144.094C106.191 144.184 106.203 144.266 106.227 144.34C106.251 144.414 106.287 144.478 106.334 144.53C106.381 144.583 106.438 144.625 106.505 144.655C106.572 144.684 106.648 144.699 106.734 144.699C106.84 144.699 106.94 144.679 107.036 144.64C107.131 144.598 107.214 144.534 107.284 144.447L107.597 144.804C107.549 144.873 107.483 144.939 107.398 145.003C107.313 145.066 107.212 145.117 107.094 145.157C106.975 145.197 106.841 145.217 106.691 145.217ZM109.212 144.53C109.212 144.488 109.199 144.45 109.172 144.417C109.146 144.384 109.099 144.354 109.03 144.327C108.963 144.3 108.868 144.273 108.746 144.246C108.63 144.222 108.522 144.19 108.423 144.152C108.323 144.112 108.236 144.064 108.162 144.008C108.087 143.951 108.03 143.884 107.988 143.807C107.947 143.729 107.926 143.639 107.926 143.54C107.926 143.443 107.947 143.351 107.988 143.263C108.031 143.176 108.092 143.099 108.172 143.032C108.254 142.965 108.352 142.913 108.468 142.874C108.585 142.835 108.717 142.816 108.866 142.816C109.07 142.816 109.246 142.848 109.394 142.913C109.543 142.975 109.657 143.064 109.737 143.178C109.816 143.291 109.856 143.42 109.856 143.565H109.189C109.189 143.505 109.177 143.453 109.154 143.409C109.132 143.365 109.097 143.331 109.05 143.306C109.003 143.281 108.94 143.268 108.863 143.268C108.804 143.268 108.751 143.278 108.705 143.3C108.661 143.32 108.626 143.348 108.6 143.383C108.576 143.419 108.564 143.46 108.564 143.507C108.564 143.54 108.571 143.57 108.585 143.597C108.601 143.623 108.624 143.647 108.656 143.67C108.689 143.691 108.731 143.711 108.782 143.728C108.835 143.745 108.899 143.761 108.975 143.777C109.136 143.807 109.283 143.849 109.416 143.903C109.55 143.958 109.657 144.032 109.737 144.128C109.818 144.224 109.859 144.35 109.859 144.507C109.859 144.61 109.835 144.704 109.788 144.789C109.742 144.875 109.676 144.95 109.589 145.014C109.502 145.078 109.398 145.128 109.276 145.164C109.155 145.2 109.018 145.217 108.866 145.217C108.647 145.217 108.463 145.178 108.311 145.1C108.16 145.021 108.046 144.923 107.969 144.804C107.893 144.684 107.855 144.562 107.855 144.436H108.483C108.485 144.513 108.505 144.576 108.54 144.625C108.577 144.673 108.625 144.709 108.684 144.732C108.742 144.753 108.808 144.764 108.881 144.764C108.953 144.764 109.014 144.754 109.062 144.734C109.111 144.714 109.148 144.687 109.174 144.652C109.199 144.617 109.212 144.576 109.212 144.53Z" fill="#FF0000"/>
<rect x="0.645244" y="0.645" width="131.71" height="94.841" fill="white" stroke="black" stroke-width="1.29"/>
<path d="M85.2878 6.81201C80.3055 6.81201 77.4991 10.1772 77.4991 16.7752C77.4991 23.3732 80.3055 26.7384 85.2878 26.7384C90.2701 26.7384 93.0765 23.3732 93.0765 16.7752C93.0765 10.1772 90.1394 6.81201 85.2878 6.81201ZM85.2878 22.7267C83.4963 22.7267 83.1196 20.9116 83.1196 16.7752C83.1196 12.6388 83.504 10.8238 85.2878 10.8238C87.0716 10.8238 87.456 12.6388 87.456 16.7752C87.456 20.9116 87.0716 22.7267 85.2878 22.7267ZM101.765 6.81201C96.7825 6.81201 93.9761 10.1772 93.9761 16.7752C93.9761 23.3732 96.7825 26.7384 101.765 26.7384C106.747 26.7384 109.554 23.3732 109.554 16.7752C109.554 10.1772 106.616 6.81201 101.765 6.81201ZM101.765 22.7267C99.9733 22.7267 99.5966 20.9116 99.5966 16.7752C99.5966 12.6388 99.981 10.8238 101.765 10.8238C103.556 10.8238 103.933 12.6388 103.933 16.7752C103.933 20.9116 103.549 22.7267 101.765 22.7267ZM118.242 6.81201C113.26 6.81201 110.453 10.1772 110.453 16.7752C110.453 23.3732 113.26 26.7384 118.242 26.7384C123.224 26.7384 126.031 23.3732 126.031 16.7752C126.031 10.1772 123.093 6.81201 118.242 6.81201ZM118.242 22.7267C116.45 22.7267 116.074 20.9116 116.074 16.7752C116.074 12.6388 116.458 10.8238 118.242 10.8238C120.033 10.8238 120.41 12.6388 120.41 16.7752C120.41 20.9116 120.026 22.7267 118.242 22.7267ZM75.2002 14.8355C73.9161 13.7995 72.3861 13.1529 70.7253 13.2776C69.449 13.2776 68.0419 13.6671 67.15 14.5707L67.5345 11.4625H75.5769V6.93665H63.8285L62.5522 15.9962L66.0044 17.8113C66.8963 17.0323 67.9189 16.5182 69.0722 16.5182C69.7104 16.5182 70.2255 16.7752 70.733 17.1647C71.3712 17.8113 71.6249 18.7149 71.6249 19.6263C71.6249 20.0158 71.6249 20.4053 71.4942 20.6623C71.3635 21.8308 70.3409 22.602 69.1952 22.4774C67.027 22.4774 67.15 19.7587 67.6652 18.7227L62.1754 21.6984C62.5599 25.196 66.1351 26.8709 69.0722 26.8709C71.1174 26.8709 73.0319 26.2243 74.439 24.9312C74.9464 24.4171 75.4616 23.8951 75.846 23.1162C76.4842 22.0801 76.7379 20.787 76.7379 19.6185C76.984 17.8113 76.3458 16.1287 75.2002 14.8355Z" fill="black"/>
<path d="M7.55707 26.0502V22.1828H9.95123V12.4503H7.55707V8.32617H19.664V12.4583H17.2698V22.1908H19.664V26.0502H7.55707ZM31.2344 26.0502V22.1828H32.8279V18.1871C32.8279 16.9836 32.0271 16.454 30.8341 16.454C29.5049 16.454 28.4399 17.3847 28.3038 18.7167V18.8531V22.1828H30.0333V26.0502H20.729V22.1828H22.3224V16.454H20.729V12.5867H28.1757V15.2505C28.3118 15.1141 28.4399 14.9857 28.576 14.8493C29.7771 13.381 31.7709 12.5867 33.6286 12.715C36.5512 12.715 38.9454 13.9186 38.9454 17.1119V22.1748H40.5468V26.0502H31.2344ZM55.9768 18.1871L50.7881 18.7167C50.7881 17.2483 50.3877 15.7881 48.6581 15.7881C46.4001 15.7881 46.264 17.6575 46.264 19.3906C46.264 21.2601 46.4001 23.1216 48.6581 23.1216C49.7231 23.258 50.7881 22.4556 50.9162 21.2521C50.9162 21.1157 50.9162 21.1157 50.9162 20.9873H56.1049V21.3885C55.3042 25.657 51.4527 26.323 48.7863 26.323C44.5264 26.323 40.2746 24.1887 40.2746 19.3906C40.2746 14.5926 44.5344 12.4583 48.7863 12.4583C48.6582 12.5867 55.4483 12.1855 55.9768 18.1871ZM59.9644 23.9159C59.9644 25.1194 59.0355 26.0502 57.8344 26.0502C56.6334 26.0502 55.7045 25.1194 55.7045 23.9159C55.7045 22.7124 56.6334 21.7816 57.8344 21.7816C59.0355 21.7816 59.9644 22.7204 59.9644 23.9159Z" fill="black"/>
<rect x="7.55707" y="31.4121" width="103.151" height="0.756937" fill="#050608"/>
<rect x="114.485" y="31.4121" width="11.3352" height="43.5239" fill="#050608"/>
<rect x="7.55707" y="74.1782" width="103.151" height="0.756937" fill="#050608"/>
<rect x="7.55707" y="87.8057" width="118.264" height="0.756937" fill="#050608"/>
<path d="M41.5102 66.4966H36.6858V48.3152C34.9232 49.9633 32.8458 51.1823 30.4537 51.9721V47.5941C31.7127 47.1821 33.0805 46.4038 34.5569 45.2592C36.0334 44.1032 37.0464 42.7583 37.5958 41.2246H41.5102V66.4966ZM52.8757 52.9163C51.6281 52.3898 50.7182 51.6687 50.1459 50.7531C49.5851 49.826 49.3047 48.8131 49.3047 47.7143C49.3047 45.8372 49.9571 44.2863 51.2619 43.0616C52.5781 41.8369 54.4438 41.2246 56.8588 41.2246C59.2509 41.2246 61.1051 41.8369 62.4214 43.0616C63.7491 44.2863 64.4129 45.8372 64.4129 47.7143C64.4129 48.8817 64.1096 49.9233 63.503 50.8389C62.8964 51.7431 62.0437 52.4356 60.9449 52.9163C62.3412 53.4772 63.4 54.2955 64.121 55.3714C64.8536 56.4473 65.2198 57.6892 65.2198 59.097C65.2198 61.4204 64.4759 63.309 62.9879 64.7626C61.5114 66.2162 59.5428 66.943 57.082 66.943C54.7928 66.943 52.8871 66.3421 51.3649 65.1403C49.5679 63.721 48.6694 61.7753 48.6694 59.303C48.6694 57.941 49.0071 56.6934 49.6824 55.5603C50.3577 54.4157 51.4221 53.5344 52.8757 52.9163ZM53.8715 48.0576C53.8715 49.0191 54.1404 49.7688 54.6784 50.3067C55.2278 50.8447 55.9546 51.1136 56.8588 51.1136C57.7744 51.1136 58.507 50.8447 59.0563 50.3067C59.6057 49.7573 59.8804 49.0019 59.8804 48.0405C59.8804 47.1363 59.6057 46.4152 59.0563 45.8773C58.5184 45.3279 57.8031 45.0532 56.9103 45.0532C55.9832 45.0532 55.2449 45.3279 54.6956 45.8773C54.1462 46.4266 53.8715 47.1534 53.8715 48.0576ZM53.4251 58.8394C53.4251 60.1671 53.7627 61.203 54.438 61.9469C55.1248 62.6909 55.9775 63.0629 56.9961 63.0629C57.9919 63.0629 58.816 62.7081 59.4684 61.9984C60.1208 61.2774 60.447 60.2415 60.447 58.891C60.447 57.712 60.1151 56.7678 59.4512 56.0582C58.7874 55.3371 57.9461 54.9765 56.9275 54.9765C55.7486 54.9765 54.8672 55.3829 54.2835 56.1955C53.7112 57.0081 53.4251 57.8895 53.4251 58.8394ZM80.6543 66.4966H75.8299V48.3152C74.0673 49.9633 71.9899 51.1823 69.5978 51.9721V47.5941C70.8568 47.1821 72.2246 46.4038 73.7011 45.2592C75.1775 44.1032 76.1905 42.7583 76.7399 41.2246H80.6543V66.4966ZM92.0198 52.9163C90.7722 52.3898 89.8623 51.6687 89.29 50.7531C88.7292 49.826 88.4488 48.8131 88.4488 47.7143C88.4488 45.8372 89.1012 44.2863 90.406 43.0616C91.7222 41.8369 93.5879 41.2246 96.0029 41.2246C98.395 41.2246 100.249 41.8369 101.565 43.0616C102.893 44.2863 103.557 45.8372 103.557 47.7143C103.557 48.8817 103.254 49.9233 102.647 50.8389C102.04 51.7431 101.188 52.4356 100.089 52.9163C101.485 53.4772 102.544 54.2955 103.265 55.3714C103.998 56.4473 104.364 57.6892 104.364 59.097C104.364 61.4204 103.62 63.309 102.132 64.7626C100.656 66.2162 98.6869 66.943 96.2261 66.943C93.937 66.943 92.0313 66.3421 90.509 65.1403C88.712 63.721 87.8135 61.7753 87.8135 59.303C87.8135 57.941 88.1512 56.6934 88.8265 55.5603C89.5018 54.4157 90.5662 53.5344 92.0198 52.9163ZM93.0156 48.0576C93.0156 49.0191 93.2846 49.7688 93.8225 50.3067C94.3719 50.8447 95.0987 51.1136 96.0029 51.1136C96.9185 51.1136 97.6511 50.8447 98.2005 50.3067C98.7499 49.7573 99.0245 49.0019 99.0245 48.0405C99.0245 47.1363 98.7499 46.4152 98.2005 45.8773C97.6625 45.3279 96.9472 45.0532 96.0544 45.0532C95.1273 45.0532 94.3891 45.3279 93.8397 45.8773C93.2903 46.4266 93.0156 47.1534 93.0156 48.0576ZM92.5692 58.8394C92.5692 60.1671 92.9068 61.203 93.5821 61.9469C94.2689 62.6909 95.1216 63.0629 96.1402 63.0629C97.136 63.0629 97.9601 62.7081 98.6125 61.9984C99.2649 61.2774 99.5911 60.2415 99.5911 58.891C99.5911 57.712 99.2592 56.7678 98.5953 56.0582C97.9315 55.3371 97.0902 54.9765 96.0716 54.9765C94.8927 54.9765 94.0114 55.3829 93.4276 56.1955C92.8553 57.0081 92.5692 57.8895 92.5692 58.8394Z" fill="black"/>
<path d="M7.53345 36.9453H8.45744L11.8549 42.3371V36.9453H12.7315V43.9034H11.8122L8.39584 38.5353V43.9034H7.53345V36.9453ZM13.3974 38.9154C13.3974 38.3554 13.5538 37.9092 13.8665 37.577C14.1824 37.2447 14.5994 37.0786 15.1174 37.0786C15.6323 37.0786 16.043 37.2495 16.3494 37.5912C16.659 37.9329 16.8138 38.3933 16.8138 38.9724C16.8138 39.5578 16.6543 40.0213 16.3352 40.363C16.0193 40.7048 15.6008 40.8756 15.0795 40.8756C14.631 40.8756 14.2377 40.7222 13.8997 40.4153C13.5648 40.1052 13.3974 39.6052 13.3974 38.9154ZM14.2266 38.9439C14.2266 39.3679 14.3103 39.6875 14.4777 39.9027C14.6483 40.1178 14.8568 40.2254 15.1032 40.2254C15.3338 40.2254 15.5376 40.1226 15.7145 39.9169C15.8945 39.7081 15.9846 39.3932 15.9846 38.9724C15.9846 38.5294 15.8914 38.2098 15.705 38.0136C15.5218 37.8143 15.3196 37.7146 15.0985 37.7146C14.8616 37.7146 14.6562 37.8174 14.4825 38.0231C14.3119 38.2288 14.2266 38.5357 14.2266 38.9439Z" fill="black"/>
<path d="M9.12703 80.312L8.04545 84.4448H6.9777L8.54996 79.4136H9.21687L9.12703 80.312ZM9.98054 84.4448L8.89205 80.312L8.79184 79.4136H9.46912L11.0552 84.4448H9.98054ZM10.0186 82.5685V83.4082H7.74828V82.5685H10.0186ZM11.6826 79.4136H12.5707L13.5969 82.8553L14.6198 79.4136H15.4042L13.9736 84.4448H13.2168L11.6826 79.4136ZM11.3232 79.4136H12.1698L12.3011 82.7309V84.4448H11.3232V79.4136ZM15.0172 79.4136H15.8672V84.4448H14.8928V82.7309L15.0172 79.4136ZM19.3661 83.6086V84.4448H17.1788V83.6086H19.3661ZM17.4932 79.4136V84.4448H16.4808V79.4136H17.4932ZM19.0724 81.4524V82.2644H17.1788V81.4524H19.0724ZM19.3592 79.4136V80.2533H17.1788V79.4136H19.3592ZM19.7482 79.4136H21.3619C21.6982 79.4136 21.985 79.4712 22.2223 79.5864C22.4596 79.7016 22.6416 79.872 22.7683 80.0978C22.895 80.3236 22.9583 80.6023 22.9583 80.934C22.9583 81.2059 22.9215 81.4385 22.8478 81.632C22.774 81.8232 22.6692 81.9833 22.5333 82.1124C22.3974 82.2391 22.235 82.3404 22.0461 82.4164L21.7385 82.5996H20.4289L20.4254 81.7599H21.3342C21.4725 81.7599 21.5865 81.7299 21.6763 81.67C21.7685 81.6078 21.8364 81.5215 21.8802 81.4109C21.9263 81.298 21.9493 81.1667 21.9493 81.017C21.9493 80.858 21.9286 80.7221 21.8871 80.6092C21.848 80.494 21.7846 80.4065 21.6971 80.3466C21.6118 80.2844 21.5001 80.2533 21.3619 80.2533H20.7606V84.4448H19.7482V79.4136ZM22.0323 84.4448L21.1096 82.2022L22.1705 82.1987L23.1138 84.3964V84.4448H22.0323ZM24.5014 79.4136V84.4448H23.4959V79.4136H24.5014ZM27.5511 82.7689H28.5567C28.5429 83.1467 28.4668 83.4658 28.3286 83.7261C28.1904 83.9841 27.9934 84.1799 27.7377 84.3135C27.4843 84.4471 27.1779 84.5139 26.8186 84.5139C26.5398 84.5139 26.2922 84.4679 26.0756 84.3757C25.8591 84.2813 25.6748 84.143 25.5227 83.9611C25.3707 83.7791 25.2555 83.5545 25.1772 83.2872C25.1012 83.0177 25.0632 82.7079 25.0632 82.3577V81.5042C25.0632 81.154 25.1035 80.8442 25.1841 80.5747C25.267 80.3051 25.3845 80.0794 25.5366 79.8974C25.6909 79.7131 25.8764 79.5749 26.0929 79.4827C26.3117 79.3883 26.5582 79.341 26.8324 79.341C27.1987 79.341 27.5051 79.4101 27.7515 79.5484C27.998 79.6866 28.1881 79.8882 28.3217 80.1531C28.4576 80.4157 28.5394 80.7371 28.567 81.1172H27.5546C27.55 80.8776 27.5235 80.6898 27.4751 80.5539C27.429 80.4157 27.3553 80.3189 27.2539 80.2637C27.1526 80.2061 27.0121 80.1773 26.8324 80.1773C26.6988 80.1773 26.5836 80.2015 26.4868 80.2498C26.3901 80.2959 26.3106 80.3708 26.2484 80.4744C26.1862 80.5781 26.1401 80.714 26.1102 80.8822C26.0825 81.0504 26.0687 81.2554 26.0687 81.4973V82.3577C26.0687 82.595 26.0814 82.7977 26.1067 82.9659C26.1321 83.1317 26.1724 83.2676 26.2277 83.3736C26.283 83.4796 26.3578 83.5568 26.4523 83.6051C26.549 83.6535 26.6711 83.6777 26.8186 83.6777C26.989 83.6777 27.1261 83.6524 27.2298 83.6017C27.3357 83.551 27.4141 83.46 27.4647 83.3287C27.5154 83.1974 27.5442 83.0108 27.5511 82.7689ZM30.7978 80.312L29.7162 84.4448H28.6485L30.2207 79.4136H30.8876L30.7978 80.312ZM31.6513 84.4448L30.5628 80.312L30.4626 79.4136H31.1399L32.726 84.4448H31.6513ZM31.6893 82.5685V83.4082H29.419V82.5685H31.6893ZM33.1667 78.2602V78.5816L33.1004 79.4275H32.6982V78.6085V78.2602H33.1667ZM34.6275 80.6466C34.6275 80.5955 34.6227 80.5498 34.613 80.5098C34.6033 80.4683 34.5847 80.4303 34.557 80.3957C34.5294 80.3598 34.4879 80.3239 34.4326 80.2879C34.3773 80.252 34.3048 80.2147 34.2149 80.176C34.1043 80.1303 33.9965 80.0806 33.8915 80.0267C33.7878 79.9714 33.6945 79.9078 33.6116 79.8359C33.5287 79.7627 33.4623 79.677 33.4126 79.5788C33.3628 79.4793 33.3379 79.3632 33.3379 79.2305C33.3379 79.102 33.3621 78.9859 33.4105 78.8822C33.4589 78.7772 33.5266 78.688 33.6137 78.6148C33.7007 78.5401 33.8037 78.4835 33.9226 78.4447C34.0415 78.4047 34.1721 78.3846 34.3144 78.3846C34.5066 78.3846 34.6745 78.424 34.8183 78.5028C34.962 78.5802 35.074 78.6894 35.1541 78.8304C35.2343 78.97 35.2744 79.1331 35.2744 79.3197H34.6192C34.6192 79.2381 34.6082 79.167 34.586 79.1061C34.5639 79.0439 34.5294 78.9956 34.4824 78.961C34.4368 78.9251 34.3766 78.9071 34.302 78.9071C34.2329 78.9071 34.1755 78.9216 34.1299 78.9506C34.0843 78.9797 34.0504 79.0191 34.0283 79.0688C34.0062 79.1186 33.9952 79.1739 33.9952 79.2347C33.9952 79.2831 34.0062 79.3259 34.0283 79.3632C34.0518 79.4005 34.0829 79.4351 34.1216 79.4669C34.1617 79.4987 34.2087 79.5291 34.2626 79.5581C34.3179 79.5871 34.3773 79.6148 34.4409 79.641C34.5764 79.695 34.6966 79.7537 34.8017 79.8173C34.9081 79.8809 34.9966 79.9527 35.0671 80.0329C35.1389 80.1117 35.1928 80.2015 35.2288 80.3024C35.2661 80.402 35.2848 80.5153 35.2848 80.6425C35.2848 80.7724 35.2626 80.8899 35.2184 80.9949C35.1742 81.0986 35.1106 81.187 35.0277 81.2603C34.9461 81.3336 34.8466 81.3895 34.7291 81.4282C34.6116 81.4669 34.4803 81.4863 34.3352 81.4863C34.1983 81.4863 34.0663 81.4669 33.9392 81.4282C33.812 81.3882 33.6987 81.3273 33.5992 81.2458C33.501 81.1642 33.4229 81.0599 33.3649 80.9327C33.3068 80.8056 33.2778 80.6542 33.2778 80.4787H33.9371C33.9371 80.5685 33.9447 80.6452 33.9599 80.7088C33.9765 80.771 34.0014 80.8208 34.0345 80.8581C34.0691 80.8954 34.1113 80.923 34.161 80.941C34.2122 80.9576 34.273 80.9659 34.3435 80.9659C34.4153 80.9659 34.472 80.9514 34.5135 80.9224C34.5549 80.8933 34.584 80.8553 34.6006 80.8083C34.6185 80.7599 34.6275 80.706 34.6275 80.6466ZM38.1559 79.4136V84.4448H37.1435V79.4136H38.1559ZM39.7316 81.5526V82.3888H37.9002V81.5526H39.7316ZM39.9251 79.4136V80.2533H37.9002V79.4136H39.9251ZM41.4613 80.312L40.3798 84.4448H39.312L40.8843 79.4136H41.5512L41.4613 80.312ZM42.3148 84.4448L41.2264 80.312L41.1261 79.4136H41.8034L43.3895 84.4448H42.3148ZM42.3528 82.5685V83.4082H40.0826V82.5685H42.3528ZM45.7861 83.1214C45.7861 83.0315 45.778 82.9497 45.7619 82.876C45.7458 82.8023 45.7112 82.7343 45.6583 82.6721C45.6076 82.6099 45.5327 82.5477 45.4336 82.4855C45.3369 82.4234 45.2102 82.3588 45.0535 82.292C44.8669 82.2137 44.6861 82.1308 44.511 82.0432C44.3359 81.9534 44.1781 81.8497 44.0376 81.7322C43.8971 81.6148 43.7854 81.4765 43.7024 81.3176C43.6218 81.1563 43.5815 80.9674 43.5815 80.7509C43.5815 80.5389 43.6195 80.3466 43.6955 80.1738C43.7738 80.001 43.8844 79.8536 44.0272 79.7315C44.1701 79.6071 44.3371 79.5115 44.5283 79.4447C44.7218 79.3779 44.9372 79.3445 45.1745 79.3445C45.497 79.3445 45.7757 79.4113 46.0107 79.5449C46.248 79.6785 46.4311 79.8617 46.5601 80.0943C46.6914 80.327 46.7571 80.5942 46.7571 80.896H45.7481C45.7481 80.7532 45.7274 80.6276 45.6859 80.5194C45.6467 80.4088 45.5834 80.3224 45.4958 80.2602C45.4083 80.198 45.2954 80.1669 45.1572 80.1669C45.0282 80.1669 44.9211 80.1934 44.8358 80.2464C44.7529 80.2971 44.6907 80.3673 44.6492 80.4572C44.6101 80.5447 44.5905 80.6438 44.5905 80.7543C44.5905 80.8373 44.6101 80.9121 44.6492 80.9789C44.6907 81.0434 44.7471 81.1022 44.8186 81.1552C44.89 81.2059 44.9741 81.2554 45.0708 81.3038C45.1699 81.3521 45.2781 81.3994 45.3956 81.4454C45.6237 81.5353 45.8253 81.6343 46.0003 81.7426C46.1754 81.8486 46.3217 81.9684 46.4392 82.102C46.5567 82.2333 46.6454 82.3819 46.7053 82.5477C46.7652 82.7136 46.7951 82.9025 46.7951 83.1145C46.7951 83.3241 46.7583 83.5153 46.6845 83.6881C46.6131 83.8585 46.5083 84.006 46.3701 84.1304C46.2319 84.2525 46.0648 84.3469 45.869 84.4137C45.6755 84.4805 45.459 84.5139 45.2194 84.5139C44.9867 84.5139 44.7667 84.4817 44.5594 84.4172C44.3521 84.3504 44.1689 84.2502 44.01 84.1166C43.8533 83.9806 43.7301 83.809 43.6402 83.6017C43.5504 83.392 43.5055 83.1444 43.5055 82.8587H44.5179C44.5179 83.0108 44.5329 83.1409 44.5629 83.2492C44.5928 83.3552 44.6389 83.4404 44.7011 83.5049C44.7633 83.5671 44.8393 83.6143 44.9291 83.6466C45.0213 83.6765 45.1261 83.6915 45.2436 83.6915C45.3772 83.6915 45.4832 83.6662 45.5615 83.6155C45.6421 83.5648 45.6997 83.4969 45.7343 83.4116C45.7688 83.3264 45.7861 83.2296 45.7861 83.1214ZM49.2712 79.4136V84.4448H48.2656V79.4136H49.2712ZM50.5221 79.4136V80.2533H47.0389V79.4136H50.5221ZM53.7826 83.6086V84.4448H51.5952V83.6086H53.7826ZM51.9097 79.4136V84.4448H50.8972V79.4136H51.9097ZM53.4889 81.4524V82.2644H51.5952V81.4524H53.4889ZM53.7757 79.4136V80.2533H51.5952V79.4136H53.7757ZM56.2898 83.1214C56.2898 83.0315 56.2817 82.9497 56.2656 82.876C56.2494 82.8023 56.2149 82.7343 56.1619 82.6721C56.1112 82.6099 56.0363 82.5477 55.9373 82.4855C55.8405 82.4234 55.7138 82.3588 55.5572 82.292C55.3706 82.2137 55.1897 82.1308 55.0147 82.0432C54.8396 81.9534 54.6818 81.8497 54.5413 81.7322C54.4007 81.6148 54.289 81.4765 54.2061 81.3176C54.1254 81.1563 54.0851 80.9674 54.0851 80.7509C54.0851 80.5389 54.1231 80.3466 54.1992 80.1738C54.2775 80.001 54.3881 79.8536 54.5309 79.7315C54.6737 79.6071 54.8407 79.5115 55.0319 79.4447C55.2255 79.3779 55.4408 79.3445 55.6781 79.3445C56.0006 79.3445 56.2794 79.4113 56.5144 79.5449C56.7516 79.6785 56.9348 79.8617 57.0638 80.0943C57.1951 80.327 57.2608 80.5942 57.2608 80.896H56.2517C56.2517 80.7532 56.231 80.6276 56.1895 80.5194C56.1504 80.4088 56.087 80.3224 55.9995 80.2602C55.9119 80.198 55.7991 80.1669 55.6608 80.1669C55.5318 80.1669 55.4247 80.1934 55.3395 80.2464C55.2566 80.2971 55.1944 80.3673 55.1529 80.4572C55.1137 80.5447 55.0941 80.6438 55.0941 80.7543C55.0941 80.8373 55.1137 80.9121 55.1529 80.9789C55.1944 81.0434 55.2508 81.1022 55.3222 81.1552C55.3936 81.2059 55.4777 81.2554 55.5745 81.3038C55.6735 81.3521 55.7818 81.3994 55.8993 81.4454C56.1273 81.5353 56.3289 81.6343 56.504 81.7426C56.6791 81.8486 56.8254 81.9684 56.9428 82.102C57.0603 82.2333 57.149 82.3819 57.2089 82.5477C57.2688 82.7136 57.2988 82.9025 57.2988 83.1145C57.2988 83.3241 57.2619 83.5153 57.1882 83.6881C57.1168 83.8585 57.012 84.006 56.8737 84.1304C56.7355 84.2525 56.5685 84.3469 56.3727 84.4137C56.1792 84.4805 55.9626 84.5139 55.723 84.5139C55.4904 84.5139 55.2704 84.4817 55.063 84.4172C54.8557 84.3504 54.6726 84.2502 54.5136 84.1166C54.357 83.9806 54.2337 83.809 54.1439 83.6017C54.054 83.392 54.0091 83.1444 54.0091 82.8587H55.0216C55.0216 83.0108 55.0366 83.1409 55.0665 83.2492C55.0964 83.3552 55.1425 83.4404 55.2047 83.5049C55.2669 83.5671 55.3429 83.6143 55.4328 83.6466C55.5249 83.6765 55.6297 83.6915 55.7472 83.6915C55.8808 83.6915 55.9868 83.6662 56.0651 83.6155C56.1458 83.5648 56.2034 83.4969 56.2379 83.4116C56.2725 83.3264 56.2898 83.2296 56.2898 83.1214ZM59.7748 79.4136V84.4448H58.7693V79.4136H59.7748ZM61.0257 79.4136V80.2533H57.5426V79.4136H61.0257ZM62.1611 81.8843V82.6894H60.4782V81.8843H62.1611ZM66.2302 81.8014V83.8747C66.1587 83.9507 66.0539 84.0394 65.9157 84.1407C65.7798 84.2398 65.6013 84.3273 65.3801 84.4034C65.1612 84.4771 64.894 84.5139 64.5784 84.5139C64.2997 84.5139 64.0463 84.4702 63.8182 84.3826C63.5924 84.2951 63.3978 84.1626 63.2342 83.9852C63.073 83.8056 62.9497 83.5821 62.8645 83.3149C62.7793 83.0453 62.7366 82.7263 62.7366 82.3577V81.5007C62.7366 81.1367 62.7769 80.82 62.8576 80.5505C62.9405 80.2786 63.0603 80.0529 63.2169 79.8732C63.3736 79.6935 63.5602 79.5599 63.7767 79.4723C63.9956 79.3848 64.2421 79.341 64.5162 79.341C64.894 79.341 65.2039 79.4044 65.4458 79.5311C65.6899 79.6578 65.8742 79.8455 65.9986 80.0943C66.1253 80.3431 66.2014 80.6484 66.2267 81.01H65.2488C65.2327 80.7981 65.197 80.6322 65.1417 80.5125C65.0887 80.3927 65.0138 80.3074 64.9171 80.2567C64.8203 80.2038 64.6948 80.1773 64.5404 80.1773C64.4068 80.1773 64.2905 80.2015 64.1914 80.2498C64.0923 80.2959 64.0094 80.3719 63.9426 80.4779C63.8758 80.5839 63.8263 80.7198 63.794 80.8856C63.7618 81.0515 63.7456 81.2542 63.7456 81.4938V82.3577C63.7456 82.595 63.7641 82.7977 63.8009 82.9659C63.8378 83.134 63.8919 83.2711 63.9633 83.3771C64.0371 83.483 64.1292 83.5602 64.2398 83.6086C64.3527 83.6547 64.4851 83.6777 64.6372 83.6777C64.7593 83.6777 64.8572 83.665 64.9309 83.6397C65.0046 83.6143 65.0633 83.5879 65.1071 83.5602C65.1532 83.5303 65.1912 83.5072 65.2211 83.4911V82.565H64.4989V81.8014H66.2302ZM66.7504 79.4136H68.3641C68.7005 79.4136 68.9873 79.4712 69.2246 79.5864C69.4618 79.7016 69.6438 79.872 69.7705 80.0978C69.8972 80.3236 69.9606 80.6023 69.9606 80.934C69.9606 81.2059 69.9237 81.4385 69.85 81.632C69.7763 81.8232 69.6715 81.9833 69.5356 82.1124C69.3996 82.2391 69.2372 82.3404 69.0483 82.4164L68.7408 82.5996H67.4312L67.4277 81.7599H68.3365C68.4747 81.7599 68.5887 81.7299 68.6786 81.67C68.7707 81.6078 68.8387 81.5215 68.8825 81.4109C68.9285 81.298 68.9516 81.1667 68.9516 81.017C68.9516 80.858 68.9308 80.7221 68.8894 80.6092C68.8502 80.494 68.7869 80.4065 68.6993 80.3466C68.6141 80.2844 68.5024 80.2533 68.3641 80.2533H67.7629V84.4448H66.7504V79.4136ZM69.0345 84.4448L68.1119 82.2022L69.1727 82.1987L70.1161 84.3964V84.4448H69.0345ZM73.9882 81.5387V82.3784C73.9882 82.7332 73.9444 83.0442 73.8569 83.3114C73.7716 83.5763 73.6496 83.7986 73.4906 83.9783C73.3339 84.1557 73.1439 84.2893 72.9204 84.3792C72.6993 84.469 72.4539 84.5139 72.1844 84.5139C71.9149 84.5139 71.6684 84.469 71.4449 84.3792C71.2238 84.2893 71.0326 84.1557 70.8713 83.9783C70.7124 83.7986 70.5891 83.5763 70.5016 83.3114C70.414 83.0442 70.3703 82.7332 70.3703 82.3784V81.5387C70.3703 81.1748 70.4129 80.8569 70.4981 80.585C70.5834 80.3109 70.7066 80.0828 70.8679 79.9008C71.0291 79.7165 71.2203 79.5783 71.4415 79.4862C71.6626 79.3917 71.908 79.3445 72.1775 79.3445C72.447 79.3445 72.6924 79.3917 72.9135 79.4862C73.1347 79.5783 73.3259 79.7165 73.4871 79.9008C73.6484 80.0828 73.7716 80.3109 73.8569 80.585C73.9444 80.8569 73.9882 81.1748 73.9882 81.5387ZM72.9826 82.3784V81.5318C72.9826 81.2922 72.9654 81.0884 72.9308 80.9202C72.8962 80.7497 72.8444 80.6104 72.7753 80.5021C72.7062 80.3938 72.6221 80.3143 72.5231 80.2637C72.424 80.213 72.3088 80.1876 72.1775 80.1876C72.0462 80.1876 71.9299 80.213 71.8285 80.2637C71.7294 80.3143 71.6454 80.3938 71.5762 80.5021C71.5094 80.6104 71.4588 80.7497 71.4242 80.9202C71.3919 81.0884 71.3758 81.2922 71.3758 81.5318V82.3784C71.3758 82.6088 71.3931 82.8058 71.4277 82.9693C71.4622 83.1329 71.514 83.2665 71.5832 83.3702C71.6523 83.4738 71.7363 83.551 71.8354 83.6017C71.9368 83.6501 72.0531 83.6742 72.1844 83.6742C72.3134 83.6742 72.4275 83.6501 72.5265 83.6017C72.6279 83.551 72.712 83.4738 72.7788 83.3702C72.8456 83.2665 72.8962 83.1329 72.9308 82.9693C72.9654 82.8058 72.9826 82.6088 72.9826 82.3784ZM75.5382 83.6915L76.3433 79.4136H76.8755L77.0344 80.0771L76.1706 84.4448H75.5935L75.5382 83.6915ZM75.2618 79.4136L75.9114 83.7019L75.8008 84.4448H75.165L74.2631 79.4136H75.2618ZM77.6184 83.6846L78.2646 79.4136H79.2598L78.3648 84.4448H77.7255L77.6184 83.6846ZM77.183 79.4136L77.9951 83.7157L77.9294 84.4448H77.3523L76.4919 80.0701L76.6543 79.4136H77.183ZM80.6577 79.4136V84.4448H79.6522V79.4136H80.6577ZM84.827 79.4136V84.4448H83.8491L82.2699 81.2969V84.4448H81.3093V79.4136H82.2734L83.8664 82.5961V79.4136H84.827ZM88.8477 81.8014V83.8747C88.7763 83.9507 88.6715 84.0394 88.5333 84.1407C88.3974 84.2398 88.2188 84.3273 87.9977 84.4034C87.7788 84.4771 87.5116 84.5139 87.196 84.5139C86.9172 84.5139 86.6638 84.4702 86.4358 84.3826C86.21 84.2951 86.0154 84.1626 85.8518 83.9852C85.6905 83.8056 85.5673 83.5821 85.4821 83.3149C85.3968 83.0453 85.3542 82.7263 85.3542 82.3577V81.5007C85.3542 81.1367 85.3945 80.82 85.4751 80.5505C85.5581 80.2786 85.6779 80.0529 85.8345 79.8732C85.9912 79.6935 86.1778 79.5599 86.3943 79.4723C86.6132 79.3848 86.8596 79.341 87.1338 79.341C87.5116 79.341 87.8214 79.4044 88.0633 79.5311C88.3075 79.6578 88.4918 79.8455 88.6162 80.0943C88.7429 80.3431 88.8189 80.6484 88.8443 81.01H87.8664C87.8502 80.7981 87.8145 80.6322 87.7592 80.5125C87.7062 80.3927 87.6314 80.3074 87.5346 80.2567C87.4379 80.2038 87.3123 80.1773 87.158 80.1773C87.0244 80.1773 86.908 80.2015 86.809 80.2498C86.7099 80.2959 86.627 80.3719 86.5602 80.4779C86.4934 80.5839 86.4438 80.7198 86.4116 80.8856C86.3793 81.0515 86.3632 81.2542 86.3632 81.4938V82.3577C86.3632 82.595 86.3816 82.7977 86.4185 82.9659C86.4554 83.134 86.5095 83.2711 86.5809 83.3771C86.6546 83.483 86.7468 83.5602 86.8573 83.6086C86.9702 83.6547 87.1027 83.6777 87.2547 83.6777C87.3768 83.6777 87.4747 83.665 87.5484 83.6397C87.6222 83.6143 87.6809 83.5879 87.7247 83.5602C87.7708 83.5303 87.8088 83.5072 87.8387 83.4911V82.565H87.1165V81.8014H88.8477ZM92.4971 82.6721H91.4674V81.8325H92.4971C92.6423 81.8325 92.7598 81.8002 92.8496 81.7357C92.9395 81.6712 93.0051 81.5825 93.0466 81.4696C93.088 81.3544 93.1088 81.2254 93.1088 81.0826C93.1088 80.9375 93.088 80.8016 93.0466 80.6749C93.0051 80.5482 92.9395 80.4468 92.8496 80.3708C92.7598 80.2925 92.6423 80.2533 92.4971 80.2533H91.7957V84.4448H90.7832V79.4136H92.4971C92.8358 79.4136 93.1261 79.485 93.3679 79.6278C93.6121 79.7707 93.7999 79.9676 93.9312 80.2187C94.0625 80.4675 94.1282 80.7532 94.1282 81.0757C94.1282 81.4005 94.0625 81.6827 93.9312 81.9223C93.7999 82.1596 93.6121 82.3439 93.3679 82.4752C93.1261 82.6065 92.8358 82.6721 92.4971 82.6721ZM94.5966 79.4136H96.2103C96.5466 79.4136 96.8335 79.4712 97.0707 79.5864C97.308 79.7016 97.49 79.872 97.6167 80.0978C97.7434 80.3236 97.8068 80.6023 97.8068 80.934C97.8068 81.2059 97.7699 81.4385 97.6962 81.632C97.6225 81.8232 97.5176 81.9833 97.3817 82.1124C97.2458 82.2391 97.0834 82.3404 96.8945 82.4164L96.587 82.5996H95.2773L95.2739 81.7599H96.1827C96.3209 81.7599 96.4349 81.7299 96.5248 81.67C96.6169 81.6078 96.6849 81.5215 96.7286 81.4109C96.7747 81.298 96.7977 81.1667 96.7977 81.017C96.7977 80.858 96.777 80.7221 96.7355 80.6092C96.6964 80.494 96.633 80.4065 96.5455 80.3466C96.4603 80.2844 96.3485 80.2533 96.2103 80.2533H95.609V84.4448H94.5966V79.4136ZM96.8807 84.4448L95.9581 82.2022L97.0189 82.1987L97.9623 84.3964V84.4448H96.8807ZM99.3499 79.4136V84.4448H98.3443V79.4136H99.3499ZM101.567 83.3702L102.52 79.4136H103.612L102.154 84.4448H101.418L101.567 83.3702ZM100.751 79.4136L101.702 83.3702L101.857 84.4448H101.118L99.6697 79.4136H100.751ZM105.439 80.312L104.357 84.4448H103.29L104.862 79.4136H105.529L105.439 80.312ZM106.292 84.4448L105.204 80.312L105.104 79.4136H105.781L107.367 84.4448H106.292ZM106.33 82.5685V83.4082H104.06V82.5685H106.33ZM109.225 79.4136V84.4448H108.219V79.4136H109.225ZM110.475 79.4136V80.2533H106.992V79.4136H110.475ZM113.736 83.6086V84.4448H111.549V83.6086H113.736ZM111.863 79.4136V84.4448H110.851V79.4136H111.863ZM113.442 81.4524V82.2644H111.549V81.4524H113.442ZM113.729 79.4136V80.2533H111.549V79.4136H113.729ZM117.931 82.7689H118.937C118.923 83.1467 118.847 83.4658 118.709 83.7261C118.571 83.9841 118.374 84.1799 118.118 84.3135C117.865 84.4471 117.558 84.5139 117.199 84.5139C116.92 84.5139 116.672 84.4679 116.456 84.3757C116.239 84.2813 116.055 84.143 115.903 83.9611C115.751 83.7791 115.636 83.5545 115.557 83.2872C115.481 83.0177 115.443 82.7079 115.443 82.3577V81.5042C115.443 81.154 115.484 80.8442 115.564 80.5747C115.647 80.3051 115.765 80.0794 115.917 79.8974C116.071 79.7131 116.257 79.5749 116.473 79.4827C116.692 79.3883 116.938 79.341 117.213 79.341C117.579 79.341 117.885 79.4101 118.132 79.5484C118.378 79.6866 118.568 79.8882 118.702 80.1531C118.838 80.4157 118.92 80.7371 118.947 81.1172H117.935C117.93 80.8776 117.904 80.6898 117.855 80.5539C117.809 80.4157 117.736 80.3189 117.634 80.2637C117.533 80.2061 117.392 80.1773 117.213 80.1773C117.079 80.1773 116.964 80.2015 116.867 80.2498C116.77 80.2959 116.691 80.3708 116.629 80.4744C116.566 80.5781 116.52 80.714 116.49 80.8822C116.463 81.0504 116.449 81.2554 116.449 81.4973V82.3577C116.449 82.595 116.462 82.7977 116.487 82.9659C116.512 83.1317 116.553 83.2676 116.608 83.3736C116.663 83.4796 116.738 83.5568 116.833 83.6051C116.929 83.6535 117.051 83.6777 117.199 83.6777C117.369 83.6777 117.506 83.6524 117.61 83.6017C117.716 83.551 117.794 83.46 117.845 83.3287C117.896 83.1974 117.924 83.0108 117.931 82.7689ZM122.892 81.5387V82.3784C122.892 82.7332 122.848 83.0442 122.761 83.3114C122.675 83.5763 122.553 83.7986 122.394 83.9783C122.238 84.1557 122.048 84.2893 121.824 84.3792C121.603 84.469 121.358 84.5139 121.088 84.5139C120.819 84.5139 120.572 84.469 120.349 84.3792C120.128 84.2893 119.936 84.1557 119.775 83.9783C119.616 83.7986 119.493 83.5763 119.405 83.3114C119.318 83.0442 119.274 82.7332 119.274 82.3784V81.5387C119.274 81.1748 119.317 80.8569 119.402 80.585C119.487 80.3109 119.61 80.0828 119.772 79.9008C119.933 79.7165 120.124 79.5783 120.345 79.4862C120.566 79.3917 120.812 79.3445 121.081 79.3445C121.351 79.3445 121.596 79.3917 121.817 79.4862C122.038 79.5783 122.23 79.7165 122.391 79.9008C122.552 80.0828 122.675 80.3109 122.761 80.585C122.848 80.8569 122.892 81.1748 122.892 81.5387ZM121.886 82.3784V81.5318C121.886 81.2922 121.869 81.0884 121.835 80.9202C121.8 80.7497 121.748 80.6104 121.679 80.5021C121.61 80.3938 121.526 80.3143 121.427 80.2637C121.328 80.213 121.213 80.1876 121.081 80.1876C120.95 80.1876 120.834 80.213 120.732 80.2637C120.633 80.3143 120.549 80.3938 120.48 80.5021C120.413 80.6104 120.363 80.7497 120.328 80.9202C120.296 81.0884 120.28 81.2922 120.28 81.5318V82.3784C120.28 82.6088 120.297 82.8058 120.331 82.9693C120.366 83.1329 120.418 83.2665 120.487 83.3702C120.556 83.4738 120.64 83.551 120.739 83.6017C120.841 83.6501 120.957 83.6742 121.088 83.6742C121.217 83.6742 121.331 83.6501 121.43 83.6017C121.532 83.551 121.616 83.4738 121.683 83.3702C121.749 83.2665 121.8 83.1329 121.835 82.9693C121.869 82.8058 121.886 82.6088 121.886 82.3784ZM124.505 80.6466C124.505 80.5955 124.5 80.5498 124.49 80.5098C124.481 80.4683 124.462 80.4303 124.434 80.3957C124.407 80.3598 124.365 80.3239 124.31 80.2879C124.255 80.252 124.182 80.2147 124.092 80.176C123.982 80.1303 123.874 80.0806 123.769 80.0267C123.665 79.9714 123.572 79.9078 123.489 79.8359C123.406 79.7627 123.34 79.677 123.29 79.5788C123.24 79.4793 123.215 79.3632 123.215 79.2305C123.215 79.102 123.239 78.9859 123.288 78.8822C123.336 78.7772 123.404 78.688 123.491 78.6148C123.578 78.5401 123.681 78.4835 123.8 78.4447C123.919 78.4047 124.049 78.3846 124.192 78.3846C124.384 78.3846 124.552 78.424 124.696 78.5028C124.839 78.5802 124.951 78.6894 125.031 78.8304C125.112 78.97 125.152 79.1331 125.152 79.3197H124.497C124.497 79.2381 124.486 79.167 124.463 79.1061C124.441 79.0439 124.407 78.9956 124.36 78.961C124.314 78.9251 124.254 78.9071 124.179 78.9071C124.11 78.9071 124.053 78.9216 124.007 78.9506C123.962 78.9797 123.928 79.0191 123.906 79.0688C123.884 79.1186 123.873 79.1739 123.873 79.2347C123.873 79.2831 123.884 79.3259 123.906 79.3632C123.929 79.4005 123.96 79.4351 123.999 79.4669C124.039 79.4987 124.086 79.5291 124.14 79.5581C124.195 79.5871 124.255 79.6148 124.318 79.641C124.454 79.695 124.574 79.7537 124.679 79.8173C124.785 79.8809 124.874 79.9527 124.944 80.0329C125.016 80.1117 125.07 80.2015 125.106 80.3024C125.143 80.402 125.162 80.5153 125.162 80.6425C125.162 80.7724 125.14 80.8899 125.096 80.9949C125.052 81.0986 124.988 81.187 124.905 81.2603C124.823 81.3336 124.724 81.3895 124.606 81.4282C124.489 81.4669 124.358 81.4863 124.213 81.4863C124.076 81.4863 123.944 81.4669 123.817 81.4282C123.689 81.3882 123.576 81.3273 123.477 81.2458C123.378 81.1642 123.3 81.0599 123.242 80.9327C123.184 80.8056 123.155 80.6542 123.155 80.4787H123.814C123.814 80.5685 123.822 80.6452 123.837 80.7088C123.854 80.771 123.879 80.8208 123.912 80.8581C123.946 80.8954 123.989 80.923 124.038 80.941C124.09 80.9576 124.15 80.9659 124.221 80.9659C124.293 80.9659 124.349 80.9514 124.391 80.9224C124.432 80.8933 124.461 80.8553 124.478 80.8083C124.496 80.7599 124.505 80.706 124.505 80.6466Z" fill="#FF0000"/>
<path d="M117.176 44.3155L117.176 39.7398C117.628 39.7922 118.053 39.9507 118.45 40.2153C118.849 40.4824 119.32 40.9817 119.861 41.7131C120.193 42.1599 120.445 42.4457 120.618 42.5706C120.79 42.6954 120.953 42.7578 121.108 42.7578C121.275 42.7578 121.418 42.6954 121.535 42.5706C121.655 42.4482 121.715 42.2935 121.715 42.1062C121.715 41.9115 121.654 41.7518 121.531 41.627C121.409 41.5046 121.193 41.4223 120.883 41.3798L121.007 39.8521C121.436 39.912 121.771 40.0218 122.011 40.1816C122.253 40.3414 122.437 40.566 122.565 40.8556C122.694 41.1477 122.759 41.5508 122.759 42.0651C122.759 42.6018 122.698 43.0186 122.576 43.3157C122.454 43.6153 122.265 43.8499 122.011 44.0196C121.758 44.1919 121.475 44.278 121.161 44.278C120.826 44.278 120.506 44.1794 120.202 43.9822C119.897 43.7875 119.563 43.4318 119.198 42.915C118.986 42.608 118.838 42.4021 118.753 42.2972C118.668 42.1949 118.557 42.0738 118.42 41.934L118.42 44.3155L117.176 44.3155ZM119.944 46.8841C120.987 46.8841 121.717 47.0714 122.134 47.4458C122.551 47.8227 122.759 48.3956 122.759 49.1645C122.759 49.5339 122.713 49.8372 122.621 50.0744C122.531 50.3115 122.412 50.505 122.265 50.6548C122.12 50.8046 121.967 50.9219 121.805 51.0068C121.645 51.0941 121.458 51.164 121.243 51.2164C120.834 51.3188 120.407 51.37 119.962 51.37C118.966 51.37 118.237 51.2015 117.776 50.8645C117.314 50.5275 117.083 49.9471 117.083 49.1233C117.083 48.6615 117.156 48.2883 117.304 48.0037C117.451 47.7191 117.667 47.4857 117.952 47.3035C118.154 47.1712 118.43 47.0676 118.779 46.9927C119.131 46.9203 119.519 46.8841 119.944 46.8841ZM119.94 48.3969C119.241 48.3969 118.763 48.458 118.506 48.5804C118.251 48.7052 118.124 48.8849 118.124 49.1196C118.124 49.2743 118.177 49.4079 118.285 49.5202C118.395 49.635 118.567 49.7187 118.802 49.7711C119.036 49.826 119.402 49.8535 119.899 49.8535C120.628 49.8535 121.117 49.7911 121.366 49.6662C121.619 49.5439 121.745 49.3592 121.745 49.1121C121.745 48.8599 121.616 48.6777 121.359 48.5654C121.104 48.4531 120.631 48.3969 119.94 48.3969ZM117.176 58.3795L117.176 53.8038C117.628 53.8563 118.053 54.0148 118.45 54.2794C118.849 54.5465 119.32 55.0457 119.861 55.7772C120.193 56.224 120.445 56.5098 120.618 56.6346C120.79 56.7594 120.953 56.8218 121.108 56.8218C121.275 56.8218 121.418 56.7594 121.535 56.6346C121.655 56.5123 121.715 56.3575 121.715 56.1703C121.715 55.9756 121.654 55.8158 121.531 55.691C121.409 55.5687 121.193 55.4863 120.883 55.4439L121.007 53.9162C121.436 53.9761 121.771 54.0859 122.011 54.2457C122.253 54.4054 122.437 54.6301 122.565 54.9197C122.694 55.2117 122.759 55.6149 122.759 56.1291C122.759 56.6658 122.698 57.0827 122.576 57.3798C122.454 57.6793 122.265 57.914 122.011 58.0837C121.758 58.256 121.475 58.3421 121.161 58.3421C120.826 58.3421 120.506 58.2435 120.202 58.0463C119.897 57.8516 119.563 57.4958 119.198 56.9791C118.986 56.6721 118.838 56.4661 118.753 56.3613C118.668 56.2589 118.557 56.1379 118.42 55.9981L118.42 58.3795L117.176 58.3795ZM117.176 65.4116L117.176 60.8359C117.628 60.8883 118.053 61.0468 118.45 61.3114C118.849 61.5785 119.32 62.0778 119.861 62.8092C120.193 63.256 120.445 63.5418 120.618 63.6667C120.79 63.7915 120.953 63.8539 121.108 63.8539C121.275 63.8539 121.418 63.7915 121.535 63.6667C121.655 63.5443 121.715 63.3896 121.715 63.2024C121.715 63.0076 121.654 62.8479 121.531 62.7231C121.409 62.6007 121.193 62.5184 120.883 62.4759L121.007 60.9482C121.436 61.0081 121.771 61.118 122.011 61.2777C122.253 61.4375 122.437 61.6621 122.565 61.9517C122.694 62.2438 122.759 62.6469 122.759 63.1612C122.759 63.6979 122.698 64.1147 122.576 64.4118C122.454 64.7114 122.265 64.946 122.011 65.1158C121.758 65.288 121.475 65.3741 121.161 65.3741C120.826 65.3741 120.506 65.2755 120.202 65.0783C119.897 64.8836 119.563 64.5279 119.198 64.0111C118.986 63.7041 118.838 63.4982 118.753 63.3933C118.668 63.291 118.557 63.1699 118.42 63.0301L118.42 65.4116L117.176 65.4116Z" fill="white"/>
</svg>
