<svg width="306" height="30" viewBox="0 0 306 30" fill="none" xmlns="http://www.w3.org/2000/svg">
<rect x="52.5" y="0.5" width="46" height="29" rx="2.5" fill="white" stroke="#DADADA"/>
<path d="M79.8694 7.13867H70.9849V22.8618H79.8694V7.13867Z" fill="#FF5F00"/>
<path d="M71.5497 15.0022C71.5481 13.4877 71.8964 11.9927 72.5683 10.6304C73.2402 9.26815 74.2181 8.07427 75.4279 7.13921C73.9299 5.97996 72.131 5.25909 70.2368 5.05899C68.3425 4.8589 66.4292 5.18764 64.7157 6.00765C63.0021 6.82767 61.5575 8.10587 60.5467 9.69617C59.536 11.2865 59 13.1247 59 15.0008C59 16.8769 59.536 18.7151 60.5467 20.3054C61.5575 21.8957 63.0021 23.1739 64.7157 23.9939C66.4292 24.814 68.3425 25.1427 70.2368 24.9426C72.131 24.7425 73.9299 24.0216 75.4279 22.8624C74.2185 21.9276 73.2408 20.7342 72.5689 19.3724C71.897 18.0106 71.5485 16.5162 71.5497 15.0022Z" fill="#EB001B"/>
<path d="M91.8581 15.0014C91.858 16.8776 91.3219 18.716 90.311 20.3063C89.3001 21.8967 87.8552 23.1749 86.1414 23.9948C84.4277 24.8147 82.5143 25.1432 80.6199 24.9428C78.7255 24.7424 76.9265 24.0212 75.4287 22.8616C76.6377 21.926 77.615 20.7322 78.2871 19.3704C78.9592 18.0085 79.3084 16.5141 79.3084 15C79.3084 13.4859 78.9592 11.9915 78.2871 10.6296C77.615 9.26778 76.6377 8.07402 75.4287 7.13841C76.9265 5.9788 78.7255 5.25758 80.6199 5.0572C82.5143 4.85681 84.4277 5.18534 86.1414 6.00524C87.8552 6.82514 89.3001 8.10332 90.311 9.69367C91.3219 11.284 91.858 13.1224 91.8581 14.9986V15.0014Z" fill="#F79E1B"/>
<path d="M90.8867 21.1955V20.8733H91.0192V20.8066H90.6836V20.8733H90.8274V21.1955H90.8867ZM91.5382 21.1955V20.8066H91.4367L91.3182 21.0844L91.1997 20.8066H91.1095V21.1955H91.1828V20.9039L91.2928 21.1566H91.369L91.479 20.9039V21.1983L91.5382 21.1955Z" fill="#F79E1B"/>
<rect x="0.5" y="0.5" width="46" height="29" rx="1.83043" fill="white" stroke="#EFEFEF"/>
<path d="M17.3989 20.5664L19.3351 9.19531H22.4343L20.496 20.5664H17.3989Z" fill="#005098"/>
<path d="M31.7347 9.47697C31.1205 9.24611 30.1578 9 28.9578 9C25.8956 9 23.7394 10.542 23.7198 12.7526C23.7024 14.3861 25.2596 15.2986 26.4357 15.8409C27.6423 16.3985 28.0474 16.7535 28.0409 17.2522C28.0322 18.0145 27.0782 18.363 26.1874 18.363C24.946 18.363 24.2883 18.1909 23.2712 17.7662L22.8726 17.5855L22.437 20.1315C23.1601 20.4495 24.4995 20.7239 25.8891 20.7391C29.1473 20.7391 31.2621 19.2146 31.286 16.8559C31.2969 15.5622 30.4715 14.5777 28.6834 13.7675C27.6009 13.2426 26.9366 12.8898 26.9432 12.3584C26.9432 11.8858 27.5051 11.3805 28.7182 11.3805C29.731 11.3652 30.4649 11.5852 31.0377 11.8161L31.3165 11.9468L31.7347 9.47697Z" fill="#005098"/>
<path d="M39.6823 9.20703H37.2866C36.5439 9.20703 35.9885 9.40958 35.664 10.1501L31.062 20.5694H34.3159C34.3159 20.5694 34.8473 19.169 34.9692 18.8619C35.3243 18.8619 38.4866 18.8662 38.9375 18.8662C39.0311 19.2648 39.3143 20.5694 39.3143 20.5694H42.1891L39.6823 9.20703ZM35.86 16.5358C36.117 15.8803 37.0949 13.3582 37.0949 13.3582C37.0775 13.3887 37.3497 12.7005 37.5066 12.2736L37.7156 13.2537C37.7156 13.2537 38.308 15.9674 38.4322 16.5358H35.86Z" fill="#005098"/>
<path d="M14.7969 9.20508L11.763 16.9586L11.4407 15.3839C10.8766 13.5675 9.11681 11.5986 7.14795 10.6142L9.92265 20.5565L13.2005 20.5522L18.0791 9.20508H14.7969Z" fill="#005098"/>
<path d="M8.95116 9.19727H3.95496L3.91357 9.43248C7.80121 10.3734 10.3734 12.6471 11.4406 15.3805L10.3538 10.1556C10.1686 9.43684 9.62415 9.22122 8.95116 9.19727Z" fill="#F7A600"/>
<rect x="104.5" y="0.5" width="45" height="29" rx="2.5" fill="#26A6D1" stroke="#DADADA"/>
<path d="M111.401 10L107 18.9884H112.269L112.922 17.5553H114.416L115.069 18.9884H120.869V17.8946L121.385 18.9884H124.386L124.902 17.8715V18.9884H136.965L138.431 17.5925L139.805 18.9884L146 19L141.585 14.5193L146 10H139.901L138.473 11.3701L137.143 10H124.021L122.894 12.32L121.741 10H116.483V11.0566L115.898 10H111.401ZM112.421 11.2764H114.989L117.909 17.3715V11.2764H120.723L122.978 15.6465L125.056 11.2764H127.855V17.7262H126.152L126.138 12.6721L123.654 17.7262H122.131L119.633 12.6721V17.7262H116.129L115.464 16.2802H111.875L111.212 17.7249H109.334L112.421 11.2764ZM129.414 11.2764H136.341L138.459 13.3881L140.646 11.2764H142.764L139.546 14.518L142.764 17.7224H140.55L138.431 15.5861L136.233 17.7224H129.414V11.2764ZM113.67 12.3676L112.488 14.9435H114.852L113.67 12.3676ZM131.124 12.6118V13.7892H134.903V15.1015H131.124V16.3869H135.363L137.332 14.4937L135.446 12.6107H131.124V12.6118Z" fill="white"/>
<rect x="207.5" y="0.5" width="46" height="29" rx="2.5" fill="white" stroke="#DADADA"/>
<path d="M232.148 24.9187C237.595 24.943 242.557 20.4923 242.557 15.0445C242.581 9.11021 237.595 5 232.148 5H227.478C221.957 5 217.434 9.11021 217.434 15.0445C217.434 20.468 221.957 24.943 227.478 24.9187H232.148Z" fill="#0064A7"/>
<path d="M229.571 20.3223V9.54822C231.735 10.3751 233.268 12.4667 233.292 14.9474C233.268 17.4038 231.735 19.4954 229.571 20.3223ZM221.715 14.9474C221.715 12.491 223.247 10.3994 225.412 9.54822V20.3223C223.272 19.4954 221.715 17.4038 221.715 14.9474ZM227.504 5.82715C222.469 5.82715 218.383 9.91303 218.383 14.9474C218.383 19.9818 222.469 24.0677 227.504 24.0677C232.538 24.0677 236.624 19.9818 236.624 14.9474C236.624 9.91303 232.538 5.82715 227.504 5.82715Z" fill="white"/>
<rect x="259.5" y="0.5" width="46" height="29" rx="2.5" fill="white" stroke="#DADADA"/>
<path fill-rule="evenodd" clip-rule="evenodd" d="M289.062 15.2088H289.079H289.11H289.142H289.173H289.205H289.236H289.268H289.299H289.331H289.362H289.394H289.425H289.457H289.488H289.52H289.551H289.583H289.615H289.646H289.678H289.709H289.741H289.772H289.804H289.835H289.867H289.898H289.93H289.961H289.993H290.024H290.056H290.087H290.119H290.15H290.182H290.213H290.245H290.277H290.308H290.34H290.371H290.403H290.434H290.466H290.497H290.529H290.56H290.592H290.623H290.655H290.686H290.718H290.749H290.781H290.812H290.844H290.875H290.907H290.938H290.965L290.97 15.2089C290.98 15.2091 290.99 15.2096 291.002 15.2102C291.012 15.2107 291.022 15.2114 291.033 15.2122C291.043 15.213 291.054 15.2139 291.065 15.2149C291.075 15.2158 291.086 15.2169 291.096 15.218C291.107 15.2193 291.118 15.2205 291.128 15.2219C291.139 15.2234 291.15 15.225 291.159 15.2266C291.166 15.2278 291.172 15.229 291.178 15.2302L291.191 15.2331C291.201 15.2355 291.212 15.2382 291.222 15.2411C291.233 15.244 291.243 15.2471 291.254 15.2505C291.264 15.2538 291.275 15.2574 291.285 15.2612C291.296 15.2651 291.306 15.2691 291.317 15.2734C291.327 15.2777 291.338 15.2823 291.348 15.2871C291.359 15.2919 291.369 15.297 291.38 15.3023C291.39 15.3077 291.401 15.3133 291.411 15.3192C291.422 15.3252 291.432 15.3315 291.443 15.3379C291.453 15.3446 291.464 15.3514 291.474 15.3585C291.485 15.3658 291.496 15.3734 291.506 15.3812C291.517 15.3893 291.527 15.3976 291.537 15.4062C291.548 15.4152 291.559 15.4244 291.569 15.4339C291.58 15.4438 291.59 15.4539 291.6 15.4644C291.611 15.4754 291.622 15.4868 291.632 15.4984C291.643 15.5108 291.653 15.5235 291.663 15.5366C291.674 15.5506 291.685 15.565 291.695 15.5798C291.706 15.596 291.717 15.6127 291.727 15.6298C291.738 15.649 291.748 15.6689 291.758 15.6892C291.77 15.7133 291.78 15.7382 291.79 15.7637C291.802 15.7981 291.813 15.8337 291.821 15.8705C291.835 15.9342 291.843 16.0013 291.843 16.0713C291.843 16.1417 291.836 16.2091 291.821 16.2731C291.813 16.3099 291.802 16.3456 291.79 16.38C291.78 16.4057 291.77 16.4305 291.758 16.4547C291.748 16.4751 291.738 16.495 291.727 16.5142C291.717 16.5314 291.706 16.548 291.695 16.5642C291.685 16.579 291.674 16.5935 291.663 16.6075C291.653 16.6206 291.643 16.6333 291.632 16.6456C291.622 16.6573 291.611 16.6686 291.6 16.6796C291.59 16.6901 291.58 16.7002 291.569 16.7101C291.559 16.7196 291.548 16.7287 291.537 16.7376C291.527 16.7462 291.517 16.7546 291.506 16.7626C291.496 16.7704 291.485 16.7779 291.474 16.7852C291.464 16.7923 291.453 16.7991 291.443 16.8057C291.432 16.8122 291.422 16.8184 291.411 16.8243C291.401 16.8302 291.39 16.8358 291.38 16.8411C291.369 16.8464 291.359 16.8515 291.348 16.8563C291.338 16.861 291.327 16.8655 291.317 16.8698C291.306 16.8741 291.296 16.8781 291.285 16.8819C291.275 16.8856 291.264 16.8892 291.254 16.8925C291.243 16.8958 291.233 16.8989 291.222 16.9017C291.212 16.9046 291.201 16.9072 291.191 16.9096L291.178 16.9124C291.172 16.9137 291.166 16.915 291.159 16.9163C291.15 16.918 291.139 16.9196 291.128 16.9211C291.118 16.9225 291.107 16.9238 291.096 16.925C291.086 16.9261 291.075 16.9272 291.065 16.9281C291.054 16.9291 291.043 16.93 291.033 16.9307C291.022 16.9315 291.012 16.9322 291.002 16.9327C290.99 16.9333 290.98 16.9337 290.97 16.9339L290.953 16.9341H290.938H290.907H290.875H290.844H290.812H290.781H290.749H290.718H290.686H290.655H290.623H290.592H290.56H290.529H290.497H290.466H290.434H290.403H290.371H290.34H290.308H290.277H290.245H290.213H290.182H290.15H290.119H290.087H290.056H290.024H289.993H289.961H289.93H289.898H289.867H289.835H289.804H289.772H289.741H289.709H289.678H289.646H289.615H289.583H289.551H289.52H289.488H289.457H289.425H289.394H289.362H289.331H289.299H289.268H289.236H289.205H289.173H289.142H289.11H289.079H289.062V15.2088ZM291.601 13.256C291.613 13.3139 291.62 13.3753 291.62 13.4399C291.62 13.5044 291.613 13.5657 291.601 13.6235C291.592 13.6607 291.582 13.6964 291.569 13.7307C291.56 13.7557 291.549 13.7799 291.537 13.8033C291.528 13.8229 291.517 13.8419 291.506 13.8603C291.496 13.8766 291.485 13.8924 291.474 13.9077C291.464 13.9217 291.454 13.9352 291.443 13.9484C291.433 13.9606 291.422 13.9725 291.411 13.984C291.401 13.9949 291.391 14.0054 291.38 14.0155C291.37 14.0252 291.359 14.0346 291.348 14.0437C291.338 14.0524 291.328 14.0608 291.317 14.0689C291.307 14.0768 291.296 14.0843 291.285 14.0916C291.275 14.0987 291.264 14.1055 291.254 14.1121C291.243 14.1185 291.233 14.1246 291.222 14.1305C291.212 14.1363 291.201 14.1418 291.191 14.1471C291.18 14.1523 291.17 14.1572 291.159 14.1619C291.149 14.1666 291.138 14.171 291.128 14.1752C291.117 14.1793 291.107 14.1832 291.096 14.1869C291.086 14.1905 291.075 14.1939 291.065 14.1971C291.054 14.2003 291.044 14.2033 291.033 14.206C291.023 14.2087 291.012 14.2112 291.002 14.2135C290.991 14.2158 290.981 14.2179 290.97 14.2198L290.962 14.2212C290.956 14.2222 290.948 14.2234 290.939 14.2246C290.929 14.2258 290.919 14.227 290.907 14.2282C290.897 14.2292 290.886 14.2302 290.876 14.2311C290.865 14.232 290.855 14.2327 290.844 14.2334C290.833 14.2341 290.823 14.2347 290.813 14.2351C290.802 14.2355 290.791 14.2358 290.781 14.2359L290.776 14.2359H290.749H290.718H290.686H290.655H290.623H290.592H290.56H290.529H290.497H290.466H290.434H290.403H290.371H290.34H290.308H290.277H290.245H290.214H290.182H290.151H290.119H290.088H290.056H290.025H289.993H289.961H289.93H289.898H289.867H289.835H289.804H289.772H289.741H289.709H289.678H289.646H289.615H289.583H289.552H289.52H289.489H289.457H289.426H289.394H289.363H289.331H289.3H289.268H289.236H289.205H289.173H289.142H289.11H289.079H289.062V12.6437H289.079H289.11H289.142H289.173H289.205H289.236H289.268H289.3H289.331H289.363H289.394H289.426H289.457H289.489H289.52H289.552H289.583H289.615H289.646H289.678H289.709H289.741H289.772H289.804H289.835H289.867H289.898H289.93H289.961H289.993H290.025H290.056H290.088H290.119H290.151H290.182H290.214H290.245H290.277H290.308H290.34H290.371H290.403H290.434H290.466H290.497H290.529H290.56H290.592H290.623H290.655H290.686H290.718H290.749H290.781H290.794L290.813 12.6443C290.823 12.6448 290.833 12.6454 290.844 12.6461C290.855 12.6467 290.865 12.6475 290.876 12.6484C290.886 12.6493 290.897 12.6503 290.907 12.6512C290.919 12.6523 290.929 12.6535 290.939 12.6545C290.948 12.6556 290.956 12.6567 290.962 12.6576L290.97 12.6589C290.981 12.6608 290.991 12.663 291.002 12.6653C291.012 12.6676 291.023 12.6702 291.033 12.6729C291.044 12.6757 291.054 12.6787 291.065 12.6819C291.075 12.6851 291.086 12.6886 291.096 12.6922C291.107 12.6959 291.117 12.6998 291.128 12.704C291.138 12.7082 291.149 12.7126 291.159 12.7173C291.17 12.722 291.18 12.727 291.191 12.7321C291.201 12.7375 291.212 12.743 291.222 12.7487C291.233 12.7546 291.243 12.7608 291.254 12.7672C291.264 12.7738 291.275 12.7806 291.285 12.7877C291.296 12.795 291.307 12.8026 291.317 12.8104C291.328 12.8186 291.338 12.827 291.348 12.8357C291.359 12.8448 291.37 12.8542 291.38 12.8638C291.391 12.874 291.401 12.8845 291.411 12.8953C291.422 12.9069 291.433 12.9188 291.443 12.931C291.454 12.9442 291.464 12.9577 291.474 12.9717C291.485 12.987 291.496 13.0028 291.506 13.0191C291.517 13.0375 291.528 13.0565 291.537 13.0761C291.549 13.0995 291.56 13.1237 291.569 13.1488C291.582 13.183 291.592 13.2188 291.601 13.256C291.601 13.256 291.592 13.2188 291.601 13.256ZM295.51 5H295.523L295.523 21.3521C295.523 21.4497 295.518 21.5464 295.51 21.6419C295.502 21.726 295.492 21.8091 295.478 21.8912C295.469 21.9464 295.458 22.0011 295.447 22.0553C295.437 22.0994 295.426 22.1432 295.415 22.1866C295.405 22.224 295.395 22.2612 295.384 22.2981C295.373 22.3315 295.363 22.3648 295.352 22.3977C295.342 22.4275 295.331 22.4572 295.321 22.4866C295.31 22.5141 295.3 22.5413 295.289 22.5685C295.279 22.5939 295.268 22.6192 295.257 22.6443C295.247 22.6681 295.237 22.6918 295.226 22.7153C295.216 22.7377 295.205 22.76 295.194 22.7821C295.184 22.8033 295.174 22.8244 295.163 22.8454C295.153 22.8654 295.142 22.8854 295.131 22.9052C295.121 22.9243 295.11 22.9432 295.1 22.962C295.089 22.9802 295.079 22.9983 295.068 23.0163C295.058 23.0339 295.047 23.0513 295.037 23.0686C295.026 23.0854 295.016 23.1023 295.005 23.1189C294.995 23.1351 294.984 23.151 294.974 23.1669C294.963 23.1825 294.953 23.1978 294.942 23.2131C294.932 23.2282 294.921 23.2432 294.911 23.258C294.9 23.2725 294.89 23.287 294.879 23.3013C294.869 23.3153 294.858 23.329 294.848 23.3428C294.837 23.3564 294.827 23.37 294.816 23.3834C294.806 23.3965 294.795 23.4096 294.785 23.4226C294.774 23.4352 294.764 23.4478 294.753 23.4604C294.743 23.4728 294.732 23.4852 294.721 23.4975C294.711 23.5094 294.701 23.5212 294.69 23.533C294.68 23.5447 294.669 23.5563 294.658 23.5678C294.648 23.5791 294.638 23.5905 294.627 23.6017C294.617 23.6126 294.606 23.6235 294.595 23.6343C294.585 23.6451 294.574 23.6559 294.564 23.6665C294.553 23.6769 294.543 23.6871 294.532 23.6974C294.522 23.7075 294.511 23.7177 294.501 23.7278C294.49 23.7377 294.48 23.7474 294.469 23.7571C294.459 23.7668 294.448 23.7764 294.438 23.7859C294.427 23.7953 294.417 23.8046 294.406 23.8139C294.396 23.823 294.385 23.8321 294.375 23.8411C294.364 23.8501 294.354 23.859 294.343 23.8678C294.333 23.8765 294.322 23.8851 294.312 23.8936C294.301 23.9021 294.291 23.9106 294.28 23.919C294.27 23.9273 294.259 23.9354 294.249 23.9435C294.238 23.9516 294.228 23.9597 294.217 23.9677C294.207 23.9755 294.196 23.9832 294.186 23.991C294.175 23.9987 294.165 24.0064 294.154 24.014C294.144 24.0215 294.133 24.0288 294.122 24.0361C294.112 24.0434 294.102 24.0508 294.091 24.058C294.08 24.0651 294.07 24.0721 294.059 24.0791C294.049 24.086 294.038 24.093 294.028 24.0999C294.017 24.1066 294.007 24.1133 293.996 24.1199C293.986 24.1266 293.975 24.1332 293.965 24.1397C293.954 24.1461 293.944 24.1525 293.933 24.1588L293.902 24.1775C293.891 24.1836 293.881 24.1897 293.87 24.1957C293.86 24.2017 293.849 24.2075 293.839 24.2134C293.828 24.2192 293.818 24.2251 293.807 24.2308C293.797 24.2365 293.786 24.2419 293.776 24.2475C293.765 24.253 293.755 24.2587 293.744 24.2641C293.734 24.2695 293.723 24.2746 293.713 24.2799C293.702 24.2851 293.692 24.2904 293.681 24.2955C293.671 24.3006 293.66 24.3056 293.65 24.3106L293.618 24.3253L293.587 24.3396C293.576 24.3443 293.566 24.3489 293.555 24.3534C293.544 24.358 293.534 24.3627 293.523 24.3671C293.513 24.3715 293.502 24.3757 293.492 24.38C293.481 24.3843 293.471 24.3887 293.46 24.3929C293.45 24.3971 293.439 24.401 293.429 24.4051C293.418 24.4091 293.408 24.4131 293.397 24.4171L293.366 24.4287C293.355 24.4325 293.345 24.4362 293.334 24.4398C293.324 24.4435 293.313 24.4473 293.303 24.4509C293.292 24.4545 293.282 24.4578 293.271 24.4612L293.24 24.4714C293.229 24.4747 293.219 24.4779 293.208 24.4811L293.177 24.4905C293.166 24.4936 293.156 24.4968 293.145 24.4998C293.135 24.5027 293.124 24.5055 293.114 24.5083C293.103 24.5112 293.093 24.5141 293.082 24.5169L293.051 24.5248L293.019 24.5325L292.988 24.54C292.977 24.5424 292.967 24.5446 292.956 24.5469C292.945 24.5492 292.935 24.5516 292.924 24.5538L292.893 24.5601L292.861 24.5661C292.851 24.5681 292.84 24.5702 292.83 24.5721C292.819 24.5739 292.809 24.5756 292.798 24.5773L292.767 24.5825L292.735 24.5873L292.704 24.5917C292.693 24.5931 292.683 24.5948 292.672 24.5961C292.662 24.5975 292.651 24.5985 292.641 24.5997C292.63 24.601 292.62 24.6022 292.609 24.6033C292.599 24.6045 292.588 24.6056 292.578 24.6066C292.567 24.6077 292.557 24.6085 292.546 24.6094C292.536 24.6104 292.525 24.6114 292.515 24.6122C292.504 24.6131 292.494 24.6137 292.483 24.6144L292.452 24.6164C292.441 24.6171 292.431 24.6178 292.42 24.6183C292.41 24.6189 292.399 24.6191 292.388 24.6195L292.357 24.6207L292.325 24.6216C292.315 24.6218 292.304 24.6218 292.294 24.622L292.262 24.6224L292.256 24.6224H292.231H292.199H292.168H292.136H292.105H292.073H292.042H292.01H291.979H291.947H291.916H291.884H291.853H291.821H291.789H291.758H291.726H291.695H291.663H291.632H291.6H291.569H291.537H291.506H291.474H291.443H291.411H291.38H291.348H291.317H291.285H291.254H291.222H291.19H291.159H291.127H291.096H291.064H291.033H291.001H290.97H290.938H290.907H290.875H290.844H290.812H290.781H290.749H290.718H290.686H290.655H290.623H290.591H290.56H290.528H290.497H290.465H290.434H290.402H290.371H290.339H290.308H290.276H290.245H290.213H290.182H290.15H290.119H290.087H290.055H290.024H289.992H289.961H289.929H289.898H289.866H289.835H289.803H289.772H289.74H289.709H289.677H289.646H289.614H289.583H289.551H289.52H289.488H289.456H289.425H289.393H289.362H289.33H289.299H289.267H289.236H289.204H289.173H289.141H289.11H289.078H289.047H289.015H288.984H288.952H288.921H288.889H288.857H288.826H288.794H288.763H288.731H288.7H288.668H288.637H288.605H288.574H288.542H288.511H288.479H288.448H288.416H288.385H288.353H288.322H288.29H288.258H288.227H288.195H288.164H288.132H288.101H288.069H288.038H288.006H287.975H287.943H287.912H287.88H287.849H287.817H287.786H287.754H287.723H287.691H287.659H287.628H287.596H287.565H287.533H287.465V17.9551H287.533H287.565H287.596H287.628H287.659H287.691H287.723H287.754H287.786H287.817H287.849H287.88H287.912H287.943H287.975H288.006H288.038H288.069H288.101H288.132H288.164H288.195H288.227H288.258H288.29H288.322H288.353H288.385H288.416H288.448H288.479H288.511H288.542H288.574H288.605H288.637H288.668H288.7H288.731H288.763H288.794H288.826H288.857H288.889H288.921H288.952H288.984H289.015H289.047H289.078H289.11H289.141H289.173H289.204H289.236H289.267H289.299H289.33H289.362H289.393H289.425H289.456H289.488H289.52H289.551H289.583H289.614H289.646H289.677H289.709H289.74H289.772H289.803H289.835H289.866H289.898H289.929H289.961H289.992H290.024H290.055H290.087H290.119H290.15H290.182H290.213H290.245H290.276H290.308H290.339H290.371H290.402H290.434H290.465H290.497H290.528H290.56H290.591H290.623H290.655H290.686H290.718H290.749H290.781H290.812H290.844H290.875H290.907H290.938H290.97H291.001H291.033H291.064H291.096H291.127H291.159H291.19H291.222H291.254H291.285H291.317H291.348H291.38H291.411H291.443H291.474H291.506H291.537H291.569H291.6H291.632H291.663H291.695H291.726H291.758H291.789H291.821H291.853H291.884H291.916H291.947H291.979H292.01H292.042H292.073H292.105H292.136H292.168H292.199H292.231H292.262H292.294H292.325H292.357H292.388H292.42H292.452H292.483H292.515H292.531L292.546 17.955L292.578 17.9547L292.609 17.9541C292.62 17.9538 292.63 17.9537 292.641 17.9533C292.651 17.9529 292.662 17.9524 292.672 17.952L292.704 17.9505L292.735 17.9486L292.767 17.9464L292.798 17.944L292.83 17.9411C292.84 17.9401 292.851 17.9391 292.861 17.938C292.872 17.9369 292.882 17.9357 292.893 17.9344L292.924 17.9306C292.935 17.9292 292.945 17.9279 292.956 17.9264C292.967 17.925 292.977 17.9234 292.988 17.9218C292.998 17.9202 293.009 17.9186 293.019 17.9169L293.051 17.9116L293.082 17.9059C293.093 17.904 293.103 17.9021 293.114 17.9C293.124 17.8979 293.135 17.8956 293.145 17.8935L293.177 17.8866C293.187 17.8843 293.198 17.8819 293.208 17.8795C293.219 17.877 293.229 17.8743 293.24 17.8717C293.25 17.8691 293.261 17.8664 293.271 17.8637C293.282 17.8609 293.292 17.8581 293.303 17.8552C293.313 17.8523 293.324 17.8493 293.334 17.8462C293.345 17.8431 293.355 17.84 293.366 17.8368L293.397 17.8269C293.408 17.8236 293.418 17.8201 293.429 17.8165C293.439 17.813 293.45 17.8094 293.46 17.8057C293.471 17.802 293.482 17.7983 293.492 17.7945C293.503 17.7906 293.513 17.7865 293.523 17.7824C293.534 17.7784 293.545 17.7742 293.555 17.77C293.566 17.7658 293.576 17.7615 293.587 17.7571C293.597 17.7527 293.608 17.7481 293.618 17.7435C293.629 17.7389 293.639 17.7341 293.65 17.7293C293.66 17.7244 293.671 17.7195 293.681 17.7145C293.692 17.7095 293.702 17.7044 293.713 17.6992C293.723 17.6939 293.734 17.6885 293.744 17.683C293.755 17.6775 293.765 17.6718 293.776 17.6661C293.786 17.6603 293.797 17.6545 293.807 17.6485C293.818 17.6425 293.828 17.6364 293.839 17.6302C293.849 17.624 293.86 17.6176 293.87 17.6112C293.881 17.6045 293.891 17.5978 293.902 17.5911C293.912 17.5842 293.923 17.5771 293.933 17.5701C293.944 17.5629 293.954 17.5555 293.965 17.5481C293.975 17.5406 293.986 17.5329 293.996 17.5252C294.007 17.5173 294.018 17.5093 294.028 17.5012C294.039 17.4929 294.049 17.4845 294.059 17.476C294.07 17.4673 294.081 17.4584 294.091 17.4495C294.102 17.4404 294.112 17.4311 294.122 17.4217C294.133 17.412 294.144 17.4022 294.154 17.3923C294.165 17.3821 294.175 17.3718 294.186 17.3613C294.196 17.3505 294.207 17.3395 294.217 17.3284C294.228 17.317 294.238 17.3053 294.249 17.2936C294.259 17.2814 294.27 17.269 294.28 17.2565C294.291 17.2434 294.301 17.2302 294.312 17.2168C294.322 17.2028 294.333 17.1887 294.343 17.1743C294.354 17.1591 294.364 17.1436 294.375 17.1279C294.386 17.1114 294.396 17.0946 294.406 17.0775C294.417 17.0593 294.428 17.0407 294.438 17.0219C294.449 17.0015 294.459 16.9808 294.469 16.9598C294.48 16.9363 294.491 16.9125 294.501 16.8883C294.512 16.8606 294.523 16.8325 294.532 16.8039C294.544 16.7686 294.555 16.7326 294.564 16.696C294.577 16.6425 294.588 16.5876 294.595 16.5314C294.605 16.4631 294.609 16.393 294.609 16.3209C294.609 16.2507 294.605 16.1825 294.595 16.1163C294.588 16.0619 294.577 16.0089 294.564 15.9572C294.555 15.9221 294.544 15.8875 294.532 15.8537C294.523 15.8259 294.512 15.7986 294.501 15.7717C294.491 15.7485 294.48 15.7255 294.469 15.703C294.459 15.6827 294.449 15.6627 294.438 15.643C294.428 15.6248 294.417 15.6068 294.406 15.5892C294.396 15.5728 294.386 15.5566 294.375 15.5407C294.364 15.5256 294.354 15.5106 294.343 15.4959C294.333 15.4821 294.322 15.4684 294.312 15.4549C294.301 15.442 294.291 15.4293 294.28 15.4167C294.27 15.4046 294.259 15.3926 294.249 15.3808C294.238 15.3695 294.228 15.3582 294.217 15.3472C294.207 15.3365 294.196 15.326 294.186 15.3156C294.175 15.3055 294.165 15.2955 294.154 15.2857C294.144 15.2761 294.133 15.2667 294.122 15.2574C294.112 15.2483 294.102 15.2393 294.091 15.2305C294.081 15.2218 294.07 15.2133 294.059 15.2049C294.049 15.1967 294.039 15.1885 294.028 15.1805C294.017 15.1727 294.007 15.165 293.996 15.1573C293.986 15.1498 293.975 15.1424 293.965 15.1351C293.954 15.128 293.944 15.1209 293.933 15.1139C293.923 15.107 293.912 15.1003 293.902 15.0936C293.891 15.0871 293.881 15.0806 293.87 15.0742C293.86 15.0679 293.849 15.0618 293.839 15.0557C293.828 15.0497 293.818 15.0438 293.807 15.0379C293.797 15.0322 293.786 15.0265 293.776 15.0209C293.765 15.0154 293.755 15.01 293.744 15.0046C293.734 14.9993 293.723 14.994 293.713 14.9889C293.702 14.9838 293.692 14.9788 293.681 14.9738C293.671 14.969 293.66 14.9642 293.65 14.9595C293.639 14.9549 293.629 14.9503 293.618 14.9457C293.608 14.9413 293.597 14.9369 293.587 14.9325C293.576 14.9282 293.566 14.924 293.555 14.9198C293.545 14.9157 293.534 14.9116 293.523 14.9077C293.513 14.9037 293.502 14.8999 293.492 14.8961C293.481 14.8924 293.471 14.8887 293.46 14.885C293.45 14.8814 293.439 14.8778 293.429 14.8743C293.418 14.8709 293.408 14.8675 293.397 14.8642C293.387 14.8609 293.376 14.8577 293.366 14.8545L293.334 14.8453C293.324 14.8422 293.313 14.8392 293.303 14.8364C293.292 14.8335 293.282 14.8308 293.271 14.828C293.261 14.8253 293.25 14.8227 293.24 14.8201C293.229 14.8175 293.219 14.8149 293.208 14.8125C293.198 14.81 293.187 14.8076 293.177 14.8053C293.166 14.803 293.156 14.8008 293.145 14.7986C293.135 14.7964 293.124 14.7942 293.114 14.7921L293.082 14.7861L293.051 14.7804C293.04 14.7786 293.03 14.7768 293.019 14.7751L292.988 14.7701C292.977 14.7685 292.967 14.767 292.956 14.7655L292.924 14.7612L292.893 14.7572L292.861 14.7537L292.83 14.7504L292.798 14.7474L292.767 14.7448L292.738 14.7425L292.738 14.7047L292.767 14.7002L292.798 14.695C292.809 14.6932 292.819 14.6914 292.83 14.6895L292.861 14.6834C292.872 14.6813 292.882 14.6791 292.893 14.6769L292.924 14.67C292.935 14.6676 292.946 14.6652 292.956 14.6627C292.967 14.6602 292.977 14.6575 292.988 14.6548C292.998 14.6521 293.009 14.6493 293.019 14.6465C293.03 14.6436 293.04 14.6407 293.051 14.6377C293.061 14.6346 293.072 14.6316 293.082 14.6284C293.093 14.6252 293.103 14.6219 293.114 14.6186C293.124 14.6152 293.135 14.6117 293.145 14.6081C293.156 14.6045 293.166 14.6008 293.177 14.5971C293.187 14.5934 293.198 14.5895 293.208 14.5856C293.219 14.5816 293.229 14.5776 293.24 14.5735C293.25 14.5693 293.261 14.5651 293.271 14.5608C293.282 14.5564 293.292 14.5519 293.303 14.5474C293.313 14.5427 293.324 14.538 293.334 14.5332C293.345 14.5284 293.355 14.5234 293.366 14.5184C293.376 14.5133 293.387 14.5081 293.397 14.5028C293.408 14.4975 293.418 14.492 293.429 14.4865C293.439 14.4809 293.45 14.4752 293.46 14.4694C293.471 14.4635 293.482 14.4575 293.492 14.4514C293.503 14.4452 293.513 14.4389 293.523 14.4325C293.534 14.426 293.545 14.4194 293.555 14.4127C293.566 14.4059 293.576 14.3989 293.587 14.3919C293.597 14.3847 293.608 14.3774 293.618 14.37C293.629 14.3624 293.639 14.3547 293.65 14.3469C293.66 14.339 293.671 14.3309 293.681 14.3227C293.692 14.3143 293.702 14.3058 293.713 14.2972C293.723 14.2883 293.734 14.2793 293.744 14.2702C293.755 14.2607 293.765 14.2512 293.776 14.2415C293.786 14.2315 293.797 14.2214 293.807 14.2112C293.818 14.2007 293.828 14.19 293.839 14.1792C293.849 14.1679 293.86 14.1565 293.87 14.1449C293.881 14.1329 293.892 14.1207 293.902 14.1083C293.913 14.0954 293.923 14.0824 293.933 14.0691C293.944 14.0552 293.955 14.0411 293.965 14.0268C293.976 14.0116 293.986 13.9963 293.996 13.9808C294.007 13.9643 294.018 13.9476 294.028 13.9307C294.039 13.9123 294.049 13.8938 294.059 13.875C294.07 13.8544 294.081 13.8335 294.091 13.8124C294.102 13.7886 294.113 13.7645 294.122 13.7402C294.134 13.7118 294.144 13.6831 294.154 13.654C294.166 13.6174 294.177 13.5802 294.186 13.5425C294.2 13.4814 294.211 13.419 294.217 13.3555C294.222 13.3054 294.225 13.2547 294.225 13.2034C294.225 13.1493 294.222 13.0965 294.217 13.0451C294.211 12.9793 294.2 12.9158 294.186 12.8544C294.177 12.8161 294.166 12.7787 294.154 12.7422C294.144 12.713 294.134 12.6843 294.122 12.6562C294.113 12.632 294.102 12.6082 294.091 12.5849C294.081 12.5641 294.07 12.5436 294.059 12.5234C294.049 12.505 294.039 12.4868 294.028 12.4689C294.018 12.4523 294.007 12.436 293.996 12.4198C293.986 12.4047 293.976 12.3899 293.965 12.3752C293.955 12.3614 293.944 12.3477 293.933 12.3342C293.923 12.3213 293.913 12.3086 293.902 12.2961C293.892 12.2842 293.881 12.2725 293.87 12.2609C293.86 12.2497 293.849 12.2387 293.839 12.2279C293.828 12.2174 293.818 12.2071 293.807 12.1969C293.797 12.1871 293.786 12.1773 293.776 12.1677C293.765 12.1584 293.755 12.1493 293.744 12.1402C293.734 12.1314 293.723 12.1227 293.713 12.1142C293.702 12.1059 293.692 12.0976 293.681 12.0895C293.671 12.0816 293.66 12.0739 293.65 12.0662C293.639 12.0587 293.629 12.0513 293.618 12.044C293.608 12.0369 293.597 12.0299 293.587 12.023C293.576 12.0162 293.566 12.0095 293.555 12.0029C293.545 11.9964 293.534 11.99 293.523 11.9838C293.513 11.9776 293.503 11.9715 293.492 11.9655C293.482 11.9596 293.471 11.9538 293.46 11.9481C293.45 11.9425 293.439 11.937 293.429 11.9315C293.418 11.9262 293.408 11.9209 293.397 11.9157C293.387 11.9106 293.376 11.9055 293.366 11.9005C293.355 11.8956 293.345 11.8908 293.334 11.8861C293.324 11.8814 293.313 11.8769 293.303 11.8724C293.292 11.8679 293.282 11.8636 293.271 11.8593C293.261 11.855 293.25 11.8508 293.24 11.8467C293.229 11.8427 293.219 11.8386 293.208 11.8347C293.198 11.8308 293.187 11.827 293.177 11.8233C293.166 11.8196 293.156 11.816 293.145 11.8125C293.135 11.809 293.124 11.8055 293.114 11.8022C293.103 11.7988 293.093 11.7955 293.082 11.7923C293.072 11.7891 293.061 11.7859 293.051 11.7829C293.04 11.7799 293.03 11.7769 293.019 11.7741C293.009 11.7712 292.998 11.7684 292.988 11.7657L292.956 11.7576C292.945 11.7551 292.935 11.7525 292.924 11.7501C292.914 11.7476 292.903 11.7453 292.893 11.743L292.861 11.7362C292.851 11.7341 292.84 11.7319 292.83 11.7298C292.819 11.7278 292.809 11.7259 292.798 11.724L292.767 11.7184C292.756 11.7166 292.746 11.7148 292.735 11.7132L292.704 11.7084L292.672 11.7039L292.641 11.6997L292.609 11.696L292.578 11.6926L292.546 11.6894L292.515 11.6867L292.483 11.6842L292.452 11.682L292.42 11.6802L292.408 11.6795L292.388 11.6783L292.357 11.6764L292.325 11.6747L292.294 11.673L292.262 11.6715L292.231 11.6702L292.199 11.669L292.168 11.668L292.136 11.6673L292.105 11.6669L292.087 11.6669H292.073H292.042H292.01H291.979H291.947H291.916H291.884H291.853H291.821H291.789H291.758H291.726H291.695H291.663H291.632H291.6H291.569H291.537H291.506H291.474H291.443H291.411H291.38H291.348H291.317H291.285H291.254H291.222H291.19H291.159H291.127H291.096H291.064H291.033H291.001H290.97H290.938H290.907H290.875H290.844H290.812H290.781H290.749H290.718H290.686H290.655H290.623H290.591H290.56H290.528H290.497H290.465H290.434H290.402H290.371H290.339H290.308H290.276H290.245H290.213H290.182H290.15H290.119H290.087H290.055H290.024H289.992H289.961H289.929H289.898H289.866H289.835H289.803H289.772H289.74H289.709H289.677H289.646H289.614H289.583H289.551H289.52H289.488H289.456H289.425H289.393H289.362H289.33H289.299H289.267H289.236H289.204H289.173H289.141H289.11H289.078H289.047H289.015H288.984H288.952H288.921H288.889H288.857H288.826H288.794H288.763H288.731H288.7H288.668H288.637H288.605H288.574H288.542H288.511H288.479H288.448H288.416H288.385H288.353H288.322H288.29H288.258H288.227H288.195H288.164H288.132H288.101H288.069H288.038H288.006H287.975H287.943H287.912H287.88H287.849H287.817H287.786H287.754H287.723H287.691H287.659H287.628H287.596H287.565H287.533H287.465V8.27068C287.465 8.0422 287.489 7.81924 287.533 7.60398C287.543 7.55788 287.553 7.51217 287.565 7.46684C287.575 7.42804 287.585 7.38952 287.596 7.3513C287.606 7.31716 287.617 7.28325 287.628 7.24958C287.638 7.21881 287.648 7.1882 287.659 7.15786C287.67 7.12971 287.68 7.10171 287.691 7.07393C287.701 7.04797 287.712 7.02215 287.723 6.99654C287.733 6.97236 287.743 6.94829 287.754 6.92441C287.764 6.90173 287.775 6.8792 287.786 6.8568C287.796 6.83543 287.806 6.81421 287.817 6.7931C287.827 6.7728 287.838 6.75265 287.849 6.73258C287.859 6.71325 287.869 6.69405 287.88 6.67495C287.89 6.65643 287.901 6.63806 287.912 6.61977C287.922 6.60203 287.933 6.58437 287.943 6.56687C287.954 6.54989 287.964 6.53304 287.975 6.51627C287.985 6.50003 287.996 6.48394 288.006 6.4679C288.017 6.4522 288.027 6.43656 288.038 6.42104C288.048 6.40584 288.059 6.39064 288.069 6.37562C288.08 6.36108 288.09 6.34671 288.101 6.33235C288.111 6.31822 288.122 6.3042 288.132 6.29026C288.143 6.27652 288.153 6.26273 288.164 6.24918C288.174 6.23599 288.185 6.22302 288.195 6.20999C288.206 6.19714 288.216 6.1844 288.227 6.17174C288.237 6.15923 288.248 6.14673 288.258 6.13438C288.269 6.12234 288.279 6.11052 288.29 6.09864C288.3 6.08687 288.311 6.07507 288.322 6.06345C288.332 6.05207 288.342 6.0408 288.353 6.02955C288.363 6.01845 288.374 6.00744 288.385 5.99648C288.395 5.98567 288.405 5.97487 288.416 5.96419C288.427 5.9537 288.437 5.94337 288.448 5.93303C288.458 5.92275 288.469 5.91236 288.479 5.90224C288.49 5.89232 288.5 5.88264 288.511 5.87286C288.521 5.86313 288.532 5.85337 288.542 5.84377C288.553 5.83432 288.563 5.82506 288.574 5.81577C288.584 5.80654 288.595 5.7973 288.605 5.7882C288.616 5.77922 288.626 5.77038 288.637 5.76154C288.647 5.75277 288.658 5.74404 288.668 5.7354C288.679 5.72685 288.689 5.7184 288.7 5.71L288.731 5.68517L288.763 5.661C288.773 5.65307 288.784 5.64519 288.794 5.6374C288.805 5.62968 288.815 5.62199 288.826 5.61437L288.857 5.59195C288.868 5.5846 288.878 5.5773 288.889 5.57008L288.921 5.54871L288.952 5.52791C288.963 5.52108 288.973 5.51428 288.984 5.50758L289.015 5.48785C289.026 5.48134 289.036 5.47482 289.047 5.46844C289.057 5.46211 289.068 5.45596 289.078 5.44976C289.089 5.44356 289.099 5.43731 289.11 5.43124C289.12 5.42525 289.131 5.41946 289.141 5.41358C289.152 5.40769 289.162 5.4017 289.173 5.39594C289.183 5.39027 289.194 5.38477 289.204 5.3792C289.215 5.37363 289.225 5.36803 289.236 5.36256C289.246 5.35714 289.257 5.35189 289.267 5.3466C289.278 5.34134 289.288 5.33606 289.299 5.3309L289.33 5.31565C289.341 5.31065 289.351 5.30579 289.362 5.30089C289.372 5.29603 289.383 5.29108 289.393 5.28632C289.404 5.28161 289.414 5.27711 289.425 5.27251C289.435 5.2679 289.446 5.26322 289.456 5.25872C289.467 5.25427 289.478 5.25003 289.488 5.24569C289.499 5.24138 289.509 5.23701 289.52 5.23279L289.551 5.22037L289.583 5.20836C289.593 5.20438 289.604 5.20035 289.614 5.19651C289.625 5.19269 289.635 5.1891 289.646 5.18539C289.656 5.18167 289.667 5.17788 289.677 5.17427C289.688 5.17068 289.698 5.16731 289.709 5.16383L289.74 5.1536C289.751 5.15025 289.761 5.14688 289.772 5.14363C289.782 5.14041 289.793 5.13738 289.803 5.13427C289.814 5.13113 289.824 5.12788 289.835 5.12487C289.845 5.12189 289.856 5.11912 289.866 5.11624C289.877 5.11336 289.887 5.11046 289.898 5.10768L289.929 5.09952C289.94 5.09688 289.95 5.09437 289.961 5.09183C289.971 5.08929 289.982 5.08657 289.992 5.08414C290.003 5.08173 290.013 5.07953 290.024 5.07721L290.055 5.07032L290.087 5.06381C290.097 5.06172 290.108 5.05976 290.119 5.05777C290.129 5.05575 290.14 5.05361 290.15 5.0517C290.161 5.04979 290.171 5.04817 290.182 5.04639L290.213 5.04115C290.224 5.03948 290.234 5.03775 290.245 5.03618C290.255 5.03461 290.266 5.03323 290.276 5.03176C290.287 5.0303 290.297 5.0287 290.308 5.02734C290.318 5.02598 290.329 5.02478 290.339 5.02352L290.371 5.01991C290.381 5.01876 290.392 5.01748 290.402 5.01643C290.413 5.01538 290.423 5.01457 290.434 5.01363L290.465 5.01083L290.497 5.00845C290.507 5.00769 290.518 5.00709 290.528 5.00644C290.539 5.00581 290.549 5.005 290.56 5.00445C290.57 5.0039 290.581 5.00358 290.591 5.00314L290.623 5.00196C290.634 5.00162 290.644 5.00118 290.655 5.00094C290.665 5.00071 290.676 5.00068 290.686 5.00052C290.697 5.00037 290.707 5.00018 290.718 5.00013L290.725 5.00003H290.749H290.781H290.812H290.844H290.875H290.907H290.938H290.97H291.001H291.033H291.064H291.096H291.127H291.159H291.19H291.222H291.254H291.285H291.317H291.348H291.38H291.411H291.443H291.474H291.506H291.537H291.569H291.6H291.632H291.663H291.695H291.726H291.758H291.789H291.821H291.853H291.884H291.916H291.947H291.979H292.01H292.042H292.073H292.105H292.136H292.168H292.199H292.231H292.262H292.294H292.325H292.357H292.388H292.42H292.452H292.483H292.515H292.546H292.578H292.609H292.641H292.672H292.704H292.735H292.767H292.798H292.83H292.861H292.893H292.924H292.956H292.988H293.019H293.051H293.082H293.114H293.145H293.177H293.208H293.24H293.271H293.303H293.334H293.366H293.397H293.429H293.46H293.492H293.523H293.555H293.587H293.618H293.65H293.681H293.713H293.744H293.776H293.807H293.839H293.87H293.902H293.933H293.965H293.996H294.028H294.059H294.091H294.122H294.154H294.186H294.217H294.249H294.28H294.312H294.343H294.375H294.406H294.438H294.469H294.501H294.532H294.564H294.595H294.627H294.658H294.69H294.721H294.753H294.785H294.816H294.848H294.879H294.911H294.942H294.974H295.005H295.037H295.068H295.1H295.131H295.163H295.194H295.226H295.257H295.289H295.321H295.352H295.384H295.415H295.447H295.478H295.51V5Z" fill="#3FAB4C"/>
<path fill-rule="evenodd" clip-rule="evenodd" d="M269.501 16.3809C269.479 16.3702 269.456 16.3594 269.434 16.3485V8.27163C269.434 8.04381 269.457 7.82142 269.501 7.60673C269.511 7.56064 269.521 7.51496 269.533 7.46959C269.542 7.43074 269.553 7.3922 269.564 7.35393C269.574 7.31981 269.585 7.28596 269.596 7.25231C269.606 7.22152 269.616 7.19086 269.627 7.16045C269.637 7.13233 269.648 7.10436 269.659 7.0766C269.669 7.05065 269.679 7.02478 269.69 6.99914C269.7 6.97496 269.711 6.95095 269.721 6.92709C269.732 6.9044 269.742 6.8819 269.753 6.85951C269.763 6.83811 269.774 6.81686 269.784 6.79572C269.795 6.77542 269.805 6.75528 269.816 6.73524C269.826 6.7159 269.837 6.6967 269.847 6.6776C269.858 6.6591 269.868 6.64071 269.879 6.62245C269.889 6.60471 269.9 6.58703 269.91 6.5695C269.921 6.55254 269.931 6.53572 269.942 6.51898C269.952 6.50276 269.963 6.48664 269.973 6.4706C269.984 6.4549 269.994 6.43926 270.005 6.42375C270.015 6.40852 270.026 6.39332 270.036 6.37827C270.047 6.36375 270.057 6.34942 270.068 6.33505C270.078 6.32093 270.089 6.3069 270.099 6.29296C270.11 6.27925 270.12 6.26544 270.131 6.25188C270.141 6.23872 270.152 6.22577 270.162 6.21277C270.172 6.19993 270.183 6.18713 270.194 6.17444C270.204 6.16196 270.214 6.14951 270.225 6.13719C270.235 6.12513 270.246 6.11327 270.257 6.10137C270.267 6.08957 270.277 6.0778 270.288 6.06618C270.298 6.0548 270.309 6.04358 270.319 6.03235C270.33 6.02124 270.34 6.01022 270.351 5.99926C270.361 5.98845 270.372 5.97765 270.382 5.96697C270.393 5.95648 270.403 5.94615 270.414 5.93581C270.424 5.92553 270.435 5.91517 270.445 5.90505C270.456 5.89513 270.466 5.88545 270.477 5.87567C270.487 5.86591 270.498 5.85612 270.508 5.84652C270.519 5.8371 270.529 5.82787 270.54 5.81858C270.55 5.80935 270.561 5.80008 270.571 5.79098C270.582 5.78201 270.592 5.77319 270.603 5.76435C270.613 5.75558 270.624 5.74682 270.634 5.73818C270.645 5.72965 270.655 5.7212 270.666 5.71278C270.676 5.70443 270.687 5.69617 270.697 5.68795C270.708 5.67981 270.718 5.67178 270.729 5.66378C270.739 5.65585 270.749 5.64795 270.76 5.64015L270.791 5.61718C270.802 5.60962 270.812 5.60211 270.823 5.59468C270.833 5.58733 270.844 5.58006 270.854 5.57284C270.865 5.56564 270.875 5.5585 270.886 5.55144C270.896 5.54445 270.907 5.53757 270.917 5.53069C270.928 5.52386 270.938 5.51698 270.949 5.51026C270.959 5.50361 270.97 5.49712 270.98 5.49058C270.991 5.48407 271.001 5.47747 271.012 5.47109C271.022 5.46479 271.033 5.45866 271.043 5.45246C271.054 5.44626 271.064 5.43996 271.075 5.43386C271.085 5.42787 271.096 5.42214 271.106 5.41625C271.117 5.41037 271.127 5.4044 271.138 5.39862C271.148 5.39292 271.159 5.38742 271.169 5.38185C271.18 5.37628 271.19 5.37068 271.201 5.36521C271.211 5.3598 271.222 5.35448 271.232 5.34917L271.264 5.33353C271.274 5.32837 271.285 5.32322 271.295 5.3182C271.305 5.3132 271.316 5.30836 271.327 5.30347C271.337 5.29857 271.347 5.29358 271.358 5.28882C271.368 5.28408 271.379 5.27963 271.389 5.27503C271.4 5.27042 271.41 5.26574 271.421 5.26124C271.431 5.25679 271.442 5.2525 271.452 5.24816L271.484 5.23529L271.515 5.22278L271.547 5.2108C271.557 5.20682 271.568 5.20272 271.578 5.19884C271.589 5.19502 271.599 5.19147 271.61 5.18775C271.62 5.18404 271.631 5.18027 271.641 5.17666L271.673 5.16611L271.704 5.15588C271.715 5.15254 271.725 5.14911 271.736 5.14586C271.746 5.14265 271.757 5.13959 271.767 5.13647C271.778 5.13333 271.788 5.13014 271.799 5.12711C271.809 5.1241 271.82 5.1213 271.83 5.11839L271.862 5.10984C271.872 5.10707 271.882 5.10424 271.893 5.10157C271.903 5.0989 271.914 5.09647 271.924 5.09391C271.935 5.09134 271.945 5.08867 271.956 5.08621C271.966 5.08378 271.977 5.0815 271.987 5.07918L272.019 5.07232C272.029 5.07007 272.04 5.0678 272.05 5.06568C272.061 5.06358 272.071 5.06165 272.082 5.05963C272.092 5.05762 272.103 5.05553 272.113 5.05362C272.124 5.05171 272.134 5.04998 272.145 5.04817L272.176 5.04294C272.187 5.04127 272.197 5.03946 272.208 5.03787C272.218 5.03627 272.229 5.03494 272.239 5.03344C272.25 5.03198 272.26 5.03041 272.271 5.02902L272.302 5.02507L272.334 5.02149C272.344 5.02031 272.355 5.01895 272.365 5.01788C272.375 5.0168 272.386 5.01602 272.396 5.01505L272.428 5.01228C272.438 5.01139 272.449 5.01053 272.459 5.00977C272.47 5.00901 272.48 5.00841 272.491 5.00775C272.501 5.0071 272.512 5.00634 272.522 5.00576C272.533 5.00519 272.543 5.0048 272.554 5.00433L272.585 5.00312C272.596 5.00276 272.606 5.00221 272.617 5.00194C272.627 5.00168 272.638 5.00171 272.648 5.00155C272.659 5.0014 272.669 5.00121 272.68 5.00116L272.694 5.00098H272.711H272.743H272.774H272.806H272.837H272.869H272.9H272.932H272.963H272.994H273.026H273.057H273.089H273.12H273.152H273.183H273.215H273.246H273.278H273.309H273.341H273.372H273.404H273.435H273.467H273.498H273.529H273.561H273.592H273.624H273.655H273.687H273.718H273.75H273.781H273.813H273.844H273.876H273.907H273.939H273.97H274.002H274.033H274.064H274.096H274.127H274.159H274.19H274.222H274.253H274.285H274.316H274.348H274.379H274.411H274.442H274.474H274.505H274.537H274.568H274.599H274.631H274.662H274.694H274.725H274.757H274.788H274.82H274.851H274.883H274.914H274.946H274.977H275.009H275.04H275.072H275.103H275.134H275.166H275.197H275.229H275.26H275.292H275.323H275.355H275.386H275.418H275.449H275.481H275.512H275.544H275.575H275.607H275.638H275.669H275.701H275.732H275.764H275.795H275.827H275.858H275.89H275.921H275.953H275.984H276.016H276.047H276.079H276.11H276.142H276.173H276.204H276.236H276.267H276.299H276.33H276.362H276.393H276.425H276.456H276.488H276.519H276.551H276.582H276.614H276.645H276.677H276.708H276.739H276.771H276.802H276.834H276.865H276.897H276.928H276.96H276.991H277.023H277.054H277.086H277.117H277.149H277.18H277.212H277.243H277.274H277.306H277.337H277.369H277.4H277.432H277.463H277.49V21.353C277.49 21.4953 277.481 21.6354 277.463 21.7729C277.455 21.8391 277.444 21.9045 277.432 21.9694C277.422 22.0188 277.412 22.0677 277.4 22.1163C277.391 22.1572 277.38 22.1978 277.369 22.2381C277.359 22.2734 277.348 22.3085 277.337 22.3433C277.327 22.3749 277.317 22.4062 277.306 22.4373C277.296 22.4661 277.285 22.4948 277.274 22.5232C277.264 22.5498 277.254 22.5761 277.243 22.6023C277.233 22.627 277.222 22.6516 277.212 22.6759C277.201 22.6991 277.191 22.722 277.18 22.7449C277.17 22.7667 277.159 22.7883 277.149 22.8099C277.138 22.8305 277.128 22.8511 277.117 22.8715C277.107 22.8911 277.096 22.9107 277.086 22.9301C277.075 22.9489 277.065 22.9676 277.054 22.9861C277.044 23.004 277.033 23.0218 277.023 23.0395C277.012 23.0566 277.002 23.0735 276.991 23.0904C276.981 23.1069 276.97 23.1233 276.96 23.1396C276.949 23.1556 276.939 23.1715 276.928 23.1872C276.918 23.2025 276.907 23.2176 276.897 23.2327C276.886 23.2474 276.876 23.262 276.865 23.2766C276.855 23.2909 276.845 23.3051 276.834 23.3193C276.824 23.3331 276.813 23.3468 276.802 23.3604C276.792 23.3737 276.782 23.3869 276.771 23.4001C276.761 23.4131 276.75 23.4261 276.739 23.4389C276.729 23.4514 276.719 23.4638 276.708 23.4762C276.698 23.4884 276.687 23.5005 276.677 23.5125C276.666 23.5244 276.656 23.5363 276.645 23.548C276.635 23.5595 276.624 23.5707 276.614 23.5821C276.603 23.5933 276.593 23.6045 276.582 23.6156C276.572 23.6265 276.561 23.6372 276.551 23.6479C276.54 23.6585 276.53 23.669 276.519 23.6795C276.509 23.6898 276.498 23.7001 276.488 23.7103C276.477 23.7203 276.467 23.7302 276.456 23.7401C276.446 23.7499 276.435 23.7597 276.425 23.7694C276.414 23.7789 276.404 23.7882 276.393 23.7976C276.383 23.8069 276.372 23.8163 276.362 23.8255C276.351 23.8345 276.341 23.8433 276.33 23.8522C276.32 23.861 276.309 23.87 276.299 23.8787C276.288 23.8873 276.278 23.8957 276.267 23.9041C276.257 23.9126 276.247 23.9211 276.236 23.9294C276.226 23.9375 276.215 23.9455 276.204 23.9535C276.194 23.9615 276.184 23.9696 276.173 23.9774C276.163 23.9852 276.152 23.9928 276.142 24.0004C276.131 24.0081 276.121 24.0157 276.11 24.0233C276.1 24.0306 276.089 24.0379 276.079 24.0451C276.068 24.0524 276.058 24.0597 276.047 24.0669C276.037 24.0739 276.026 24.0807 276.016 24.0876C276.005 24.0945 275.995 24.1016 275.984 24.1084C275.974 24.115 275.963 24.1214 275.953 24.128C275.942 24.1346 275.932 24.1412 275.921 24.1477C275.911 24.154 275.9 24.1602 275.89 24.1664C275.879 24.1727 275.869 24.1789 275.858 24.1851C275.848 24.1911 275.837 24.197 275.827 24.203C275.816 24.2089 275.806 24.2148 275.795 24.2206C275.785 24.2263 275.774 24.232 275.764 24.2377L275.732 24.2543C275.722 24.2598 275.711 24.2652 275.701 24.2706C275.69 24.2759 275.68 24.2811 275.669 24.2863C275.659 24.2914 275.649 24.2968 275.638 24.3019C275.628 24.3069 275.617 24.3117 275.607 24.3166C275.596 24.3215 275.586 24.3265 275.575 24.3313C275.565 24.3361 275.554 24.3406 275.544 24.3453L275.512 24.3591L275.481 24.3724C275.47 24.3768 275.46 24.3811 275.449 24.3853C275.439 24.3896 275.428 24.3939 275.418 24.3981C275.407 24.4022 275.397 24.406 275.386 24.41C275.376 24.414 275.365 24.4181 275.355 24.422C275.344 24.4259 275.334 24.4296 275.323 24.4333L275.292 24.4444L275.26 24.4552C275.25 24.4588 275.239 24.4621 275.229 24.4655C275.218 24.4689 275.208 24.4724 275.197 24.4757C275.187 24.479 275.176 24.482 275.166 24.4852L275.134 24.4945L275.103 24.5035C275.093 24.5064 275.082 24.5092 275.072 24.512C275.061 24.5148 275.051 24.5178 275.04 24.5205C275.03 24.5232 275.019 24.5256 275.009 24.5282C274.998 24.5308 274.988 24.5334 274.977 24.5359L274.946 24.5432L274.914 24.55C274.904 24.5523 274.893 24.5547 274.883 24.5569C274.872 24.5591 274.862 24.5609 274.851 24.5629C274.841 24.565 274.83 24.567 274.82 24.569L274.788 24.5747C274.778 24.5765 274.767 24.5781 274.757 24.5799C274.746 24.5816 274.736 24.5835 274.725 24.5851C274.715 24.5867 274.704 24.5881 274.694 24.5896L274.662 24.594C274.652 24.5954 274.641 24.5969 274.631 24.5982C274.62 24.5995 274.61 24.6006 274.599 24.6018C274.589 24.603 274.579 24.6043 274.568 24.6054C274.558 24.6065 274.547 24.6074 274.537 24.6084L274.505 24.6112C274.495 24.6121 274.484 24.6132 274.474 24.614C274.463 24.6148 274.453 24.6153 274.442 24.616L274.411 24.618L274.379 24.6197C274.369 24.6202 274.358 24.6205 274.348 24.6209C274.337 24.6212 274.327 24.6217 274.316 24.6221C274.306 24.6223 274.295 24.6225 274.285 24.6227L274.253 24.6231C274.244 24.6231 274.234 24.6234 274.224 24.6234H274.222H274.19H274.159H274.127H274.096H274.064H274.033H274.002H273.97H273.939H273.907H273.876H273.844H273.813H273.781H273.75H273.718H273.687H273.655H273.624H273.592H273.561H273.529H273.498H273.467H273.435H273.404H273.372H273.341H273.309H273.278H273.246H273.215H273.183H273.152H273.12H273.089H273.057H273.026H272.994H272.963H272.932H272.9H272.869H272.837H272.806H272.774H272.743H272.711H272.68H272.648H272.617H272.585H272.554H272.522H272.491H272.459H272.428H272.396H272.365H272.334H272.302H272.271H272.239H272.208H272.176H272.145H272.113H272.082H272.05H272.019H271.987H271.956H271.924H271.893H271.862H271.83H271.799H271.767H271.736H271.704H271.673H271.641H271.61H271.578H271.547H271.515H271.484H271.452H271.421H271.389H271.358H271.327H271.295H271.264H271.232H271.201H271.169H271.138H271.106H271.075H271.043H271.012H270.98H270.949H270.917H270.886H270.854H270.823H270.791H270.76H270.729H270.697H270.666H270.634H270.603H270.571H270.54H270.508H270.477H270.445H270.414H270.382H270.351H270.319H270.288H270.257H270.225H270.194H270.162H270.131H270.099H270.068H270.036H270.005H269.973H269.942H269.91H269.879H269.847H269.816H269.784H269.753H269.721H269.69H269.659H269.627H269.596H269.564H269.533H269.501H269.434V17.7312C269.434 17.7312 269.457 17.7376 269.501 17.7488L269.533 17.7567L269.564 17.7644L269.596 17.7719L269.627 17.7794L269.659 17.7867L269.69 17.7939L269.721 17.8011L269.753 17.8081L269.784 17.815L269.816 17.8218L269.847 17.8285L269.879 17.8352L269.91 17.8417L269.942 17.8482L269.973 17.8546L270.005 17.8609L270.036 17.8671L270.068 17.8732L270.099 17.8793L270.131 17.8853L270.162 17.8912L270.194 17.897L270.225 17.9028L270.257 17.9085L270.288 17.9141L270.319 17.9196L270.351 17.9251L270.382 17.9304L270.414 17.9357L270.445 17.941L270.477 17.9462L270.508 17.9513L270.54 17.9563L270.571 17.9612L270.603 17.9661L270.634 17.971L270.666 17.9757L270.697 17.9804L270.729 17.985L270.76 17.9896L270.791 17.994L270.823 17.9985L270.854 18.0028L270.886 18.0071L270.917 18.0112L270.949 18.0154L270.98 18.0195L271.012 18.0234L271.043 18.0274L271.075 18.0312L271.106 18.0351L271.138 18.0387L271.169 18.0424L271.201 18.046L271.232 18.0495L271.264 18.053L271.295 18.0564L271.327 18.0597L271.358 18.0629L271.389 18.0662L271.421 18.0692L271.452 18.0723L271.484 18.0753L271.515 18.0782L271.547 18.0811L271.578 18.0838L271.61 18.0865L271.641 18.0892L271.673 18.0917L271.704 18.0943L271.736 18.0967L271.767 18.0991L271.799 18.1013L271.83 18.1036L271.862 18.1058L271.893 18.1078L271.924 18.1099L271.956 18.1118L271.987 18.1137L272.019 18.1155L272.05 18.1172L272.082 18.1189L272.113 18.1205L272.145 18.122L272.176 18.1235L272.208 18.1249L272.239 18.1262L272.271 18.1275L272.302 18.1286L272.334 18.1297L272.365 18.1308L272.396 18.1317L272.428 18.1326L272.459 18.1334L272.491 18.1341L272.522 18.1348L272.554 18.1354L272.585 18.1359L272.617 18.1364L272.648 18.1367L272.68 18.137L272.711 18.1372L272.743 18.1373L272.774 18.1374L272.786 18.1375L272.806 18.1374L272.837 18.1372L272.869 18.137L272.9 18.1368L272.932 18.1366L272.963 18.136L272.994 18.1355L273.026 18.1349L273.057 18.1343L273.089 18.1335L273.12 18.1325L273.152 18.1316L273.183 18.1306L273.215 18.1296L273.246 18.1282L273.278 18.1268L273.309 18.1254L273.341 18.124L273.372 18.1222L273.404 18.1204L273.435 18.1186L273.467 18.1168L273.498 18.1147L273.529 18.1124L273.561 18.1101L273.592 18.1079L273.624 18.1054L273.655 18.1026L273.687 18.0999L273.718 18.0972L273.75 18.0942L273.781 18.091L273.813 18.0878L273.844 18.0846L273.876 18.0811L273.907 18.0774L273.939 18.0737L273.97 18.07L274.002 18.0659L274.033 18.0617L274.064 18.0574L274.096 18.0532C274.107 18.0516 274.117 18.05 274.127 18.0484L274.159 18.0437L274.19 18.0389L274.222 18.0339C274.232 18.0322 274.243 18.0304 274.253 18.0286L274.285 18.0233C274.295 18.0216 274.306 18.0199 274.316 18.018C274.327 18.0161 274.337 18.0141 274.348 18.0122L274.379 18.0063L274.411 18.0004L274.442 17.9942C274.453 17.9921 274.463 17.9899 274.474 17.9878L274.505 17.9813L274.537 17.9747C274.547 17.9724 274.557 17.9699 274.568 17.9676L274.599 17.9605C274.61 17.9581 274.621 17.9558 274.631 17.9534C274.642 17.9509 274.652 17.9482 274.662 17.9457L274.694 17.9379C274.704 17.9353 274.715 17.9328 274.725 17.9302C274.736 17.9275 274.746 17.9246 274.757 17.9219L274.788 17.9135C274.799 17.9106 274.809 17.9079 274.82 17.905C274.83 17.9021 274.841 17.8991 274.851 17.8961L274.883 17.887C274.893 17.8839 274.904 17.8809 274.914 17.8778L274.946 17.8682L274.977 17.8583C274.988 17.855 274.998 17.8518 275.009 17.8484L275.04 17.8379L275.072 17.8272C275.082 17.8236 275.093 17.8202 275.103 17.8165C275.114 17.8128 275.124 17.8089 275.134 17.8051L275.166 17.7936C275.176 17.7897 275.187 17.7859 275.197 17.782C275.208 17.7779 275.218 17.7737 275.229 17.7696C275.239 17.7655 275.25 17.7614 275.26 17.7573L275.292 17.7445L275.323 17.7312C275.334 17.7268 275.344 17.7225 275.355 17.718C275.365 17.7134 275.376 17.7085 275.386 17.7038L275.418 17.6897L275.449 17.675C275.46 17.67 275.47 17.6649 275.481 17.6599C275.491 17.6548 275.502 17.6498 275.512 17.6446C275.523 17.6393 275.533 17.6338 275.544 17.6284C275.554 17.623 275.565 17.6177 275.575 17.6122C275.586 17.6066 275.596 17.6009 275.607 17.5952C275.617 17.5894 275.628 17.5837 275.638 17.5779C275.649 17.5719 275.659 17.566 275.669 17.56C275.68 17.5539 275.691 17.5477 275.701 17.5415C275.711 17.5352 275.722 17.529 275.732 17.5227C275.743 17.5161 275.753 17.5096 275.764 17.503C275.774 17.4963 275.785 17.4897 275.795 17.483C275.806 17.4761 275.816 17.469 275.827 17.462C275.837 17.4549 275.848 17.4479 275.858 17.4407C275.869 17.4333 275.879 17.4258 275.89 17.4183C275.9 17.4108 275.911 17.4033 275.921 17.3956C275.932 17.3877 275.942 17.3798 275.953 17.3718C275.963 17.3637 275.974 17.3556 275.984 17.3474C275.995 17.339 276.005 17.3305 276.016 17.3219C276.026 17.3132 276.037 17.3044 276.047 17.2956C276.058 17.2866 276.068 17.2776 276.079 17.2685C276.089 17.2591 276.1 17.2495 276.11 17.2399C276.121 17.2303 276.131 17.2206 276.142 17.2108C276.152 17.2006 276.163 17.1903 276.173 17.18C276.184 17.1695 276.194 17.1588 276.204 17.1481C276.215 17.1372 276.226 17.1262 276.236 17.1152C276.247 17.1036 276.257 17.0919 276.267 17.0801C276.278 17.0681 276.289 17.0559 276.299 17.0437C276.31 17.0311 276.32 17.0185 276.33 17.0057C276.341 16.9924 276.352 16.9792 276.362 16.9658C276.373 16.9517 276.383 16.9375 276.393 16.9233C276.404 16.9085 276.414 16.8936 276.425 16.8786C276.436 16.8629 276.446 16.8471 276.456 16.8313C276.467 16.8146 276.477 16.7979 276.488 16.781C276.498 16.7631 276.509 16.7452 276.519 16.7271C276.53 16.7079 276.54 16.6886 276.551 16.6691C276.562 16.6483 276.572 16.6274 276.582 16.6062C276.593 16.5835 276.604 16.5606 276.614 16.5376C276.625 16.5125 276.635 16.4873 276.645 16.4618C276.656 16.4338 276.667 16.4054 276.677 16.3769C276.688 16.3445 276.698 16.3118 276.708 16.2788C276.719 16.2402 276.73 16.2013 276.739 16.1619C276.751 16.1132 276.762 16.0638 276.771 16.0139C276.784 15.9396 276.795 15.8642 276.802 15.7877C276.813 15.6811 276.818 15.5726 276.818 15.4624V11.6679H276.802H276.771H276.739H276.708H276.677H276.645H276.614H276.582H276.551H276.519H276.488H276.456H276.425H276.393H276.362H276.33H276.299H276.267H276.236H276.204H276.173H276.142H276.11H276.079H276.047H276.016H275.984H275.953H275.921H275.89H275.858H275.827H275.795H275.764H275.732H275.701H275.669H275.638H275.607H275.575H275.544H275.512H275.481H275.449H275.418H275.386H275.355H275.323H275.292H275.26H275.229H275.197H275.166H275.134H275.103H275.072H275.04H275.009H274.977H274.946H274.914H274.883H274.851H274.82H274.788H274.757H274.725H274.694H274.662H274.631H274.599H274.568H274.537H274.505H274.474H274.442H274.411H274.379H274.348H274.316H274.285H274.253H274.222H274.19H274.159H274.127H274.096H274.064H274.033H274.009V15.4624C274.009 15.5218 274.007 15.5802 274.002 15.6375C273.995 15.7106 273.985 15.7818 273.97 15.851C273.961 15.8937 273.951 15.9357 273.939 15.9769C273.929 16.0097 273.919 16.042 273.907 16.0737C273.897 16.1007 273.887 16.1273 273.876 16.1535C273.866 16.1769 273.855 16.1999 273.844 16.2226C273.834 16.2433 273.824 16.2637 273.813 16.2838C273.803 16.3023 273.792 16.3204 273.781 16.3383C273.771 16.3552 273.761 16.3719 273.75 16.3883C273.74 16.4037 273.729 16.4188 273.718 16.4338C273.708 16.4481 273.698 16.4622 273.687 16.4761C273.677 16.4893 273.666 16.5022 273.655 16.515C273.645 16.5273 273.635 16.5394 273.624 16.5514C273.614 16.5629 273.603 16.5742 273.592 16.5854C273.582 16.5962 273.572 16.6069 273.561 16.6174C273.551 16.6275 273.54 16.6375 273.529 16.6474C273.519 16.6569 273.509 16.6662 273.498 16.6755C273.488 16.6845 273.477 16.6933 273.467 16.702C273.456 16.7105 273.446 16.7189 273.435 16.7271C273.425 16.7351 273.414 16.743 273.404 16.7508C273.393 16.7584 273.383 16.7659 273.372 16.7732C273.362 16.7804 273.351 16.7875 273.341 16.7945C273.33 16.8013 273.32 16.808 273.309 16.8146C273.299 16.821 273.288 16.8273 273.278 16.8336C273.267 16.8397 273.257 16.8456 273.246 16.8515C273.236 16.8573 273.225 16.8629 273.215 16.8685C273.204 16.874 273.194 16.8794 273.183 16.8847C273.173 16.8899 273.162 16.895 273.152 16.9C273.141 16.9049 273.131 16.9098 273.12 16.9145C273.11 16.9192 273.099 16.9238 273.089 16.9283C273.078 16.9327 273.068 16.9369 273.057 16.9411C273.047 16.9453 273.036 16.9493 273.026 16.9533C273.015 16.9572 273.005 16.9611 272.994 16.9648C272.984 16.9686 272.974 16.9723 272.963 16.9758C272.953 16.9793 272.942 16.9827 272.932 16.986C272.921 16.9893 272.911 16.9924 272.9 16.9955C272.89 16.9986 272.879 17.0016 272.869 17.0045C272.858 17.0074 272.848 17.0103 272.837 17.013C272.827 17.0157 272.816 17.0183 272.806 17.0209C272.795 17.0234 272.785 17.0258 272.774 17.0281C272.764 17.0305 272.753 17.0328 272.743 17.035C272.732 17.0371 272.722 17.0393 272.711 17.0413C272.701 17.0433 272.69 17.0451 272.68 17.047C272.669 17.0488 272.659 17.0506 272.648 17.0523L272.617 17.0571C272.606 17.0587 272.596 17.0601 272.585 17.0614C272.575 17.0628 272.564 17.0642 272.554 17.0654L272.522 17.0689C272.512 17.07 272.501 17.0709 272.491 17.0719C272.48 17.0728 272.47 17.0738 272.459 17.0746C272.449 17.0754 272.439 17.0761 272.428 17.0768C272.418 17.0775 272.407 17.0781 272.396 17.0786C272.386 17.0792 272.376 17.0797 272.365 17.0801C272.355 17.0806 272.344 17.0808 272.334 17.0811L272.302 17.0818C272.292 17.082 272.281 17.0821 272.271 17.0822L272.259 17.0823L272.239 17.0822L272.208 17.082L272.176 17.0815L272.145 17.0809L272.113 17.08L272.082 17.079L272.05 17.0777L272.019 17.0763L271.987 17.0747L271.956 17.0728L271.924 17.0708L271.893 17.0685L271.862 17.0661L271.83 17.0634L271.799 17.0606L271.767 17.0576L271.736 17.0543L271.704 17.0509L271.673 17.0474L271.641 17.0435L271.61 17.0395L271.578 17.0354L271.547 17.031L271.515 17.0264L271.484 17.0217L271.452 17.0168L271.421 17.0117L271.389 17.0064L271.358 17.0009L271.327 16.9952L271.295 16.9894L271.264 16.9834L271.232 16.9772L271.201 16.9708L271.169 16.9642L271.138 16.9575L271.106 16.9505L271.075 16.9434L271.043 16.9362L271.012 16.9287L270.98 16.9211L270.949 16.9133L270.917 16.9054L270.886 16.8971L270.854 16.8888L270.823 16.8804L270.791 16.8717L270.76 16.8629L270.729 16.8539L270.697 16.8448L270.666 16.8354L270.634 16.8259L270.603 16.8163L270.571 16.8064L270.54 16.7964L270.508 16.7863L270.477 16.776L270.445 16.7655L270.414 16.7549L270.382 16.7441L270.351 16.7332L270.319 16.7221L270.288 16.7108L270.257 16.6995L270.225 16.6878L270.194 16.6761L270.162 16.6642L270.131 16.6522L270.099 16.64L270.068 16.6277L270.036 16.6152L270.005 16.6026L269.973 16.5898L269.942 16.5769L269.91 16.5639L269.879 16.5506L269.847 16.5372L269.816 16.5237L269.784 16.5101L269.753 16.4963L269.721 16.4824L269.69 16.4683L269.659 16.4541L269.627 16.4397L269.596 16.4252L269.564 16.4106L269.533 16.3958L269.501 16.3809Z" fill="#185AB0"/>
<path fill-rule="evenodd" clip-rule="evenodd" d="M278.646 12.496C278.623 12.5146 278.6 12.5333 278.578 12.5523V8.27065C278.578 8.04296 278.601 7.82071 278.646 7.6061C278.655 7.56003 278.666 7.51437 278.677 7.46903C278.687 7.43013 278.697 7.39154 278.709 7.35321C278.719 7.31907 278.729 7.28516 278.74 7.25149C278.75 7.22072 278.761 7.19011 278.772 7.15977C278.782 7.13164 278.792 7.10365 278.803 7.07589C278.813 7.04994 278.824 7.02411 278.835 6.99847C278.845 6.9743 278.855 6.95028 278.866 6.9264C278.876 6.90371 278.887 6.88119 278.897 6.85879C278.908 6.83739 278.918 6.8162 278.929 6.79506C278.939 6.77476 278.95 6.75461 278.96 6.73455C278.971 6.71521 278.981 6.69601 278.992 6.67691C279.002 6.65841 279.013 6.64 279.023 6.62173C279.034 6.604 279.044 6.58634 279.055 6.56881C279.065 6.55188 279.076 6.53506 279.086 6.51834C279.097 6.50207 279.107 6.48598 279.118 6.46991C279.128 6.45419 279.139 6.43857 279.149 6.42306C279.16 6.40783 279.17 6.3926 279.181 6.37759C279.191 6.36304 279.202 6.34873 279.212 6.33439C279.223 6.32026 279.233 6.30621 279.244 6.29227C279.254 6.27853 279.265 6.26477 279.275 6.25122C279.285 6.23806 279.296 6.22508 279.307 6.21208C279.317 6.19924 279.328 6.18644 279.338 6.17378C279.349 6.16127 279.359 6.14882 279.37 6.1365C279.38 6.12446 279.391 6.11259 279.401 6.10071C279.411 6.08894 279.422 6.07711 279.433 6.06547C279.443 6.05409 279.453 6.04284 279.464 6.03161C279.474 6.02052 279.485 6.00951 279.495 5.99854C279.506 5.98774 279.516 5.97693 279.527 5.96626C279.537 5.95579 279.548 5.94546 279.558 5.93513C279.569 5.92484 279.579 5.91448 279.59 5.90433C279.6 5.89442 279.611 5.88474 279.621 5.87495C279.632 5.86519 279.642 5.85541 279.653 5.84581C279.663 5.83639 279.674 5.82713 279.684 5.81784C279.695 5.80858 279.705 5.79934 279.716 5.79024C279.726 5.78126 279.737 5.77245 279.747 5.7636C279.758 5.75484 279.768 5.74608 279.779 5.73742C279.789 5.72889 279.8 5.72044 279.81 5.71204C279.821 5.70369 279.831 5.6954 279.842 5.68718C279.852 5.67907 279.863 5.67104 279.873 5.66304C279.884 5.65511 279.894 5.64721 279.905 5.63941C279.915 5.63167 279.926 5.62403 279.936 5.61641C279.946 5.60888 279.957 5.60134 279.968 5.59391C279.978 5.58656 279.988 5.57932 279.999 5.57207C280.009 5.56487 280.02 5.55771 280.03 5.55064C280.041 5.54366 280.051 5.53678 280.062 5.5299C280.072 5.52304 280.083 5.51619 280.093 5.50946C280.104 5.50282 280.114 5.49633 280.125 5.48979C280.135 5.48327 280.146 5.47668 280.156 5.4703C280.167 5.46397 280.177 5.45784 280.188 5.45164C280.198 5.44544 280.209 5.43911 280.219 5.43304C280.23 5.42705 280.24 5.42129 280.251 5.41541C280.261 5.40952 280.272 5.40358 280.282 5.39783C280.293 5.39212 280.303 5.38663 280.314 5.38103C280.324 5.37546 280.335 5.36986 280.345 5.36439L280.377 5.34835L280.408 5.33268C280.419 5.32755 280.429 5.32237 280.44 5.31735C280.45 5.31235 280.461 5.30751 280.471 5.30262C280.482 5.29776 280.492 5.29273 280.503 5.28797C280.513 5.28324 280.524 5.27879 280.534 5.27418C280.545 5.26958 280.555 5.2649 280.565 5.2604C280.576 5.25595 280.586 5.25163 280.597 5.24729L280.628 5.23442C280.639 5.2302 280.649 5.22599 280.66 5.22188C280.67 5.2178 280.681 5.21388 280.691 5.2099C280.702 5.20592 280.712 5.20182 280.723 5.19795C280.733 5.19413 280.744 5.19057 280.754 5.18685C280.765 5.18314 280.775 5.17937 280.786 5.17576C280.796 5.17215 280.807 5.1687 280.817 5.16522L280.849 5.15499C280.859 5.15164 280.87 5.14821 280.88 5.14494C280.891 5.14172 280.901 5.13869 280.912 5.13557C280.922 5.13243 280.933 5.12922 280.943 5.12618C280.954 5.12317 280.964 5.12037 280.975 5.11747L281.006 5.10891C281.017 5.10614 281.027 5.10332 281.038 5.10065C281.048 5.098 281.059 5.09552 281.069 5.09296C281.08 5.09039 281.09 5.08772 281.101 5.08526C281.111 5.08283 281.122 5.08055 281.132 5.07823L281.163 5.07137C281.174 5.06915 281.184 5.06685 281.195 5.06473C281.205 5.06261 281.216 5.0607 281.226 5.05868C281.237 5.05667 281.247 5.05455 281.258 5.05264L281.289 5.0472L281.321 5.04199C281.331 5.04029 281.342 5.03849 281.352 5.03689C281.363 5.03529 281.373 5.03396 281.384 5.03247C281.394 5.031 281.405 5.02946 281.415 5.02807L281.447 5.02412L281.478 5.02051C281.489 5.01933 281.499 5.01797 281.51 5.0169C281.52 5.01583 281.531 5.01504 281.541 5.01408L281.573 5.0113C281.583 5.01041 281.594 5.00955 281.604 5.00879C281.615 5.00803 281.625 5.00743 281.636 5.00678C281.646 5.00612 281.656 5.00536 281.667 5.00479C281.678 5.00421 281.688 5.00382 281.699 5.00335L281.73 5.00215C281.74 5.00178 281.751 5.00123 281.761 5.00097C281.772 5.00071 281.782 5.00073 281.793 5.00058C281.803 5.00042 281.814 5.00024 281.824 5.00018L281.838 5H281.856H281.887H281.919H281.95H281.982H282.013H282.045H282.076H282.108H282.139H282.171H282.202H282.234H282.265H282.296H282.328H282.359H282.391H282.422H282.454H282.485H282.517H282.548H282.58H282.611H282.643H282.674H282.706H282.737H282.769H282.8H282.832H282.863H282.894H282.926H282.957H282.989H283.02H283.052H283.083H283.115H283.146H283.178H283.209H283.241H283.272H283.304H283.335H283.367H283.398H283.429H283.461H283.492H283.524H283.555H283.587H283.618H283.65H283.681H283.713H283.744H283.776H283.807H283.839H283.87H283.902H283.933H283.965H283.996H284.027H284.059H284.09H284.122H284.153H284.185H284.216H284.248H284.279H284.311H284.342H284.374H284.405H284.437H284.468H284.5H284.531H284.562H284.594H284.625H284.657H284.688H284.72H284.751H284.783H284.814H284.846H284.877H284.909H284.94H284.972H285.003H285.035H285.066H285.098H285.129H285.16H285.192H285.223H285.255H285.286H285.318H285.349H285.381H285.412H285.444H285.475H285.507H285.538H285.57H285.601H285.633H285.664H285.696H285.727H285.758H285.79H285.821H285.853H285.884H285.916H285.947H285.979H286.01H286.042H286.073H286.105H286.136H286.168H286.199H286.231H286.262H286.293H286.325H286.356H286.388H286.419H286.451H286.482H286.514H286.545H286.577H286.608H286.635V21.3521C286.635 21.4942 286.626 21.6343 286.608 21.7717C286.6 21.8378 286.589 21.9033 286.577 21.9682C286.567 22.0175 286.557 22.0665 286.545 22.1151C286.535 22.156 286.525 22.1966 286.514 22.2369C286.504 22.2722 286.493 22.3073 286.482 22.3422C286.472 22.3737 286.462 22.405 286.451 22.4361C286.441 22.465 286.43 22.4936 286.419 22.522C286.409 22.5486 286.399 22.5749 286.388 22.6011C286.378 22.6258 286.367 22.6504 286.356 22.6748C286.346 22.6979 286.336 22.7208 286.325 22.7437C286.315 22.7655 286.304 22.7872 286.293 22.8087C286.283 22.8294 286.273 22.8499 286.262 22.8703C286.252 22.89 286.241 22.9095 286.231 22.929C286.22 22.9478 286.21 22.9665 286.199 22.985C286.189 23.0029 286.178 23.0206 286.168 23.0383C286.157 23.0554 286.147 23.0724 286.136 23.0893C286.126 23.1058 286.115 23.1222 286.105 23.1385C286.094 23.1544 286.084 23.1703 286.073 23.1861C286.063 23.2013 286.052 23.2164 286.042 23.2315C286.031 23.2462 286.021 23.2608 286.01 23.2754C286 23.2897 285.989 23.304 285.979 23.3181C285.968 23.3319 285.958 23.3456 285.947 23.3592C285.937 23.3726 285.926 23.3858 285.916 23.3989C285.905 23.4119 285.895 23.4249 285.884 23.4378C285.874 23.4503 285.863 23.4627 285.853 23.4751C285.842 23.4873 285.832 23.4993 285.821 23.5113C285.811 23.5232 285.801 23.5351 285.79 23.5469C285.78 23.5583 285.769 23.5696 285.758 23.5809C285.748 23.5921 285.738 23.6034 285.727 23.6145C285.717 23.6254 285.706 23.636 285.696 23.6467C285.685 23.6573 285.675 23.6679 285.664 23.6783C285.654 23.6887 285.643 23.6989 285.633 23.7091C285.622 23.7191 285.612 23.729 285.601 23.7389C285.591 23.7487 285.58 23.7586 285.57 23.7683C285.559 23.7778 285.549 23.7871 285.538 23.7965C285.528 23.8058 285.517 23.8152 285.507 23.8244C285.496 23.8334 285.486 23.8422 285.475 23.8511C285.465 23.86 285.454 23.8689 285.444 23.8776C285.433 23.8862 285.423 23.8946 285.412 23.903C285.402 23.9114 285.391 23.9199 285.381 23.9282C285.37 23.9364 285.36 23.9443 285.349 23.9524C285.339 23.9604 285.328 23.9684 285.318 23.9763C285.307 23.9841 285.297 23.9917 285.286 23.9993C285.276 24.0069 285.265 24.0147 285.255 24.0221C285.244 24.0295 285.234 24.0367 285.223 24.044C285.213 24.0513 285.203 24.0586 285.192 24.0658C285.182 24.0728 285.171 24.0796 285.16 24.0865C285.15 24.0934 285.14 24.1005 285.129 24.1072C285.119 24.1139 285.108 24.1204 285.098 24.1269C285.087 24.1335 285.077 24.1401 285.066 24.1466C285.056 24.1529 285.045 24.1591 285.035 24.1653C285.024 24.1716 285.014 24.1778 285.003 24.184C284.993 24.19 284.982 24.1959 284.972 24.2019L284.94 24.2195L284.909 24.2366L284.877 24.2532C284.867 24.2587 284.856 24.2641 284.846 24.2695C284.835 24.2748 284.825 24.28 284.814 24.2852C284.804 24.2904 284.793 24.2957 284.783 24.3008C284.772 24.3058 284.762 24.3106 284.751 24.3155C284.741 24.3204 284.73 24.3254 284.72 24.3302C284.709 24.335 284.699 24.3396 284.688 24.3442L284.657 24.358L284.625 24.3714L284.594 24.3843C284.583 24.3885 284.573 24.3929 284.562 24.397C284.552 24.4011 284.542 24.405 284.531 24.409C284.521 24.413 284.51 24.4171 284.5 24.421C284.489 24.4248 284.479 24.4285 284.468 24.4323L284.437 24.4434L284.405 24.4542C284.395 24.4577 284.384 24.461 284.374 24.4644C284.363 24.4678 284.353 24.4714 284.342 24.4747C284.332 24.4779 284.321 24.4809 284.311 24.4841L284.279 24.4935L284.248 24.5024C284.237 24.5054 284.227 24.5082 284.216 24.511C284.206 24.5138 284.195 24.5168 284.185 24.5195C284.174 24.5222 284.164 24.5246 284.153 24.5272C284.143 24.5298 284.132 24.5324 284.122 24.5349L284.09 24.5422L284.059 24.549C284.048 24.5513 284.038 24.5537 284.027 24.5559C284.017 24.558 284.006 24.5599 283.996 24.5619L283.965 24.5679L283.933 24.5736C283.923 24.5755 283.912 24.5771 283.902 24.5789C283.891 24.5806 283.881 24.5824 283.87 24.5841C283.86 24.5857 283.849 24.5871 283.839 24.5886L283.807 24.593C283.797 24.5944 283.786 24.5959 283.776 24.5972C283.765 24.5985 283.755 24.5996 283.744 24.6008C283.734 24.602 283.723 24.6033 283.713 24.6044C283.702 24.6055 283.692 24.6064 283.681 24.6074L283.65 24.6103C283.639 24.6111 283.629 24.6122 283.618 24.613C283.608 24.6138 283.597 24.6143 283.587 24.615L283.555 24.617L283.524 24.6187C283.513 24.6192 283.503 24.6195 283.492 24.6199C283.482 24.6202 283.471 24.6207 283.461 24.6211C283.451 24.6213 283.44 24.6215 283.429 24.6217L283.398 24.6221C283.388 24.6222 283.378 24.6224 283.369 24.6224H283.367H283.335H283.304H283.272H283.241H283.209H283.178H283.146H283.115H283.083H283.052H283.02H282.989H282.957H282.926H282.894H282.863H282.832H282.8H282.769H282.737H282.706H282.674H282.643H282.611H282.58H282.548H282.517H282.485H282.454H282.422H282.391H282.359H282.328H282.296H282.265H282.234H282.202H282.171H282.139H282.108H282.076H282.045H282.013H281.982H281.95H281.919H281.887H281.856H281.824H281.793H281.761H281.73H281.699H281.667H281.636H281.604H281.573H281.541H281.51H281.478H281.447H281.415H281.384H281.352H281.321H281.289H281.258H281.226H281.195H281.163H281.132H281.101H281.069H281.038H281.006H280.975H280.943H280.912H280.88H280.849H280.817H280.786H280.754H280.723H280.691H280.66H280.628H280.597H280.565H280.534H280.503H280.471H280.44H280.408H280.377H280.345H280.314H280.282H280.251H280.219H280.188H280.156H280.125H280.093H280.062H280.03H279.999H279.968H279.936H279.905H279.873H279.842H279.81H279.779H279.747H279.716H279.684H279.653H279.621H279.59H279.558H279.527H279.495H279.464H279.433H279.401H279.37H279.338H279.307H279.275H279.244H279.212H279.181H279.149H279.118H279.086H279.055H279.023H278.992H278.96H278.929H278.897H278.866H278.835H278.803H278.772H278.74H278.709H278.677H278.646H278.578V17.0715C278.6 17.0904 278.623 17.1091 278.646 17.1277C278.656 17.1361 278.667 17.1445 278.677 17.1528C278.688 17.161 278.698 17.1692 278.709 17.1774C278.719 17.1854 278.73 17.1934 278.74 17.2013C278.751 17.2091 278.761 17.2168 278.772 17.2245C278.782 17.232 278.793 17.2396 278.803 17.2471C278.814 17.2545 278.824 17.2619 278.835 17.2693L278.866 17.2909C278.876 17.2979 278.887 17.3049 278.897 17.3118L278.929 17.3324C278.939 17.3391 278.95 17.3459 278.96 17.3525C278.971 17.3591 278.981 17.3656 278.992 17.3721L279.023 17.3912C279.034 17.3975 279.044 17.4038 279.055 17.41C279.065 17.4161 279.076 17.4221 279.086 17.4282L279.118 17.4461L279.149 17.4635L279.181 17.4806C279.191 17.4862 279.202 17.4919 279.212 17.4974C279.223 17.5029 279.233 17.5082 279.244 17.5136L279.275 17.5296L279.307 17.5453L279.338 17.5605C279.349 17.5656 279.359 17.5706 279.37 17.5756L279.401 17.5901L279.433 17.6046L279.464 17.6185L279.495 17.6323L279.527 17.6457L279.558 17.6589L279.59 17.6718L279.621 17.6843L279.653 17.6968L279.684 17.7088C279.695 17.7127 279.705 17.7168 279.716 17.7207L279.747 17.7322C279.758 17.736 279.768 17.7399 279.779 17.7437C279.789 17.7474 279.8 17.751 279.81 17.7546L279.842 17.7656L279.873 17.7762C279.884 17.7797 279.894 17.7833 279.905 17.7867C279.915 17.7901 279.926 17.7934 279.936 17.7968L279.968 17.8069L279.999 17.8166L280.03 17.8262L280.062 17.8355L280.093 17.8447L280.125 17.8537L280.156 17.8625L280.188 17.8711L280.219 17.8795L280.251 17.8877L280.282 17.8958L280.314 17.9037L280.345 17.9113L280.377 17.919L280.408 17.9262L280.44 17.9335L280.471 17.9405L280.503 17.9473L280.534 17.9541L280.565 17.9606L280.597 17.9671L280.628 17.9733L280.66 17.9794L280.691 17.9854L280.723 17.9912L280.754 17.997L280.786 18.0024L280.817 18.0079L280.849 18.0131L280.88 18.0183L280.912 18.0233L280.943 18.0281L280.975 18.0329L281.006 18.0376L281.038 18.042L281.069 18.0465L281.101 18.0506L281.132 18.0548L281.163 18.0588L281.195 18.0627L281.226 18.0665L281.258 18.0702L281.289 18.0737L281.321 18.0772L281.352 18.0805L281.384 18.0837L281.415 18.0868L281.447 18.0898L281.478 18.0928L281.51 18.0955L281.541 18.0982L281.573 18.1009L281.604 18.1033L281.636 18.1057L281.667 18.1081L281.699 18.1102L281.73 18.1123L281.761 18.1144L281.793 18.1163L281.824 18.1181L281.856 18.1199L281.887 18.1214L281.919 18.123L281.95 18.1245L281.982 18.1258L282.013 18.1271L282.045 18.1284L282.076 18.1294L282.108 18.1305L282.139 18.1315L282.171 18.1323L282.202 18.1331L282.234 18.1339L282.265 18.1344L282.296 18.1349L282.328 18.1355L282.359 18.1358L282.391 18.1361L282.422 18.1364L282.454 18.1365L282.485 18.1366L282.517 18.1366L282.548 18.1365L282.58 18.1363L282.611 18.1362L282.643 18.1359L282.674 18.1355L282.706 18.1351L282.737 18.1346L282.769 18.134L282.8 18.1334L282.832 18.1327L282.863 18.1319L282.894 18.131L282.926 18.1301L282.957 18.1292L282.989 18.1281L283.02 18.127L283.052 18.1259L283.083 18.1246L283.115 18.1233L283.146 18.122L283.162 18.1214L283.178 18.1206L283.209 18.1191L283.241 18.1174L283.272 18.1156L283.304 18.1137L283.335 18.1118L283.367 18.1097L283.398 18.1075L283.429 18.1052L283.461 18.1029L283.492 18.1003L283.524 18.0978L283.555 18.0951L283.587 18.0923L283.618 18.0895L283.65 18.0865L283.681 18.0835L283.713 18.0803L283.744 18.0771L283.776 18.0738L283.807 18.0704L283.839 18.0669L283.87 18.0634L283.902 18.0597L283.933 18.056L283.965 18.0522L283.996 18.0484L284.027 18.0444L284.059 18.0404L284.09 18.0363L284.122 18.0321L284.153 18.0279L284.185 18.0236L284.216 18.0192L284.248 18.0147L284.279 18.0102L284.311 18.0056L284.342 18.0009L284.374 17.9961L284.405 17.9914L284.437 17.9865L284.468 17.9815L284.5 17.9765L284.531 17.9714L284.562 17.9663L284.594 17.9611L284.625 17.9558L284.657 17.9505L284.688 17.9451L284.72 17.9396L284.751 17.9341L284.783 17.9285L284.814 17.9229L284.846 17.9172L284.877 17.9114L284.909 17.9056L284.94 17.8997L284.972 17.8937L285.003 17.8877L285.035 17.8816L285.066 17.8755L285.098 17.8693L285.129 17.863L285.16 17.8567L285.192 17.8503L285.223 17.8438L285.255 17.8373L285.286 17.8307L285.318 17.8241L285.349 17.8173L285.381 17.8106L285.412 17.8037L285.444 17.7968L285.475 17.7898L285.507 17.7828L285.538 17.7757L285.57 17.7684L285.601 17.7611L285.633 17.7537L285.664 17.7463L285.696 17.7387L285.727 17.7309V16.3475L285.696 16.3631L285.664 16.3787L285.633 16.3941L285.601 16.4094L285.57 16.4245L285.538 16.4395L285.507 16.4543L285.475 16.469L285.444 16.4836L285.412 16.4979L285.381 16.5121L285.349 16.5262L285.318 16.5401L285.286 16.5538L285.255 16.5674L285.223 16.5808L285.192 16.594L285.16 16.6071L285.129 16.62L285.098 16.6327L285.066 16.6452L285.035 16.6576L285.003 16.6698L284.972 16.6818L284.94 16.6937L284.909 16.7053L284.877 16.7168L284.846 16.7281L284.814 16.7393L284.783 16.7503L284.751 16.761L284.72 16.7716L284.688 16.782L284.657 16.7923L284.625 16.8023L284.594 16.8122L284.562 16.8219L284.531 16.8314L284.5 16.8408L284.468 16.85L284.437 16.859L284.405 16.8677L284.374 16.8764L284.342 16.8848L284.311 16.8931L284.279 16.9012L284.248 16.9091L284.216 16.9168L284.185 16.9244L284.153 16.9317L284.122 16.9389L284.09 16.946L284.059 16.9528L284.027 16.9595L283.996 16.9659L283.965 16.9723L283.933 16.9784L283.902 16.9844L283.87 16.9902L283.839 16.9958L283.807 17.0013L283.776 17.0065L283.744 17.0116L283.713 17.0166L283.681 17.0213L283.65 17.0259L283.618 17.0303L283.587 17.0346L283.555 17.0386L283.524 17.0425L283.492 17.0463L283.461 17.0499L283.429 17.0533L283.398 17.0565L283.367 17.0596L283.335 17.0625L283.304 17.0653L283.272 17.0678L283.253 17.0694L283.241 17.0702L283.209 17.0723L283.178 17.0744L283.146 17.0761L283.115 17.0777L283.083 17.0792L283.052 17.0802L283.02 17.0812L282.989 17.0819L282.957 17.0824L282.926 17.0828C282.915 17.0828 282.905 17.0827 282.894 17.0826L282.863 17.0825L282.832 17.0821L282.8 17.0814L282.769 17.0806C282.758 17.0802 282.748 17.0797 282.737 17.0793C282.727 17.0789 282.716 17.0785 282.706 17.078L282.674 17.0763L282.643 17.0744L282.611 17.0722L282.58 17.0697C282.569 17.0688 282.559 17.0681 282.548 17.0671C282.538 17.0662 282.527 17.065 282.517 17.064L282.485 17.0608L282.454 17.0571L282.422 17.0533L282.391 17.0492L282.359 17.0447C282.349 17.0431 282.338 17.0417 282.328 17.04C282.317 17.0384 282.307 17.0366 282.296 17.0348C282.286 17.033 282.275 17.0314 282.265 17.0296C282.254 17.0277 282.244 17.0256 282.234 17.0237C282.223 17.0217 282.212 17.0198 282.202 17.0178C282.191 17.0157 282.181 17.0134 282.171 17.0112C282.16 17.009 282.15 17.0069 282.139 17.0046C282.129 17.0022 282.118 16.9997 282.108 16.9973L282.076 16.9899C282.066 16.9873 282.055 16.9846 282.045 16.982C282.034 16.9793 282.024 16.9766 282.013 16.9738C282.003 16.971 281.992 16.968 281.982 16.9651C281.971 16.9621 281.961 16.9592 281.95 16.9561C281.94 16.953 281.929 16.9497 281.919 16.9465C281.908 16.9433 281.898 16.94 281.887 16.9367C281.877 16.9333 281.866 16.9298 281.856 16.9263C281.845 16.9227 281.835 16.9192 281.824 16.9156C281.814 16.9119 281.803 16.908 281.793 16.9042C281.782 16.9004 281.772 16.8966 281.761 16.8926C281.751 16.8886 281.74 16.8844 281.73 16.8803C281.719 16.8761 281.709 16.872 281.699 16.8677C281.688 16.8634 281.678 16.8588 281.667 16.8543C281.656 16.8498 281.646 16.8453 281.636 16.8406C281.625 16.8359 281.615 16.831 281.604 16.8261C281.594 16.8212 281.583 16.8163 281.573 16.8112C281.562 16.8061 281.552 16.8009 281.541 16.7956C281.531 16.7903 281.52 16.7849 281.51 16.7794C281.499 16.7739 281.489 16.7684 281.478 16.7628C281.468 16.757 281.457 16.751 281.447 16.7451C281.436 16.7391 281.426 16.7331 281.415 16.727C281.405 16.7207 281.394 16.7143 281.384 16.708C281.373 16.7015 281.363 16.6948 281.352 16.6882C281.342 16.6814 281.331 16.6748 281.321 16.6679C281.31 16.6608 281.3 16.6535 281.289 16.6463C281.279 16.6389 281.268 16.6315 281.258 16.624C281.247 16.6164 281.237 16.6088 281.226 16.601C281.216 16.593 281.205 16.5848 281.195 16.5766C281.184 16.5683 281.174 16.5599 281.163 16.5514C281.153 16.5427 281.142 16.5341 281.132 16.5253C281.121 16.5162 281.111 16.5069 281.101 16.4976C281.09 16.4881 281.079 16.4784 281.069 16.4687C281.058 16.4588 281.048 16.4488 281.038 16.4387C281.027 16.4283 281.016 16.4179 281.006 16.4073C280.995 16.3964 280.985 16.3852 280.975 16.374C280.964 16.3626 280.954 16.3509 280.943 16.3392C280.933 16.3271 280.922 16.3149 280.912 16.3025C280.901 16.2898 280.891 16.277 280.88 16.2639C280.87 16.2505 280.859 16.2369 280.849 16.2231C280.838 16.2089 280.828 16.1945 280.817 16.18C280.807 16.1648 280.796 16.1495 280.786 16.134C280.775 16.1178 280.765 16.1014 280.754 16.0849C280.744 16.0675 280.733 16.0499 280.723 16.0321C280.712 16.0134 280.702 15.9944 280.691 15.9752C280.681 15.9549 280.67 15.9343 280.66 15.9135C280.649 15.8913 280.639 15.8688 280.628 15.8461C280.618 15.8216 280.607 15.7969 280.597 15.7718C280.586 15.744 280.576 15.7157 280.565 15.6871C280.554 15.6555 280.544 15.6234 280.534 15.5907C280.523 15.5529 280.512 15.5144 280.503 15.4753C280.491 15.4266 280.48 15.3768 280.471 15.3262C280.458 15.2511 280.447 15.1739 280.44 15.0946C280.431 15.0031 280.427 14.9088 280.427 14.8117C280.427 14.7147 280.431 14.6203 280.44 14.5287C280.447 14.4494 280.458 14.3722 280.471 14.297C280.48 14.2464 280.491 14.1966 280.503 14.1478C280.512 14.1087 280.523 14.0702 280.534 14.0323C280.544 13.9997 280.554 13.9676 280.565 13.9359C280.576 13.9073 280.586 13.879 280.597 13.8512C280.607 13.826 280.618 13.8013 280.628 13.7769C280.639 13.7541 280.649 13.7316 280.66 13.7094C280.67 13.6886 280.681 13.6679 280.691 13.6476C280.702 13.6284 280.712 13.6094 280.723 13.5907C280.733 13.5729 280.744 13.5553 280.754 13.5379C280.765 13.5214 280.775 13.505 280.786 13.4888C280.796 13.4733 280.807 13.458 280.817 13.4428C280.828 13.4282 280.838 13.4139 280.849 13.3996C280.859 13.3858 280.87 13.3723 280.88 13.3588C280.891 13.3458 280.901 13.3329 280.912 13.3202C280.922 13.3078 280.933 13.2956 280.943 13.2835C280.954 13.2718 280.964 13.2601 280.975 13.2486C280.985 13.2374 280.995 13.2262 281.006 13.2153C281.016 13.2047 281.027 13.1943 281.038 13.184C281.048 13.1738 281.058 13.1638 281.069 13.1539C281.079 13.1442 281.09 13.1345 281.101 13.125C281.111 13.1158 281.121 13.1064 281.132 13.0973C281.142 13.0885 281.153 13.0799 281.163 13.0712C281.174 13.0627 281.184 13.0543 281.195 13.046C281.205 13.0378 281.216 13.0296 281.226 13.0216C281.237 13.0138 281.247 13.0062 281.258 12.9986C281.268 12.991 281.279 12.9836 281.289 12.9763C281.3 12.969 281.31 12.9617 281.321 12.9547C281.331 12.9478 281.342 12.9411 281.352 12.9344C281.363 12.9277 281.373 12.9211 281.384 12.9146C281.394 12.9082 281.405 12.9018 281.415 12.8956C281.426 12.8894 281.436 12.8834 281.447 12.8774C281.457 12.8715 281.468 12.8655 281.478 12.8598C281.489 12.8541 281.499 12.8486 281.51 12.8431C281.52 12.8376 281.531 12.8322 281.541 12.8268C281.552 12.8216 281.562 12.8164 281.573 12.8113C281.583 12.8062 281.594 12.8013 281.604 12.7964C281.615 12.7915 281.625 12.7866 281.636 12.7818C281.646 12.7772 281.656 12.7727 281.667 12.7682C281.678 12.7637 281.688 12.7591 281.699 12.7547C281.709 12.7505 281.719 12.7463 281.73 12.7422C281.74 12.738 281.751 12.7338 281.761 12.7298C281.772 12.7259 281.782 12.7221 281.793 12.7182C281.803 12.7144 281.814 12.7106 281.824 12.7068C281.835 12.7032 281.845 12.6997 281.856 12.6961C281.866 12.6926 281.877 12.6891 281.887 12.6857C281.898 12.6824 281.908 12.6791 281.919 12.6759C281.929 12.6727 281.94 12.6695 281.95 12.6664L281.982 12.6574C281.992 12.6544 282.003 12.6515 282.013 12.6486C282.024 12.6458 282.034 12.6432 282.045 12.6405C282.055 12.6378 282.066 12.6351 282.076 12.6325L282.108 12.6251C282.118 12.6227 282.129 12.6202 282.139 12.6179C282.15 12.6156 282.16 12.6134 282.171 12.6112C282.181 12.609 282.191 12.6067 282.202 12.6046C282.212 12.6026 282.223 12.6007 282.234 12.5987C282.244 12.5968 282.254 12.5947 282.265 12.5928C282.275 12.591 282.286 12.5893 282.296 12.5876C282.307 12.5858 282.317 12.584 282.328 12.5824L282.359 12.5777L282.391 12.5732L282.422 12.569L282.454 12.5652L282.485 12.5616L282.517 12.5584C282.527 12.5573 282.538 12.5562 282.548 12.5552C282.559 12.5543 282.569 12.5535 282.58 12.5527L282.611 12.5502L282.643 12.548L282.674 12.5461L282.706 12.5443C282.716 12.5438 282.727 12.5435 282.737 12.5431C282.748 12.5426 282.758 12.5421 282.769 12.5418L282.8 12.541L282.832 12.5403L282.863 12.5398L282.894 12.5397C282.905 12.5397 282.915 12.5396 282.926 12.5396L282.957 12.54L282.989 12.5405L283.02 12.5412L283.052 12.5422L283.083 12.5432L283.115 12.5447L283.146 12.5463L283.178 12.548L283.209 12.55L283.241 12.5522L283.253 12.553L283.272 12.5545L283.304 12.557L283.335 12.5598L283.367 12.5626L283.398 12.5656L283.429 12.5689L283.461 12.5722L283.492 12.5757L283.524 12.5794L283.555 12.5833L283.587 12.5873L283.618 12.5915L283.65 12.5959L283.681 12.6004L283.713 12.6051L283.744 12.61L283.776 12.615L283.807 12.6202L283.839 12.6256L283.87 12.6312L283.902 12.6369L283.933 12.6428L283.965 12.6489L283.996 12.6551L284.027 12.6616L284.059 12.6682L284.09 12.675L284.122 12.682L284.153 12.6891L284.185 12.6964L284.216 12.704L284.248 12.7117L284.279 12.7195L284.311 12.7276L284.342 12.7358L284.374 12.7442L284.405 12.7528L284.437 12.7616L284.468 12.7705L284.5 12.7797L284.531 12.789L284.562 12.7986L284.594 12.8082L284.625 12.8181L284.657 12.8282L284.688 12.8384L284.72 12.8489L284.751 12.8595L284.783 12.8703L284.814 12.8812L284.846 12.8924L284.877 12.9038L284.909 12.9153L284.94 12.927L284.972 12.9389L285.003 12.951L285.035 12.9633L285.066 12.9757L285.098 12.9883L285.129 13.0011L285.16 13.0141L285.192 13.0272L285.223 13.0405L285.255 13.054L285.286 13.0677L285.318 13.0815L285.349 13.0955L285.381 13.1097L285.412 13.124L285.444 13.1385L285.475 13.1532L285.507 13.168L285.538 13.183L285.57 13.1981L285.601 13.2134L285.633 13.2288L285.664 13.2444L285.696 13.2601L285.727 13.2758V11.8914L285.696 11.8837L285.664 11.8761L285.633 11.8686L285.601 11.8612L285.57 11.8539L285.538 11.8467L285.507 11.8396L285.475 11.8325L285.444 11.8256L285.412 11.8186L285.381 11.8118L285.349 11.805L285.318 11.7983L285.286 11.7917L285.255 11.7851L285.223 11.7786L285.192 11.7721L285.16 11.7658L285.129 11.7594L285.098 11.7532L285.066 11.747L285.035 11.7408L285.003 11.7347L284.972 11.7287L284.94 11.7228L284.909 11.7169L284.877 11.7111L284.846 11.7053L284.814 11.6996L284.783 11.694L284.751 11.6884L284.72 11.6829L284.688 11.6774L284.657 11.672L284.625 11.6667L284.594 11.6614L284.562 11.6562L284.531 11.6511L284.5 11.6461L284.468 11.641L284.437 11.6361L284.405 11.6312L284.374 11.6264L284.342 11.6217L284.311 11.617L284.279 11.6124L284.248 11.6079L284.216 11.6035L284.185 11.5991L284.153 11.5948L284.122 11.5905L284.09 11.5864L284.059 11.5823L284.027 11.5783L283.996 11.5743L283.965 11.5704L283.933 11.5667L283.902 11.563L283.87 11.5594L283.839 11.5558L283.807 11.5523L283.776 11.549L283.744 11.5457L283.713 11.5425L283.681 11.5394L283.65 11.5363L283.618 11.5334L283.587 11.5306L283.555 11.5278L283.524 11.5251L283.492 11.5225L283.461 11.5201L283.429 11.5177L283.398 11.5154L283.367 11.5133L283.335 11.5112L283.304 11.5093L283.272 11.5074L283.241 11.5056L283.209 11.504L283.178 11.5025L283.162 11.5017L283.146 11.5011L283.115 11.4998L283.083 11.4984L283.052 11.4971L283.02 11.496L282.989 11.495L282.957 11.4939L282.926 11.4929L282.894 11.492L282.863 11.4912L282.832 11.4904L282.8 11.4897L282.769 11.4891L282.737 11.4884L282.706 11.488L282.674 11.4876L282.643 11.4872L282.611 11.4869L282.58 11.4868L282.548 11.4866L282.517 11.4865L282.485 11.4865L282.454 11.4866L282.422 11.4867L282.391 11.487L282.359 11.4873L282.328 11.4876L282.296 11.4882L282.265 11.4887L282.234 11.4892L282.202 11.49L282.171 11.4908L282.139 11.4916L282.108 11.4926L282.076 11.4937L282.045 11.4947L282.013 11.496L281.982 11.4973L281.95 11.4986L281.919 11.5001L281.887 11.5017L281.856 11.5032L281.824 11.505L281.793 11.5069L281.761 11.5087L281.73 11.5108L281.699 11.5129L281.667 11.515L281.636 11.5174L281.604 11.5198L281.573 11.5223L281.541 11.525L281.51 11.5276L281.478 11.5304L281.447 11.5333L281.415 11.5363L281.384 11.5394L281.352 11.5427L281.321 11.546L281.289 11.5495L281.258 11.553L281.226 11.5566L281.195 11.5605L281.163 11.5644L281.132 11.5684L281.101 11.5726L281.069 11.5767L281.038 11.5812L281.006 11.5856L280.975 11.5903L280.943 11.5951L280.912 11.5999L280.88 11.6049L280.849 11.6101L280.817 11.6153L280.786 11.6208L280.754 11.6263L280.723 11.632L280.691 11.6378L280.66 11.6438L280.628 11.65L280.597 11.6561L280.565 11.6626L280.534 11.6692L280.503 11.6759L280.471 11.6828L280.44 11.6898L280.408 11.697L280.377 11.7043L280.345 11.712L280.314 11.7196L280.282 11.7275L280.251 11.7356L280.219 11.7438L280.188 11.7523L280.156 11.7608L280.125 11.7696L280.093 11.7786L280.062 11.7878L280.03 11.7971L279.999 11.8068L279.968 11.8165L279.936 11.8266C279.926 11.83 279.915 11.8332 279.905 11.8367L279.873 11.8472C279.863 11.8507 279.852 11.8542 279.842 11.8578L279.81 11.8688L279.779 11.8797C279.768 11.8835 279.758 11.8874 279.747 11.8912C279.737 11.895 279.726 11.8988 279.716 11.9027L279.684 11.9147C279.674 11.9187 279.663 11.9226 279.653 11.9267L279.621 11.9391L279.59 11.9517L279.558 11.9646L279.527 11.9777L279.495 11.9912L279.464 12.005L279.433 12.0189L279.401 12.0333L279.37 12.0479C279.359 12.0529 279.349 12.0579 279.338 12.063L279.307 12.0782L279.275 12.0939L279.244 12.1099C279.233 12.1153 279.223 12.1207 279.212 12.1261C279.202 12.1317 279.191 12.1373 279.181 12.143L279.149 12.16L279.118 12.1775C279.107 12.1834 279.097 12.1894 279.086 12.1954C279.076 12.2015 279.065 12.2075 279.055 12.2136C279.044 12.2198 279.034 12.2261 279.023 12.2324C279.013 12.2387 279.002 12.2451 278.992 12.2516C278.981 12.2581 278.971 12.2645 278.96 12.2711C278.95 12.2778 278.939 12.2845 278.929 12.2912L278.897 12.3118C278.887 12.3188 278.876 12.3257 278.866 12.3328L278.835 12.3544C278.824 12.3618 278.814 12.3692 278.803 12.3766C278.793 12.3841 278.782 12.3916 278.772 12.3992C278.761 12.4069 278.751 12.4146 278.74 12.4224C278.73 12.4303 278.719 12.4383 278.709 12.4464C278.698 12.4545 278.688 12.4627 278.677 12.4709C278.667 12.4792 278.656 12.4876 278.646 12.496Z" fill="#CF3323"/>
<rect x="155.5" y="0.5" width="46" height="29" rx="2.5" fill="white" stroke="#DADADA"/>
<path d="M200.783 20.4033C200.783 20.4033 192.032 26.7081 176 29.5338H198.983C199.977 29.5338 200.783 28.7279 200.783 27.7338V20.4033Z" fill="#FF5000"/>
<path d="M179.604 12.0244C177.767 12.0244 176.281 13.4693 176.281 15.2421C176.281 17.1362 177.707 18.5447 179.604 18.5447C181.453 18.5447 182.927 17.112 182.927 15.2785C182.915 13.4572 181.465 12.0244 179.604 12.0244Z" fill="url(#paint0_radial_504_11018)"/>
<path d="M160.702 12.1455H158.914V18.4108H160.69C161.633 18.4108 162.321 18.1801 162.914 17.6823C163.627 17.0873 164.05 16.201 164.05 15.2782C164.05 13.4326 162.672 12.1455 160.702 12.1455ZM162.128 16.8566C161.741 17.2088 161.246 17.3545 160.46 17.3545H160.134V13.2019H160.46C161.246 13.2019 161.729 13.3476 162.128 13.7118C162.551 14.0882 162.793 14.6711 162.793 15.2782C162.793 15.8731 162.551 16.4802 162.128 16.8566Z" fill="black"/>
<path d="M165.837 12.1455H164.617V18.4108H165.837V12.1455Z" fill="black"/>
<path d="M168.811 14.5501C168.085 14.283 167.868 14.1008 167.868 13.7609C167.868 13.3602 168.255 13.0688 168.774 13.0688C169.137 13.0688 169.439 13.2145 169.753 13.5787L170.394 12.7409C169.874 12.2795 169.246 12.0488 168.557 12.0488C167.457 12.0488 166.611 12.8259 166.611 13.8459C166.611 14.7079 167.01 15.1572 168.146 15.57C168.629 15.74 168.871 15.8493 168.992 15.9222C169.233 16.08 169.354 16.3107 169.354 16.5657C169.354 17.0757 168.956 17.4521 168.412 17.4521C167.832 17.4521 167.36 17.1607 167.082 16.6143L166.297 17.3792C166.853 18.2049 167.53 18.5691 168.46 18.5691C169.729 18.5691 170.611 17.7192 170.611 16.505C170.599 15.5093 170.188 15.0601 168.811 14.5501Z" fill="black"/>
<path d="M170.988 15.2784C170.988 17.124 172.426 18.5567 174.287 18.5567C174.807 18.5567 175.266 18.4475 175.81 18.1925V16.7476C175.326 17.2332 174.891 17.4397 174.335 17.4397C173.115 17.4397 172.233 16.5411 172.233 15.2784C172.233 14.0763 173.127 13.1292 174.275 13.1292C174.855 13.1292 175.29 13.3356 175.798 13.8335V12.3885C175.266 12.1214 174.819 12 174.299 12C172.474 12 170.988 13.4571 170.988 15.2784Z" fill="black"/>
<path d="M185.668 16.3588L184.001 12.1455H182.671L185.33 18.5808H185.983L188.678 12.1455H187.36L185.668 16.3588Z" fill="black"/>
<path d="M189.233 18.4108H192.678V17.3545H190.442V15.6667H192.593V14.5982H190.442V13.2019H192.678V12.1455H189.233V18.4108Z" fill="black"/>
<path d="M197.5 13.9911C197.5 12.8133 196.691 12.1455 195.289 12.1455H193.488V18.4108H194.709V15.8974H194.866L196.546 18.423H198.044L196.074 15.776C196.993 15.5817 197.5 14.9503 197.5 13.9911ZM195.059 15.0353H194.709V13.129H195.083C195.845 13.129 196.256 13.4447 196.256 14.064C196.256 14.6954 195.845 15.0353 195.059 15.0353Z" fill="black"/>
<defs>
<radialGradient id="paint0_radial_504_11018" cx="0" cy="0" r="1" gradientUnits="userSpaceOnUse" gradientTransform="translate(180.725 17.9498) rotate(-110.594) scale(6.2261 6.27801)">
<stop stop-color="#E9780D"/>
<stop offset="0.473958" stop-color="#EE6614"/>
<stop offset="0.815183" stop-color="#E64211"/>
<stop offset="1" stop-color="#883214"/>
</radialGradient>
</defs>
</svg>
