<svg width="150" height="150" viewBox="0 0 150 150" fill="none" xmlns="http://www.w3.org/2000/svg">
<g clip-path="url(#clip0_255_823)">
<path d="M81.0349 4.45429C83.2753 3.57048 85.813 3.90381 87.7492 5.33619L90.6255 7.46407C92.0471 8.51574 93.8148 8.98882 95.5716 8.78777L99.1262 8.38099C101.519 8.10716 103.884 9.08594 105.384 10.9706L107.611 13.7705C108.712 15.1542 110.297 16.0687 112.046 16.3292L115.585 16.8563C117.967 17.2111 119.998 18.7686 120.959 20.9772L122.386 24.2582C123.091 25.8797 124.385 27.1733 126.007 27.8776L129.289 29.3026C131.498 30.2619 133.057 32.292 133.413 34.6739L133.942 38.2124C134.204 39.9613 135.119 41.5457 136.504 42.6458L139.305 44.8717C141.191 46.3701 142.171 48.7345 141.898 51.1275L141.494 54.6823C141.294 56.4393 141.768 58.2067 142.82 59.6276L144.95 62.5027C146.384 64.438 146.718 66.9755 145.836 69.2165L144.525 72.5455C143.877 74.1908 143.878 76.0207 144.527 77.6656L145.84 80.9939C146.723 83.2343 146.39 85.772 144.958 87.7082L142.83 90.5845C141.778 92.0061 141.305 93.7738 141.506 95.5306L141.913 99.0852C142.187 101.478 141.208 103.843 139.323 105.343L136.523 107.57C135.14 108.671 134.225 110.256 133.965 112.005L133.438 115.544C133.083 117.926 131.525 119.957 129.317 120.918L126.036 122.345C124.414 123.05 123.121 124.344 122.416 125.966L120.991 129.248C120.032 131.457 118.002 133.016 115.62 133.372L112.081 133.901C110.333 134.163 108.748 135.078 107.648 136.463L105.422 139.264C103.924 141.15 101.559 142.13 99.1664 141.857L95.6115 141.453C93.8545 141.253 92.0872 141.727 90.6662 142.779L87.7912 144.909C85.8559 146.343 83.3183 146.677 81.0774 145.795L77.7484 144.484C76.103 143.836 74.2731 143.837 72.6282 144.486L69.3 145.799C67.0596 146.682 64.5218 146.349 62.5856 144.917L59.7093 142.789C58.2878 141.737 56.5201 141.264 54.7633 141.465L51.2086 141.872C48.8158 142.146 46.4508 141.167 44.9513 139.282L42.7237 136.482C41.6228 135.099 40.0378 134.184 38.2888 133.924L34.75 133.397C32.3678 133.042 30.3368 131.484 29.3762 129.276L27.9491 125.995C27.2439 124.373 25.9495 123.08 24.3276 122.375L21.0458 120.95C18.8366 119.991 17.2779 117.961 16.9216 115.579L16.3924 112.04C16.1308 110.292 15.2154 108.707 13.831 107.607L11.0298 105.381C9.14423 103.883 8.16403 101.518 8.43641 99.1254L8.84106 95.5705C9.04105 93.8135 8.56691 92.0462 7.51438 90.6252L5.38477 87.7502C3.95122 85.8149 3.61637 83.2773 4.49883 81.0364L5.80976 77.7074C6.45767 76.062 6.45712 74.2321 5.80822 72.5872L4.49529 69.259C3.61148 67.0186 3.94481 64.4808 5.37719 62.5446L7.50507 59.6683C8.55674 58.2468 9.02982 56.4791 8.82877 54.7223L8.42199 51.1676C8.14816 48.7748 9.12694 46.4098 11.0116 44.9103L13.8115 42.6828C15.1952 41.5818 16.1097 39.9968 16.3702 38.2478L16.8973 34.709C17.2521 32.3268 18.8096 30.2958 21.0182 29.3352L24.2992 27.9081C25.9207 27.2029 27.2142 25.9085 27.9186 24.2866L29.3436 21.0048C30.3029 18.7956 32.333 17.2369 34.7149 16.8806L38.2534 16.3514C40.0023 16.0898 41.5867 15.1744 42.6868 13.79L44.9127 10.9888C46.4111 9.10323 48.7755 8.12303 51.1684 8.39542L54.7233 8.80006C56.4803 9.00005 58.2477 8.52591 59.6686 7.47338L62.5437 5.34377C64.479 3.91022 67.0165 3.57538 69.2575 4.45783L72.5865 5.76876C74.2318 6.41667 76.0617 6.41612 77.7066 5.76722L81.0349 4.45429Z" fill="#00569B"/>
<path d="M132.52 75.0581C132.52 43.3466 106.812 17.6392 75.1008 17.6392C43.3893 17.6393 17.682 43.3466 17.6819 75.0581C17.6819 106.77 43.3893 132.477 75.1008 132.477C106.812 132.477 132.52 106.77 132.52 75.0581ZM133.001 75.0581C133.001 107.036 107.078 132.959 75.1008 132.959C43.1233 132.959 17.2006 107.036 17.2006 75.0581C17.2006 43.0807 43.1233 17.1579 75.1008 17.1579C107.078 17.1579 133.001 43.0806 133.001 75.0581Z" fill="white"/>
<path d="M75.4178 137.892C75.6172 137.891 75.78 138.051 75.7815 138.251C75.7829 138.45 75.6225 138.613 75.423 138.614C75.2624 138.615 75.1016 138.616 74.9407 138.616C74.7798 138.616 74.6191 138.615 74.4586 138.614C74.2592 138.613 74.0987 138.45 74.1001 138.251C74.1016 138.051 74.2644 137.891 74.4638 137.892C74.6226 137.893 74.7816 137.894 74.9407 137.894C75.0998 137.894 75.259 137.893 75.4178 137.892ZM71.3814 137.795C71.6964 137.812 72.0121 137.827 72.3283 137.84C72.5275 137.849 72.6825 138.017 72.6744 138.216C72.6662 138.415 72.4979 138.57 72.2986 138.562C71.9788 138.549 71.6596 138.533 71.3411 138.516C71.1419 138.505 70.9896 138.334 71.0007 138.135C71.0119 137.936 71.1823 137.784 71.3814 137.795ZM78.5002 137.795C78.6993 137.784 78.8697 137.936 78.8809 138.135C78.892 138.334 78.7396 138.505 78.5405 138.516C78.222 138.533 77.9028 138.549 77.583 138.562C77.3838 138.57 77.2155 138.415 77.2073 138.216C77.1991 138.017 77.3541 137.849 77.5533 137.84C77.8695 137.827 78.1852 137.812 78.5002 137.795ZM68.3072 137.548C68.6207 137.581 68.935 137.611 69.2499 137.64C69.4485 137.657 69.5952 137.833 69.5774 138.032C69.5595 138.23 69.3839 138.377 69.1853 138.359C68.8668 138.33 68.5489 138.299 68.2317 138.266C68.0334 138.245 67.8896 138.068 67.9104 137.869C67.9312 137.671 68.1088 137.527 68.3072 137.548ZM81.5744 137.548C81.7728 137.527 81.9504 137.671 81.9712 137.869C81.992 138.068 81.8482 138.245 81.6499 138.266C81.3327 138.299 81.0148 138.33 80.6963 138.359C80.4977 138.377 80.3221 138.23 80.3042 138.032C80.2864 137.833 80.4331 137.657 80.6317 137.64C80.9466 137.611 81.2609 137.581 81.5744 137.548ZM64.8364 137.453C64.867 137.255 65.0515 137.121 65.2486 137.151C65.5601 137.199 65.8725 137.245 66.1856 137.289C66.383 137.316 66.5208 137.499 66.4933 137.696C66.4657 137.894 66.2832 138.032 66.0856 138.004C65.769 137.96 65.4531 137.913 65.138 137.865C64.9409 137.834 64.8059 137.65 64.8364 137.453ZM84.6331 137.151C84.8301 137.121 85.0146 137.255 85.0452 137.453C85.0757 137.65 84.9405 137.834 84.7434 137.865C84.4283 137.913 84.1123 137.96 83.7957 138.004C83.5982 138.032 83.4159 137.894 83.3883 137.696C83.3608 137.499 83.4986 137.316 83.6961 137.289C84.0091 137.245 84.3215 137.199 84.6331 137.151ZM61.7867 136.885C61.8269 136.69 62.0178 136.564 62.2132 136.604C62.522 136.668 62.8316 136.729 63.142 136.788C63.338 136.825 63.4667 137.014 63.4295 137.21C63.3922 137.406 63.2031 137.535 63.0072 137.498C62.6932 137.438 62.3801 137.376 62.0677 137.312C61.8724 137.271 61.7465 137.08 61.7867 136.885ZM87.6684 136.604C87.8638 136.564 88.0547 136.69 88.0949 136.885C88.1351 137.08 88.0092 137.271 87.8139 137.312C87.5015 137.376 87.1884 137.438 86.8744 137.498C86.6785 137.535 86.4894 137.406 86.4522 137.21C86.4149 137.014 86.5436 136.825 86.7396 136.788C87.05 136.729 87.3597 136.668 87.6684 136.604ZM58.7687 136.168C58.8185 135.975 59.0154 135.858 59.2085 135.908C59.5138 135.987 59.8201 136.063 60.1272 136.138C60.321 136.184 60.4401 136.38 60.3933 136.573C60.3465 136.767 60.1513 136.887 59.9575 136.84C59.6468 136.765 59.337 136.687 59.0281 136.608C58.835 136.558 58.7189 136.361 58.7687 136.168ZM90.6731 135.908C90.8662 135.858 91.0631 135.975 91.1129 136.168C91.1627 136.361 91.0466 136.558 90.8535 136.608C90.5446 136.687 90.2348 136.765 89.9241 136.84C89.7303 136.887 89.5351 136.767 89.4883 136.573C89.4415 136.38 89.5606 136.184 89.7544 136.138C90.0615 136.063 90.3678 135.987 90.6731 135.908ZM55.7894 135.302C55.8487 135.112 56.0512 135.005 56.2416 135.065C56.5428 135.159 56.8451 135.25 57.1482 135.339C57.3395 135.396 57.4487 135.597 57.3923 135.788C57.3359 135.979 57.1352 136.089 56.9439 136.032C56.6373 135.942 56.3316 135.849 56.0269 135.754C55.8366 135.695 55.7302 135.493 55.7894 135.302ZM93.64 135.065C93.8304 135.006 94.0329 135.112 94.0922 135.302C94.1513 135.493 94.045 135.695 93.8547 135.754C93.55 135.849 93.2441 135.942 92.9375 136.032C92.7462 136.089 92.5454 135.979 92.489 135.788C92.4326 135.596 92.5421 135.396 92.7334 135.339C93.0365 135.25 93.3388 135.159 93.64 135.065ZM52.8567 134.29C52.9253 134.103 53.133 134.007 53.3203 134.075C53.6166 134.184 53.9139 134.29 54.2123 134.395C54.4005 134.46 54.4999 134.666 54.4341 134.854C54.3684 135.043 54.1623 135.142 53.9741 135.076C53.6722 134.971 53.3714 134.863 53.0717 134.754C52.8845 134.685 52.7882 134.478 52.8567 134.29ZM96.5613 134.075C96.7486 134.007 96.956 134.103 97.0246 134.29C97.0932 134.478 96.9972 134.685 96.8099 134.754C96.5102 134.863 96.2094 134.971 95.9076 135.076C95.7193 135.142 95.5132 135.043 95.4475 134.854C95.3817 134.666 95.4811 134.46 95.6693 134.395C95.9677 134.29 96.265 134.184 96.5613 134.075ZM49.9777 133.134C50.0555 132.951 50.2675 132.865 50.4511 132.943C50.7418 133.066 51.0336 133.187 51.3265 133.306C51.5113 133.381 51.6004 133.591 51.5254 133.776C51.4504 133.961 51.2397 134.05 51.0549 133.975C50.7586 133.855 50.4634 133.732 50.1694 133.608C49.9858 133.53 49.8999 133.318 49.9777 133.134ZM99.4305 132.943C99.6141 132.865 99.8259 132.951 99.9037 133.134C99.9815 133.318 99.8958 133.53 99.7122 133.608C99.4181 133.732 99.1227 133.855 98.8264 133.975C98.6417 134.05 98.4312 133.961 98.3562 133.776C98.2812 133.591 98.37 133.381 98.5548 133.306C98.8478 133.187 99.1398 133.066 99.4305 132.943ZM47.1592 131.838C47.246 131.658 47.462 131.583 47.6416 131.67C47.926 131.807 48.2115 131.943 48.4982 132.076C48.6791 132.16 48.7576 132.375 48.6736 132.556C48.5895 132.736 48.3748 132.815 48.194 132.731C47.9039 132.596 47.6151 132.459 47.3274 132.32C47.1479 132.234 47.0725 132.018 47.1592 131.838ZM102.24 131.67C102.42 131.583 102.636 131.658 102.722 131.838C102.809 132.018 102.734 132.234 102.554 132.32C102.266 132.459 101.977 132.596 101.687 132.731C101.507 132.815 101.292 132.736 101.208 132.556C101.124 132.375 101.202 132.16 101.383 132.076C101.67 131.943 101.956 131.807 102.24 131.67ZM44.4081 130.404C44.5036 130.229 44.723 130.165 44.8981 130.26C45.1755 130.411 45.454 130.561 45.7339 130.708C45.9104 130.801 45.9783 131.019 45.8856 131.196C45.7927 131.372 45.5743 131.44 45.3978 131.347C45.1147 131.198 44.8329 131.047 44.5523 130.894C44.3772 130.799 44.3126 130.579 44.4081 130.404ZM104.984 130.26C105.159 130.165 105.378 130.229 105.474 130.404C105.569 130.579 105.504 130.799 105.329 130.894C105.049 131.047 104.767 131.198 104.484 131.347C104.307 131.44 104.089 131.372 103.996 131.196C103.903 131.019 103.971 130.801 104.147 130.708C104.427 130.561 104.706 130.411 104.984 130.26ZM41.7306 128.837C41.8346 128.667 42.0569 128.613 42.2271 128.717C42.4968 128.882 42.768 129.045 43.0404 129.206C43.2121 129.307 43.2691 129.528 43.1678 129.7C43.0664 129.872 42.8448 129.929 42.6731 129.827C42.3976 129.665 42.1234 129.5 41.8506 129.333C41.6804 129.229 41.6267 129.007 41.7306 128.837ZM107.654 128.717C107.824 128.613 108.047 128.667 108.151 128.837C108.255 129.007 108.201 129.229 108.031 129.333C107.758 129.5 107.484 129.665 107.209 129.827C107.037 129.929 106.815 129.872 106.714 129.7C106.612 129.528 106.669 129.307 106.841 129.206C107.114 129.045 107.385 128.882 107.654 128.717ZM39.1336 127.14C39.2458 126.975 39.4703 126.933 39.6352 127.045C39.8966 127.223 40.1594 127.399 40.4236 127.573C40.5901 127.682 40.6362 127.906 40.5265 128.073C40.4168 128.239 40.1929 128.285 40.0263 128.176C39.7591 128 39.4932 127.822 39.2288 127.642C39.064 127.53 39.0214 127.305 39.1336 127.14ZM110.246 127.045C110.411 126.933 110.636 126.975 110.748 127.14C110.86 127.305 110.817 127.53 110.653 127.642C110.388 127.822 110.122 128 109.855 128.176C109.689 128.285 109.465 128.239 109.355 128.073C109.245 127.906 109.291 127.682 109.458 127.573C109.722 127.399 109.985 127.223 110.246 127.045ZM36.6224 125.318C36.7425 125.159 36.969 125.128 37.1282 125.248C37.3807 125.438 37.6347 125.627 37.8901 125.813C38.0511 125.931 38.086 126.157 37.9683 126.318C37.8505 126.479 37.6246 126.514 37.4636 126.396C37.2054 126.208 36.9484 126.017 36.6931 125.824C36.534 125.704 36.5024 125.478 36.6224 125.318ZM112.753 125.248C112.913 125.128 113.139 125.159 113.259 125.318C113.379 125.478 113.347 125.704 113.188 125.824C112.933 126.017 112.676 126.208 112.418 126.396C112.257 126.514 112.031 126.479 111.913 126.318C111.795 126.157 111.831 125.931 111.992 125.813C112.247 125.627 112.501 125.438 112.753 125.248ZM34.2034 123.376C34.3312 123.223 34.5591 123.202 34.7122 123.33C34.9551 123.533 35.1995 123.734 35.4454 123.932C35.6004 124.058 35.6245 124.285 35.4991 124.44C35.3737 124.595 35.1463 124.619 34.9913 124.494C34.7425 124.293 34.4951 124.09 34.2494 123.885C34.0963 123.757 34.0757 123.529 34.2034 123.376ZM115.169 123.33C115.322 123.202 115.55 123.223 115.678 123.376C115.806 123.529 115.785 123.757 115.632 123.885C115.386 124.09 115.139 124.293 114.89 124.494C114.735 124.619 114.508 124.595 114.383 124.44C114.257 124.285 114.281 124.058 114.436 123.932C114.682 123.734 114.927 123.533 115.169 123.33ZM31.8822 121.318C32.0173 121.171 32.2458 121.162 32.3925 121.297C32.6252 121.511 32.8598 121.724 33.0957 121.934C33.2444 122.067 33.2573 122.296 33.1244 122.444C32.9916 122.593 32.7631 122.606 32.6144 122.473C32.3757 122.26 32.1388 122.045 31.9034 121.828C31.7567 121.693 31.7471 121.465 31.8822 121.318ZM117.489 121.297C117.636 121.162 117.864 121.171 117.999 121.318C118.134 121.465 118.125 121.693 117.978 121.828C117.743 122.045 117.506 122.26 117.267 122.473C117.118 122.606 116.89 122.593 116.757 122.444C116.624 122.296 116.637 122.067 116.786 121.934C117.022 121.724 117.256 121.511 117.489 121.297ZM119.707 119.153C119.847 119.011 120.075 119.009 120.217 119.149C120.359 119.289 120.361 119.517 120.221 119.66C119.997 119.888 119.77 120.114 119.542 120.339C119.4 120.478 119.172 120.477 119.032 120.335C118.892 120.193 118.893 119.964 119.035 119.824C119.261 119.602 119.485 119.378 119.707 119.153ZM29.6643 119.149C29.8064 119.009 30.0349 119.011 30.1749 119.153C30.3969 119.378 30.6206 119.602 30.846 119.824C30.988 119.964 30.9899 120.193 30.8499 120.335C30.71 120.477 30.4812 120.479 30.3391 120.339C30.1112 120.114 29.8849 119.888 29.6604 119.66C29.5205 119.517 29.5223 119.289 29.6643 119.149ZM27.5546 116.875C27.7033 116.742 27.9315 116.755 28.0644 116.903C28.2752 117.139 28.4878 117.373 28.7021 117.606C28.8372 117.753 28.8277 117.981 28.6811 118.117C28.5343 118.252 28.3058 118.242 28.1708 118.095C27.954 117.86 27.7391 117.623 27.5259 117.384C27.393 117.236 27.4059 117.007 27.5546 116.875ZM121.817 116.903C121.95 116.754 122.178 116.742 122.327 116.875C122.476 117.007 122.489 117.236 122.356 117.384C122.143 117.623 121.928 117.86 121.711 118.095C121.576 118.242 121.347 118.252 121.201 118.117C121.054 117.981 121.044 117.753 121.18 117.606C121.394 117.374 121.606 117.139 121.817 116.903ZM25.5584 114.5C25.7134 114.374 25.941 114.398 26.0665 114.554C26.2654 114.799 26.4662 115.044 26.6688 115.287C26.7965 115.44 26.7759 115.668 26.6228 115.795C26.4696 115.923 26.242 115.902 26.1142 115.749C25.9093 115.504 25.7062 115.256 25.5049 115.008C25.3795 114.853 25.4034 114.625 25.5584 114.5ZM123.815 114.554C123.941 114.398 124.168 114.374 124.323 114.5C124.478 114.625 124.502 114.853 124.377 115.008C124.175 115.256 123.972 115.504 123.767 115.75C123.64 115.903 123.412 115.923 123.259 115.795C123.106 115.668 123.085 115.44 123.213 115.287C123.415 115.044 123.616 114.799 123.815 114.554ZM125.696 112.109C125.814 111.948 126.04 111.913 126.201 112.03C126.362 112.148 126.397 112.374 126.279 112.535C126.09 112.794 125.899 113.05 125.707 113.306C125.587 113.465 125.36 113.496 125.201 113.376C125.042 113.256 125.01 113.03 125.13 112.871C125.321 112.618 125.509 112.364 125.696 112.109ZM23.6806 112.03C23.8416 111.913 24.0675 111.948 24.1853 112.109C24.372 112.364 24.5607 112.618 24.7512 112.871C24.8713 113.03 24.8396 113.256 24.6805 113.376C24.5213 113.496 24.2948 113.465 24.1746 113.306C23.982 113.05 23.7911 112.793 23.6022 112.535C23.4846 112.374 23.5197 112.148 23.6806 112.03ZM21.9261 109.472C22.0927 109.363 22.3166 109.409 22.4263 109.575C22.6003 109.84 22.7763 110.102 22.9541 110.364C23.0663 110.529 23.0235 110.753 22.8587 110.865C22.6938 110.978 22.4692 110.935 22.357 110.77C22.1771 110.506 21.999 110.24 21.823 109.973C21.7133 109.806 21.7596 109.582 21.9261 109.472ZM127.455 109.575C127.565 109.409 127.789 109.363 127.955 109.472C128.122 109.582 128.168 109.806 128.058 109.973C127.882 110.24 127.704 110.506 127.525 110.77C127.412 110.935 127.188 110.978 127.023 110.865C126.858 110.753 126.815 110.529 126.927 110.364C127.105 110.102 127.281 109.84 127.455 109.575ZM20.2987 106.831C20.4705 106.73 20.692 106.787 20.7934 106.959C20.9542 107.231 21.117 107.502 21.2817 107.772C21.3857 107.942 21.3321 108.164 21.162 108.268C20.9918 108.372 20.7696 108.318 20.6656 108.148C20.4989 107.876 20.334 107.601 20.1713 107.326C20.0699 107.154 20.127 106.933 20.2987 106.831ZM129.088 106.959C129.19 106.787 129.411 106.73 129.583 106.831C129.754 106.933 129.811 107.154 129.71 107.326C129.547 107.601 129.383 107.876 129.216 108.148C129.112 108.319 128.89 108.372 128.72 108.268C128.55 108.164 128.496 107.942 128.6 107.772C128.764 107.502 128.927 107.231 129.088 106.959ZM18.8032 104.113C18.9797 104.021 19.1981 104.088 19.291 104.265C19.4382 104.545 19.5874 104.823 19.7387 105.101C19.8342 105.276 19.7698 105.495 19.5947 105.591C19.4196 105.686 19.2002 105.622 19.1047 105.447C18.9517 105.166 18.8007 104.884 18.6518 104.601C18.559 104.425 18.6267 104.206 18.8032 104.113ZM130.591 104.265C130.683 104.089 130.902 104.021 131.078 104.113C131.255 104.206 131.323 104.425 131.23 104.601C131.081 104.884 130.93 105.166 130.777 105.447C130.681 105.622 130.462 105.686 130.287 105.591C130.112 105.495 130.047 105.276 130.143 105.101C130.294 104.823 130.443 104.545 130.591 104.265ZM17.4434 101.325C17.6243 101.241 17.839 101.32 17.9231 101.5C18.0563 101.787 18.1916 102.073 18.329 102.357C18.4157 102.537 18.3404 102.753 18.1608 102.84C17.9812 102.926 17.7654 102.851 17.6787 102.672C17.5397 102.384 17.4028 102.095 17.268 101.805C17.1841 101.624 17.2626 101.409 17.4434 101.325ZM131.959 101.5C132.043 101.32 132.257 101.241 132.438 101.325C132.619 101.409 132.698 101.624 132.614 101.805C132.479 102.095 132.342 102.384 132.203 102.672C132.116 102.851 131.9 102.926 131.721 102.84C131.541 102.753 131.466 102.537 131.553 102.357C131.69 102.073 131.825 101.787 131.959 101.5ZM16.2227 98.4735C16.4075 98.3985 16.6182 98.4874 16.6932 98.6722C16.8121 98.9651 16.9329 99.2571 17.0561 99.5478C17.1338 99.7314 17.048 99.9432 16.8643 100.021C16.6808 100.099 16.469 100.013 16.3911 99.8296C16.2666 99.5355 16.1441 99.2401 16.0238 98.9438C15.9489 98.759 16.0379 98.5485 16.2227 98.4735ZM133.188 98.6722C133.263 98.4874 133.474 98.3985 133.659 98.4735C133.844 98.5485 133.933 98.759 133.858 98.9438C133.738 99.2401 133.615 99.5355 133.49 99.8296C133.413 100.013 133.201 100.099 133.017 100.021C132.833 99.9432 132.748 99.7314 132.826 99.5478C132.949 99.2571 133.07 98.9651 133.188 98.6722ZM15.1442 95.5648C15.3325 95.499 15.5385 95.5984 15.6043 95.7867C15.7085 96.0851 15.8151 96.3824 15.9236 96.6787C15.9923 96.8659 15.8959 97.0733 15.7087 97.142C15.5214 97.2106 15.314 97.1145 15.2454 96.9273C15.1355 96.6275 15.028 96.3267 14.9226 96.0249C14.8568 95.8366 14.956 95.6306 15.1442 95.5648ZM134.277 95.7867C134.343 95.5984 134.549 95.4991 134.737 95.5648C134.925 95.6306 135.025 95.8366 134.959 96.0249C134.854 96.3267 134.746 96.6275 134.636 96.9273C134.568 97.1145 134.36 97.2105 134.173 97.142C133.986 97.0733 133.889 96.8659 133.958 96.6787C134.067 96.3824 134.173 96.0851 134.277 95.7867ZM14.2111 92.6064C14.4024 92.55 14.6032 92.6595 14.6596 92.8507C14.7489 93.1539 14.8404 93.4561 14.9342 93.7573C14.9934 93.9477 14.8871 94.1502 14.6967 94.2095C14.5063 94.2687 14.3038 94.1624 14.2445 93.972C14.1497 93.6673 14.0571 93.3615 13.9668 93.0548C13.9104 92.8635 14.0199 92.6627 14.2111 92.6064ZM135.222 92.8507C135.278 92.6594 135.479 92.55 135.67 92.6064C135.862 92.6627 135.971 92.8635 135.915 93.0548C135.824 93.3615 135.732 93.6673 135.637 93.972C135.578 94.1623 135.375 94.2687 135.185 94.2095C134.994 94.1502 134.888 93.9477 134.947 93.7573C135.041 93.4561 135.133 93.1539 135.222 92.8507ZM13.4253 89.6056C13.6191 89.5588 13.8143 89.6779 13.8611 89.8718C13.9354 90.1789 14.012 90.4851 14.0907 90.7905C14.1405 90.9836 14.0243 91.1804 13.8312 91.2303C13.6381 91.2801 13.4409 91.1639 13.3911 90.9708C13.3115 90.6619 13.2342 90.3521 13.1591 90.0415C13.1123 89.8476 13.2315 89.6525 13.4253 89.6056ZM136.02 89.8718C136.067 89.6779 136.262 89.5588 136.456 89.6056C136.65 89.6525 136.769 89.8476 136.722 90.0415C136.647 90.3521 136.57 90.6619 136.49 90.9708C136.44 91.1639 136.244 91.2801 136.05 91.2303C135.857 91.1805 135.741 90.9836 135.791 90.7905C135.87 90.4851 135.946 90.1789 136.02 89.8718ZM12.7888 86.5695C12.9848 86.5323 13.1738 86.661 13.2111 86.8569C13.27 87.1673 13.3313 87.477 13.3949 87.7858C13.435 87.9811 13.3091 88.172 13.1138 88.2122C12.9185 88.2524 12.7276 88.1266 12.6874 87.9312C12.6231 87.6189 12.561 87.3057 12.5014 86.9917C12.4642 86.7958 12.5929 86.6067 12.7888 86.5695ZM136.671 86.8569C136.708 86.661 136.897 86.5323 137.093 86.5695C137.289 86.6067 137.417 86.7956 137.38 86.9915C137.321 87.3055 137.258 87.6188 137.194 87.9312C137.154 88.1266 136.963 88.2524 136.768 88.2122C136.572 88.172 136.447 87.9811 136.487 87.7858C136.55 87.477 136.612 87.1673 136.671 86.8569ZM12.3025 83.5057C12.5 83.4781 12.6826 83.6159 12.7102 83.8134C12.7538 84.1264 12.7997 84.4389 12.8479 84.7504C12.8784 84.9474 12.7434 85.132 12.5464 85.1625C12.3493 85.193 12.1648 85.0578 12.1343 84.8607C12.0855 84.5456 12.0389 84.2297 11.9948 83.9131C11.9673 83.7156 12.1051 83.5332 12.3025 83.5057ZM137.579 83.5057C137.776 83.5332 137.914 83.7156 137.887 83.9131C137.843 84.2297 137.796 84.5456 137.747 84.8607C137.717 85.0578 137.532 85.193 137.335 85.1625C137.138 85.132 137.003 84.9474 137.034 84.7504C137.082 84.4388 137.128 84.1264 137.171 83.8134C137.199 83.6159 137.381 83.4782 137.579 83.5057ZM11.9673 80.4216C12.166 80.4037 12.3416 80.5504 12.3594 80.7491C12.3877 81.064 12.4183 81.3782 12.4512 81.6918C12.472 81.8901 12.3279 82.0677 12.1296 82.0885C11.9313 82.1093 11.7537 81.9655 11.7328 81.7672C11.6996 81.4501 11.6684 81.1321 11.6398 80.8136C11.622 80.615 11.7687 80.4394 11.9673 80.4216ZM137.914 80.4216C138.113 80.4394 138.259 80.615 138.242 80.8136C138.213 81.1321 138.182 81.4501 138.149 81.7672C138.128 81.9655 137.95 82.1093 137.752 82.0885C137.554 82.0677 137.41 81.8901 137.43 81.6918C137.463 81.3782 137.494 81.0638 137.522 80.7488C137.54 80.5502 137.716 80.4037 137.914 80.4216ZM11.7828 77.3246C11.982 77.3164 12.1501 77.4714 12.1583 77.6706C12.1712 77.9869 12.1867 78.3026 12.2043 78.6176C12.2154 78.8167 12.0628 78.9871 11.8637 78.9982C11.6646 79.0093 11.4941 78.857 11.483 78.6579C11.4652 78.3393 11.4498 78.0201 11.4367 77.7003C11.4286 77.5011 11.5835 77.3328 11.7828 77.3246ZM138.099 77.3246C138.298 77.3328 138.453 77.5009 138.445 77.7001C138.432 78.0199 138.416 78.3393 138.398 78.6579C138.387 78.857 138.217 79.0094 138.018 78.9982C137.819 78.9871 137.666 78.8166 137.677 78.6176C137.695 78.3026 137.71 77.9869 137.723 77.6706C137.731 77.4714 137.9 77.3164 138.099 77.3246ZM11.3828 75.058C11.3828 74.8972 11.3834 74.7365 11.3845 74.5759C11.386 74.3765 11.549 74.216 11.7484 74.2175C11.9478 74.219 12.1083 74.3817 12.1068 74.5811C12.1057 74.7399 12.1051 74.8989 12.1051 75.058C12.1051 75.2171 12.1057 75.3763 12.1068 75.5352C12.1083 75.7346 11.9478 75.8973 11.7484 75.8988C11.549 75.9003 11.386 75.7398 11.3845 75.5404C11.3834 75.3798 11.3828 75.2189 11.3828 75.058ZM137.777 75.058C137.777 74.8989 137.776 74.7399 137.775 74.5811C137.773 74.3817 137.934 74.2187 138.133 74.2172C138.333 74.2158 138.495 74.3763 138.497 74.5757C138.498 74.7363 138.499 74.8971 138.499 75.058C138.499 75.2189 138.498 75.3798 138.497 75.5404C138.495 75.7398 138.333 75.9002 138.133 75.8988C137.934 75.8973 137.773 75.7344 137.775 75.5349C137.776 75.3761 137.777 75.2171 137.777 75.058ZM11.8637 71.118C12.0628 71.1292 12.2154 71.2996 12.2043 71.4987C12.1867 71.8137 12.1712 72.1294 12.1583 72.4456C12.1501 72.6449 11.982 72.7998 11.7828 72.7917C11.5835 72.7835 11.4286 72.6152 11.4367 72.4159C11.4498 72.0962 11.4652 71.777 11.483 71.4584C11.4941 71.2593 11.6646 71.107 11.8637 71.118ZM138.018 71.118C138.217 71.1069 138.387 71.2593 138.398 71.4584C138.416 71.777 138.432 72.0961 138.445 72.4159C138.453 72.6152 138.298 72.7832 138.099 72.7914C137.9 72.7996 137.731 72.6447 137.723 72.4454C137.71 72.1292 137.695 71.8137 137.677 71.4987C137.666 71.2996 137.819 71.1292 138.018 71.118ZM12.1296 68.0277C12.3279 68.0486 12.472 68.2262 12.4512 68.4245C12.4183 68.7381 12.3877 69.0523 12.3594 69.3672C12.3416 69.5658 12.166 69.7125 11.9673 69.6947C11.7687 69.6769 11.622 69.5013 11.6398 69.3027C11.6684 68.9841 11.6996 68.6662 11.7328 68.3491C11.7537 68.1507 11.9313 68.0069 12.1296 68.0277ZM137.752 68.0275C137.95 68.0067 138.128 68.1507 138.149 68.3491C138.182 68.6662 138.213 68.9841 138.242 69.3027C138.259 69.5013 138.113 69.6769 137.914 69.6947C137.716 69.7125 137.54 69.5659 137.522 69.3672C137.494 69.0523 137.463 68.7381 137.43 68.4245C137.41 68.2262 137.554 68.0483 137.752 68.0275ZM12.1343 65.2553C12.1649 65.0583 12.3493 64.9233 12.5464 64.9538C12.7434 64.9843 12.8784 65.1688 12.8479 65.3659C12.7997 65.6774 12.7538 65.9899 12.7102 66.3029C12.6826 66.5004 12.5 66.6381 12.3025 66.6106C12.105 66.583 11.9673 66.4005 11.9948 66.203C12.0389 65.8864 12.0855 65.5704 12.1343 65.2553ZM137.335 64.9538C137.532 64.9233 137.717 65.0583 137.747 65.2553C137.796 65.5704 137.843 65.8863 137.887 66.203C137.914 66.4005 137.776 66.5831 137.579 66.6106C137.381 66.6381 137.199 66.5002 137.171 66.3026C137.128 65.9897 137.082 65.6774 137.034 65.3659C137.003 65.1688 137.138 64.9843 137.335 64.9538ZM12.6874 62.1851C12.7276 61.9897 12.9185 61.8639 13.1138 61.9041C13.3092 61.9443 13.435 62.1352 13.3949 62.3305C13.3313 62.6393 13.27 62.9489 13.2111 63.2594C13.1738 63.4553 12.9848 63.584 12.7888 63.5468C12.5929 63.5096 12.4642 63.3205 12.5014 63.1245C12.561 62.8106 12.6231 62.4974 12.6874 62.1851ZM136.768 61.9041C136.963 61.8639 137.154 61.9897 137.194 62.1851C137.258 62.4974 137.321 62.8106 137.38 63.1245C137.417 63.3205 137.289 63.5095 137.093 63.5468C136.897 63.584 136.708 63.4553 136.671 63.2594C136.612 62.9489 136.55 62.6393 136.487 62.3305C136.447 62.1352 136.572 61.9442 136.768 61.9041ZM13.3911 59.1455C13.4409 58.9524 13.6381 58.8362 13.8312 58.886C14.0243 58.9358 14.1405 59.1327 14.0907 59.3258C14.012 59.6312 13.9354 59.9374 13.8611 60.2445C13.8143 60.4384 13.6191 60.5575 13.4253 60.5107C13.2315 60.4638 13.1123 60.2687 13.1591 60.0748C13.2342 59.7641 13.3115 59.4544 13.3911 59.1455ZM136.05 58.886C136.244 58.8362 136.44 58.9524 136.49 59.1455C136.57 59.4544 136.647 59.7641 136.722 60.0748C136.769 60.2687 136.65 60.4638 136.456 60.5107C136.262 60.5575 136.067 60.4383 136.02 60.2445C135.946 59.9374 135.87 59.6311 135.791 59.3258C135.741 59.1327 135.857 58.9358 136.05 58.886ZM14.2445 56.1442C14.3038 55.9538 14.5063 55.8475 14.6967 55.9068C14.8871 55.9661 14.9935 56.1685 14.9342 56.359C14.8404 56.6602 14.7489 56.9624 14.6596 57.2655C14.6032 57.4568 14.4024 57.566 14.2111 57.5097C14.0198 57.4533 13.9104 57.2525 13.9668 57.0612C14.0571 56.7546 14.1497 56.4489 14.2445 56.1442ZM135.185 55.9068C135.375 55.8476 135.578 55.9539 135.637 56.1442C135.732 56.4489 135.824 56.7546 135.915 57.0612C135.971 57.2525 135.862 57.4533 135.67 57.5097C135.479 57.566 135.278 57.4568 135.222 57.2655C135.133 56.9624 135.041 56.6601 134.947 56.359C134.888 56.1685 134.994 55.9661 135.185 55.9068ZM15.2454 53.189C15.314 53.0018 15.5214 52.9055 15.7087 52.9741C15.8959 53.0427 15.9923 53.2503 15.9236 53.4376C15.8151 53.7339 15.7085 54.0312 15.6043 54.3296C15.5385 54.5179 15.3325 54.6172 15.1442 54.5515C14.956 54.4857 14.8568 54.2796 14.9226 54.0914C15.028 53.7896 15.1355 53.4887 15.2454 53.189ZM134.173 52.9741C134.36 52.9055 134.568 53.0018 134.636 53.189C134.746 53.4887 134.854 53.7896 134.959 54.0914C135.025 54.2797 134.925 54.4857 134.737 54.5515C134.549 54.6172 134.343 54.5178 134.277 54.3296C134.173 54.0312 134.067 53.7339 133.958 53.4376C133.889 53.2503 133.986 53.0427 134.173 52.9741ZM16.3911 50.2867C16.4689 50.1031 16.6808 50.0173 16.8643 50.095C17.048 50.1728 17.1338 50.3848 17.0561 50.5685C16.9329 50.8591 16.812 51.151 16.6932 51.4439C16.6182 51.6287 16.4075 51.7177 16.2227 51.6428C16.0379 51.5678 15.9488 51.3571 16.0238 51.1723C16.1441 50.876 16.2666 50.5808 16.3911 50.2867ZM133.017 50.095C133.201 50.0172 133.413 50.1031 133.49 50.2867C133.615 50.5808 133.738 50.876 133.858 51.1723C133.933 51.3571 133.844 51.5677 133.659 51.6428C133.474 51.7178 133.263 51.6287 133.188 51.4439C133.07 51.151 132.949 50.8591 132.826 50.5685C132.748 50.3848 132.833 50.1728 133.017 50.095ZM17.6787 47.4448C17.7654 47.2652 17.9812 47.1899 18.1608 47.2766C18.3404 47.3633 18.4157 47.5793 18.329 47.7589C18.1916 48.0433 18.0563 48.3288 17.9231 48.6155C17.839 48.7964 17.6243 48.8749 17.4434 48.7909C17.2625 48.7069 17.184 48.4922 17.268 48.3113C17.4028 48.0212 17.5397 47.7324 17.6787 47.4448ZM131.721 47.2766C131.9 47.1898 132.116 47.2652 132.203 47.4448C132.342 47.7324 132.479 48.0212 132.614 48.3113C132.698 48.4921 132.619 48.7069 132.438 48.7909C132.257 48.8749 132.043 48.7964 131.959 48.6155C131.825 48.3288 131.69 48.0433 131.553 47.7589C131.466 47.5794 131.541 47.3633 131.721 47.2766ZM19.1047 44.6696C19.2002 44.4945 19.4196 44.4299 19.5947 44.5254C19.7698 44.6209 19.8342 44.8404 19.7387 45.0154C19.5874 45.2928 19.4382 45.5714 19.291 45.8513C19.1981 46.0278 18.9797 46.0957 18.8032 46.0029C18.6267 45.91 18.559 45.6916 18.6518 45.5151C18.8007 45.232 18.9517 44.9502 19.1047 44.6696ZM130.287 44.5254C130.462 44.4299 130.681 44.4945 130.777 44.6696C130.93 44.9502 131.081 45.232 131.23 45.5151C131.323 45.6916 131.255 45.9101 131.078 46.0029C130.902 46.0957 130.683 46.0278 130.591 45.8513C130.443 45.5714 130.294 45.2928 130.143 45.0154C130.047 44.8403 130.112 44.6209 130.287 44.5254ZM20.6656 41.9679C20.7695 41.7978 20.9918 41.744 21.162 41.848C21.3322 41.952 21.3857 42.1742 21.2817 42.3444C21.1169 42.6142 20.9543 42.8854 20.7934 43.1577C20.692 43.3295 20.4704 43.3865 20.2987 43.2851C20.127 43.1837 20.0699 42.9622 20.1713 42.7904C20.334 42.5149 20.4989 42.2408 20.6656 41.9679ZM128.72 41.848C128.89 41.744 129.112 41.7978 129.216 41.9679C129.383 42.2407 129.547 42.5149 129.71 42.7904C129.811 42.9622 129.754 43.1837 129.583 43.2851C129.411 43.3864 129.19 43.3294 129.088 43.1577C128.927 42.8854 128.765 42.6141 128.6 42.3444C128.496 42.1742 128.549 41.952 128.72 41.848ZM22.357 39.3462C22.4692 39.1813 22.6938 39.1387 22.8587 39.2509C23.0235 39.3631 23.0663 39.5877 22.9541 39.7526C22.7763 40.0139 22.6003 40.2767 22.4263 40.5409C22.3166 40.7075 22.0927 40.7535 21.9261 40.6438C21.7596 40.5341 21.7133 40.3102 21.823 40.1436C21.999 39.8764 22.1771 39.6105 22.357 39.3462ZM127.023 39.2509C127.188 39.1387 127.412 39.1813 127.525 39.3462C127.704 39.6105 127.882 39.8764 128.058 40.1436C128.168 40.3102 128.122 40.5341 127.955 40.6438C127.789 40.7535 127.565 40.7075 127.455 40.5409C127.281 40.2767 127.105 40.014 126.927 39.7526C126.815 39.5877 126.858 39.3631 127.023 39.2509ZM24.1746 36.8104C24.2948 36.6513 24.5213 36.6196 24.6805 36.7397C24.8397 36.8598 24.8713 37.0864 24.7512 37.2456C24.5607 37.498 24.372 37.752 24.1853 38.0074C24.0675 38.1683 23.8416 38.2033 23.6806 38.0856C23.5197 37.9679 23.4845 37.7419 23.6022 37.581C23.7911 37.3227 23.982 37.0658 24.1746 36.8104ZM125.201 36.7397C125.36 36.6197 125.587 36.6514 125.707 36.8104C125.899 37.0658 126.09 37.3227 126.279 37.581C126.397 37.7419 126.362 37.9678 126.201 38.0856C126.04 38.2033 125.814 38.1684 125.696 38.0074C125.509 37.752 125.321 37.498 125.13 37.2456C125.01 37.0864 125.042 36.8598 125.201 36.7397ZM26.1142 34.3668C26.2419 34.2137 26.4696 34.1931 26.6228 34.3208C26.7759 34.4485 26.7965 34.6764 26.6688 34.8296C26.4662 35.0724 26.2654 35.3168 26.0665 35.5628C25.941 35.7178 25.7134 35.7419 25.5584 35.6164C25.4034 35.491 25.3795 35.2636 25.5049 35.1086C25.7062 34.8598 25.9092 34.6124 26.1142 34.3668ZM123.259 34.3208C123.412 34.193 123.64 34.2136 123.767 34.3668C123.972 34.6124 124.175 34.8598 124.377 35.1086C124.502 35.2636 124.478 35.491 124.323 35.6164C124.168 35.7418 123.941 35.7178 123.815 35.5628C123.616 35.3168 123.415 35.0724 123.213 34.8296C123.085 34.6764 123.105 34.4485 123.259 34.3208ZM28.1708 32.0208C28.3058 31.8741 28.5343 31.8644 28.6811 31.9995C28.8278 32.1346 28.8371 32.3631 28.7021 32.5098C28.4878 32.7426 28.2752 32.9771 28.0644 33.2131C27.9315 33.3617 27.7033 33.3746 27.5546 33.2418C27.4058 33.1089 27.393 32.8804 27.5259 32.7317C27.739 32.4931 27.9541 32.2561 28.1708 32.0208ZM121.201 31.9998C121.347 31.8647 121.576 31.8741 121.711 32.0208C121.928 32.2561 122.143 32.4931 122.356 32.7317C122.489 32.8804 122.476 33.1089 122.327 33.2418C122.178 33.3746 121.95 33.3618 121.817 33.2131C121.606 32.9771 121.394 32.7426 121.18 32.5098C121.044 32.3631 121.054 32.1348 121.201 31.9998ZM30.3391 29.7777C30.4812 29.6377 30.71 29.6396 30.8499 29.7817C30.9898 29.9237 30.988 30.1523 30.846 30.2922C30.6206 30.5142 30.3969 30.7379 30.1749 30.9633C30.0349 31.1054 29.8064 31.1072 29.6643 30.9673C29.5222 30.8273 29.5204 30.5985 29.6604 30.4565C29.8849 30.2285 30.1112 30.0023 30.3391 29.7777ZM119.032 29.7817C119.172 29.6396 119.4 29.6378 119.542 29.7777C119.77 30.0023 119.997 30.2285 120.221 30.4565C120.361 30.5985 120.359 30.8273 120.217 30.9673C120.075 31.1072 119.847 31.1054 119.707 30.9633C119.485 30.7379 119.261 30.5142 119.035 30.2922C118.893 30.1523 118.892 29.9237 119.032 29.7817ZM32.6144 27.6432C32.7631 27.5104 32.9916 27.5232 33.1244 27.6719C33.2572 27.8206 33.2444 28.0489 33.0957 28.1817C32.8598 28.3925 32.6252 28.6052 32.3925 28.8194C32.2458 28.9544 32.0175 28.945 31.8824 28.7984C31.7473 28.6517 31.7567 28.4232 31.9034 28.2881C32.1388 28.0714 32.3757 27.8564 32.6144 27.6432ZM116.757 27.6719C116.89 27.5232 117.118 27.5104 117.267 27.6432C117.506 27.8564 117.743 28.0714 117.978 28.2881C118.125 28.4232 118.134 28.6517 117.999 28.7984C117.864 28.9451 117.636 28.9545 117.489 28.8194C117.256 28.6052 117.022 28.3925 116.786 28.1817C116.637 28.0488 116.624 27.8206 116.757 27.6719ZM34.9913 25.6223C35.1463 25.4968 35.3736 25.5207 35.4991 25.6757C35.6245 25.8308 35.6005 26.0583 35.4454 26.1838C35.1995 26.3828 34.9551 26.5835 34.7122 26.7861C34.5591 26.9139 34.3312 26.8932 34.2034 26.7401C34.0758 26.587 34.0963 26.3593 34.2494 26.2315C34.4951 26.0266 34.7425 25.8236 34.9913 25.6223ZM114.383 25.6757C114.508 25.5207 114.735 25.4968 114.89 25.6223C115.139 25.8236 115.387 26.0266 115.632 26.2315C115.785 26.3593 115.806 26.587 115.678 26.7401C115.55 26.8932 115.323 26.9139 115.169 26.7861C114.927 26.5835 114.682 26.3828 114.436 26.1838C114.281 26.0583 114.257 25.8308 114.383 25.6757ZM37.4636 23.7196C37.6246 23.6019 37.8505 23.6371 37.9683 23.798C38.086 23.9589 38.051 24.1849 37.8901 24.3026C37.6347 24.4894 37.3807 24.6781 37.1282 24.8686C36.969 24.9887 36.7425 24.957 36.6224 24.7978C36.5023 24.6386 36.534 24.4121 36.6931 24.292C36.9485 24.0993 37.2053 23.9085 37.4636 23.7196ZM111.913 23.798C112.031 23.637 112.257 23.6018 112.418 23.7196C112.676 23.9084 112.933 24.0993 113.188 24.292C113.347 24.4121 113.379 24.6386 113.259 24.7978C113.139 24.957 112.913 24.9886 112.753 24.8686C112.501 24.6781 112.247 24.4894 111.992 24.3026C111.831 24.1849 111.795 23.959 111.913 23.798ZM40.0263 21.9403C40.1929 21.8306 40.4168 21.8769 40.5265 22.0434C40.6361 22.21 40.5901 22.4339 40.4236 22.5436C40.1594 22.7176 39.8966 22.8936 39.6352 23.0715C39.4704 23.1836 39.2458 23.1408 39.1336 22.976C39.0214 22.8111 39.064 22.5866 39.2288 22.4743C39.4932 22.2944 39.7591 22.1163 40.0263 21.9403ZM109.355 22.0434C109.465 21.8769 109.689 21.8306 109.855 21.9403C110.123 22.1163 110.388 22.2945 110.653 22.4743C110.817 22.5865 110.86 22.8111 110.748 22.976C110.636 23.1408 110.411 23.1836 110.246 23.0715C109.985 22.8936 109.722 22.7176 109.458 22.5436C109.292 22.4339 109.245 22.21 109.355 22.0434ZM42.6731 20.2887C42.8448 20.1873 43.0664 20.2443 43.1678 20.4161C43.2692 20.5878 43.2121 20.8094 43.0404 20.9108C42.768 21.0716 42.4968 21.2343 42.2271 21.3991C42.0569 21.503 41.8346 21.4495 41.7306 21.2793C41.6267 21.1092 41.6804 20.8869 41.8506 20.7829C42.1234 20.6162 42.3976 20.4513 42.6731 20.2887ZM106.714 20.4161C106.815 20.2443 107.037 20.1873 107.209 20.2887C107.484 20.4513 107.758 20.6162 108.031 20.7829C108.201 20.8869 108.255 21.1092 108.151 21.2793C108.047 21.4494 107.825 21.503 107.655 21.3991C107.385 21.2343 107.114 21.0716 106.841 20.9108C106.669 20.8094 106.612 20.5878 106.714 20.4161ZM45.3978 18.7691C45.5743 18.6763 45.7927 18.744 45.8856 18.9205C45.9784 19.097 45.9105 19.3155 45.7339 19.4083C45.4541 19.5555 45.1755 19.7048 44.8981 19.856C44.723 19.9515 44.5036 19.8871 44.4081 19.7121C44.3126 19.537 44.3772 19.3175 44.5523 19.222C44.8329 19.069 45.1147 18.918 45.3978 18.7691ZM103.996 18.9205C104.089 18.7441 104.307 18.6763 104.484 18.7691C104.767 18.918 105.049 19.069 105.329 19.222C105.504 19.3175 105.569 19.537 105.474 19.7121C105.378 19.8871 105.159 19.9515 104.984 19.856C104.706 19.7048 104.428 19.5555 104.148 19.4083C103.971 19.3155 103.903 19.097 103.996 18.9205ZM48.194 17.3854C48.3748 17.3013 48.5896 17.3799 48.6736 17.5608C48.7576 17.7416 48.6791 17.9564 48.4982 18.0404C48.2115 18.1736 47.926 18.3089 47.6416 18.4463C47.462 18.5331 47.246 18.4577 47.1592 18.2781C47.0726 18.0985 47.1479 17.8827 47.3274 17.796C47.6151 17.657 47.9039 17.5201 48.194 17.3854ZM101.208 17.5608C101.292 17.3799 101.507 17.3013 101.688 17.3854C101.978 17.5201 102.267 17.657 102.554 17.796C102.734 17.8827 102.809 18.0985 102.722 18.2781C102.636 18.4577 102.42 18.5331 102.24 18.4463C101.956 18.3089 101.67 18.1736 101.383 18.0404C101.202 17.9564 101.124 17.7416 101.208 17.5608ZM51.0549 16.1411C51.2397 16.0661 51.4504 16.1552 51.5254 16.34C51.6004 16.5248 51.5113 16.7355 51.3265 16.8105C51.0336 16.9294 50.7418 17.0503 50.4511 17.1734C50.2675 17.2512 50.0555 17.1653 49.9777 16.9817C49.9 16.7981 49.9858 16.5863 50.1694 16.5085C50.4634 16.3839 50.7586 16.2614 51.0549 16.1411ZM98.3562 16.34C98.4312 16.1552 98.6416 16.0662 98.8264 16.1411C99.1227 16.2614 99.4181 16.3839 99.7122 16.5085C99.8958 16.5863 99.9814 16.7981 99.9037 16.9817C99.8259 17.1653 99.6141 17.2511 99.4305 17.1734C99.1398 17.0502 98.8478 16.9294 98.5548 16.8105C98.37 16.7355 98.2812 16.5248 98.3562 16.34ZM53.9741 15.0399C54.1623 14.9741 54.3684 15.0733 54.4341 15.2615C54.4999 15.4498 54.4005 15.6558 54.2123 15.7216C53.9139 15.8258 53.6166 15.9324 53.3203 16.041C53.133 16.1096 52.9253 16.0133 52.8567 15.826C52.7882 15.6388 52.8844 15.4313 53.0717 15.3627C53.3714 15.2529 53.6722 15.1453 53.9741 15.0399ZM95.4475 15.2615C95.5133 15.0733 95.7193 14.9741 95.9076 15.0399C96.2094 15.1453 96.5102 15.2529 96.8099 15.3627C96.9972 15.4313 97.0932 15.6388 97.0246 15.826C96.956 16.0133 96.7486 16.1096 96.5613 16.041C96.265 15.9324 95.9677 15.8258 95.6693 15.7216C95.4811 15.6558 95.3817 15.4498 95.4475 15.2615ZM56.9439 14.0841C57.1352 14.0277 57.336 14.1372 57.3923 14.3285C57.4487 14.5198 57.3395 14.7206 57.1482 14.7769C56.8451 14.8663 56.5428 14.9578 56.2416 15.0515C56.0512 15.1108 55.8487 15.0045 55.7894 14.8141C55.7302 14.6236 55.8365 14.4212 56.0269 14.3619C56.3316 14.267 56.6373 14.1744 56.9439 14.0841ZM92.489 14.3285C92.5454 14.1372 92.7462 14.0278 92.9375 14.0841C93.2441 14.1745 93.55 14.267 93.8547 14.3619C94.0451 14.4212 94.1514 14.6237 94.0922 14.8141C94.0329 15.0045 93.8304 15.1108 93.64 15.0515C93.3388 14.9578 93.0365 14.8663 92.7334 14.7769C92.5421 14.7206 92.4327 14.5198 92.489 14.3285ZM59.9575 13.2764C60.1513 13.2296 60.3465 13.3488 60.3933 13.5426C60.4402 13.7365 60.321 13.9316 60.1272 13.9785C59.8201 14.0527 59.5138 14.1293 59.2085 14.208C59.0154 14.2578 58.8185 14.1416 58.7687 13.9485C58.7189 13.7554 58.835 13.5583 59.0281 13.5085C59.337 13.4289 59.6468 13.3515 59.9575 13.2764ZM89.4883 13.5426C89.5352 13.3488 89.7303 13.2296 89.9241 13.2764C90.2348 13.3515 90.5446 13.4289 90.8535 13.5085C91.0466 13.5583 91.1627 13.7554 91.1129 13.9485C91.0631 14.1416 90.8662 14.2578 90.6731 14.208C90.3678 14.1293 90.0616 14.0527 89.7544 13.9785C89.5606 13.9316 89.4414 13.7365 89.4883 13.5426ZM63.0072 12.6187C63.2031 12.5815 63.3922 12.7102 63.4295 12.9061C63.4667 13.1021 63.338 13.2912 63.142 13.3284C62.8316 13.3874 62.522 13.4487 62.2132 13.5122C62.0178 13.5524 61.8269 13.4265 61.7867 13.2312C61.7465 13.0358 61.8724 12.8449 62.0677 12.8047C62.3801 12.7405 62.6932 12.6784 63.0072 12.6187ZM86.4522 12.9061C86.4894 12.7102 86.6783 12.5816 86.8742 12.6187C87.1882 12.6784 87.5015 12.7405 87.8139 12.8047C88.0092 12.8449 88.1351 13.0358 88.0949 13.2312C88.0547 13.4265 87.8637 13.5523 87.6684 13.5122C87.3597 13.4487 87.05 13.3874 86.7396 13.3284C86.5437 13.2912 86.4149 13.1021 86.4522 12.9061ZM66.0856 12.1121C66.2831 12.0846 66.4657 12.2224 66.4933 12.4198C66.5208 12.6174 66.3828 12.8 66.1853 12.8275C65.8723 12.8711 65.5601 12.917 65.2486 12.9653C65.0515 12.9958 64.867 12.8608 64.8364 12.6637C64.8059 12.4667 64.9409 12.2822 65.138 12.2516C65.4531 12.2028 65.769 12.1563 66.0856 12.1121ZM83.7957 12.1121C84.1124 12.1563 84.4283 12.2028 84.7434 12.2516C84.9405 12.2821 85.0757 12.4666 85.0452 12.6637C85.0146 12.8608 84.8301 12.9957 84.6331 12.9653C84.3215 12.917 84.0091 12.8711 83.6961 12.8275C83.4985 12.7999 83.3608 12.6174 83.3883 12.4198C83.4159 12.2224 83.5983 12.0846 83.7957 12.1121ZM69.1853 11.7572C69.384 11.7393 69.5596 11.886 69.5774 12.0847C69.5952 12.2833 69.4485 12.4589 69.2499 12.4767C68.935 12.505 68.6207 12.5356 68.3072 12.5685C68.1088 12.5893 67.931 12.4453 67.9102 12.2469C67.8894 12.0486 68.0334 11.871 68.2317 11.8502C68.5489 11.8169 68.8668 11.7857 69.1853 11.7572ZM80.6963 11.7572C81.0148 11.7857 81.3327 11.8169 81.6499 11.8502C81.8482 11.871 81.992 12.0486 81.9712 12.2469C81.9504 12.4453 81.7728 12.5893 81.5744 12.5685C81.2608 12.5356 80.9464 12.505 80.6315 12.4767C80.4329 12.4588 80.2864 12.2833 80.3042 12.0847C80.3221 11.886 80.4977 11.7393 80.6963 11.7572ZM72.2986 11.5541C72.4979 11.5459 72.6659 11.7009 72.6741 11.9001C72.6823 12.0994 72.5273 12.2675 72.328 12.2756C72.0119 12.2886 71.6963 12.304 71.3814 12.3216C71.1823 12.3328 71.0118 12.1801 71.0007 11.981C70.9896 11.7819 71.142 11.6114 71.3411 11.6003C71.6596 11.5825 71.9788 11.5671 72.2986 11.5541ZM77.5828 11.5541C77.9026 11.5671 78.222 11.5825 78.5405 11.6003C78.7396 11.6115 78.892 11.7819 78.8809 11.981C78.8698 12.1801 78.6993 12.3327 78.5002 12.3216C78.1852 12.304 77.8695 12.2886 77.5533 12.2756C77.3541 12.2675 77.1991 12.0994 77.2073 11.9001C77.2154 11.7009 77.3835 11.546 77.5828 11.5541ZM75.423 11.5019C75.6225 11.5034 75.7829 11.6663 75.7815 11.8657C75.78 12.0652 75.617 12.2257 75.4176 12.2242C75.2588 12.223 75.0998 12.2224 74.9407 12.2224C74.7816 12.2224 74.6226 12.223 74.4638 12.2242C74.2644 12.2256 74.1014 12.0652 74.0999 11.8657C74.0984 11.6664 74.2589 11.5034 74.4583 11.5019C74.6189 11.5007 74.7798 11.5001 74.9407 11.5001C75.1016 11.5001 75.2624 11.5007 75.423 11.5019Z" fill="#4A87B8"/>
<path d="M89.743 54.4247V50.7717H82.3132V47.7255L90.1888 36.197H93.1112V47.7132H95.3649V50.7717H93.1112V54.4247H89.743ZM89.743 47.7132V41.5093L85.57 47.7132H89.743Z" fill="white"/>
<path d="M80.555 51.1928V54.4247H68.3578C68.4899 53.2029 68.8861 52.0472 69.5466 50.9575C70.207 49.8595 71.5113 48.4066 73.4596 46.5987C75.0281 45.1375 75.9898 44.1469 76.3448 43.6268C76.8236 42.9086 77.063 42.1986 77.063 41.4969C77.063 40.7209 76.8525 40.1265 76.4315 39.7138C76.0187 39.2927 75.445 39.0822 74.7103 39.0822C73.9838 39.0822 73.4059 39.301 72.9766 39.7385C72.5474 40.1761 72.2997 40.9025 72.2337 41.9179L68.7664 41.5712C68.9728 39.656 69.6209 38.2815 70.7106 37.4477C71.8003 36.6139 73.1624 36.197 74.7969 36.197C76.5883 36.197 77.9959 36.6799 79.0195 37.6458C80.0432 38.6117 80.555 39.8128 80.555 41.2492C80.555 42.0665 80.4064 42.8466 80.1092 43.5896C79.8203 44.3243 79.358 45.0962 78.7223 45.9052C78.3013 46.4418 77.5418 47.2137 76.4439 48.2209C75.3459 49.228 74.6483 49.8967 74.3511 50.2269C74.0622 50.5571 73.8269 50.8791 73.6453 51.1928H80.555Z" fill="white"/>
<path d="M57.6713 44.6298C56.7714 44.2501 56.1152 43.73 55.7024 43.0695C55.2979 42.4009 55.0956 41.6703 55.0956 40.8778C55.0956 39.5239 55.5662 38.4053 56.5073 37.522C57.4566 36.6387 58.8023 36.197 60.5441 36.197C62.2695 36.197 63.6068 36.6387 64.5562 37.522C65.5138 38.4053 65.9926 39.5239 65.9926 40.8778C65.9926 41.7198 65.7739 42.471 65.3363 43.1315C64.8988 43.7836 64.2838 44.2831 63.4913 44.6298C64.4984 45.0343 65.262 45.6246 65.7821 46.4006C66.3105 47.1766 66.5746 48.0723 66.5746 49.0877C66.5746 50.7635 66.038 52.1256 64.9648 53.174C63.8999 54.2225 62.48 54.7467 60.7051 54.7467C59.054 54.7467 57.6795 54.3133 56.5816 53.4465C55.2855 52.4228 54.6375 51.0194 54.6375 49.2363C54.6375 48.2539 54.881 47.3541 55.368 46.5368C55.8551 45.7112 56.6229 45.0756 57.6713 44.6298ZM58.3895 41.1254C58.3895 41.8189 58.5835 42.3596 58.9715 42.7476C59.3677 43.1356 59.892 43.3296 60.5441 43.3296C61.2046 43.3296 61.7329 43.1356 62.1291 42.7476C62.5254 42.3513 62.7235 41.8065 62.7235 41.113C62.7235 40.4609 62.5254 39.9408 62.1291 39.5528C61.7411 39.1565 61.2252 38.9584 60.5813 38.9584C59.9126 38.9584 59.3801 39.1565 58.9839 39.5528C58.5876 39.949 58.3895 40.4732 58.3895 41.1254ZM58.0675 48.9019C58.0675 49.8595 58.3111 50.6066 58.7981 51.1432C59.2934 51.6798 59.9085 51.9481 60.6432 51.9481C61.3614 51.9481 61.9558 51.6922 62.4263 51.1804C62.8969 50.6603 63.1322 49.9132 63.1322 48.9391C63.1322 48.0888 62.8928 47.4077 62.414 46.8959C61.9351 46.3758 61.3284 46.1158 60.5937 46.1158C59.7434 46.1158 59.1077 46.4088 58.6867 46.9949C58.2739 47.5811 58.0675 48.2167 58.0675 48.9019Z" fill="white"/>
<path d="M44.5086 60.4665C44.5958 60.2838 44.8559 60.2838 44.9431 60.4665L46.8885 64.5432C46.9236 64.6168 46.9935 64.6676 47.0743 64.6783L51.5526 65.2686C51.7534 65.295 51.8337 65.5425 51.6869 65.6819L48.4108 68.7917C48.3517 68.8479 48.325 68.9301 48.3399 69.0102L49.1623 73.4517C49.1992 73.6509 48.9887 73.8038 48.8107 73.7072L44.8407 71.5525C44.7691 71.5136 44.6827 71.5136 44.611 71.5525L40.641 73.7072C40.463 73.8038 40.2526 73.6509 40.2894 73.4517L41.1119 69.0102C41.1267 68.9301 41.1 68.8479 41.0409 68.7917L37.7649 65.6819C37.618 65.5425 37.6984 65.295 37.8991 65.2686L42.3775 64.6783C42.4583 64.6676 42.5282 64.6168 42.5633 64.5432L44.5086 60.4665Z" fill="#FDC20E"/>
<path d="M59.6759 60.4666C59.7632 60.2839 60.0233 60.2839 60.1105 60.4666L62.0558 64.5433C62.0909 64.6169 62.1608 64.6677 62.2416 64.6783L66.72 65.2687C66.9207 65.2951 67.0011 65.5425 66.8542 65.682L63.5782 68.7918C63.5191 68.8479 63.4924 68.9301 63.5072 69.0103L64.3297 73.4518C64.3665 73.6509 64.1561 73.8038 63.9781 73.7073L60.0081 71.5525C59.9364 71.5137 59.85 71.5137 59.7784 71.5525L55.8084 73.7073C55.6304 73.8038 55.4199 73.6509 55.4568 73.4518L56.2792 69.0103C56.2941 68.9301 56.2674 68.8479 56.2083 68.7918L52.9322 65.682C52.7853 65.5425 52.8657 65.2951 53.0665 65.2687L57.5448 64.6783C57.6256 64.6677 57.6955 64.6169 57.7306 64.5433L59.6759 60.4666Z" fill="#FDC20E"/>
<path d="M74.8432 60.4666C74.9304 60.2839 75.1905 60.2839 75.2777 60.4666L77.2231 64.5433C77.2582 64.6169 77.3281 64.6677 77.4089 64.6783L81.8872 65.2687C82.088 65.2951 82.1683 65.5425 82.0215 65.682L78.7454 68.7918C78.6863 68.8479 78.6596 68.9301 78.6745 69.0103L79.4969 73.4518C79.5338 73.6509 79.3233 73.8038 79.1453 73.7073L75.1753 71.5525C75.1037 71.5137 75.0172 71.5137 74.9456 71.5525L70.9756 73.7073C70.7976 73.8038 70.5872 73.6509 70.624 73.4518L71.4465 69.0103C71.4613 68.9301 71.4346 68.8479 71.3755 68.7918L68.0994 65.682C67.9526 65.5425 68.033 65.2951 68.2337 65.2687L72.7121 64.6783C72.7929 64.6677 72.8628 64.6169 72.8979 64.5433L74.8432 60.4666Z" fill="#FDC20E"/>
<path d="M90.0104 60.4666C90.0976 60.2839 90.3578 60.2839 90.445 60.4666L92.3903 64.5433C92.4254 64.6169 92.4953 64.6677 92.5761 64.6783L97.0544 65.2687C97.2552 65.2951 97.3356 65.5425 97.1887 65.682L93.9127 68.7918C93.8536 68.8479 93.8268 68.9301 93.8417 69.0103L94.6641 73.4518C94.701 73.6509 94.4905 73.8038 94.3126 73.7073L90.3425 71.5525C90.2709 71.5137 90.1845 71.5137 90.1129 71.5525L86.1428 73.7073C85.9649 73.8038 85.7544 73.6509 85.7913 73.4518L86.6137 69.0103C86.6286 68.9301 86.6018 68.8479 86.5427 68.7918L83.2667 65.682C83.1198 65.5425 83.2002 65.2951 83.401 65.2687L87.8793 64.6783C87.9601 64.6677 88.03 64.6169 88.0651 64.5433L90.0104 60.4666Z" fill="#FDC20E"/>
<path d="M105.178 60.4666C105.265 60.2839 105.525 60.2839 105.612 60.4666L107.558 64.5433C107.593 64.6169 107.663 64.6677 107.743 64.6783L112.222 65.2687C112.422 65.2951 112.503 65.5425 112.356 65.682L109.08 68.7918C109.021 68.8479 108.994 68.9301 109.009 69.0103L109.831 73.4518C109.868 73.6509 109.658 73.8038 109.48 73.7073L105.51 71.5525C105.438 71.5137 105.352 71.5137 105.28 71.5525L101.31 73.7073C101.132 73.8038 100.922 73.6509 100.959 73.4518L101.781 69.0103C101.796 68.9301 101.769 68.8479 101.71 68.7918L98.4339 65.682C98.2871 65.5425 98.3674 65.2951 98.5682 65.2687L103.047 64.6783C103.127 64.6677 103.197 64.6169 103.232 64.5433L105.178 60.4666Z" fill="#FDC20E"/>
<g clip-path="url(#clip1_255_823)">
<mask id="mask0_255_823" style="mask-type:luminance" maskUnits="userSpaceOnUse" x="40" y="109" width="71" height="13">
<path d="M110.277 109.846H40.2191V121.523H110.277V109.846Z" fill="white"/>
</mask>
<g mask="url(#mask0_255_823)">
<path d="M42.8852 118.891C42.2592 118.891 41.7451 118.755 41.3429 118.482C40.944 118.206 40.6991 117.822 40.6083 117.329L41.4937 117.188C41.5651 117.473 41.7289 117.7 41.9851 117.869C42.2414 118.035 42.5592 118.117 42.9387 118.117C43.2987 118.117 43.5809 118.043 43.7852 117.893C43.9896 117.744 44.0917 117.542 44.0917 117.285C44.0917 117.136 44.0577 117.016 43.9896 116.925C43.9214 116.831 43.7804 116.744 43.5663 116.663C43.3555 116.581 43.036 116.484 42.6079 116.371C42.144 116.247 41.7792 116.119 41.5132 115.986C41.2472 115.853 41.0575 115.699 40.944 115.524C40.8305 115.349 40.7737 115.137 40.7737 114.887C40.7737 114.579 40.858 114.309 41.0267 114.079C41.1953 113.846 41.4305 113.666 41.7321 113.539C42.037 113.413 42.3905 113.349 42.7927 113.349C43.1917 113.349 43.5484 113.413 43.8631 113.539C44.1777 113.666 44.4307 113.846 44.622 114.079C44.8166 114.309 44.9318 114.579 44.9674 114.887L44.082 115.047C44.0398 114.765 43.9036 114.543 43.6733 114.381C43.4463 114.219 43.1528 114.133 42.7927 114.123C42.4522 114.11 42.1749 114.17 41.9608 114.303C41.75 114.436 41.6446 114.616 41.6446 114.843C41.6446 114.969 41.6835 115.078 41.7613 115.169C41.8424 115.26 41.99 115.346 42.204 115.427C42.4214 115.508 42.736 115.6 43.1479 115.704C43.6117 115.821 43.9766 115.949 44.2425 116.088C44.5117 116.225 44.7031 116.387 44.8166 116.575C44.9302 116.76 44.9869 116.989 44.9869 117.261C44.9869 117.767 44.8004 118.166 44.4274 118.458C44.0544 118.746 43.5403 118.891 42.8852 118.891Z" fill="white"/>
<path d="M52.0463 118.75L52.0511 115.388C52.0511 114.995 51.9457 114.689 51.7349 114.468C51.5273 114.245 51.2565 114.133 50.9224 114.133C50.7278 114.133 50.5429 114.178 50.3678 114.269C50.1926 114.357 50.0499 114.496 49.9397 114.687C49.8294 114.875 49.7742 115.117 49.7742 115.412L49.3169 115.227C49.3104 114.854 49.3867 114.528 49.5456 114.249C49.7078 113.967 49.9283 113.748 50.2072 113.593C50.4862 113.437 50.8008 113.359 51.1511 113.359C51.6992 113.359 52.1306 113.526 52.4452 113.86C52.7598 114.191 52.9171 114.637 52.9171 115.198L52.9123 118.75H52.0463ZM45.7605 118.75V113.495H46.5341V114.901H46.6314V118.75H45.7605ZM48.9082 118.75L48.9131 115.422C48.9131 115.02 48.8093 114.705 48.6017 114.478C48.3942 114.248 48.1185 114.133 47.7747 114.133C47.4341 114.133 47.1584 114.249 46.9476 114.483C46.7368 114.717 46.6314 115.026 46.6314 115.412L46.174 115.14C46.174 114.799 46.2551 114.494 46.4173 114.225C46.5795 113.956 46.8 113.745 47.0789 113.593C47.3579 113.437 47.6741 113.359 48.0277 113.359C48.3812 113.359 48.6893 113.434 48.952 113.583C49.2147 113.732 49.4175 113.946 49.5602 114.225C49.7029 114.501 49.7742 114.83 49.7742 115.213L49.7694 118.75H48.9082Z" fill="white"/>
<path d="M57.9481 113.965C58.043 113.835 58.2269 113.805 58.3462 113.913C58.6929 114.228 58.953 114.628 59.0986 115.077C59.2332 115.491 59.2644 115.929 59.1931 116.355V118.604L58.2679 117.973C58.2199 118.013 58.1707 118.052 58.1197 118.089C57.6594 118.424 57.1049 118.604 56.536 118.604C55.9669 118.604 55.4124 118.424 54.9521 118.089C54.4918 117.755 54.1492 117.283 53.9733 116.742C53.7975 116.201 53.7975 115.618 53.9733 115.077C54.119 114.628 54.3791 114.228 54.7257 113.913C54.8451 113.805 55.029 113.835 55.1237 113.965L55.3921 114.335C55.4553 114.422 55.4352 114.543 55.3558 114.615C55.1322 114.819 54.9645 115.078 54.8703 115.368C54.756 115.72 54.756 116.099 54.8703 116.45C54.9846 116.802 55.2073 117.109 55.5066 117.326C55.8058 117.544 56.1661 117.661 56.536 117.661C56.9058 117.661 57.2662 117.544 57.5654 117.326C57.8646 117.109 58.0875 116.802 58.2018 116.45C58.316 116.099 58.316 115.72 58.2018 115.368C58.1076 115.078 57.9398 114.819 57.7163 114.615C57.6369 114.543 57.6166 114.422 57.6798 114.335L57.9481 113.965Z" fill="#22B2FF"/>
<path d="M56.6932 112.766C56.8545 112.766 56.9851 112.896 56.9851 113.057V115.168C56.9851 115.169 56.985 115.17 56.985 115.171V115.655C56.985 115.816 56.8543 115.947 56.6931 115.947H56.3788C56.2175 115.947 56.0869 115.816 56.0869 115.655V113.057C56.0869 112.896 56.2175 112.766 56.3788 112.766H56.6932Z" fill="#22B2FF"/>
<path d="M60.3607 118.75V113.495H61.1343V114.765L61.0077 114.6C61.0695 114.438 61.1489 114.288 61.2462 114.152C61.3468 114.016 61.4586 113.904 61.5819 113.816C61.7181 113.706 61.8722 113.622 62.044 113.563C62.2159 113.505 62.3911 113.471 62.5694 113.461C62.7479 113.448 62.9149 113.46 63.0707 113.495V114.308C62.8889 114.259 62.6896 114.246 62.4722 114.269C62.2549 114.292 62.0538 114.371 61.8689 114.507C61.7003 114.627 61.5689 114.773 61.4748 114.945C61.384 115.117 61.3208 115.304 61.285 115.505C61.2494 115.703 61.2316 115.905 61.2316 116.113V118.75H60.3607Z" fill="white"/>
<path d="M67.1866 118.75C66.8751 118.811 66.567 118.836 66.2621 118.823C65.9606 118.813 65.6913 118.753 65.4545 118.643C65.2178 118.529 65.0377 118.354 64.9145 118.117C64.8107 117.91 64.7539 117.7 64.7442 117.49C64.7377 117.276 64.7345 117.034 64.7345 116.765V112.036H65.6005V116.726C65.6005 116.94 65.6021 117.123 65.6053 117.276C65.6119 117.428 65.6459 117.559 65.7075 117.67C65.8242 117.877 66.0092 117.999 66.2621 118.035C66.5184 118.07 66.8265 118.06 67.1866 118.005V118.75ZM63.6691 114.211V113.495H67.1866V114.211H63.6691Z" fill="white"/>
<path d="M70.5533 118.896C70.0214 118.896 69.569 118.777 69.1959 118.541C68.8262 118.3 68.5441 117.971 68.3494 117.553C68.1548 117.134 68.0543 116.658 68.0479 116.123C68.0543 115.574 68.1564 115.093 68.3544 114.678C68.5553 114.259 68.8424 113.933 69.2155 113.7C69.5884 113.466 70.0376 113.349 70.5631 113.349C71.1177 113.349 71.5945 113.486 71.9934 113.758C72.3957 114.031 72.6648 114.403 72.801 114.877L71.9448 115.135C71.8345 114.83 71.6545 114.593 71.4048 114.425C71.1583 114.256 70.8744 114.172 70.5533 114.172C70.1934 114.172 69.8965 114.256 69.663 114.425C69.4295 114.59 69.2559 114.82 69.1425 115.115C69.029 115.407 68.9706 115.743 68.9674 116.123C68.9738 116.706 69.1084 117.178 69.3711 117.538C69.6371 117.895 70.0312 118.073 70.5533 118.073C70.8972 118.073 71.1825 117.996 71.4096 117.84C71.6367 117.681 71.8085 117.452 71.9253 117.154L72.801 117.383C72.6194 117.872 72.3356 118.247 71.9497 118.506C71.5637 118.766 71.0983 118.896 70.5533 118.896ZM75.5454 118.886C75.2081 118.886 74.9178 118.832 74.6746 118.725C74.4345 118.618 74.2352 118.476 74.0762 118.297C73.9173 118.119 73.7923 117.921 73.7015 117.704C73.6108 117.486 73.5458 117.264 73.507 117.037C73.4712 116.81 73.4534 116.598 73.4534 116.4V113.495H74.3292V116.127C74.3292 116.374 74.3519 116.612 74.3973 116.843C74.4427 117.073 74.5189 117.28 74.6259 117.465C74.7362 117.65 74.8822 117.796 75.0637 117.903C75.2487 118.01 75.479 118.064 75.7547 118.064C75.972 118.064 76.1698 118.026 76.3481 117.952C76.5266 117.877 76.679 117.767 76.8056 117.621C76.932 117.472 77.0293 117.284 77.0975 117.057C77.1655 116.83 77.1996 116.565 77.1996 116.264L77.7689 116.439C77.7689 116.945 77.6763 117.381 77.4915 117.747C77.3098 118.114 77.0521 118.396 76.718 118.594C76.3871 118.789 75.9962 118.886 75.5454 118.886ZM77.2968 118.75V117.344H77.1996V113.495H78.0704V118.75H77.2968ZM81.1744 118.891C80.5484 118.891 80.0342 118.755 79.6321 118.482C79.2332 118.206 78.9883 117.822 78.8975 117.329L79.7829 117.188C79.8543 117.473 80.018 117.7 80.2743 117.869C80.5305 118.035 80.8484 118.117 81.2278 118.117C81.5879 118.117 81.87 118.043 82.0744 117.893C82.2787 117.744 82.3809 117.542 82.3809 117.285C82.3809 117.136 82.3469 117.016 82.2787 116.925C82.2107 116.831 82.0696 116.744 81.8554 116.663C81.6447 116.581 81.3252 116.484 80.8971 116.371C80.4333 116.247 80.0684 116.119 79.8024 115.986C79.5364 115.853 79.3466 115.699 79.2332 115.524C79.1197 115.349 79.0629 115.137 79.0629 114.887C79.0629 114.579 79.1473 114.309 79.3158 114.079C79.4846 113.846 79.7197 113.666 80.0214 113.539C80.3261 113.413 80.6798 113.349 81.0819 113.349C81.4809 113.349 81.8376 113.413 82.1523 113.539C82.4668 113.666 82.7198 113.846 82.9113 114.079C83.1058 114.309 83.221 114.579 83.2566 114.887L82.3712 115.047C82.3291 114.765 82.1927 114.543 81.9626 114.381C81.7355 114.219 81.442 114.133 81.0819 114.123C80.7414 114.11 80.4641 114.17 80.2499 114.303C80.0392 114.436 79.9338 114.616 79.9338 114.843C79.9338 114.969 79.9726 115.078 80.0506 115.169C80.1316 115.26 80.2791 115.346 80.4932 115.427C80.7106 115.508 81.0251 115.6 81.4371 115.704C81.9008 115.821 82.2657 115.949 82.5318 116.088C82.8009 116.225 82.9923 116.387 83.1058 116.575C83.2194 116.76 83.2762 116.989 83.2762 117.261C83.2762 117.767 83.0896 118.166 82.7166 118.458C82.3437 118.746 81.8295 118.891 81.1744 118.891ZM87.0395 118.75C86.7281 118.811 86.42 118.836 86.1151 118.823C85.8134 118.813 85.5443 118.753 85.3076 118.643C85.0708 118.529 84.8907 118.354 84.7675 118.117C84.6638 117.91 84.607 117.7 84.5972 117.49C84.5908 117.276 84.5874 117.034 84.5874 116.765V112.036H85.4535V116.726C85.4535 116.94 85.4551 117.123 85.4583 117.276C85.4649 117.428 85.4989 117.559 85.5605 117.67C85.6773 117.877 85.8622 117.999 86.1151 118.035C86.3714 118.07 86.6795 118.06 87.0395 118.005V118.75ZM83.522 114.211V113.495H87.0395V114.211H83.522ZM89.8825 118.896C89.3603 118.896 88.9094 118.777 88.5299 118.541C88.1537 118.304 87.8634 117.976 87.659 117.558C87.4547 117.139 87.3525 116.659 87.3525 116.118C87.3525 115.566 87.4563 115.083 87.664 114.668C87.8715 114.253 88.1651 113.93 88.5445 113.7C88.924 113.466 89.3701 113.349 89.8825 113.349C90.4079 113.349 90.8604 113.468 91.2399 113.705C91.6194 113.938 91.9097 114.264 92.1106 114.682C92.315 115.098 92.4171 115.576 92.4171 116.118C92.4171 116.666 92.315 117.149 92.1106 117.567C91.9063 117.983 91.6144 118.309 91.2349 118.545C90.8554 118.779 90.4046 118.896 89.8825 118.896ZM89.8825 118.073C90.4273 118.073 90.8328 117.892 91.0987 117.529C91.3647 117.165 91.4976 116.695 91.4976 116.118C91.4976 115.524 91.3631 115.052 91.0939 114.702C90.8246 114.348 90.4209 114.172 89.8825 114.172C89.516 114.172 89.2143 114.254 88.9776 114.42C88.7407 114.585 88.5639 114.814 88.4472 115.106C88.3304 115.398 88.272 115.735 88.272 116.118C88.272 116.708 88.4084 117.182 88.6807 117.538C88.9532 117.895 89.3537 118.073 89.8825 118.073ZM99.526 118.75L99.5308 115.388C99.5308 114.995 99.4254 114.689 99.2147 114.468C99.007 114.245 98.7362 114.133 98.4022 114.133C98.2076 114.133 98.0227 114.178 97.8475 114.269C97.6724 114.356 97.5296 114.496 97.4194 114.687C97.3091 114.875 97.2539 115.117 97.2539 115.412L96.7967 115.227C96.7902 114.854 96.8664 114.528 97.0254 114.249C97.1875 113.967 97.4081 113.748 97.687 113.593C97.9659 113.437 98.2806 113.359 98.6309 113.359C99.1789 113.359 99.6104 113.526 99.9249 113.86C100.24 114.191 100.397 114.637 100.397 115.198L100.392 118.75H99.526ZM93.2402 118.75V113.495H94.0137V114.901H94.1111V118.75H93.2402ZM96.388 118.75L96.3928 115.422C96.3928 115.02 96.289 114.705 96.0815 114.478C95.8739 114.248 95.5982 114.133 95.2544 114.133C94.9139 114.133 94.6381 114.249 94.4274 114.483C94.2165 114.716 94.1111 115.026 94.1111 115.412L93.6538 115.14C93.6538 114.799 93.7348 114.494 93.897 114.225C94.0591 113.956 94.2798 113.745 94.5587 113.593C94.8377 113.437 95.1538 113.359 95.5074 113.359C95.8609 113.359 96.1691 113.434 96.4318 113.583C96.6945 113.732 96.8972 113.946 97.04 114.225C97.1826 114.501 97.2539 114.83 97.2539 115.213L97.2491 118.75H96.388ZM103.65 118.896C103.134 118.896 102.684 118.782 102.298 118.555C101.915 118.325 101.617 118.005 101.403 117.597C101.188 117.185 101.081 116.705 101.081 116.157C101.081 115.582 101.187 115.086 101.398 114.668C101.608 114.246 101.902 113.922 102.278 113.695C102.658 113.465 103.102 113.349 103.611 113.349C104.14 113.349 104.589 113.471 104.959 113.714C105.332 113.958 105.611 114.305 105.796 114.755C105.984 115.206 106.065 115.743 106.039 116.366H105.163V116.054C105.154 115.409 105.022 114.927 104.769 114.609C104.516 114.288 104.14 114.128 103.64 114.128C103.105 114.128 102.698 114.3 102.419 114.644C102.14 114.987 102.001 115.48 102.001 116.123C102.001 116.742 102.14 117.222 102.419 117.563C102.698 117.903 103.096 118.073 103.611 118.073C103.958 118.073 104.26 117.994 104.516 117.835C104.772 117.676 104.973 117.447 105.119 117.149L105.951 117.436C105.747 117.9 105.439 118.26 105.027 118.516C104.618 118.769 104.159 118.896 103.65 118.896ZM101.709 116.366V115.67H105.591V116.366H101.709ZM106.879 118.75V113.495H107.652V114.765L107.526 114.6C107.588 114.438 107.667 114.288 107.764 114.152C107.865 114.016 107.977 113.904 108.1 113.816C108.236 113.706 108.39 113.622 108.562 113.563C108.734 113.505 108.909 113.471 109.088 113.461C109.266 113.448 109.433 113.46 109.589 113.495V114.308C109.407 114.259 109.208 114.246 108.99 114.269C108.773 114.292 108.572 114.371 108.387 114.507C108.218 114.627 108.087 114.773 107.993 114.945C107.902 115.117 107.839 115.304 107.803 115.505C107.768 115.702 107.75 115.905 107.75 116.113V118.75H106.879Z" fill="white"/>
</g>
</g>
<path d="M0.0137389 93.5037H6.51857H24.8285V112.917C24.8285 112.917 24.8285 114.123 24.5874 114.484C24.3463 114.846 23.8648 114.846 23.8648 114.846H0.615937H0.0137389C0.0137389 114.846 -0.0865047 114.455 0.254558 113.881C0.884558 112.822 2.14865 111.085 2.18202 109.661C2.23651 107.336 -0.0037322 106.441 0.0137389 104.115C0.0308812 101.832 2.21835 100.97 2.18202 98.6886C2.1577 97.1614 0.885125 95.4904 0.254507 94.4683C-0.0211794 94.0215 0.0137389 93.5037 0.0137389 93.5037Z" fill="#F77100"/>
<path d="M7.7233 82.6515H75.0604V107.852H7.7233C7.7233 107.852 7.18125 107.852 6.88006 108.214C6.57886 108.576 6.5187 109.299 6.5187 109.299V84.0985C6.5187 84.0985 6.45854 83.7368 6.75964 83.1339C7.06073 82.531 7.7233 82.6515 7.7233 82.6515Z" fill="#FA913B"/>
<path d="M24.8286 107.852H7.72328C7.72328 107.852 7.18123 107.852 6.88004 108.214C6.57884 108.576 6.51868 109.299 6.51868 109.299C6.51868 109.299 6.51868 109.99 6.88004 110.385C7.24139 110.779 7.84374 110.746 7.84374 110.746H19.2874C19.2874 110.746 21.3352 110.867 22.6603 111.59C23.9854 112.314 24.8286 113.037 24.8286 113.037V107.852Z" fill="#C35A01"/>
<path d="M149.986 93.5037H143.481H125.172V112.917C125.172 112.917 125.172 114.123 125.413 114.484C125.654 114.846 126.135 114.846 126.135 114.846H149.384H149.986C149.986 114.846 150.087 114.455 149.745 113.881C149.115 112.822 147.851 111.085 147.818 109.661C147.763 107.336 150.004 106.441 149.986 104.115C149.969 101.832 147.782 100.97 147.818 98.6886C147.842 97.1614 149.115 95.4903 149.745 94.4683C150.021 94.0215 149.986 93.5037 149.986 93.5037Z" fill="#F77100"/>
<path d="M142.277 82.6515H74.9398V107.852H142.277C142.277 107.852 142.819 107.852 143.12 108.214C143.421 108.576 143.481 109.299 143.481 109.299V84.0985C143.481 84.0985 143.542 83.7367 143.24 83.1339C142.939 82.531 142.277 82.6515 142.277 82.6515Z" fill="#FA913B"/>
<path d="M125.172 107.852H142.277C142.277 107.852 142.819 107.852 143.12 108.214C143.421 108.576 143.482 109.299 143.482 109.299C143.482 109.299 143.482 109.99 143.12 110.385C142.759 110.779 142.157 110.746 142.157 110.746H130.713C130.713 110.746 128.665 110.867 127.34 111.59C126.015 112.314 125.172 113.037 125.172 113.037V107.852Z" fill="#C35A01"/>
<path d="M119.823 97.9194L121.614 97.6464C121.69 97.9935 121.844 98.258 122.077 98.4401C122.31 98.6178 122.636 98.7067 123.055 98.7067C123.516 98.7067 123.863 98.6221 124.096 98.4528C124.253 98.3342 124.331 98.1755 124.331 97.9766C124.331 97.8411 124.289 97.7289 124.204 97.64C124.115 97.5554 123.916 97.4771 123.607 97.4051C122.168 97.0876 121.256 96.7977 120.871 96.5352C120.337 96.1712 120.071 95.6654 120.071 95.0177C120.071 94.4336 120.301 93.9426 120.763 93.5447C121.224 93.1468 121.94 92.9479 122.909 92.9479C123.832 92.9479 124.517 93.0981 124.966 93.3987C125.415 93.6992 125.724 94.1437 125.893 94.732L124.211 95.0431C124.139 94.7807 124.001 94.5796 123.798 94.44C123.599 94.3003 123.313 94.2304 122.941 94.2304C122.471 94.2304 122.134 94.296 121.931 94.4273C121.796 94.5204 121.728 94.641 121.728 94.7892C121.728 94.9162 121.787 95.0241 121.906 95.113C122.067 95.2315 122.621 95.3987 123.569 95.6146C124.522 95.8305 125.186 96.095 125.563 96.4083C125.935 96.7257 126.122 97.1681 126.122 97.7353C126.122 98.3533 125.863 98.8845 125.347 99.329C124.831 99.7734 124.067 99.9956 123.055 99.9956C122.136 99.9956 121.408 99.8094 120.871 99.4369C120.337 99.0644 119.988 98.5586 119.823 97.9194Z" fill="white"/>
<path d="M111.588 99.8433L109.455 93.1003H111.188L112.452 97.5194L113.614 93.1003H115.334L116.458 97.5194L117.747 93.1003H119.506L117.341 99.8433H115.626L114.464 95.5067L113.322 99.8433H111.588Z" fill="white"/>
<path d="M106.997 97.6972L108.775 97.9956C108.547 98.6475 108.185 99.1448 107.689 99.4877C107.198 99.8263 106.583 99.9956 105.842 99.9956C104.669 99.9956 103.802 99.6126 103.239 98.8464C102.794 98.2326 102.572 97.458 102.572 96.5225C102.572 95.4051 102.864 94.531 103.448 93.9003C104.032 93.2653 104.771 92.9479 105.664 92.9479C106.667 92.9479 107.459 93.2801 108.039 93.9447C108.619 94.605 108.896 95.6188 108.87 96.986H104.401C104.413 97.5152 104.557 97.9279 104.832 98.2242C105.107 98.5162 105.45 98.6623 105.861 98.6623C106.14 98.6623 106.375 98.5861 106.566 98.4337C106.756 98.2813 106.9 98.0358 106.997 97.6972ZM107.099 95.894C107.086 95.3775 106.953 94.986 106.699 94.7193C106.445 94.4484 106.136 94.313 105.772 94.313C105.383 94.313 105.061 94.4548 104.807 94.7384C104.553 95.022 104.428 95.4072 104.432 95.894H107.099Z" fill="white"/>
<path d="M99.4734 92.1859V90.5351H101.258V92.1859H99.4734ZM99.4734 99.8432V93.1002H101.258V99.8432H99.4734Z" fill="white"/>
<path d="M94.0892 99.8433L91.3717 93.1003H93.2448L94.5146 96.5416L94.8829 97.6908C94.9803 97.3988 95.0416 97.2062 95.067 97.113C95.1263 96.9226 95.1898 96.7321 95.2575 96.5416L96.5401 93.1003H98.3751L95.6956 99.8433H94.0892Z" fill="white"/>
<path d="M88.9018 97.6972L90.6797 97.9956C90.4511 98.6475 90.0892 99.1448 89.5939 99.4877C89.1029 99.8263 88.487 99.9956 87.7462 99.9956C86.5737 99.9956 85.706 99.6126 85.143 98.8464C84.6985 98.2326 84.4763 97.458 84.4763 96.5225C84.4763 95.4051 84.7684 94.531 85.3525 93.9003C85.9367 93.2653 86.6753 92.9479 87.5685 92.9479C88.5717 92.9479 89.3632 93.2801 89.9431 93.9447C90.523 94.605 90.8003 95.6188 90.7749 96.986H86.3049C86.3176 97.5152 86.4616 97.9279 86.7367 98.2242C87.0118 98.5162 87.3547 98.6623 87.7653 98.6623C88.0447 98.6623 88.2796 98.5861 88.4701 98.4337C88.6606 98.2813 88.8045 98.0358 88.9018 97.6972ZM89.0034 95.894C88.9907 95.3775 88.8574 94.986 88.6034 94.7193C88.3494 94.4484 88.0404 94.313 87.6764 94.313C87.287 94.313 86.9653 94.4548 86.7113 94.7384C86.4573 95.022 86.3325 95.4072 86.3367 95.894H89.0034Z" fill="white"/>
<path d="M75.6189 99.8432V90.5351H79.5746C80.5693 90.5351 81.291 90.6197 81.7397 90.789C82.1926 90.9541 82.5545 91.2504 82.8254 91.678C83.0963 92.1055 83.2318 92.5944 83.2318 93.1447C83.2318 93.8431 83.0265 94.4209 82.6159 94.878C82.2053 95.331 81.5915 95.6167 80.7746 95.7352C81.1809 95.9722 81.5153 96.2326 81.7778 96.5162C82.0445 96.7998 82.4021 97.3035 82.8508 98.0273L83.9874 99.8432H81.7397L80.3809 97.8178C79.8984 97.094 79.5682 96.6389 79.3904 96.4527C79.2126 96.2622 79.0243 96.1331 78.8253 96.0654C78.6264 95.9934 78.311 95.9574 77.8793 95.9574H77.4983V99.8432H75.6189ZM77.4983 94.4717H78.8888C79.7904 94.4717 80.3534 94.4336 80.5778 94.3574C80.8021 94.2812 80.9778 94.15 81.1048 93.9637C81.2317 93.7775 81.2952 93.5447 81.2952 93.2653C81.2952 92.9521 81.2106 92.7002 81.0413 92.5097C80.8762 92.315 80.6412 92.1923 80.3365 92.1415C80.1841 92.1203 79.7269 92.1097 78.965 92.1097H77.4983V94.4717Z" fill="white"/>
<path d="M70.2156 99.8432H68.5585V98.8527C68.2833 99.2379 67.9574 99.5258 67.5807 99.7163C67.2082 99.9025 66.8314 99.9956 66.4505 99.9956C65.6758 99.9956 65.0113 99.6845 64.4568 99.0623C63.9065 98.4358 63.6313 97.5638 63.6313 96.4463C63.6313 95.3034 63.9001 94.4357 64.4377 93.8431C64.9753 93.2463 65.6547 92.9478 66.4759 92.9478C67.2293 92.9478 67.8812 93.2611 68.4315 93.8875V90.5351H70.2156V99.8432ZM65.4536 96.3257C65.4536 97.0453 65.5531 97.5659 65.752 97.8876C66.0399 98.3533 66.442 98.5861 66.9584 98.5861C67.369 98.5861 67.7182 98.4125 68.0061 98.0654C68.2939 97.7141 68.4378 97.1913 68.4378 96.4971C68.4378 95.7225 68.2981 95.1659 68.0188 94.8272C67.7394 94.4844 67.3817 94.3129 66.9457 94.3129C66.5224 94.3129 66.1669 94.4823 65.879 94.8209C65.5954 95.1553 65.4536 95.6569 65.4536 96.3257Z" fill="white"/>
<path d="M60.698 97.6972L62.4758 97.9956C62.2472 98.6475 61.8853 99.1448 61.39 99.4877C60.899 99.8263 60.2831 99.9956 59.5424 99.9956C58.3699 99.9956 57.5021 99.6126 56.9391 98.8464C56.4947 98.2326 56.2725 97.458 56.2725 96.5225C56.2725 95.4051 56.5645 94.531 57.1487 93.9003C57.7328 93.2653 58.4715 92.9479 59.3646 92.9479C60.3678 92.9479 61.1594 93.2801 61.7393 93.9447C62.3192 94.605 62.5964 95.6188 62.571 96.986H58.1011C58.1138 97.5152 58.2577 97.9279 58.5328 98.2242C58.808 98.5162 59.1508 98.6623 59.5614 98.6623C59.8408 98.6623 60.0757 98.5861 60.2662 98.4337C60.4567 98.2813 60.6006 98.0358 60.698 97.6972ZM60.7996 95.894C60.7869 95.3775 60.6535 94.986 60.3995 94.7193C60.1456 94.4484 59.8366 94.313 59.4725 94.313C59.0831 94.313 58.7614 94.4548 58.5074 94.7384C58.2535 95.022 58.1286 95.4072 58.1328 95.894H60.7996Z" fill="white"/>
<path d="M53.1738 92.1859V90.5351H54.958V92.1859H53.1738ZM53.1738 99.8432V93.1002H54.958V99.8432H53.1738Z" fill="white"/>
<path d="M48.0627 93.1002H49.0532V92.5922C49.0532 92.025 49.1125 91.6017 49.231 91.3224C49.3538 91.043 49.576 90.8165 49.8977 90.643C50.2236 90.4652 50.6342 90.3763 51.1295 90.3763C51.6374 90.3763 52.1348 90.4525 52.6216 90.6049L52.3803 91.8494C52.0967 91.7816 51.8237 91.7478 51.5612 91.7478C51.303 91.7478 51.1168 91.8092 51.0025 91.9319C50.8924 92.0504 50.8374 92.2811 50.8374 92.624V93.1002H52.1708V94.5034H50.8374V99.8432H49.0532V94.5034H48.0627V93.1002Z" fill="white"/>
<path d="M45.2246 92.1859V90.5351H47.0088V92.1859H45.2246ZM45.2246 99.8432V93.1002H47.0088V99.8432H45.2246Z" fill="white"/>
<path d="M41.8657 99.8433H40.0815V93.1002H41.7387V94.059C42.0223 93.6061 42.2763 93.3077 42.5007 93.1637C42.7292 93.0198 42.9874 92.9479 43.2753 92.9479C43.6816 92.9479 44.0732 93.06 44.4499 93.2844L43.8975 94.84C43.597 94.6453 43.3176 94.5479 43.0594 94.5479C42.8097 94.5479 42.598 94.6177 42.4245 94.7574C42.2509 94.8929 42.1133 95.1405 42.0117 95.5003C41.9144 95.8601 41.8657 96.6136 41.8657 97.7607V99.8433Z" fill="white"/>
<path d="M36.8244 97.6972L38.6023 97.9956C38.3737 98.6475 38.0118 99.1448 37.5165 99.4877C37.0255 99.8263 36.4096 99.9956 35.6688 99.9956C34.4963 99.9956 33.6286 99.6126 33.0656 98.8464C32.6212 98.2326 32.3989 97.458 32.3989 96.5225C32.3989 95.4051 32.691 94.531 33.2751 93.9003C33.8593 93.2653 34.5979 92.9479 35.4911 92.9479C36.4943 92.9479 37.2858 93.2801 37.8657 93.9447C38.4456 94.605 38.7229 95.6188 38.6975 96.986H34.2275C34.2402 97.5152 34.3842 97.9279 34.6593 98.2242C34.9344 98.5162 35.2773 98.6623 35.6879 98.6623C35.9673 98.6623 36.2022 98.5861 36.3927 98.4337C36.5832 98.2813 36.7271 98.0358 36.8244 97.6972ZM36.926 95.894C36.9133 95.3775 36.78 94.986 36.526 94.7193C36.272 94.4484 35.963 94.313 35.599 94.313C35.2096 94.313 34.8879 94.4548 34.6339 94.7384C34.3799 95.022 34.2551 95.4072 34.2593 95.894H36.926Z" fill="white"/>
<path d="M27.3573 99.8432L24.0303 90.5351H26.0684L28.424 97.4241L30.7035 90.5351H32.6972L29.3637 99.8432H27.3573Z" fill="white"/>
</g>
<defs>
<clipPath id="clip0_255_823">
<rect width="150" height="150" fill="white"/>
</clipPath>
<clipPath id="clip1_255_823">
<rect width="70.0582" height="11.6764" fill="white" transform="translate(40.2191 109.846)"/>
</clipPath>
</defs>
</svg>
