<svg width="119" height="137" viewBox="0 0 119 137" fill="none" xmlns="http://www.w3.org/2000/svg">
<g clip-path="url(#clip0_311_4842)">
<path d="M6.45618 107.539L59.3964 136.773L112.337 107.539V0.0554504H6.45618V107.539Z" fill="#DDDDDD"/>
<path d="M111.691 107.158L59.3964 136.037L7.10181 107.158V0.700378H111.691V107.158Z" stroke="black" stroke-width="1.28979"/>
<path d="M11.6211 103.847L59.3964 130.324L107.172 103.847V6.50439H11.6211V103.847Z" fill="white"/>
<path d="M51.946 95.4998L53.6349 98.9177L57.4105 99.4646L54.6782 102.124L55.3239 105.88L51.9473 104.107L48.5708 105.88L49.2164 102.124L46.4841 99.4646L50.2584 98.9165L51.946 95.4998ZM67.9081 95.4998L69.5971 98.9177L73.3713 99.4646L70.6404 102.124L71.286 105.88L67.9081 104.107L64.5316 105.88L65.1772 102.124L62.445 99.4646L66.2205 98.9165L67.9081 95.4998ZM59.6934 108.46L61.3823 111.878L65.1578 112.426L62.4256 115.084L63.0712 118.841L59.6946 117.066L56.3181 118.841L56.9637 115.084L54.2315 112.426L58.0057 111.876L59.6934 108.46Z" fill="#FF492C"/>
<path d="M37.0929 64.7912C35.6984 64.7912 34.4898 64.5281 33.4672 64.0019C32.4895 63.5039 31.6809 62.7285 31.1429 61.7731C30.6006 60.798 30.3295 59.645 30.3295 58.3139V48.2381H34.0714V58.3139C34.0714 58.933 34.1954 59.467 34.4433 59.9158C34.6912 60.3647 35.0399 60.7129 35.4892 60.9605C35.9541 61.2082 36.5041 61.332 37.1394 61.332C37.7592 61.332 38.3015 61.2082 38.7663 60.9605C39.2312 60.7129 39.5876 60.3647 39.8355 59.9158C40.0834 59.467 40.2073 58.933 40.2073 58.3139V48.2381H43.9493V58.3139C43.9493 59.645 43.6704 60.798 43.1126 61.7731C42.5703 62.7327 41.7801 63.4756 40.7419 64.0019C39.7193 64.5281 38.5029 64.7912 37.0929 64.7912ZM50.8561 64.768C50.0968 64.768 49.3841 64.6597 48.7178 64.443C48.0928 64.2403 47.51 63.9256 46.9979 63.5143C46.524 63.1056 46.1571 62.5876 45.9288 62.0053L48.927 60.7516C49.1284 61.1385 49.4073 61.4326 49.7637 61.6338C50.1201 61.8195 50.4842 61.9124 50.8561 61.9124C51.2279 61.9124 51.5223 61.8505 51.7393 61.7267C51.9562 61.5874 52.0647 61.4016 52.0647 61.1695C52.0672 61.0525 52.0384 60.937 51.9812 60.835C51.924 60.7329 51.8404 60.648 51.7393 60.5891C51.5223 60.4498 51.2047 60.326 50.7863 60.2176L49.7637 59.9855C48.6946 59.7069 47.8656 59.2425 47.2768 58.5925C46.7039 57.9829 46.3877 57.1766 46.3936 56.3405C46.3936 55.1488 46.8042 54.2278 47.6254 53.5778C48.4466 52.9277 49.5855 52.6027 51.042 52.6027C51.8787 52.6027 52.607 52.7188 53.2268 52.951C53.862 53.1676 54.3889 53.4772 54.8072 53.8796C55.2411 54.2665 55.551 54.7154 55.7369 55.2261L52.8549 56.4334C52.7464 56.1238 52.5218 55.8839 52.1809 55.7137C51.8419 55.5439 51.4677 55.4564 51.0885 55.4583C50.7476 55.4583 50.4842 55.5357 50.2983 55.6905C50.2102 55.7592 50.1391 55.8474 50.0908 55.948C50.0424 56.0487 50.0179 56.1592 50.0194 56.2709C50.0194 56.4566 50.1278 56.6191 50.3448 56.7584C50.5772 56.8822 50.9103 56.9983 51.3442 57.1067L52.576 57.4085C53.3042 57.5942 53.9163 57.8805 54.4121 58.2675C54.9079 58.6389 55.2798 59.08 55.5277 59.5908C55.7756 60.0861 55.8996 60.62 55.8996 61.1927C55.8996 61.9356 55.6827 62.5779 55.2488 63.1196C54.8305 63.6459 54.2417 64.056 53.4824 64.3501C52.7232 64.6287 51.8477 64.768 50.8561 64.768ZM63.1873 64.768C61.9774 64.768 60.9083 64.5126 59.9786 64.0019C59.0653 63.5072 58.3086 62.7674 57.7938 61.866C57.267 60.9528 57.0036 59.8926 57.0036 58.6854C57.0036 57.4781 57.267 56.4179 57.7938 55.5047C58.3086 54.6033 59.0653 53.8635 59.9786 53.3688C60.9238 52.8581 62.0084 52.6027 63.2325 52.6027C64.3326 52.6027 65.3242 52.8658 66.2074 53.3921C67.0906 53.9183 67.7879 54.7076 68.2992 55.7601C68.826 56.7971 69.0895 58.0817 69.0895 59.614H60.3517L60.7469 59.1729C60.7469 59.6991 60.8553 60.1634 61.0722 60.5659C61.2892 60.9683 61.5913 61.2778 61.9787 61.4945C62.366 61.6957 62.7999 61.7963 63.2802 61.7963C63.8535 61.7963 64.3339 61.6725 64.7212 61.4249C65.1086 61.1617 65.3798 60.8367 65.5347 60.4498L68.7654 61.5409C68.4795 62.2508 68.0248 62.8803 67.4406 63.375C66.8828 63.8548 66.2397 64.2108 65.5115 64.443C64.7566 64.6634 63.9737 64.7729 63.1873 64.768ZM60.8385 57.6871L60.4667 57.1995H65.6729L65.3242 57.6871C65.3242 57.0989 65.208 56.6423 64.9756 56.3173C64.7638 55.9945 64.466 55.7372 64.1157 55.5744C63.7903 55.4196 63.4571 55.3422 63.1163 55.3422C62.7754 55.3422 62.4267 55.4196 62.0704 55.5744C61.7159 55.7404 61.4113 55.9966 61.1872 56.3173C60.9547 56.6423 60.8385 57.0989 60.8385 57.6871ZM73.2859 58.4764C73.2859 57.2227 73.5351 56.178 74.031 55.3422C74.541 54.5064 75.1763 53.8796 75.9355 53.4617C76.6759 53.0526 77.5078 52.8369 78.354 52.8349V56.3637C77.6727 56.3599 76.9934 56.4379 76.3306 56.5959C75.7109 56.7507 75.2073 56.9906 74.8199 57.3156C74.4325 57.6251 74.2389 58.0276 74.2389 58.5228L73.2859 58.4764ZM70.6144 64.4894V52.8813H74.2414V64.4894H70.6144ZM84.2446 64.768C83.4853 64.768 82.7726 64.6597 82.1063 64.443C81.4813 64.2403 80.8985 63.9256 80.3864 63.5143C79.9125 63.1056 79.5455 62.5876 79.3172 62.0053L82.3155 60.7516C82.5169 61.1385 82.7958 61.4326 83.1522 61.6338C83.5086 61.8195 83.8727 61.9124 84.2446 61.9124C84.6164 61.9124 84.9108 61.8505 85.1278 61.7267C85.3447 61.5874 85.4531 61.4016 85.4531 61.1695C85.4557 61.0525 85.4269 60.937 85.3697 60.835C85.3125 60.7329 85.2289 60.648 85.1278 60.5891C84.9108 60.4498 84.5932 60.326 84.1748 60.2176L83.1522 59.9855C82.083 59.7069 81.2541 59.2425 80.6653 58.5925C80.0924 57.9829 79.7762 57.1766 79.7821 56.3405C79.7821 55.1488 80.1927 54.2278 81.0139 53.5778C81.8351 52.9277 82.974 52.6027 84.4305 52.6027C85.2672 52.6027 85.9955 52.7188 86.6152 52.951C87.2505 53.1676 87.7773 53.4772 88.1957 53.8796C88.6296 54.2665 88.9394 54.7154 89.1254 55.2261L86.2434 56.4334C86.1349 56.1238 85.9102 55.8839 85.5693 55.7137C85.2304 55.5439 84.8561 55.4564 84.477 55.4583C84.1361 55.4583 83.8727 55.5357 83.6867 55.6905C83.5986 55.7592 83.5276 55.8474 83.4792 55.948C83.4309 56.0487 83.4064 56.1592 83.4078 56.2709C83.4078 56.4566 83.5163 56.6191 83.7332 56.7584C83.9656 56.8822 84.2988 56.9983 84.7326 57.1067L85.9645 57.4085C86.6927 57.5942 87.3048 57.8805 87.8006 58.2675C88.2964 58.6389 88.6683 59.08 88.9162 59.5908C89.1641 60.0861 89.2881 60.62 89.2881 61.1927C89.2881 61.9356 89.0712 62.5779 88.6373 63.1196C88.2189 63.6459 87.6301 64.056 86.8709 64.3501C86.1117 64.6287 85.2362 64.768 84.2446 64.768ZM18.7717 85.126V68.8747H22.5137V81.69H29.4385V85.126H18.7717ZM36.6655 85.4046C35.4414 85.4046 34.3646 85.1492 33.4349 84.6385C32.5203 84.127 31.7583 83.3818 31.2269 82.4794C30.7001 81.5662 30.4367 80.5137 30.4367 79.322C30.4367 78.1302 30.6923 77.0777 31.2036 76.1646C31.7184 75.2631 32.4751 74.5234 33.3884 74.0287C34.3336 73.5024 35.4027 73.2393 36.5958 73.2393C37.8199 73.2393 38.8968 73.5024 39.8264 74.0287C40.7462 74.5145 41.5051 75.2565 42.0112 76.1646C42.538 77.0777 42.8014 78.1302 42.8014 79.322C42.8014 80.5137 42.538 81.5662 42.0112 82.4794C41.5062 83.3862 40.7575 84.134 39.8497 84.6385C38.92 85.1492 37.8586 85.4046 36.6655 85.4046ZM36.6655 82.0615C37.1304 82.0615 37.541 81.9454 37.8973 81.7132C38.2692 81.4811 38.5559 81.1638 38.7573 80.7614C38.9808 80.315 39.0925 79.821 39.0827 79.322C39.0827 78.7803 38.9742 78.3082 38.7573 77.9058C38.5708 77.5047 38.2721 77.1661 37.8973 76.9307C37.5132 76.6951 37.0697 76.5743 36.619 76.5825C36.1387 76.5825 35.7126 76.6985 35.3407 76.9307C34.9629 77.1693 34.6575 77.5064 34.4575 77.9058C34.2561 78.3082 34.1554 78.7803 34.1554 79.322C34.1554 79.8637 34.2561 80.3435 34.4575 80.7614C34.6745 81.1638 34.9688 81.4811 35.3407 81.7132C35.7281 81.9454 36.1697 82.0615 36.6655 82.0615ZM47.9766 85.126L52.2299 73.5179H55.9719L51.2538 85.126H47.9766ZM47.6513 85.126L42.9331 73.5179H46.6751L50.9284 85.126H47.6513ZM62.4719 85.4046C61.2633 85.4046 60.1942 85.1492 59.2645 84.6385C58.3512 84.1438 57.5945 83.404 57.0798 82.5026C56.553 81.5894 56.2895 80.5292 56.2895 79.322C56.2895 78.1147 56.553 77.0545 57.0798 76.1413C57.5945 75.2399 58.3512 74.5001 59.2645 74.0055C60.2097 73.4947 61.2943 73.2393 62.5184 73.2393C63.6185 73.2393 64.6102 73.5024 65.4934 74.0287C66.3766 74.5549 67.0739 75.3443 67.5852 76.3967C68.112 77.4337 68.3754 78.7183 68.3754 80.2506H59.6364L60.0315 79.8095C60.0315 80.3357 60.14 80.8001 60.3569 81.2025C60.5738 81.6049 60.876 81.9144 61.2633 82.1311C61.6507 82.3323 62.0846 82.4329 62.5649 82.4329C63.1382 82.4329 63.6185 82.3091 64.0059 82.0615C64.3933 81.7984 64.6644 81.4733 64.8194 81.0864L68.05 82.1776C67.7642 82.8874 67.3095 83.5169 66.7252 84.0116C66.1674 84.4914 65.5244 84.8474 64.7961 85.0796C64.0413 85.3 63.2584 85.4095 62.4719 85.4046ZM60.1245 78.3237L59.7526 77.8361H64.9588L64.6102 78.3237C64.6102 77.7355 64.494 77.2789 64.2616 76.9539C64.0498 76.6311 63.7519 76.3738 63.4016 76.211C63.0762 76.0562 62.7431 75.9788 62.4022 75.9788C62.0613 75.9788 61.7127 76.0562 61.3563 76.211C61.0018 76.377 60.6972 76.6332 60.4731 76.9539C60.2407 77.2789 60.1245 77.7355 60.1245 78.3237ZM82.2729 85.4278C80.8783 85.4278 79.6698 85.1647 78.6471 84.6385C77.6695 84.1405 76.8609 83.3652 76.3229 82.4097C75.7806 81.4346 75.5094 80.2816 75.5094 78.9505V68.8747H79.2514V78.9505C79.2514 79.5696 79.3753 80.1036 79.6233 80.5524C79.8712 81.0013 80.2198 81.3495 80.6692 81.5971C81.134 81.8448 81.6841 81.9686 82.3193 81.9686C82.9391 81.9686 83.4814 81.8448 83.9463 81.5971C84.4111 81.3495 84.7675 81.0013 85.0154 80.5524C85.2633 80.1036 85.3873 79.5696 85.3873 78.9505V68.8747H89.1293V78.9505C89.1293 80.2816 88.8503 81.4346 88.2925 82.4097C87.7502 83.3693 86.96 84.1122 85.9219 84.6385C84.8992 85.1647 83.6829 85.4278 82.2729 85.4278ZM96.0347 85.4046C95.2755 85.4046 94.5627 85.2963 93.8965 85.0796C93.2715 84.8769 92.6887 84.5622 92.1765 84.1509C91.7027 83.7422 91.3357 83.2242 91.1074 82.6419L94.1056 81.3882C94.3071 81.7751 94.586 82.0692 94.9423 82.2704C95.2987 82.4561 95.6629 82.549 96.0347 82.549C96.4066 82.549 96.701 82.4871 96.9179 82.3633C97.1348 82.224 97.2433 82.0383 97.2433 81.8061C97.2459 81.6891 97.2171 81.5736 97.1598 81.4716C97.1026 81.3695 97.0191 81.2846 96.9179 81.2257C96.701 81.0864 96.3834 80.9626 95.965 80.8542L94.9423 80.6221C93.8732 80.3435 93.0442 79.8792 92.4554 79.2291C91.8826 78.6195 91.5663 77.8132 91.5723 76.9771C91.5723 75.7854 91.9829 74.8645 92.8041 74.2144C93.6253 73.5643 94.7642 73.2393 96.2207 73.2393C97.0574 73.2393 97.7856 73.3554 98.4054 73.5876C99.0407 73.8042 99.5675 74.1138 99.9859 74.5162C100.42 74.9031 100.73 75.352 100.916 75.8628L98.0335 77.07C97.9251 76.7604 97.7004 76.5205 97.3595 76.3503C97.0206 76.1805 96.6463 76.093 96.2671 76.0949C95.9263 76.0949 95.6629 76.1723 95.4769 76.3271C95.3888 76.3958 95.3178 76.484 95.2694 76.5847C95.221 76.6853 95.1966 76.7958 95.198 76.9075C95.198 77.0932 95.3065 77.2557 95.5234 77.395C95.7558 77.5188 96.089 77.6349 96.5228 77.7433L97.7546 78.0451C98.4829 78.2308 99.0949 78.5171 99.5908 78.9041C100.087 79.2755 100.458 79.7166 100.706 80.2274C100.954 80.7227 101.078 81.2566 101.078 81.8293C101.078 82.5722 100.861 83.2145 100.427 83.7563C100.009 84.2825 99.4203 84.6926 98.6611 84.9867C97.9018 85.2653 97.0264 85.4046 96.0347 85.4046Z" fill="black"/>
<path d="M0.645752 5.85951H92.3227V31.6553H0.645752V5.85951Z" fill="#DDDDDD"/>
<path d="M0.645752 5.85951H92.3227V31.6553H0.645752V5.85951Z" stroke="black" stroke-width="1.28979"/>
<path d="M18.2567 21.337V15.017H19.6035L21.4473 17.7436L23.2912 15.017H24.6289V21.337H23.3997V16.9491L21.4473 19.8202L19.495 16.9581V21.337H18.2567ZM26.9105 21.337V15.017H28.1488V21.337H26.9105ZM30.4265 21.337V15.017H31.6661V20.2084H34.4487V21.337H30.4265ZM36.1854 21.337V15.017H40.1895V16.1456H37.4237V17.5811H39.8098V18.6826H37.4237V20.2084H40.2256V21.337H36.1854ZM44.5357 21.4453C44.2335 21.4476 43.9323 21.4081 43.6409 21.328C43.3792 21.2565 43.1295 21.147 42.8997 21.0029C42.6966 20.8707 42.5139 20.7095 42.3574 20.5244C42.2258 20.3642 42.133 20.1757 42.0863 19.9737L43.2974 19.6125C43.3749 19.8176 43.5144 19.9943 43.7132 20.1452C43.9121 20.2897 44.1626 20.3645 44.4634 20.3709C44.7836 20.3774 45.0419 20.3077 45.2407 20.1633C45.3353 20.1037 45.4132 20.0211 45.4669 19.9231C45.5207 19.8252 45.5486 19.7152 45.548 19.6035C45.549 19.5075 45.5274 19.4125 45.485 19.3263C45.4427 19.24 45.3807 19.1649 45.304 19.1069C45.1148 18.9523 44.8919 18.844 44.6532 18.7909L43.8307 18.5743C43.5415 18.5039 43.2664 18.3848 43.0172 18.2221C42.7902 18.0683 42.6016 17.8644 42.4659 17.6263C42.3291 17.3744 42.2605 17.0912 42.267 16.8047C42.267 16.2088 42.4633 15.7457 42.8545 15.4143C43.2522 15.0776 43.8126 14.9087 44.5357 14.9087C44.9399 14.9087 45.2924 14.9693 45.5945 15.0892C45.9005 15.204 46.1575 15.3691 46.3615 15.5858C46.5668 15.8025 46.7231 16.0579 46.8315 16.3532L45.6307 16.7234C45.5536 16.5127 45.4145 16.3301 45.2317 16.1998C45.0182 16.049 44.7608 15.9728 44.4996 15.9831C44.1987 15.9831 43.9611 16.0527 43.7855 16.1907C43.7008 16.2623 43.6338 16.3526 43.5899 16.4544C43.546 16.5563 43.5263 16.6669 43.5324 16.7776C43.5324 16.9762 43.5996 17.1323 43.7313 17.2471C43.8707 17.3619 44.0567 17.4483 44.2917 17.5089L45.1232 17.7165C45.6655 17.8494 46.0878 18.0867 46.3886 18.4298C46.6908 18.7729 46.8406 19.1547 46.8406 19.5764C46.8406 19.9505 46.7502 20.2781 46.5694 20.5605C46.3886 20.8378 46.1265 21.0545 45.783 21.2106C45.4396 21.3666 45.0238 21.4453 44.5357 21.4453ZM50.1435 21.337V16.1456H48.2454V15.017H53.2709V16.1456H51.3818V21.337H50.1435ZM57.8805 21.4453C57.2414 21.4453 56.6758 21.3073 56.1813 21.03C55.7013 20.7552 55.3047 20.3559 55.0334 19.8744C54.7507 19.3571 54.6078 18.7752 54.6189 18.186C54.6189 17.5411 54.7571 16.9762 55.0347 16.4887C55.3123 15.9947 55.6919 15.6103 56.1735 15.333C56.6877 15.0495 57.2675 14.9063 57.8547 14.9177C58.4939 14.9177 59.0542 15.0596 59.5359 15.342C60.024 15.6194 60.4062 16.0037 60.6851 16.4977C60.9614 16.9852 61.0995 17.5476 61.0995 18.186C61.0995 18.818 60.9614 19.3804 60.6838 19.8744C60.4126 20.3619 60.033 20.7475 59.5449 21.03C59.0373 21.3134 58.462 21.4567 57.8805 21.4453ZM57.8805 20.3168C58.2666 20.3168 58.6036 20.2265 58.8928 20.0459C59.1885 19.8589 59.4171 19.6074 59.5798 19.2875C59.7537 18.9468 59.8406 18.5684 59.8329 18.186C59.8329 17.7643 59.7489 17.3941 59.5798 17.0755C59.4171 16.7599 59.1691 16.4962 58.864 16.3142C58.5588 16.1323 58.2087 16.0395 57.8534 16.0463C57.4996 16.0409 57.1512 16.1344 56.8478 16.3162C56.5443 16.4981 56.2978 16.7611 56.1361 17.0755C55.9682 17.3941 55.883 17.7643 55.883 18.186C55.883 18.6013 55.9669 18.9689 56.1361 19.2875C56.3039 19.6061 56.5402 19.8589 56.8411 20.0459C57.1419 20.2265 57.4893 20.3168 57.8805 20.3168ZM63.0067 21.337V15.017H64.2979L67.3904 19.2604V15.017H68.6196V21.337H67.3904L64.245 17.0123V21.337H63.0054H63.0067ZM70.9012 21.337V15.017H74.904V16.1456H72.1408V17.5811H74.527V18.6826H72.1408V20.2084H74.9428V21.337H70.9012Z" fill="black"/>
<path d="M92.3226 5.85951H118.147V31.6553H92.3226V5.85951Z" fill="#FF492C" stroke="black" stroke-width="1.28979"/>
<path fill-rule="evenodd" clip-rule="evenodd" d="M111.111 15.5858H108.795C108.857 15.2234 109.081 15.0209 109.536 14.7913L109.962 14.5746C110.727 14.1838 111.132 13.744 111.132 13.0269C111.14 12.8194 111.096 12.6132 111.005 12.4268C110.913 12.2404 110.777 12.0796 110.608 11.9589C110.264 11.701 109.845 11.5746 109.362 11.5746C108.976 11.5746 108.626 11.6726 108.304 11.8751C108.001 12.0541 107.757 12.3189 107.604 12.6361L108.276 13.3055C108.534 12.7818 108.914 12.5238 109.411 12.5238C109.83 12.5238 110.09 12.7405 110.09 13.0398C110.09 13.2913 109.963 13.5002 109.48 13.744L109.207 13.8768C108.613 14.1773 108.2 14.5191 107.961 14.9087C107.723 15.293 107.604 15.7883 107.604 16.3816V16.5415H111.111V15.5871V15.5858ZM110.796 17.6507H106.966L105.05 20.9655H108.881L110.796 24.279L112.711 20.9642L110.796 17.6495V17.6507Z" fill="white"/>
<path fill-rule="evenodd" clip-rule="evenodd" d="M105.376 23.1775C104.202 23.1765 103.077 22.7106 102.246 21.882C101.416 21.0534 100.949 19.9297 100.947 18.7574C100.948 17.585 101.416 16.4611 102.246 15.6324C103.076 14.8038 104.202 14.338 105.376 14.3373L106.891 11.1696C105.768 10.945 104.608 10.9723 103.496 11.2496C102.383 11.5268 101.347 12.0471 100.46 12.773C99.5739 13.4988 98.8597 14.4121 98.3693 15.4469C97.8789 16.4818 97.6245 17.6124 97.6244 18.7574C97.6247 19.7738 97.8255 20.7801 98.2152 21.719C98.605 22.6578 99.176 23.5108 99.8958 24.2292C100.616 24.9476 101.47 25.5173 102.41 25.9058C103.35 26.2943 104.358 26.4941 105.376 26.4935C107.016 26.4962 108.615 25.9767 109.94 25.0103L108.261 22.1083C107.485 22.7738 106.477 23.1788 105.376 23.1788V23.1775Z" fill="white"/>
<path d="M7.74735 38.7491L0 32.3002H7.74735V38.7491ZM111.045 38.7491L118.793 32.3002H111.045V38.7491Z" fill="black"/>
</g>
<defs>
<clipPath id="clip0_311_4842">
<rect width="119" height="137" fill="white"/>
</clipPath>
</defs>
</svg>
